<svg width="30" height="30" viewBox="0 0 30 30" fill="none" xmlns="http://www.w3.org/2000/svg">
<path d="M15 0L0 15L15 30L30 15L15 0ZM14.8738 9.73681C14.6875 9.90389 14.4866 10.0571 14.288 10.209C14.2549 10.2344 13.5352 10.7672 13.5196 10.7382C13.3682 10.4553 13.178 10.1918 12.9635 9.95395C12.8348 9.81114 12.6778 9.69262 12.5207 9.58296C12.3585 9.46989 12.1783 9.37565 11.9948 9.30309C11.7112 9.19084 11.4125 9.10655 11.1077 9.08282C10.8294 9.06127 10.5554 9.07559 10.288 9.14501C10.2781 9.15811 10.2685 9.17133 10.2588 9.18456C9.39229 10.4687 9.11842 12.3345 9.37033 13.8423C9.522 14.7499 9.92749 15.6337 10.6104 16.2502C11.3731 16.9389 12.39 17.1243 13.3745 16.994C13.3549 16.4388 13.3468 15.8826 13.3555 15.3276C13.3613 14.9572 13.3727 14.5869 13.3928 14.217C13.4014 14.0596 13.4112 13.9022 13.424 13.7452C13.4296 13.6765 13.4359 13.6074 13.4456 13.5391C13.4468 13.5311 13.4479 13.5232 13.4496 13.5153C13.4501 13.5133 13.4506 13.5116 13.4516 13.5099C13.4529 13.508 13.4541 13.5062 13.4555 13.5043C13.4543 13.5047 13.4531 13.5053 13.4518 13.5057C12.7155 13.5174 11.2427 13.5447 11.2427 13.5447L10.8007 13.5499C10.8007 13.5499 10.5404 13.5476 10.4104 13.5406C10.4432 13.4887 10.5365 13.4095 10.5365 13.4095L11.1223 12.9374C11.1223 12.9374 11.4154 12.7167 11.5649 12.6102C11.6202 12.572 11.7313 12.4957 11.7313 12.4957L11.8908 12.4082C11.8908 12.4082 12.4964 12.4161 12.7988 12.4109C13.1587 12.4049 13.5188 12.3973 13.8787 12.391C14.2299 12.3847 14.5809 12.3787 14.9321 12.3731C14.9311 12.3747 14.9299 12.3761 14.9289 12.3776C14.93 12.3775 14.9313 12.3772 14.9321 12.3772C14.9317 12.3779 14.9313 12.3784 14.9309 12.3791C14.9236 12.394 14.9243 12.4181 14.9224 12.4338C14.9169 12.4764 14.9127 12.519 14.9089 12.5617C14.9006 12.6533 14.894 12.745 14.8882 12.8368C14.8757 13.0274 14.8661 13.2181 14.858 13.4089C14.8411 13.8191 14.8332 14.2298 14.8343 14.6405C14.8357 15.2647 14.8513 15.8897 14.883 16.5131C14.8502 16.5651 14.8084 16.6087 14.757 16.6442C14.5706 16.8114 14.3697 16.9646 14.1712 17.1164C14.0256 17.2281 13.878 17.3371 13.7286 17.4436C13.7226 17.4477 13.7167 17.4518 13.7107 17.4559C13.6814 17.4771 13.6519 17.4984 13.6226 17.5197C13.5324 17.5857 13.4393 17.6472 13.3434 17.7045C12.6968 17.9946 12.0021 18.1615 11.2925 18.1615C11.2581 18.1615 11.2237 18.1611 11.1894 18.1603C10.2312 18.1385 9.38983 17.7951 8.77867 17.0344C8.30062 16.4396 8.02961 15.6994 7.89703 14.9479C7.59193 13.217 7.98119 10.9399 9.31482 9.69058C9.59333 9.42952 9.89393 9.19425 10.1958 8.96102C10.464 8.75343 10.7349 8.54189 11.0231 8.36185C11.137 8.29052 11.2508 8.21619 11.3723 8.15836C11.4777 8.10803 11.5867 8.06684 11.6981 8.03111C11.8949 7.96837 12.1059 7.94054 12.3123 7.93918C12.506 7.93782 12.7033 7.95159 12.8926 7.9936C13.2794 8.07925 13.6477 8.2181 13.9801 8.43605C14.4187 8.72356 14.7546 9.14651 15.0004 9.60588C14.9673 9.65757 14.9254 9.70135 14.8738 9.73681ZM20.6147 19.1809C19.784 19.8121 18.2057 19.6339 18.2057 19.6339L18.2123 19.6246C18.9956 19.4822 20.2284 18.2933 20.3945 17.5624C20.5607 16.8315 20.5607 15.436 19.73 14.9045C18.8994 14.373 17.7446 14.8309 17.7446 14.8309V22.7357C17.7446 22.9183 17.6639 23.0914 17.524 23.2088L16.4602 24.1319L16.4696 15.4266C17.3163 14.7122 17.9234 14.0296 19.0514 13.9154C19.5139 13.8686 20.2678 13.8568 20.6931 14.0618C21.1014 14.2586 21.4115 14.6107 21.6309 15.0008C21.8164 15.3305 21.9558 15.924 21.9696 16.179C21.9984 16.7112 21.9251 17.2503 21.7305 17.7464C21.5073 18.315 21.1096 18.8049 20.6147 19.1809Z" fill="currentColor"/>
</svg>
