<svg width="125" height="360" viewBox="0 0 125 360" fill="none" xmlns="http://www.w3.org/2000/svg">
<path d="M89.3538 359.346C89.3538 359.346 37.4875 359.346 26.1899 359.346C14.8923 359.346 -3.81599e-07 350.616 -8.30539e-07 340.346C-1.1448e-06 333.156 -1.54884e-06 323.913 -1.54884e-06 323.913L-2.60385e-06 299.777L20.0276 299.777L5.24004 317.093C5.24004 320.586 5.22412 325.58 5.20922 329.519C5.1969 332.942 7.96841 335.724 11.3921 335.724L14.2735 335.724L89.3538 335.724C92.9485 335.724 96.5432 333.67 96.5432 325.453C96.5432 317.237 93.9756 318.777 93.9756 318.777L46.2956 318.778L36.025 329.048L36.025 294.97L88.4783 294.97C88.4783 294.97 94.6437 307.226 103.733 319.805C105.901 322.806 109.381 326.994 112.6 331.511C121.438 343.917 115.644 358.727 100.418 359.137C95.7164 359.264 91.7412 359.346 89.3538 359.346Z" fill="#E9E7CF"/>
<path d="M66.4705 231.045L-1.63102e-06 252.533L-1.0474e-06 265.884L-5.31118e-07 277.696L-3.72844e-08 288.993L12.3247 275.642L85.8854 289.846L82.5444 282.699L56.8521 277.465L53.8814 276.903C50.7802 269.379 48.7723 263.307 48.3055 261.919L72.0556 254.188C70.2732 248.59 67.2382 235.732 66.4705 231.045ZM47.6168 275.618L22.2871 270.425L43.1409 263.621C45.3732 270.116 47.2882 274.803 47.6168 275.618Z" fill="#E9E7CF"/>
<path d="M-4.58592e-07 162.212L0 172.704L10.4914 162.212L63.1136 162.212C64.0513 150.401 66.3473 138.59 66.3473 138.59L-1.49115e-06 138.59L-4.58592e-07 162.212Z" fill="#E9E7CF"/>
<path d="M15.1326 68.1286C6.6661 68.787 -2.58706e-06 75.8608 -2.20962e-06 84.4958L-2.08656e-06 87.3109C-1.83868e-06 92.9818 2.87473 97.9815 7.24587 100.932L-1.49115e-06 100.932L-4.58592e-07 124.555L0 135.046L10.4914 124.555L69.4012 124.555C71.9755 113.553 76.6096 100.932 76.6096 100.932L13.8103 100.932C12.26 100.834 9.25172 100.163 9.25171 96.4353C9.25171 92.6285 13.4267 91.6949 16.4231 91.6949L80.2156 91.6949C84.064 81.8747 91.7001 68.0726 91.7001 68.0726L15.1331 68.0726L15.1331 68.1286L15.1326 68.1286Z" fill="#E9E7CF"/>
<path d="M34.6041 174.49C26.231 177.879 18.5753 174.264 18.5753 174.264C18.5753 174.264 25.5028 184.25 33.6961 186.765C36.8081 187.72 39.5663 187.845 42.7199 187.024C45.6408 186.263 48.5494 185.169 51.5726 186.125C55.1349 187.252 57.1248 190.22 57.1859 194.098L57.1859 201.693L-1.48548e-06 201.693L-4.52913e-07 225.316L0 235.677L10.3471 225.33L65.4702 225.406C63.8962 217.152 62.9133 205.063 62.7207 201.693C61.9961 190.252 61.9977 181.963 62.3885 173.052C62.3885 173.052 56.998 168.74 50.7966 168.251C42.5812 167.603 41.6861 171.624 34.6041 174.49Z" fill="#E9E7CF"/>
<path d="M10.8709 37.2159C6.13049 37.2159 5.1892 33.3731 5.1892 28.6328L5.19895 16.1017L21.3006 1.43277e-05L-2.65932e-06 1.52588e-05L-6.63398e-07 45.6614C-2.97018e-07 54.0432 6.795 60.8381 15.1768 60.8381L83.0339 60.8381C91.1743 60.8381 97.3305 57.8371 102.209 51.3204L113.08 36.9889C115.512 33.7408 117.598 29.7512 117.598 25.6933L117.598 23.6223L117.598 1.01184e-05L89.3672 1.13524e-05L35.9603 1.36869e-05L35.9603 23.6223L35.9603 34.0777L45.9181 23.6223L112.33 23.6223L111.516 24.8928C106.598 32.5715 100.675 37.2159 91.5558 37.2159L15.1768 37.2159L10.8709 37.2159Z" fill="#E9E7CF"/>
<path d="M98.8389 251.612C97.5941 252.313 96.6672 253.241 96.1573 254.299C95.4702 255.723 95.6571 258.206 95.731 258.934C96.0053 261.648 97.4257 263.272 99.0705 265.151C99.3493 265.47 99.6344 265.796 99.9219 266.136L100.009 266.239L124.535 266.265L121.604 262.886C121.227 262.439 120.676 262.182 120.091 262.182L98.7223 262.182C98.4948 261.495 97.8026 259.021 98.9627 257.208C100.292 255.131 103.928 255.07 105.909 255.521C107.825 255.956 110.958 259.274 111.317 261.247L111.362 261.378L111.857 261.741L111.913 261.245C111.934 261.063 112.392 256.795 110.62 254.463C109.519 253.015 108.122 251.929 106.58 251.324C105.248 250.801 103.726 250.569 102.181 250.652C101.443 250.691 99.7756 251.085 98.8389 251.612Z" fill="#E9E7CF"/>
<path d="M117.49 231.302C115.897 232.193 114.013 233.252 112.119 234.361C111.263 234.864 110.407 235.368 109.554 235.878C109.111 236.142 108.668 236.408 108.225 236.675L107.856 236.9C107.428 236.331 107.053 235.858 106.688 235.425L106.651 235.38C106.074 234.696 105.478 233.989 104.674 233.516C104.204 233.241 103.758 233.041 103.31 232.907C102.844 232.768 102.33 232.681 101.783 232.65C101.345 232.625 100.844 232.665 100.293 232.771C99.8602 232.854 99.4201 233.009 98.9836 233.231C98.4922 233.482 98.0983 233.756 97.7789 234.068C97.4939 234.348 97.0795 234.778 96.7826 235.288C96.2666 236.174 95.9975 237.194 95.9615 238.405C95.9317 239.419 96.114 240.475 96.4905 241.468C96.7077 242.041 96.9727 242.552 97.2993 243.029C98.0079 244.062 98.6842 244.96 99.359 245.767C99.6353 246.126 99.9367 246.507 100.243 246.846C100.352 247.004 100.489 247.135 100.649 247.236L100.72 247.281L100.804 247.281C101.915 247.281 103.028 247.302 104.14 247.323C104.697 247.334 105.254 247.345 105.811 247.352L124.292 247.614L124.175 247.234C124.119 247.053 124.028 246.887 123.922 246.763L123.638 246.35C123.373 245.98 123.104 245.614 122.811 245.231C122.443 244.751 122.064 244.255 121.674 243.823C121.565 243.666 121.428 243.534 121.268 243.433L121.199 243.389L103.304 243.135C102.721 243.127 102.138 243.116 101.554 243.105C100.827 243.092 100.101 243.078 99.3734 243.07C99.3231 242.613 99.3138 242.151 99.3451 241.694C99.3975 240.927 99.5988 239.824 100.258 238.936C100.576 238.509 100.884 238.176 101.203 237.918C101.522 237.658 101.891 237.437 102.298 237.261C103.067 236.929 103.991 236.803 104.9 236.904C105.429 236.963 105.864 237.06 106.232 237.201C106.601 237.344 106.955 237.522 107.283 237.731C107.376 237.869 107.474 238.002 107.566 238.126C107.753 238.4 107.944 238.671 108.142 238.935C108.602 239.56 109.023 240.101 109.425 240.586C109.601 240.806 109.79 241.021 109.998 241.236C110.082 241.313 110.257 241.475 110.539 241.285L110.843 241.097C111.088 240.947 111.333 240.799 111.579 240.65C112.121 240.324 112.663 239.999 113.207 239.677C115.087 238.559 116.807 237.561 118.464 236.625C120.19 235.65 121.921 234.686 123.648 233.736L123.81 233.648L123.81 233.469C123.81 233.223 122.856 231.948 122.446 231.41L122.41 231.364C122.049 230.892 121.675 230.404 121.292 229.981C121.182 229.822 121.046 229.691 120.886 229.59L120.741 229.499L120.592 229.581C119.558 230.152 118.523 230.726 117.49 231.302ZM106.968 236.228C106.967 236.228 106.967 236.228 106.967 236.227L107.037 236.181L106.968 236.228Z" fill="#E9E7CF"/>
<path d="M103.267 210.56C102.192 210.83 101.155 211.215 100.097 211.735C97.8264 212.85 96.2515 214.775 95.8838 216.885C95.7811 217.477 95.7585 218.025 95.8165 218.513C95.8786 219.036 96.0512 219.593 96.3172 220.122C96.5693 220.624 96.8867 221.078 97.2169 221.538L97.4007 221.789C97.4136 221.814 97.4285 221.838 97.4454 221.859C97.5995 222.118 97.7715 222.377 97.9533 222.626C98.3559 223.198 98.8165 223.81 99.3629 224.499L99.4451 224.603C99.7573 224.998 100.081 225.407 100.444 225.773C100.493 225.822 100.543 225.868 100.594 225.912C100.675 225.98 100.733 226.047 100.789 226.11C100.892 226.226 101.008 226.358 101.211 226.472C102.097 226.968 103.158 227.364 104.366 227.651C105.421 227.902 106.581 228.062 107.815 228.126C108.899 228.182 110.003 228.147 111.097 228.024C112.424 227.873 113.5 227.683 114.485 227.426C115.027 227.285 115.564 227.12 116.082 226.936C116.649 226.736 117.183 226.478 117.586 226.275C118.21 225.96 118.678 225.694 119.101 225.413C119.508 225.142 119.928 224.824 120.423 224.412C121.31 223.675 122.071 222.896 122.688 222.097C123.076 221.592 123.347 221.157 123.54 220.726C123.771 220.213 123.984 219.665 124.173 219.1L124.203 219.012L124.176 218.924C124.115 218.725 124.015 218.542 123.897 218.405L123.578 217.943C123.284 217.529 122.981 217.119 122.671 216.715C122.345 216.289 121.976 215.805 121.614 215.387C121.574 215.324 121.531 215.263 121.499 215.226L121.181 214.765C120.886 214.35 120.583 213.94 120.253 213.509C119.843 212.973 119.42 212.419 118.982 211.935C118.862 211.761 118.712 211.617 118.505 211.49C116.91 210.754 115.132 210.255 113.221 210.005C111.066 209.723 108.848 209.709 106.631 209.965C105.381 210.111 104.28 210.305 103.267 210.56ZM120.227 215.617C120.054 216.066 119.873 216.501 119.637 216.895C119.399 217.293 119.118 217.679 118.778 218.076C118.093 218.874 117.326 219.603 116.499 220.242C116.084 220.563 115.634 220.898 115.155 221.173C114.696 221.438 114.208 221.692 113.706 221.929C112.817 222.348 111.78 222.684 110.624 222.927C108.191 223.437 106.05 223.6 104.08 223.425C103.242 223.351 101.992 223.212 100.812 222.863C100.333 222.722 99.9021 222.564 99.4975 222.38C99.479 222.174 99.4774 221.967 99.4918 221.763C99.5237 221.324 99.5848 220.754 99.7722 220.238C99.9535 219.738 100.175 219.302 100.448 218.906C100.782 218.422 101.138 218.002 101.506 217.66C101.86 217.329 102.282 217.02 102.875 216.657C103.265 216.418 103.712 216.194 104.281 215.951C104.832 215.716 105.321 215.537 105.775 215.402C106.719 215.122 107.759 214.904 109.049 214.716C111.171 214.405 113.356 214.357 115.541 214.572C117.221 214.738 118.796 215.089 120.227 215.617Z" fill="#E9E7CF"/>
<path d="M109.951 189.69C108.951 190.371 108.201 191.347 107.84 192.44C107.728 192.779 107.655 193.132 107.622 193.483C106.563 192.187 105.331 190.881 103.583 190.391C102.594 190.114 101.488 190.101 100.386 190.355C99.3667 190.589 98.4542 191.03 97.7465 191.632C96.6055 192.602 95.9589 194.145 95.8757 196.094C95.828 197.281 95.9743 198.427 96.321 199.489C96.5444 200.173 96.8196 200.745 97.1873 201.29C97.7147 202.07 98.3063 202.871 98.9965 203.739C99.359 204.194 99.7185 204.638 100.138 205.077C100.233 205.179 100.321 205.269 100.418 205.323C100.553 205.488 100.69 205.649 100.811 205.783C100.93 205.955 101.078 206.096 101.252 206.205L101.323 206.249L124.614 206.292L124.614 206.002C124.613 205.354 124.602 204.453 124.584 203.804C124.569 203.282 124.549 202.761 124.523 202.24L124.519 202.165C124.493 201.631 124.465 201.079 124.388 200.537C124.219 199.356 123.933 198.3 123.516 197.309C123.181 196.514 122.699 195.796 122.228 195.139C121.358 193.927 120.509 192.836 119.631 191.803C119.372 191.498 119.138 191.24 118.913 191.013C118.599 190.695 118.171 190.284 117.657 189.941C117.181 189.625 116.729 189.386 116.274 189.21C115.771 189.016 115.253 188.875 114.729 188.79C114.117 188.691 113.477 188.724 113.05 188.757C111.72 188.858 110.735 189.156 109.951 189.69ZM105.627 194.803C106.058 194.863 106.516 194.944 106.944 195.121C107.365 195.296 107.695 195.459 107.972 195.629C108.252 196.193 108.5 196.76 108.711 197.323C109.033 198.225 109.844 200.5 110.02 201.669L99.5783 201.649C99.5259 201.151 99.5074 200.661 99.5295 200.193C99.5793 198.998 99.8335 197.995 100.285 197.21C100.599 196.663 100.909 196.284 101.261 196.014C101.694 195.682 102.153 195.434 102.663 195.254C103.419 194.988 104.548 194.651 105.627 194.803ZM120.685 196.259C120.85 197.227 120.88 198.241 120.91 199.222L120.917 199.452C120.943 200.256 120.956 200.991 120.957 201.689L111.681 201.673C111.482 200.867 111.285 200.196 111.071 199.59L111.054 199.529C111.006 199.362 110.961 199.204 110.961 199.043C110.961 199.043 110.961 199.042 110.961 199.041C110.962 196.984 111.936 195.088 113.502 194.094C113.951 193.809 114.462 193.654 114.856 193.551C115.39 193.412 115.964 193.365 116.349 193.343C116.808 193.317 117.346 193.305 117.854 193.41C118.427 193.528 118.882 193.662 119.284 193.829C119.586 193.953 119.889 194.113 120.209 194.314C120.404 194.879 120.556 195.5 120.685 196.259Z" fill="#E9E7CF"/>
<path d="M125 185.554L122.003 182.155C121.629 181.729 121.088 181.485 120.522 181.485L95.4484 181.485L99.8996 185.554L125 185.554Z" fill="#E9E7CF"/>
<path d="M115.388 163.351L107.18 167.858L95.1363 173.831L99.8998 177.668L124.529 177.668L121.526 174.261C121.156 173.841 120.622 173.6 120.061 173.6L104.427 173.6L113.08 168.849L123.89 163.32L124.311 163.107L121.526 159.945C121.156 159.524 120.622 159.283 120.061 159.283L94.8497 159.283L99.8993 163.352L115.388 163.352L115.388 163.351Z" fill="#E9E7CF"/>
<path d="M111.443 141.694C110.207 142.942 109.174 144.388 108.175 145.786C107.332 146.965 106.462 148.183 105.48 149.266C104.643 150.19 103.892 150.813 103.12 151.228C102.16 151.742 101.139 151.927 100.242 151.746C100.119 151.722 99.9824 151.686 99.8982 151.612C99.8134 151.537 99.7595 151.4 99.7158 151.277C99.266 150.008 99.3112 148.571 99.8401 147.333C100.37 146.095 101.379 145.069 102.608 144.519L102.916 144.381L102.732 144.098C102.564 143.838 102.391 143.579 102.215 143.322L102.223 143.317L102.078 143.105L102.066 143.109C101.441 142.214 100.771 141.346 100.067 140.52C99.9885 140.428 99.8576 140.273 99.6568 140.213C99.4406 140.148 99.2378 140.215 99.0667 140.288C97.2093 141.092 95.9347 143.18 95.8957 145.484C95.87 147.352 96.5587 149.322 97.9575 151.312C98.849 152.581 99.7734 153.502 100.783 154.128C102.046 154.909 103.441 155.211 104.714 154.977C105.81 154.776 106.897 154.168 108.036 153.119C109.472 151.796 110.613 150.185 111.717 148.628C112.469 147.566 113.248 146.468 114.108 145.479C115.505 143.873 116.87 142.919 118.282 142.564C118.493 142.511 118.768 142.455 119.024 142.493C119.309 142.534 119.604 142.693 119.9 142.967C120.827 143.821 121.242 145.291 120.953 146.717C120.706 147.945 120.002 149.146 118.861 150.287C117.807 151.341 116.542 152.185 115.201 152.73L114.879 152.861L115.066 153.153C115.837 154.361 116.698 155.527 117.625 156.622C117.736 156.753 117.902 156.95 118.159 157.022C118.448 157.103 118.729 156.986 118.88 156.924C120.082 156.424 121.198 155.635 122.107 154.642C123.376 153.257 124.173 151.584 124.411 149.803C124.443 149.565 124.459 149.323 124.459 149.078C124.459 146.723 122.996 144.048 120.098 141.113C119.473 140.479 118.702 139.787 117.724 139.447C116.666 139.079 115.428 139.158 114.237 139.67C113.297 140.073 112.409 140.716 111.443 141.694Z" fill="#E9E7CF"/>
<path d="M107.83 128.611L95.1676 135.315L98.0701 138.382L111.63 131.201L110.486 129.29L124.387 135.542L122.92 131.219C122.739 130.688 122.34 130.26 121.822 130.043L109.668 124.973L95.1876 118.768L96.6111 123.752L107.83 128.611Z" fill="#E9E7CF"/>
<path d="M99.683 103.322C97.7223 103.844 96.4442 104.745 95.8844 105.998C95.5116 106.834 95.469 107.881 95.7627 108.947C96.0236 109.89 96.5043 110.754 96.9731 111.557C97.7994 112.972 98.7381 114.448 100.003 115.663C101.08 116.698 102.2 117.356 103.368 117.625L104.49 117.728C105.886 117.727 107.283 117.743 108.681 117.76C109.359 117.768 110.038 117.775 110.717 117.781L124.346 117.898L124.102 117.464C123.856 117.023 123.564 116.603 123.281 116.196C123.074 115.899 122.867 115.602 122.677 115.295C122.056 114.295 121.416 113.709 120.663 113.453C120.149 113.278 119.602 113.275 119.121 113.272L113.849 113.236L113.849 111.898C113.849 111.456 113.69 111.016 113.403 110.659L110.722 107.332L110.92 107.337C113.006 107.382 115.274 107.43 117.541 107.476C119.809 107.523 122.076 107.57 124.163 107.616L124.801 107.63L124.39 107.141C124.039 106.723 123.736 106.221 123.443 105.736C122.83 104.721 122.198 103.671 121.054 103.227C120.449 102.993 119.791 102.979 119.21 102.966C117.435 102.928 115.478 102.888 113.522 102.847C111.565 102.807 109.609 102.767 107.834 102.729C105.143 102.67 102.361 102.609 99.683 103.322ZM111.39 113.209L101.098 113.125C100.474 113.12 99.7806 113.078 99.4422 112.638C99.2902 112.441 99.2131 112.156 99.2131 111.79C99.2131 111.741 99.2141 111.691 99.2172 111.639C99.2686 110.665 99.7092 109.728 100.427 109.068C101.329 108.24 102.604 107.905 103.485 107.724C105.581 107.298 107.734 107.28 109.773 107.314L109.78 111.211L111.39 113.209Z" fill="#E9E7CF"/>
<path d="M104.995 86.2476L109.926 91.1787L114.857 86.2476L109.926 81.3165L104.995 86.2476Z" fill="#E9E7CF"/>
<path d="M104.994 282.715L109.925 287.646L114.856 282.715L109.925 277.784L104.994 282.715Z" fill="#E9E7CF"/>
<path d="M75.55 184.492L80.4811 189.423L85.4122 184.492L80.4811 179.561L75.55 184.492Z" fill="#E9E7CF"/>
</svg>
