<svg viewBox="0 0 93 95" fill="none" xmlns="http://www.w3.org/2000/svg">
<g clip-path="url(#clip0)">
<path d="M57.2803 84.4039L45.5601 75.677L33.4512 83.859L29.1051 69.9019L14.4946 69.4173L19.1895 55.568L7.65013 46.5853L19.5846 38.1431L15.5368 24.0966L30.149 24.2683L35.1355 10.5331L46.8557 19.26L58.9647 11.078L63.3118 25.0357L77.9221 25.5194L73.2272 39.3687L84.7666 48.3514L72.8312 56.7939L76.8799 70.8401L62.2669 70.6687L57.2803 84.4039Z" fill="#D6A829"/>
<path d="M57.1797 36.0841C57.5481 35.8683 57.8951 35.5419 57.9435 35.1177C57.9833 34.86 57.892 34.5947 57.7568 34.3778C57.6183 34.1501 57.4218 33.9631 57.2393 33.7838C56.8978 33.4647 56.5241 33.1554 56.1086 32.9405C55.8047 32.7858 55.4535 32.6686 55.098 32.6933L54.8016 32.7587C54.2431 32.9261 53.6814 33.0828 53.1197 33.2395C52.5612 33.4069 51.9995 33.5636 51.441 33.731C50.8826 33.8984 50.3208 34.0551 49.7624 34.2225C49.7087 34.2386 49.655 34.2547 49.5905 34.2741C49.7666 34.432 49.9717 34.5695 50.1478 34.7274C50.3271 34.896 50.543 35.0303 50.7803 35.0411C50.9221 35.0454 51.0509 35.0068 51.1938 34.9757C51.6341 34.8437 52.0852 34.7084 52.5363 34.5732L52.6866 34.5281L52.8187 34.9685C52.8509 35.0759 52.912 35.1629 52.999 35.2188L54.1351 36.0019C54.0599 36.0244 53.9815 36.0362 53.9063 36.0588C52.7829 36.3721 51.4662 36.7434 50.3396 37.0461C50.7358 37.3136 51.03 37.7872 51.5079 37.8195C51.6743 37.8282 51.8386 37.7906 51.9997 37.7423C52.9513 37.4805 54.1069 37.1575 55.0692 36.8924C55.7921 36.6874 56.5396 36.4867 57.1797 36.0841ZM53.8174 34.9032L53.098 34.4165L53.3235 34.3489C54.2289 34.0892 55.1343 33.8295 56.0365 33.5591C56.2191 33.5043 56.4296 33.4646 56.5896 33.5688C56.6798 33.6354 56.7399 33.7579 56.7613 33.8685C56.8343 34.151 56.7859 34.4581 56.6291 34.7158C56.4679 34.9982 56.1747 35.1915 55.8933 35.3461C55.338 35.6413 54.7398 35.8323 54.1458 35.9987L53.8174 34.9032ZM58.4445 36.8281L57.2654 36.2919L58.0735 38.9877L51.4576 40.971L52.38 41.5489C52.4949 41.6198 52.6399 41.6349 52.7688 41.5963L58.3536 39.9221L58.8591 41.6083L60.0994 42.3485L58.4445 36.8281ZM60.1581 42.5442L58.979 42.0081L59.7871 44.7038L53.1712 46.6871L54.0936 47.2651C54.2085 47.336 54.3535 47.3511 54.4824 47.3124L60.0672 45.6382L60.5727 47.3244L61.813 48.0646L60.1581 42.5442ZM61.9074 52.089L57.4824 53.4155L58.4524 52.4341L59.547 51.3217L62.198 48.8415L60.758 48.2548L54.3569 50.1737L55.2793 50.7517C55.3942 50.8226 55.5284 50.8409 55.6573 50.8022L60.1574 49.4532L59.0778 50.5377L57.994 51.6468L55.5385 53.9983L55.5202 54.0154L55.5374 54.0337L56.4287 54.5859C56.5436 54.6568 56.6778 54.6751 56.8067 54.6364L63.3474 52.6757L61.9074 52.089ZM56.0368 56.0508L56.9559 56.6181C57.0708 56.689 57.2083 56.718 57.3372 56.6794L58.2179 56.4154L57.1322 55.7224L56.0368 56.0508ZM61.1168 54.528L60.0213 54.8564L60.9405 55.4236C61.0554 55.4945 61.1929 55.5235 61.3217 55.4849L62.2024 55.2209L61.1168 54.528Z" fill="#E46328"/>
<path d="M43.6424 28.7649C43.7541 28.9421 43.826 29.1429 43.8657 29.3534C43.9225 29.5822 43.9225 29.8163 43.901 30.0569C43.8859 30.2019 43.8601 30.3501 43.8096 30.494C43.7698 30.6346 43.7193 30.7785 43.6409 30.9074C43.5141 31.1093 43.3627 31.3068 43.1833 31.4894C43.165 31.5066 43.7202 31.9137 43.7373 31.9319C43.8973 32.0362 44.0498 32.1543 44.2205 32.2553C44.2517 32.2811 44.2936 32.3036 44.3322 32.3155C44.6244 32.0406 44.8618 31.7002 44.9693 31.3168C45.0563 31.0215 45.0832 30.7208 45.0532 30.4255C45.0436 30.2762 45.0093 30.1226 44.9674 29.983C44.9223 29.8326 44.8558 29.6887 44.7677 29.5512C44.713 29.4857 44.6657 29.4062 44.6002 29.3439C44.5315 29.2709 44.4521 29.2011 44.3726 29.1312C44.1826 28.9658 43.971 28.8068 43.752 28.6618C43.5233 28.4845 43.287 28.3213 43.0325 28.1751C41.8266 27.4715 40.0642 27.6837 38.8645 28.2892C38.3458 28.5501 37.8699 28.9151 37.5326 29.3908C37.1093 30.0093 37.0458 30.6955 37.2369 31.4108C37.2433 31.4323 37.2497 31.4538 37.2594 31.486C37.4139 32.0015 37.6941 32.4677 38.0399 32.8791C38.1054 32.9414 38.1676 32.9929 38.2439 33.052C38.2611 33.0703 38.289 33.0853 38.3062 33.1036C38.3169 33.1004 38.3169 33.1004 38.3201 33.1111C38.4275 33.196 38.5456 33.2776 38.653 33.3625C38.813 33.4667 38.9655 33.5848 39.1362 33.6858C39.1673 33.7116 39.2092 33.7342 39.2586 33.7428C39.7033 33.5861 40.1619 33.4369 40.6129 33.3017C40.9137 33.2115 41.2176 33.1321 41.5216 33.0527C41.6612 33.0108 41.804 32.9797 41.9469 32.9486C42.0113 32.9293 42.0897 32.9175 42.1541 32.8982C42.1864 32.8885 42.2218 32.8896 42.254 32.8799C42.2648 32.8767 42.2755 32.8735 42.2895 32.881L42.3002 32.8778C42.2122 32.6233 42.1349 32.3655 42.0576 32.1077C41.9664 31.8424 41.8891 31.5847 41.7979 31.3194C41.7335 31.1046 41.5983 30.6535 41.5983 30.6535L41.5017 30.5654C41.5017 30.5654 41.4222 30.4956 41.3878 30.4591C41.2697 30.3774 41.0442 30.2109 41.0442 30.2109L40.5718 29.8844C40.5718 29.8844 40.4987 29.836 40.4493 29.8274C40.4751 29.9133 40.5331 30.1067 40.5331 30.1067L40.6296 30.4289C40.6296 30.4289 40.9763 31.5072 41.148 32.041L41.1373 32.0442C41.1266 32.0474 41.1266 32.0474 41.1126 32.0399C41.0696 32.0528 41.0127 32.0581 40.959 32.0742C40.8484 32.0957 40.727 32.1203 40.6089 32.1558C40.3339 32.2148 40.0654 32.2953 39.783 32.3682C39.3856 32.4874 38.9775 32.6097 38.5758 32.7535C38.2634 32.0629 38.1777 31.2693 38.515 30.5595C38.818 29.9302 39.3723 29.4363 40.006 29.1293C41.0435 28.6075 42.4794 28.3995 43.6037 28.753C43.6177 28.7606 43.6317 28.7681 43.6424 28.7649ZM45.7789 36.3994L40.2907 38.0446C40.2349 37.8975 40.1737 37.6934 40.1576 37.6397C39.9676 37.0061 40.2781 36.3628 40.7282 35.9119C41.9173 34.7243 43.8602 34.4111 45.4303 33.9872L46.1102 33.7951L45.0407 33.0389C44.8044 33.1097 44.5542 33.173 44.3147 33.2331C42.9808 33.5862 41.4611 33.8661 40.2882 34.6391C39.488 35.1717 38.8133 36.2401 39.2126 37.2207C39.3382 37.5225 39.568 37.6643 39.8214 37.8458C39.9288 37.9307 40.0469 38.0124 40.1618 38.0833L39.2489 38.3569L40.1713 38.9349C40.2862 39.0058 40.4204 39.0241 40.5493 38.9855L47.0793 37.0279L45.7789 36.3994ZM42.1456 43.8807C42.3829 44.0086 42.6277 44.1225 42.8865 44.1268C43.1948 44.1398 43.5073 44.011 43.7511 43.8091C43.9842 43.6105 44.1733 43.3431 44.313 43.0671C44.7416 42.2714 44.9147 41.3651 45.3047 40.5575C45.4337 40.2848 45.5905 40.0271 45.7957 39.8134C46.0041 39.6105 46.2822 39.4451 46.5808 39.4259C46.627 39.4237 46.6732 39.4216 46.7258 39.4409C46.7677 39.4635 46.802 39.5 46.8256 39.5398C47.0608 39.8555 47.1724 40.2669 47.1283 40.6664C47.0809 41.0551 46.8779 41.4321 46.5825 41.6962C46.8971 41.9647 47.2267 42.2054 47.5779 42.4396C47.6058 42.4546 47.6337 42.4696 47.6692 42.4707C47.7046 42.4718 47.7443 42.4482 47.7701 42.417C48.1998 42.0541 48.3331 41.4055 48.1689 40.8578C48.0154 40.3068 47.6321 39.8481 47.1779 39.5044C46.8976 39.2724 46.5734 39.0886 46.2254 38.9823C45.87 38.8898 45.4866 38.8994 45.1622 39.0669C44.8593 39.2279 44.6273 39.5082 44.4479 39.8077C43.9913 40.5884 43.8107 41.5087 43.4378 42.3345C43.2358 42.7931 42.9458 43.2312 42.5194 43.4878C42.4506 43.5318 42.3787 43.5651 42.3003 43.5769C42.1897 43.5983 42.0737 43.5628 41.976 43.5102C41.6087 43.3394 41.394 42.9355 41.3533 42.5263C41.3126 42.1172 41.4383 41.7166 41.6338 41.3537C41.8369 40.9767 42.1129 40.6482 42.4438 40.3851C42.1431 40.1241 41.8135 39.8835 41.4795 39.6675C41.4452 39.631 41.4033 39.6084 41.3571 39.6106C41.3002 39.6159 41.2604 39.6396 41.2132 39.6771C40.9403 39.8994 40.7148 40.2011 40.5525 40.519C40.3366 40.97 40.2538 41.4747 40.3385 41.9526C40.4747 42.8365 41.4197 43.4897 42.1456 43.8807ZM48.851 43.1332L47.6719 42.5971L48.4801 45.2929L41.8641 47.2762L42.7865 47.8541C42.9014 47.925 43.0464 47.9401 43.1753 47.9015L48.7602 46.2272L49.2656 47.9134L50.5059 48.6536L48.851 43.1332ZM49.0815 54.0932C49.3725 53.9708 49.6604 53.8377 49.9278 53.6756C50.1953 53.5135 50.4423 53.3224 50.6722 53.113C51.1212 52.6975 51.4306 52.0897 51.3577 51.456C51.3405 51.3207 51.3094 51.1779 51.2568 51.0415C51.1935 50.9083 51.1087 50.7815 51.0056 50.672C50.9025 50.5624 50.7812 50.47 50.6598 50.3776C50.6287 50.3519 50.6115 50.3336 50.5836 50.3186C50.5804 50.3078 50.5697 50.311 50.5697 50.311C50.5042 50.2487 50.4419 50.1972 50.3656 50.1381C50.1992 50.0124 50.0188 49.8792 49.8416 49.7567C49.7203 49.6644 49.599 49.572 49.4626 49.5075C49.4486 49.5 49.4347 49.4925 49.4207 49.4849C49.3402 49.4506 49.3026 49.4033 49.2177 49.3936C48.9256 49.3173 48.6067 49.3076 48.2974 49.3301C47.9849 49.3418 47.6637 49.403 47.3566 49.4716C47.0634 49.5478 46.7766 49.6455 46.4963 49.7646C46.2052 49.887 45.9174 50.0201 45.6392 50.1855C45.5125 50.2703 45.3857 50.3551 45.259 50.4399C45.1354 50.5355 45.0259 50.6385 44.9163 50.7416C44.796 50.8479 44.6897 50.9617 44.5865 51.0863C44.4909 51.1969 44.4018 51.329 44.3201 51.4471C44.1493 51.6973 44.0064 51.9625 43.9022 52.2396C43.8485 52.3727 43.8087 52.5134 43.7937 52.6584C43.7711 52.8173 43.7592 52.973 43.7506 53.1395C43.7742 53.1792 43.8054 53.205 43.8505 53.2383C43.8923 53.2609 43.9374 53.2942 43.9718 53.3307C44.0792 53.4156 44.2005 53.5079 44.3186 53.5896C44.44 53.682 44.572 53.7711 44.7041 53.8603C44.7213 53.8786 44.7353 53.8861 44.7492 53.8936C44.7943 53.9269 44.8287 53.9634 44.8705 53.986C44.9811 54.0816 45.0993 54.1632 45.2174 54.2449C45.3699 54.363 45.5299 54.4672 45.6898 54.5715C45.7242 54.608 45.7661 54.6305 45.8155 54.6391C46.317 54.7112 46.825 54.6877 47.3276 54.6072C47.9301 54.5085 48.524 54.3422 49.0815 54.0932ZM46.3645 53.7371C45.8865 53.8219 45.4065 53.8604 44.9286 53.8281C44.9254 53.8174 44.9221 53.8066 44.9221 53.8066C44.934 53.6509 44.9458 53.4952 44.9931 53.3406C45.0221 53.2031 45.0651 53.0732 45.1296 52.9368C45.2478 52.6673 45.4014 52.3988 45.5754 52.1593C45.6678 52.038 45.757 51.9059 45.8633 51.7921C45.9697 51.6783 46.0792 51.5752 46.1995 51.4689C46.4294 51.2596 46.6936 51.0867 46.9568 50.9493C47.5088 50.6433 48.0802 50.4018 48.6978 50.2752C49.0082 50.2173 49.3185 50.1594 49.6343 50.1583C49.7868 50.1595 49.9425 50.1713 50.08 50.2003C50.11 50.2615 50.1433 50.3335 50.1551 50.4119C50.1894 50.5655 50.213 50.7223 50.2087 50.864C50.1968 51.0198 50.1678 51.1572 50.1281 51.2979C50.0808 51.4525 50.0195 51.5997 49.9443 51.7393C49.8584 51.8821 49.7553 52.0066 49.6414 52.1344C49.5458 52.245 49.4223 52.3406 49.3127 52.4436C49.1999 52.536 49.0764 52.6315 48.9496 52.7163C48.6854 52.8892 48.4008 53.033 48.113 53.1662C47.5587 53.4259 46.9713 53.6138 46.3645 53.7371ZM49.9053 59.3792C49.9332 59.3943 49.9643 59.4201 49.9815 59.4383C50.3251 59.6865 50.6795 59.9314 51.0746 60.1173C51.3195 60.2312 51.5826 60.3279 51.8532 60.4106C52.1023 60.4998 52.3697 60.5718 52.6382 60.6084C52.9099 60.6557 53.1719 60.6708 53.449 60.658C53.5768 60.6548 53.7154 60.6484 53.8399 60.6344C53.9044 60.6151 53.9613 60.6097 54.0182 60.6044C54.0397 60.5979 54.0612 60.5915 54.0859 60.5958C54.0966 60.5926 54.1074 60.5894 54.1074 60.5894C54.0837 60.5496 53.0808 59.8202 53.0593 59.8266C52.9917 59.8352 52.8274 59.8728 52.7597 59.8814C51.7341 60.0132 50.6011 59.7091 49.7721 59.0914C49.6648 59.0065 49.5671 58.9539 49.4565 58.8583C49.4285 58.8432 49.4114 58.825 49.3834 58.8099L53.2069 57.6638L51.9065 57.0352L45.3765 58.9928L46.2957 59.56C46.4106 59.6309 46.5588 59.6567 46.6877 59.6181L49.0398 58.913L46.6184 62.2374C46.526 62.3587 46.5528 62.5263 46.6742 62.6187L47.254 63.0301L49.9053 59.3792ZM52.9677 67.0568C53.2587 66.9344 53.5466 66.8013 53.814 66.6392C54.0815 66.4771 54.3285 66.286 54.5584 66.0766C55.0074 65.6611 55.3168 65.0533 55.2439 64.4197C55.2267 64.2843 55.1956 64.1415 55.143 64.0051C55.0797 63.8719 54.9949 63.7452 54.8918 63.6356C54.7887 63.5261 54.6674 63.4337 54.546 63.3413C54.5149 63.3155 54.4977 63.2972 54.4698 63.2822C54.4666 63.2715 54.4558 63.2747 54.4558 63.2747C54.3903 63.2124 54.3281 63.1608 54.2518 63.1017C54.0854 62.9761 53.905 62.8428 53.7278 62.7204C53.6065 62.628 53.4852 62.5356 53.3488 62.4711C53.3348 62.4636 53.3209 62.4561 53.3069 62.4486C53.2264 62.4142 53.1888 62.3669 53.1039 62.3573C52.8118 62.2809 52.4929 62.2712 52.1836 62.2937C51.8711 62.3055 51.5499 62.3666 51.2428 62.4353C50.9496 62.5115 50.6628 62.6091 50.3825 62.7283C50.0914 62.8507 49.8036 62.9838 49.5254 63.1491C49.3986 63.2339 49.2719 63.3187 49.1452 63.4035C49.0216 63.4991 48.9121 63.6022 48.8025 63.7052C48.6822 63.8115 48.5759 63.9254 48.4727 64.0499C48.3771 64.1605 48.288 64.2926 48.2063 64.4107C48.0355 64.6609 47.8926 64.9261 47.7884 65.2032C47.7347 65.3364 47.6949 65.477 47.6798 65.622C47.6573 65.7809 47.6454 65.9367 47.6368 66.1031C47.6604 66.1429 47.6916 66.1687 47.7366 66.202C47.7785 66.2245 47.8236 66.2578 47.858 66.2943C47.9654 66.3792 48.0867 66.4716 48.2048 66.5532C48.3262 66.6456 48.4582 66.7348 48.5903 66.8239C48.6075 66.8422 48.6214 66.8497 48.6354 66.8572C48.6805 66.8905 48.7149 66.9271 48.7567 66.9496C48.8673 67.0452 48.9855 67.1269 49.1036 67.2085C49.2561 67.3267 49.416 67.4309 49.576 67.5351C49.6104 67.5716 49.6523 67.5942 49.7017 67.6028C50.2032 67.6748 50.7112 67.6513 51.2138 67.5709C51.8163 67.4722 52.4102 67.3059 52.9677 67.0568ZM50.2507 66.7008C49.7727 66.7855 49.2927 66.8241 48.8148 66.7918C48.8115 66.781 48.8083 66.7703 48.8083 66.7703C48.8202 66.6146 48.832 66.4588 48.8793 66.3042C48.9083 66.1668 48.9513 66.0368 49.0158 65.9004C49.134 65.6309 49.2876 65.3624 49.4616 65.123C49.554 65.0017 49.6432 64.8696 49.7495 64.7558C49.8559 64.6419 49.9654 64.5389 50.0857 64.4326C50.3156 64.2232 50.5798 64.0504 50.843 63.9129C51.395 63.607 51.9664 63.3655 52.584 63.2389C52.8944 63.1809 53.2047 63.123 53.5205 63.122C53.673 63.1231 53.8287 63.1349 53.9662 63.164C53.9962 63.2252 54.0295 63.2971 54.0413 63.3755C54.0756 63.5291 54.0992 63.6859 54.0949 63.8277C54.083 63.9834 54.054 64.1209 54.0143 64.2615C53.967 64.4162 53.9057 64.5633 53.8305 64.7029C53.7446 64.8457 53.6414 64.9703 53.5276 65.0981C53.432 65.2086 53.3085 65.3042 53.1989 65.4073C53.0861 65.4996 52.9626 65.5952 52.8358 65.68C52.5716 65.8528 52.287 65.9967 51.9991 66.1298C51.4449 66.3896 50.8575 66.5774 50.2507 66.7008ZM33.4891 33.9055L29.0642 35.232L30.0342 34.2506L31.1287 33.1382L33.7797 30.6579L32.3397 30.0713L25.9386 31.9902L26.861 32.5681C26.9759 32.639 27.1101 32.6573 27.239 32.6187L31.7391 31.2697L30.6596 32.3541L29.5757 33.4633L27.1202 35.8147L27.102 35.8319L27.1191 35.8502L28.0104 36.4023C28.1253 36.4733 28.2595 36.4915 28.3884 36.4529L34.9291 34.4921L33.4891 33.9055ZM35.1315 39.1501C35.5 38.9343 35.8469 38.6079 35.8953 38.1837C35.9351 37.9259 35.8439 37.6607 35.7086 37.4437C35.5701 37.216 35.3736 37.0291 35.1911 36.8497C34.8496 36.5307 34.476 36.2213 34.0604 36.0064C33.7565 35.8517 33.4053 35.7346 33.0499 35.7592L32.7534 35.8247C32.195 35.9921 31.6333 36.1488 31.0715 36.3054C30.5131 36.4729 29.9514 36.6295 29.3929 36.797C28.8344 36.9644 28.2727 37.1211 27.7142 37.2885C27.6605 37.3046 27.6068 37.3207 27.5424 37.34C27.7184 37.4979 27.9235 37.6354 28.0996 37.7933C28.279 37.962 28.4948 38.0962 28.7321 38.107C28.8739 38.1114 29.0028 38.0727 29.1456 38.0416C29.586 37.9096 30.037 37.7744 30.4881 37.6392L30.6385 37.5941L30.7705 38.0344C30.8027 38.1418 30.8639 38.2288 30.9509 38.2847L32.0869 39.0678C32.0118 39.0904 31.9334 39.1022 31.8582 39.1247C30.7348 39.4381 29.418 39.8094 28.2914 40.112C28.6876 40.3795 28.9818 40.8532 29.4597 40.8855C29.6262 40.8941 29.7905 40.8565 29.9516 40.8083C30.9031 40.5464 32.0588 40.2234 33.0211 39.9583C33.7439 39.7533 34.4914 39.5527 35.1315 39.1501ZM31.7693 37.9691L31.0498 37.4825L31.2754 37.4149C32.1808 37.1552 33.0861 36.8954 33.9883 36.625C34.1709 36.5703 34.3814 36.5306 34.5414 36.6348C34.6316 36.7014 34.6917 36.8238 34.7132 36.9344C34.7861 37.2169 34.7377 37.524 34.5809 37.7818C34.4197 38.0642 34.1265 38.2574 33.8451 38.412C33.2898 38.7072 32.6916 38.8983 32.0977 39.0646L31.7693 37.9691ZM37.2418 46.2287L31.7536 47.8739C31.6978 47.7268 31.6367 47.5227 31.6206 47.469C31.4306 46.8353 31.7411 46.1921 32.1912 45.7411C33.3803 44.5536 35.3231 44.2404 36.8933 43.8165L37.5731 43.6244L36.5037 42.8681C36.2674 42.939 36.0171 43.0023 35.7776 43.0624C34.4437 43.4154 32.924 43.6954 31.7511 44.4684C30.9509 45.0009 30.2763 46.0694 30.6756 47.05C30.8012 47.3518 31.031 47.4936 31.2844 47.6751C31.3918 47.76 31.5099 47.8416 31.6248 47.9125L30.7119 48.1862L31.6343 48.7642C31.7492 48.8351 31.8834 48.8534 32.0123 48.8147L38.5423 46.8572L37.2418 46.2287ZM40.5226 53.8145L40.2993 53.4601L35.1542 52.5795C35.1649 52.5763 35.1617 52.5655 35.1724 52.5623L35.8416 51.9052L36.9362 50.7928L39.0201 48.6464L37.7197 48.0179L31.1897 49.9754L32.1089 50.5427C32.2238 50.6136 32.372 50.6394 32.5009 50.6007L37.0976 49.2227L36.2265 50.1043L35.1459 51.2242L34.004 52.3741L34.2284 52.6931L38.4263 53.4597L32.7448 55.1629L33.664 55.7301C33.7789 55.801 33.9271 55.8268 34.0559 55.7882L40.5752 53.8339L40.5226 53.8145ZM40.9017 58.4371L35.4135 60.0824C35.3576 59.9352 35.2965 59.7312 35.2804 59.6775C35.0904 59.0438 35.4009 58.4006 35.851 57.9496C37.0401 56.7621 38.9829 56.4489 40.5531 56.025L41.233 55.8329L40.1635 55.0766C39.9272 55.1475 39.6769 55.2108 39.4374 55.2709C38.1035 55.6239 36.5838 55.9039 35.4109 56.6769C34.6107 57.2094 33.9361 58.2778 34.3354 59.2584C34.461 59.5602 34.6908 59.7021 34.9442 59.8836C35.0516 59.9685 35.1697 60.0501 35.2846 60.121L34.3717 60.3947L35.2941 60.9727C35.409 61.0436 35.5432 61.0618 35.6721 61.0232L42.2021 59.0657L40.9017 58.4371ZM44.5204 67.5019L37.9639 67.536C38.1229 67.4415 38.2786 67.3363 38.4483 67.2386C38.9542 66.9348 39.4601 66.631 39.966 66.3272C40.4826 66.0201 40.9993 65.7131 41.5159 65.406C41.8338 65.2171 42.141 65.0314 42.4514 64.8564C42.4836 64.8467 42.9025 64.6041 42.9197 64.6223C42.9197 64.6223 42.8649 64.5568 42.8338 64.531C42.7919 64.5085 42.7576 64.472 42.7125 64.4387C42.6083 64.3645 42.5009 64.2797 42.3968 64.2055C42.2475 64.0981 42.109 63.9875 41.9522 63.894C41.9104 63.8714 41.8792 63.8457 41.8298 63.8371L36.8639 63.8275C37.185 63.6492 37.5201 63.4786 37.852 63.2971C38.3891 63.0191 38.9261 62.741 39.4663 62.4737C40.0034 62.1957 40.5511 61.9144 41.0914 61.6471C41.3653 61.5065 41.6424 61.3766 41.9087 61.2499C42.0527 61.1834 42.1826 61.1093 42.3158 61.046C42.42 61.003 42.5317 60.9461 42.6391 60.914C42.6047 60.8774 42.5843 60.8484 42.5425 60.8259C42.5081 60.7893 42.463 60.756 42.4319 60.7303C42.3245 60.6454 42.2203 60.5713 42.1129 60.4864C41.9669 60.3897 41.8177 60.2823 41.6609 60.1888C41.6265 60.1523 41.5879 60.1405 41.5492 60.1287C41.5385 60.1319 41.5277 60.1351 41.5277 60.1351C41.3988 60.1738 41.2764 60.2339 41.1647 60.2908C41.0315 60.3541 40.8983 60.4174 40.7651 60.4808C40.4913 60.6214 40.2142 60.7513 39.951 60.8887C39.4 61.1592 38.8523 61.4405 38.3045 61.7217C37.775 61.9858 37.2379 62.2639 36.7117 62.5387C36.2069 62.8071 35.7128 63.0722 35.208 63.3406C35.2112 63.3514 35.2595 63.3954 35.3186 63.4362C35.3669 63.4803 35.4292 63.5318 35.4152 63.5243C35.5194 63.5984 35.6267 63.6833 35.7309 63.7574C35.8802 63.8648 36.0294 63.9723 36.1862 64.0657C36.2173 64.0915 36.2592 64.1141 36.2979 64.1259L41.1628 64.1892C41.0619 64.2429 40.9609 64.2965 40.8632 64.361C40.3433 64.6573 39.8374 64.9611 39.3208 65.2681C38.8149 65.5719 38.2983 65.879 37.7924 66.1828C37.2972 66.4834 36.8128 66.7808 36.3284 67.0782C36.3316 67.0889 36.3832 67.1437 36.4422 67.1845C36.4905 67.2286 36.5496 67.2694 36.5356 67.2619C36.643 67.3467 36.7472 67.4208 36.8546 67.5057C37.0038 67.6131 37.1531 67.7206 37.3098 67.814C37.341 67.8398 37.3829 67.8624 37.4215 67.8742L44.778 67.8929L44.5204 67.5019ZM43.9419 68.7742L37.4119 70.7317L38.3311 71.2989C38.446 71.3698 38.5942 71.3956 38.7231 71.357L45.2423 69.4027L43.9419 68.7742Z" fill="#0B1F3C"/>
</g>
<defs>
<clipPath id="clip0">
<rect width="77.1187" height="73.3616" fill="white" transform="translate(70.272) rotate(73.3125)"/>
</clipPath>
</defs>
</svg>
