<svg viewBox="0 0 110 110" fill="none" xmlns="http://www.w3.org/2000/svg">
<rect x="10.4595" y="65.0741" width="64.5431" height="64.5431" transform="rotate(-57.7976 10.4595 65.0741)" stroke="#E9E7CF" stroke-width="0.413797"/>
<path d="M49.252 64.165C49.0586 63.5401 48.7918 62.9318 48.3027 62.477C47.789 62.0278 47.1208 61.6908 46.4348 61.6151C46.1191 61.5839 45.7899 61.6073 45.4775 61.704C45.4286 61.7151 45.3797 61.7262 45.3307 61.7373C46.0936 60.7923 46.8753 59.8173 46.9455 58.5409C46.959 57.9204 46.8089 57.26 46.5232 56.6818C46.2731 56.1469 45.9063 55.6643 45.4393 55.3074C44.6311 54.6935 43.567 54.6522 42.6019 54.82C41.9114 54.9511 41.2431 55.1801 40.6327 55.5503C40.2935 55.7559 39.9844 55.9805 39.6975 56.3029C39.2616 56.7621 38.8557 57.2401 38.4743 57.7126C38.2308 57.9995 38.0117 58.2807 37.8226 58.5809C37.8037 58.6109 37.7281 58.731 37.7148 58.7855C37.6336 58.8811 37.5335 59.0067 37.4579 59.1268C37.3956 59.1924 37.3389 59.2825 37.3122 59.3914C37.4678 60.0764 37.5989 60.7668 37.7545 61.4518C38.0601 62.7972 38.3657 64.1426 38.6768 65.5124C38.9769 66.8334 39.2825 68.1788 39.5826 69.4997C39.8604 70.7228 40.1382 71.9459 40.4105 73.1445L40.466 73.3891C40.8574 73.3002 41.3956 73.178 41.787 73.0891C42.0994 72.9924 42.4174 72.9202 42.7299 72.8235C43.0668 72.7212 43.4093 72.6434 43.7406 72.5167C44.3789 72.2688 45.0004 71.9476 45.5564 71.564C45.9767 71.2628 46.3259 70.8748 46.6751 70.4868C47.2489 69.842 47.8116 69.1482 48.3498 68.46C48.4632 68.2799 48.6011 68.0942 48.7145 67.9141C48.8847 67.644 49.0493 67.3493 49.1839 67.0358C49.294 66.7278 49.3796 66.4254 49.4163 66.1341C49.472 65.8128 49.4731 65.4781 49.4554 65.1735C49.4265 64.8199 49.3543 64.5019 49.252 64.165ZM40.1584 60.597C39.9306 59.5941 39.6972 58.5667 39.4694 57.5638C39.8252 57.4315 40.1622 57.3292 40.5346 57.2703C41.2007 57.1448 41.8889 57.1171 42.5538 57.3262C42.8862 57.4307 43.1998 57.5653 43.481 57.7844C43.7379 58.009 43.9758 58.2636 44.1759 58.5783C44.5049 59.121 44.8262 59.7425 44.8728 60.4008C44.915 60.6999 44.9328 61.0045 44.8716 61.3014C44.8293 61.5682 44.7626 61.8406 44.6847 62.0641C44.3622 62.3432 44.0286 62.5733 43.695 62.8034C43.109 63.168 41.6524 64.1163 40.9975 64.2908C40.7196 63.0677 40.4363 61.8201 40.1584 60.597ZM47.4292 67.6916C47.4526 68.0207 47.4214 68.3365 47.3658 68.6578C47.3179 68.9002 47.2701 69.1426 47.1733 69.3961C46.7908 69.6373 46.3972 69.8296 45.9735 70.003C45.3598 70.2453 44.6804 70.4254 44.0199 70.5754C43.5118 70.7166 43.0036 70.8577 42.4844 70.9499C42.3066 70.1672 42.1288 69.3844 41.951 68.6016C41.6787 67.403 41.4009 66.1799 41.1286 64.9812C41.59 64.7478 42.027 64.5199 42.4529 64.2431C42.5697 64.1909 42.6809 64.1142 42.8032 64.0864C44.0752 63.7974 45.4617 64.1256 46.3555 65.003C46.5878 65.2332 46.7524 65.5045 46.9225 65.8003C47.0681 66.1016 47.1648 66.414 47.2615 66.7265C47.3582 67.0389 47.4304 67.3569 47.4292 67.6916Z" fill="#E9E7CF"/>
<path d="M57.9645 69.1571C60.2173 67.9766 61.7831 65.3572 62.0925 62.8689C62.1393 62.3952 62.1504 61.8782 62.0204 61.419C61.6412 61.7881 61.292 62.1761 60.9729 62.583C60.686 62.9054 60.4291 63.2467 60.1722 63.588C60.0911 63.6836 60.0343 63.7737 60.0021 63.8582C60.1265 64.8589 60.0741 65.874 59.7738 66.8168C59.3313 67.0203 58.8365 67.1069 58.3361 67.1691C57.6779 67.2158 57.0163 67.1345 56.3759 66.9199C55.79 66.7185 55.2496 66.3782 54.7905 65.9423C54.3558 65.5009 54.0156 64.9093 53.7355 64.3556C53.4498 63.7774 53.2075 63.1636 53.0141 62.5387C52.6051 61.191 52.3129 59.7912 52.2218 58.3713C52.1153 57.1093 52.1499 55.7895 52.5414 54.5687C52.7071 54.5054 52.8972 54.4365 53.0684 54.3976C53.4109 54.3198 53.7645 54.2909 54.1292 54.311C54.8096 54.3622 55.4067 54.6124 55.9392 55.0317C56.2261 55.2752 56.494 55.5488 56.7375 55.8279C56.7786 55.8957 56.8142 55.9391 56.8553 56.0069C56.8853 56.0258 56.9509 56.0881 56.962 56.137C57.0543 56.0903 57.1166 56.0247 57.1978 55.9291C57.2545 55.839 57.3356 55.7434 57.4224 55.6723C57.6281 55.4455 57.8283 55.1942 58.0284 54.943C58.3153 54.6206 58.5967 54.2737 58.8536 53.9324C58.9103 53.8423 58.967 53.7523 59.0237 53.6622C59.007 53.5888 58.917 53.5321 58.9059 53.4832C58.7992 53.3531 58.668 53.2285 58.5612 53.0984C58.151 52.6514 57.6429 52.2266 57.057 52.0253C56.7246 51.9207 56.4032 51.8651 56.063 51.8395C55.9051 51.8239 55.7283 51.8383 55.5515 51.8528C55.4048 51.8861 55.228 51.9006 55.0812 51.9339C54.7443 52.0361 54.4185 52.1873 54.0983 52.363C53.9437 52.4752 53.7891 52.5875 53.659 52.6942C53.4422 52.8721 53.2609 53.0934 53.0986 53.2846C52.9551 53.4458 52.7872 53.6126 52.6438 53.7738C52.0377 54.5031 51.3827 55.2435 50.9079 56.0974C50.7244 56.422 50.5709 56.7656 50.4663 57.098C50.0537 58.4522 50.0524 59.9188 50.1923 61.3275C50.3267 62.7118 50.619 64.1117 51.1014 65.4427C51.3192 66.062 51.5615 66.6758 51.9017 67.2673C52.2063 67.8155 52.5731 68.2981 53.0512 68.704C53.9717 69.4724 55.4783 69.8762 56.7014 69.5984C57.1472 69.5228 57.5464 69.355 57.9645 69.1571Z" fill="#E9E7CF"/>
<path d="M72.2692 52.6857C71.6734 51.5348 70.8418 50.5919 69.6555 50.0124C68.4992 49.4519 67.0783 49.3117 65.8307 49.595C65.5127 49.6673 65.2003 49.764 64.8934 49.8851C64.7577 49.9674 64.5976 50.0552 64.4619 50.1375C64.3696 50.1842 64.3074 50.2498 64.2451 50.3153C63.6791 50.8812 63.1598 51.5394 62.7194 52.2054C62.4925 52.5656 62.279 52.8713 62.0766 53.226C62.001 53.346 61.6173 53.922 61.6451 54.0443L64.729 67.6206L64.7723 67.585C64.7534 67.615 64.7345 67.645 64.7401 67.6695C64.7645 67.6639 64.789 67.6584 64.8135 67.6528C64.9602 67.6195 65.107 67.5862 65.2293 67.5584C65.6452 67.4639 66.031 67.3505 66.4469 67.2561C67.1941 67.0349 67.9413 66.8137 68.5784 66.3346C69.2211 65.8799 69.7382 65.3251 70.2442 64.7215C71.7454 62.837 72.5952 60.689 72.9512 58.2929C73.1248 57.0187 73.1595 55.699 72.8761 54.4514C72.7372 53.8399 72.5493 53.2394 72.2692 52.6857ZM71.0997 60.3341C70.9506 61.6027 70.6136 62.8369 70.1509 63.9709C70.1053 64.1099 70.0297 64.23 69.9841 64.369C69.4548 64.6435 68.8488 64.8069 68.2484 64.9947C67.7102 65.117 67.0064 65.3026 66.4626 65.4004L63.4399 52.0931C63.6245 51.9998 63.8335 51.9008 64.0537 51.8508C65.4046 51.5697 67.2781 51.8901 68.4244 52.633C69.2048 53.1245 69.7607 53.8729 70.1753 54.679C71.0869 56.427 71.3301 58.4039 71.0997 60.3341Z" fill="#E9E7CF"/>
<path d="M40.9923 45.8734C40.9647 45.7516 40.937 45.6298 40.8615 45.5538C40.7835 45.4667 40.6824 45.4315 40.5359 45.4531C40.4584 45.4707 40.3588 45.4934 40.2591 45.516C40.1705 45.5361 40.0684 45.5477 39.9687 45.5703C39.8691 45.5929 39.7694 45.6156 39.6698 45.6382C39.5812 45.6583 39.474 45.6478 39.3743 45.6704C39.2858 45.6905 39.1836 45.7021 39.084 45.7247C38.9954 45.7448 38.9008 45.7896 38.8011 45.8122C38.7015 45.8349 38.6179 45.8771 38.5183 45.8998C38.4186 45.9224 38.325 45.9204 38.2364 45.9405C38.1257 45.9657 38.0311 46.0104 37.9536 46.028C37.8675 46.0592 37.8524 46.249 37.864 46.3511C37.878 46.4644 37.9243 46.6169 38.0391 46.6607C38.1317 46.7095 38.2902 46.6385 38.4145 46.622C38.4809 46.6069 38.5831 46.5953 38.716 46.5651C38.8156 46.5425 38.9127 46.5088 39.0235 46.4836C39.1231 46.461 39.2303 46.4716 39.341 46.4464C39.4407 46.4238 39.5429 46.4122 39.6425 46.3896C39.7532 46.3644 39.8504 46.3307 39.95 46.3081C40.0718 46.2804 40.18 46.2442 40.2464 46.2291C40.253 46.3091 40.2535 46.4138 40.2565 46.5296C40.2519 46.6121 40.2524 46.7168 40.2418 46.824C40.2398 46.9176 40.2267 47.0137 40.2051 47.1234C40.192 47.2195 40.1925 47.3242 40.1794 47.4203C40.1527 47.5079 40.1174 47.6091 40.0822 47.7102C40.0555 47.7978 40.0314 47.8964 39.9936 47.9865C39.9448 48.0791 39.8798 48.1521 39.831 48.2447C39.7797 48.3262 39.7308 48.4188 39.6659 48.4917C39.601 48.5647 39.5225 48.6291 39.4439 48.6935C39.3765 48.7554 39.298 48.8198 39.2059 48.8757C39.1248 48.929 39.0463 48.9934 38.9517 49.0382C38.8656 49.0694 38.7685 49.1031 38.6689 49.1257C38.5692 49.1484 38.4645 49.1489 38.3709 49.1468C38.2688 49.1584 38.1666 49.17 38.0705 49.1569C37.9633 49.1463 37.8757 49.1196 37.7771 49.0954C37.6759 49.0602 37.5884 49.0335 37.4958 48.9847C37.4057 48.9469 37.3242 48.8956 37.2316 48.8468C37.15 48.7954 37.0856 48.7169 37.0016 48.6545C36.9286 48.5896 36.8385 48.5518 36.7631 48.4758C36.7012 48.4084 36.6257 48.3324 36.5638 48.2649C36.4994 48.1864 36.4657 48.0893 36.4123 48.0082C36.3479 47.9297 36.2835 47.8512 36.2302 47.7702C36.1743 47.6781 36.121 47.597 36.0787 47.5135C36.0229 47.4214 36.0002 47.3217 35.969 47.2357C35.9243 47.141 35.8709 47.06 35.8372 46.9629C35.8146 46.8632 35.7834 46.7772 35.7608 46.6775C35.7381 46.5779 35.7376 46.4732 35.715 46.3735C35.7034 46.2714 35.6808 46.1717 35.6692 46.0696C35.6577 45.9674 35.6461 45.8652 35.6345 45.7631C35.6341 45.6584 35.6582 45.5597 35.6577 45.4551C35.6572 45.3504 35.6346 45.2507 35.6477 45.1546C35.6583 45.0474 35.6825 44.9488 35.7066 44.8501C35.7283 44.7404 35.766 44.6503 35.8038 44.5603C35.839 44.4591 35.8521 44.363 35.9009 44.2704C35.9387 44.1803 36.0011 44.0963 36.0635 44.0122C36.1149 43.9307 36.1773 43.8467 36.2533 43.7712C36.3182 43.6982 36.3942 43.6227 36.4727 43.5583C36.5538 43.505 36.6434 43.4381 36.738 43.3933C36.8215 43.351 36.9348 43.337 37.0319 43.3032C37.118 43.2721 37.2076 43.2051 37.3183 43.18C37.429 43.1548 37.5337 43.1543 37.6358 43.1428C37.7491 43.1287 37.8598 43.1035 37.9645 43.1031C38.0828 43.1111 38.1753 43.1599 38.274 43.1841C38.3948 43.2033 38.4994 43.2028 38.6006 43.238C38.7043 43.2843 38.7994 43.3442 38.8809 43.3956C38.9871 43.4529 39.0822 43.5128 39.1526 43.5667C39.2825 43.6769 39.3605 43.764 39.3987 43.7786C39.5049 43.836 39.59 43.8516 39.6675 43.834C39.7339 43.8189 39.8149 43.7656 39.8859 43.6679C39.9458 43.5728 39.9503 43.4903 39.9574 43.4188C39.9594 43.3252 39.9554 43.2563 39.8688 43.1828C39.8069 43.1153 39.7254 43.064 39.6414 43.0016C39.5684 42.9367 39.504 42.8581 39.4225 42.8068C39.352 42.7529 39.2594 42.7041 39.1668 42.6553C39.0878 42.615 38.9978 42.5773 38.8966 42.542C38.809 42.5153 38.719 42.4776 38.6228 42.4645C38.5242 42.4403 38.4281 42.4272 38.3345 42.4252C38.2383 42.4121 38.1372 42.3769 38.0325 42.3773C37.9389 42.3753 37.8443 42.4201 37.7421 42.4317C37.651 42.4407 37.5463 42.4412 37.4467 42.4638C37.3556 42.4729 37.2595 42.4598 37.1598 42.4824C37.0491 42.5076 36.957 42.5634 36.8709 42.5946C36.7738 42.6283 36.6742 42.651 36.577 42.6847C36.4824 42.7295 36.3853 42.7632 36.3017 42.8054C36.2096 42.8613 36.1175 42.9171 36.039 42.9815C35.958 43.0349 35.8955 43.1189 35.817 43.1833C35.7385 43.2477 35.6464 43.3036 35.5815 43.3766C35.5191 43.4606 35.4566 43.5446 35.4053 43.6262C35.3429 43.7102 35.3187 43.8088 35.2699 43.9014C35.2211 43.994 35.1833 44.0841 35.1481 44.1853C35.1103 44.2753 35.0615 44.3679 35.0373 44.4666C35.0132 44.5652 34.989 44.6638 34.9784 44.771C34.9542 44.8697 34.9411 44.9658 34.9306 45.073C34.9285 45.1666 34.929 45.2713 34.9295 45.376C34.93 45.4806 34.9169 45.5768 34.9174 45.6814C34.9179 45.7861 34.9073 45.8933 34.9189 45.9955C34.9279 46.0866 34.9531 46.1973 34.9757 46.2969C34.9873 46.3991 35.021 46.4962 35.0325 46.5984C35.0552 46.6981 35.0778 46.7977 35.1004 46.8974C35.1231 46.997 35.1568 47.0941 35.1794 47.1938C35.2131 47.2909 35.2026 47.3981 35.2388 47.5063C35.2725 47.6035 35.3369 47.682 35.3817 47.7766C35.4265 47.8712 35.4405 47.9845 35.4828 48.068C35.5386 48.1601 35.5945 48.2522 35.6504 48.3443C35.6926 48.4279 35.7485 48.52 35.8043 48.6121C35.8687 48.6906 35.9442 48.7666 36.0086 48.8451C36.073 48.9236 36.1485 48.9996 36.2129 49.0782C36.2884 49.1542 36.3639 49.2302 36.4368 49.2951C36.5209 49.3575 36.6135 49.4063 36.7086 49.4662C36.7901 49.5176 36.8742 49.58 36.9753 49.6152C37.0679 49.6641 37.158 49.7018 37.2591 49.7371C37.3603 49.7723 37.465 49.7718 37.5747 49.7935C37.6733 49.8176 37.772 49.8418 37.8791 49.8524C37.9728 49.8544 38.0835 49.8292 38.1882 49.8288C38.2903 49.8172 38.4 49.8388 38.5022 49.8273C38.6044 49.8157 38.704 49.7931 38.8147 49.7679C38.9144 49.7453 39.0065 49.6894 39.1036 49.6557C39.2008 49.622 39.314 49.608 39.4001 49.5768C39.5058 49.5295 39.6004 49.4847 39.6814 49.4313C39.7735 49.3755 39.8359 49.2915 39.928 49.2356C40.0065 49.1712 40.0986 49.1153 40.1747 49.0399C40.2421 48.978 40.3292 48.9 40.3941 48.827C40.4565 48.743 40.4918 48.6418 40.5406 48.5492C40.603 48.4652 40.679 48.3897 40.7278 48.2971C40.7767 48.2045 40.7872 48.0973 40.8225 47.9962C40.8602 47.9061 40.8955 47.8049 40.9307 47.7038C40.9549 47.6051 40.9791 47.5065 40.9921 47.4104C41.0138 47.3007 41.049 47.1995 41.0621 47.1034C41.0727 46.9962 41.0612 46.894 41.0717 46.7868C41.0712 46.6822 41.0954 46.5835 41.0839 46.4814C41.0834 46.3767 41.0829 46.272 41.0713 46.1698C41.0597 46.0677 41.015 45.973 40.9923 45.8734ZM48.0382 47.2536C48.0196 47.2229 47.9527 47.1334 47.8646 47.002C47.8249 46.9295 47.7801 46.8349 47.7107 46.7342C47.6599 46.6643 47.5733 46.5908 47.5174 46.4987C47.4641 46.4176 47.4083 46.3255 47.3413 46.236C47.288 46.1549 47.2543 46.0578 47.1984 45.9657C47.134 45.8872 47.0696 45.8086 47.0027 45.7191C46.9494 45.638 46.885 45.5595 46.818 45.4699C46.7647 45.3889 46.7174 45.2832 46.6641 45.2022C46.6082 45.1101 46.5327 45.0341 46.4683 44.9555C46.4125 44.8634 46.3481 44.7849 46.2922 44.6928C46.2389 44.6118 46.1941 44.5172 46.1382 44.4251C46.0849 44.344 46.018 44.2544 45.9646 44.1734C45.9088 44.0813 45.8444 44.0028 45.7774 43.9132C45.7241 43.8322 45.6904 43.735 45.6235 43.6454C45.5701 43.5644 45.4836 43.4909 45.4303 43.4099C45.3744 43.3178 45.3296 43.2232 45.2652 43.1446C45.2094 43.0525 45.1757 42.9554 45.1112 42.8769C45.0554 42.7848 44.9824 42.7198 44.9291 42.6388C44.8622 42.5492 44.8174 42.4546 44.764 42.3736C44.6971 42.284 44.6438 42.203 44.5904 42.1219C44.5235 42.0323 44.4591 41.9538 44.3947 41.8753C44.3363 41.7721 44.2719 41.6936 44.2211 41.6236C44.1381 41.5144 44.1154 41.4148 44.0671 41.3559C43.9655 41.216 43.8754 41.1782 43.81 41.1465C43.7224 41.1198 43.6474 41.1485 43.4924 41.1837C43.4064 41.2149 43.351 41.2275 43.2891 41.4162C43.2599 41.4927 43.2 41.5878 43.1773 41.7443C43.1592 41.8183 43.1708 41.9204 43.1516 42.0412C43.1385 42.1374 43.1118 42.2249 43.0927 42.3457C43.0771 42.4308 43.0776 42.5354 43.067 42.6426C43.0539 42.7387 43.0297 42.8374 43.0191 42.9446C43.0061 43.0407 42.9955 43.1479 42.9824 43.244C42.9693 43.3401 42.9451 43.4388 42.9345 43.546C42.9214 43.6421 42.9466 43.7528 42.9335 43.8489C42.9093 43.9476 42.8741 44.0487 42.861 44.1449C42.8504 44.2521 42.862 44.3542 42.8378 44.4529C42.8272 44.56 42.8005 44.6476 42.7789 44.7573C42.7658 44.8534 42.7663 44.9581 42.7532 45.0543C42.7426 45.1614 42.7295 45.2576 42.7189 45.3648C42.7058 45.4609 42.6927 45.557 42.6821 45.6642C42.669 45.7603 42.6585 45.8675 42.6454 45.9636C42.6323 46.0598 42.586 46.1634 42.5729 46.2596C42.5598 46.3557 42.5849 46.4664 42.5718 46.5625C42.5612 46.6697 42.5481 46.7658 42.5351 46.862C42.5245 46.9692 42.4756 47.0618 42.4625 47.1579C42.452 47.2651 42.4746 47.3647 42.4615 47.4608C42.4509 47.568 42.4268 47.6667 42.4137 47.7628C42.4031 47.87 42.3789 47.9686 42.3658 48.0648C42.3552 48.172 42.3447 48.2791 42.3401 48.3617C42.3114 48.5429 42.323 48.645 42.3255 48.6561C42.331 48.7829 42.3803 48.795 42.4825 48.7834C42.5489 48.7683 42.6239 48.7397 42.7125 48.7195C42.8589 48.6979 42.9536 48.6531 43.0094 48.4891C43.0215 48.4398 43.0407 48.319 43.0573 48.1871C43.0704 48.091 43.1056 47.9899 43.1137 47.8716C43.1379 47.773 43.1374 47.6683 43.148 47.5611C43.1696 47.4514 43.1691 47.3467 43.1822 47.2506C43.2074 47.1051 43.2155 46.9869 43.225 46.9265C43.2804 46.9139 43.3961 46.9109 43.5315 46.8918C43.6201 46.8717 43.7147 46.8269 43.8169 46.8153C43.9165 46.7927 44.0112 46.7479 44.1108 46.7253C44.1994 46.7051 44.3066 46.7157 44.4062 46.6931C44.5059 46.6704 44.603 46.6367 44.7027 46.6141C44.7937 46.6051 44.8909 46.5714 44.9905 46.5487C45.0927 46.5372 45.1923 46.5145 45.2809 46.4944C45.3916 46.4692 45.4777 46.4381 45.5774 46.4154C45.677 46.3928 45.7792 46.3812 45.8678 46.3611C45.9785 46.3359 46.0756 46.3022 46.1531 46.2846C46.3303 46.2444 46.3066 46.1915 46.4485 46.2525C46.5905 46.3134 46.5265 46.3395 46.6307 46.4905C46.684 46.5716 46.7288 46.6662 46.7847 46.7583C46.8491 46.8368 46.9049 46.9289 46.9693 47.0074C47.0252 47.0995 47.1007 47.1755 47.1515 47.2455C47.237 47.3658 47.2929 47.4579 47.3165 47.5107C47.3774 47.625 47.4182 47.6507 47.5093 47.6416C47.5782 47.6376 47.6618 47.5953 47.7725 47.5702C47.8943 47.5425 47.9854 47.5335 48.0332 47.4877C48.1142 47.4343 48.1102 47.3654 48.0382 47.2536ZM45.7455 45.7718C45.6569 45.7919 45.5523 45.7924 45.439 45.8064C45.3394 45.8291 45.2422 45.8628 45.129 45.8769C45.0294 45.8995 44.9347 45.9443 44.8351 45.9669C44.7354 45.9896 44.6358 46.0122 44.5336 46.0238C44.4229 46.0489 44.3182 46.0494 44.2186 46.072C44.1189 46.0947 44.0193 46.1173 43.9196 46.1399C43.8089 46.1651 43.7093 46.1877 43.6207 46.2078C43.4853 46.227 43.3771 46.2632 43.3107 46.2783C43.3202 46.2179 43.3258 46.0885 43.3424 45.9567C43.358 45.8716 43.3797 45.7619 43.4013 45.6522C43.4144 45.5561 43.4003 45.4428 43.4109 45.3357C43.424 45.2395 43.4814 45.1333 43.492 45.0262C43.5051 44.93 43.491 44.8168 43.5016 44.7096C43.5147 44.6135 43.5388 44.5148 43.5494 44.4076C43.56 44.3004 43.5706 44.1933 43.5837 44.0971C43.5943 43.9899 43.6048 43.8827 43.6179 43.7866C43.6285 43.6794 43.6391 43.5722 43.6522 43.4761C43.6628 43.3689 43.6869 43.2703 43.6975 43.1631C43.7081 43.0559 43.6855 42.9562 43.6986 42.8601C43.7066 42.7418 43.7529 42.6382 43.7575 42.5556C43.7827 42.4102 43.7797 42.2944 43.8003 42.2315C43.8461 42.2794 43.9155 42.38 43.9986 42.4892C44.0519 42.5703 44.1163 42.6488 44.1857 42.7494C44.2391 42.8305 44.3035 42.909 44.3593 43.0011C44.4152 43.0932 44.471 43.1853 44.538 43.2749C44.5938 43.367 44.6472 43.448 44.703 43.5401C44.7589 43.6322 44.7951 43.7405 44.8509 43.8326C44.9068 43.9247 44.9908 43.9871 45.0467 44.0792C45.1025 44.1713 45.1584 44.2634 45.2142 44.3555C45.2676 44.4365 45.2927 44.5473 45.3486 44.6394C45.4044 44.7315 45.4799 44.8075 45.5333 44.8885C45.5916 44.9917 45.6364 45.0863 45.6897 45.1673C45.7592 45.268 45.804 45.3626 45.8548 45.4326C45.9292 45.5554 45.9962 45.645 46.042 45.6928C45.9755 45.7079 45.8784 45.7416 45.7455 45.7718ZM53.4216 45.5651C53.2872 45.5374 53.1458 45.5812 53.0129 45.6113C52.9243 45.6315 52.8332 45.6405 52.7336 45.6631C52.6475 45.6943 52.5564 45.7034 52.4679 45.7235C52.3818 45.7547 52.2872 45.7995 52.1986 45.8196C52.1432 45.8322 52.0361 45.8216 51.8921 45.8543C51.8035 45.8744 51.7089 45.9192 51.5982 45.9443C51.4985 45.967 51.3989 45.9896 51.2992 46.0122C51.1996 46.0349 51.0949 46.0354 50.9953 46.058C50.8956 46.0806 50.7849 46.1058 50.6963 46.1259C50.5856 46.1511 50.4834 46.1626 50.3949 46.1827C50.2841 46.2079 50.1784 46.2552 50.1009 46.2728C49.9127 46.3155 49.9268 46.4288 49.8105 46.3271C49.6832 46.228 49.7607 46.2103 49.7205 46.0332C49.7089 45.931 49.7084 45.8263 49.6858 45.7267C49.6682 45.6492 49.6456 45.5495 49.6179 45.4277C49.5978 45.3392 49.5862 45.237 49.5611 45.1263C49.552 45.0352 49.4962 44.9431 49.4735 44.8434C49.4509 44.7438 49.4504 44.6391 49.4278 44.5395C49.4051 44.4398 49.3714 44.3427 49.3488 44.243C49.3261 44.1434 49.3367 44.0362 49.3141 43.9365C49.2915 43.8369 49.2381 43.7558 49.213 43.6451C49.1928 43.5565 49.1924 43.4519 49.1697 43.3522C49.1471 43.2526 49.1245 43.1529 49.1129 43.0508C49.0903 42.9511 49.0455 42.8565 49.0339 42.7543C49.0113 42.6547 48.9886 42.555 48.9685 42.4664C48.9459 42.3668 48.9343 42.2646 48.9117 42.165C48.889 42.0653 48.8553 41.9682 48.8327 41.8685C48.8101 41.7689 48.8096 41.6642 48.7895 41.5756C48.7643 41.4649 48.7442 41.3763 48.7216 41.2767C48.6964 41.166 48.6431 41.0849 48.6229 40.9964C48.5953 40.8746 48.5726 40.7749 48.555 40.6974C48.5374 40.6199 48.5505 40.5238 48.5329 40.4463C48.5153 40.3688 48.4756 40.2963 48.4469 40.2213C48.4268 40.1327 48.3578 40.1367 48.2642 40.1347C48.1706 40.1327 48.082 40.1528 48.0267 40.1654C47.9406 40.1966 47.7066 40.1915 47.7433 40.4044C47.7498 40.4844 47.775 40.5952 47.8001 40.7059C47.8338 40.803 47.8343 40.9077 47.857 41.0073C47.867 41.0516 47.9229 41.1437 47.9556 41.2877C47.9732 41.3652 47.9737 41.4699 47.9988 41.5806C48.0189 41.6692 48.0637 41.7638 48.0889 41.8745C48.109 41.9631 48.0984 42.0703 48.11 42.1724C48.1326 42.2721 48.1638 42.3581 48.1864 42.4578C48.2091 42.5574 48.2539 42.6521 48.2765 42.7517C48.2991 42.8514 48.2971 42.945 48.3197 43.0446C48.3424 43.1443 48.3872 43.2389 48.4098 43.3385C48.4324 43.4382 48.444 43.5404 48.4641 43.6289C48.4867 43.7286 48.4872 43.8333 48.5099 43.9329C48.5325 44.0326 48.5662 44.1297 48.5863 44.2183C48.609 44.3179 48.6316 44.4176 48.6517 44.5062C48.6744 44.6058 48.6859 44.708 48.7086 44.8076C48.7312 44.9073 48.776 45.0019 48.7961 45.0905C48.8187 45.1901 48.8524 45.2872 48.8751 45.3869C48.8977 45.4865 48.9093 45.5887 48.9294 45.6773C48.952 45.7769 48.9747 45.8766 48.9948 45.9652C49.0199 46.0759 49.0315 46.1781 49.0516 46.2666C49.0818 46.3995 49.1155 46.4966 49.1392 46.5495C49.1568 46.627 49.1573 46.7317 49.1824 46.8424C49.205 46.942 49.2277 47.0417 49.2453 47.1192C49.2493 47.1881 49.3172 47.2309 49.3837 47.2158C49.4612 47.1982 49.5583 47.1645 49.669 47.1394C49.7687 47.1167 49.8683 47.0941 49.9569 47.074C50.0123 47.0614 50.123 47.0363 50.2559 47.0061C50.3444 46.986 50.4466 46.9744 50.5573 46.9492C50.657 46.9266 50.7541 46.8929 50.8538 46.8703C50.9534 46.8476 51.0692 46.8446 51.1688 46.822C51.2685 46.7993 51.3631 46.7546 51.4627 46.7319C51.5734 46.7068 51.6731 46.6841 51.7727 46.6615C51.8724 46.6389 51.9771 46.6384 52.0767 46.6157C52.1849 46.5795 52.2795 46.5347 52.3681 46.5146C52.4899 46.487 52.5946 46.4865 52.6832 46.4663C52.816 46.4362 52.9157 46.4135 52.9796 46.3874C53.0903 46.3622 53.1739 46.32 53.2625 46.2998C53.3596 46.2661 53.4643 46.2656 53.5539 46.1987C53.6238 46.1479 53.5861 45.9818 53.566 45.8932C53.5433 45.7936 53.5202 45.5892 53.4216 45.5651ZM54.605 42.0012C54.5849 41.9126 54.5733 41.8104 54.5481 41.6997C54.5255 41.6 54.4918 41.5029 54.4692 41.4033C54.4465 41.3036 54.4018 41.209 54.3766 41.0983C54.354 40.9986 54.3535 40.8939 54.3308 40.7943C54.3082 40.6946 54.2745 40.5975 54.2519 40.4979C54.2292 40.3982 54.2373 40.2799 54.2172 40.1914C54.192 40.0806 54.1583 39.9835 54.1357 39.8839C54.113 39.7842 54.0657 39.6785 54.0456 39.5899C54.018 39.4681 54.0064 39.366 53.9888 39.2885C53.9486 39.1113 53.8927 39.0192 53.8444 38.9603C53.7639 38.8622 53.6813 38.8576 53.5127 38.8843C53.3467 38.922 53.2359 38.9472 53.2057 39.0705C53.1876 39.1444 53.2153 39.2662 53.2444 39.4459C53.262 39.5234 53.3068 39.618 53.3345 39.7398C53.3546 39.8284 53.3772 39.9281 53.4024 40.0388C53.4225 40.1274 53.4452 40.227 53.4592 40.3402C53.4794 40.4288 53.4909 40.531 53.5161 40.6417C53.5387 40.7414 53.5724 40.8385 53.595 40.9381C53.6177 41.0378 53.6514 41.1349 53.674 41.2346C53.6967 41.3342 53.6861 41.4414 53.7087 41.5411C53.7313 41.6407 53.7872 41.7328 53.8098 41.8325C53.8325 41.9321 53.844 42.0343 53.8692 42.145C53.8918 42.2447 53.9034 42.3468 53.926 42.4465C53.9376 42.5486 53.9934 42.6407 54.0161 42.7404C54.0387 42.84 54.0281 42.9472 54.0397 43.0494C54.0623 43.1491 54.096 43.2462 54.1187 43.3458C54.1413 43.4455 54.1861 43.5401 54.2087 43.6398C54.2314 43.7394 54.2318 43.8441 54.2545 43.9437C54.2771 44.0434 54.3219 44.138 54.3445 44.2377C54.3672 44.3373 54.3787 44.4395 54.4014 44.5391C54.424 44.6388 54.4245 44.7435 54.4471 44.8431C54.4723 44.9538 54.506 45.051 54.5261 45.1395C54.5513 45.2503 54.5739 45.3499 54.594 45.4385C54.6166 45.5381 54.6061 45.6453 54.6438 45.8114C54.6755 46.0022 54.9216 45.9579 54.988 45.9428C55.0877 45.9202 55.1848 45.8865 55.2709 45.8553C55.3765 45.808 55.449 45.7682 55.4289 45.6796C55.3977 45.5936 55.3801 45.5161 55.365 45.4496C55.3449 45.3611 55.3494 45.2785 55.3343 45.2121C55.3167 45.1346 55.283 45.0375 55.2579 44.9267C55.2378 44.8382 55.2373 44.7335 55.2121 44.6228C55.192 44.5342 55.1583 44.437 55.1357 44.3374C55.113 44.2377 55.104 44.1467 55.0813 44.047C55.0587 43.9474 55.025 43.8502 55.0024 43.7506C54.9797 43.6509 54.9596 43.5623 54.937 43.4627C54.9143 43.363 54.8806 43.2659 54.8605 43.1773C54.8379 43.0777 54.8263 42.9755 54.8037 42.8759C54.781 42.7762 54.7473 42.6791 54.7272 42.5905C54.6995 42.4687 54.7126 42.3726 54.695 42.2951C54.6799 42.2287 54.6326 42.123 54.605 42.0012ZM60.7973 38.0679C60.7722 37.9572 60.7385 37.8601 60.7184 37.7715C60.6831 37.6165 60.6469 37.5083 60.5986 37.4494C60.5292 37.3487 60.4416 37.322 60.278 37.3708C60.192 37.402 60.0727 37.4408 59.9363 37.5067C59.9514 37.5731 59.9987 37.6788 60.0289 37.8117C60.0354 37.8917 60.0359 37.9964 60.05 38.1096C60.0701 38.1982 60.1149 38.2928 60.1375 38.3925C60.1602 38.4921 60.1717 38.5943 60.1943 38.6939C60.217 38.7936 60.215 38.8872 60.2376 38.9868C60.2602 39.0865 60.2829 39.1861 60.3055 39.2858C60.3171 39.3879 60.3397 39.4876 60.3598 39.5762C60.3825 39.6758 60.4272 39.7704 60.4499 39.8701C60.4614 39.9723 60.473 40.0744 60.4956 40.1741C60.5158 40.2627 60.5605 40.3573 60.5832 40.4569C60.6058 40.5566 60.6063 40.6613 60.6264 40.7498C60.638 40.852 60.6717 40.9491 60.6943 41.0488C60.717 41.1484 60.7175 41.2531 60.7376 41.3417C60.7602 41.4413 60.805 41.536 60.8276 41.6356C60.8392 41.7378 60.8507 41.8399 60.8709 41.9285C60.896 42.0392 60.9161 42.1278 60.9363 42.2164C60.9614 42.3271 60.9508 42.4343 60.9599 42.5254C61.0001 42.7026 61.0389 42.8218 61.0278 42.8243C60.9145 42.8384 60.7621 42.6285 60.6977 42.55C60.6222 42.474 60.5578 42.3955 60.4959 42.3281C60.4204 42.2521 60.3364 42.1896 60.2609 42.1136C60.1854 42.0376 60.121 41.9591 60.048 41.8942C59.9725 41.8182 59.9081 41.7397 59.8327 41.6637C59.7597 41.5987 59.6646 41.5388 59.5891 41.4628C59.5161 41.3979 59.4492 41.3083 59.3762 41.2434C59.3008 41.1674 59.2278 41.1025 59.1523 41.0265C59.0683 40.964 58.9757 40.9152 58.9002 40.8392C58.8272 40.7743 58.7432 40.7119 58.6677 40.6359C58.5837 40.5734 58.5278 40.4813 58.4523 40.4053C58.3794 40.3404 58.2868 40.2916 58.2002 40.2181C58.1273 40.1532 58.0543 40.0882 57.9788 40.0122C57.9058 39.9473 57.8304 39.8713 57.7549 39.7953C57.6819 39.7304 57.6175 39.6518 57.542 39.5758C57.4665 39.4998 57.3936 39.4349 57.3181 39.3589C57.2451 39.294 57.1782 39.2044 57.1163 39.1369C57.0408 39.0609 56.9457 39.001 56.8728 38.9361C56.7973 38.8601 56.7414 38.768 56.6685 38.7031C56.593 38.6271 56.5089 38.5647 56.4445 38.4861C56.3529 38.3905 56.2961 38.3452 56.211 38.3296C56.1396 38.3225 56.0621 38.3402 55.9317 38.3814C55.6524 38.4332 55.667 38.395 55.6987 38.5857C55.7138 38.6521 55.7364 38.7518 55.7666 38.8847C55.7867 38.9732 55.8093 39.0729 55.8345 39.1836C55.8546 39.2722 55.844 39.3794 55.8692 39.4901C55.8893 39.5787 55.9341 39.6733 55.9592 39.784C55.9819 39.8837 56.0156 39.9808 56.0382 40.0805C56.0608 40.1801 56.0503 40.2873 56.0729 40.3869C56.0955 40.4866 56.1292 40.5837 56.1519 40.6834C56.1745 40.783 56.1861 40.8852 56.2223 40.9934C56.2449 41.093 56.2786 41.1902 56.3013 41.2898C56.3239 41.3895 56.3576 41.4866 56.3802 41.5863C56.4029 41.6859 56.4144 41.7881 56.4371 41.8877C56.4597 41.9874 56.4602 42.0921 56.4828 42.1917C56.5055 42.2914 56.5613 42.3835 56.584 42.4831C56.6066 42.5828 56.6292 42.6824 56.6519 42.7821C56.6745 42.8817 56.6861 42.9839 56.7087 43.0835C56.7339 43.1943 56.7676 43.2914 56.7877 43.38C56.8153 43.5018 56.8491 43.5989 56.8556 43.6789C56.8757 43.7675 56.8873 43.8697 56.9099 43.9693C56.9325 44.069 56.9663 44.1661 56.9889 44.2657C57.0115 44.3654 57.0009 44.4726 57.0211 44.5612C57.0437 44.6608 57.0996 44.7529 57.1222 44.8526C57.1448 44.9522 57.1453 45.0569 57.1679 45.1565C57.1956 45.2783 57.3239 45.3307 57.4644 45.3337C57.5937 45.3393 57.7291 45.3202 57.8398 45.295C58.0638 45.2558 57.9515 45.2231 57.9073 44.977C57.8922 44.9105 57.8721 44.822 57.8519 44.7334C57.8293 44.6337 57.8092 44.5451 57.7941 44.4787C57.7654 44.4037 57.7317 44.3066 57.7015 44.1737C57.6814 44.0851 57.6698 43.983 57.6422 43.8612C57.611 43.7751 57.5748 43.6669 57.5521 43.5673C57.5295 43.4676 57.5043 43.3569 57.4817 43.2572C57.4591 43.1576 57.4364 43.0579 57.4113 42.9472C57.3886 42.8476 57.366 42.7479 57.3409 42.6372C57.3182 42.5376 57.2956 42.4379 57.2704 42.3272C57.2478 42.2275 57.2252 42.1279 57.2025 42.0282C57.1774 41.9175 57.1437 41.8204 57.121 41.7207C57.0984 41.6211 57.0843 41.5078 57.0617 41.4082C57.0391 41.3085 57.0496 41.2013 57.027 41.1017C57.0019 40.991 56.9571 40.8964 56.9344 40.7967C56.9093 40.686 56.8867 40.5863 56.864 40.4867C56.8363 40.3649 56.8112 40.2542 56.7961 40.1877C56.7785 40.1102 56.7227 40.0181 56.8027 40.0116C56.8384 40.0151 56.9224 40.0775 57.014 40.1732C57.0623 40.2321 57.1267 40.3106 57.1886 40.378C57.2505 40.4455 57.3039 40.5265 57.3522 40.5854C57.398 40.6332 57.482 40.6956 57.5736 40.7912C57.644 40.8451 57.717 40.91 57.8061 40.9946C57.868 41.062 57.9238 41.1541 57.9968 41.2191C58.0723 41.2951 58.1734 41.3303 58.2489 41.4063C58.3219 41.4712 58.3863 41.5498 58.4703 41.6122C58.5458 41.6882 58.5991 41.7692 58.6746 41.8452C58.7476 41.9101 58.8402 41.959 58.9131 42.0239C58.9886 42.0999 59.0445 42.192 59.12 42.268C59.1929 42.3329 59.2659 42.3979 59.3389 42.4628C59.4143 42.5388 59.5069 42.5876 59.5799 42.6526C59.6554 42.7286 59.7198 42.8071 59.7928 42.872C59.8682 42.948 59.9608 42.9968 60.0338 43.0618C60.1093 43.1378 60.1737 43.2163 60.2467 43.2812C60.3221 43.3572 60.3755 43.4383 60.4484 43.5032C60.535 43.5767 60.619 43.6391 60.6784 43.6955C60.7675 43.78 60.8404 43.845 60.9023 43.9124C61.0025 43.9944 61.0583 44.0865 61.1041 44.1344C61.2068 44.2275 61.3155 44.2959 61.4191 44.3422C61.5228 44.3886 61.6325 44.4102 61.7875 44.375C61.9315 44.3423 61.9868 44.3297 62.01 44.2779C62.0442 44.2236 62.0181 44.1596 61.9879 44.0268C61.9813 43.9467 61.9698 43.8446 61.9557 43.7313C61.9356 43.6428 61.9019 43.5456 61.8767 43.4349C61.8541 43.3353 61.8561 43.2417 61.842 43.1284C61.8219 43.0398 61.7882 42.9427 61.7741 42.8295C61.754 42.7409 61.7424 42.6387 61.7173 42.528C61.6972 42.4394 61.6635 42.3423 61.6408 42.2426C61.6293 42.1405 61.6066 42.0408 61.584 41.9412C61.5724 41.839 61.5387 41.7419 61.5161 41.6422C61.4935 41.5426 61.4819 41.4404 61.4703 41.3382C61.4477 41.2386 61.414 41.1415 61.3914 41.0418C61.3798 40.9396 61.3793 40.835 61.3567 40.7353C61.334 40.6357 61.2918 40.5521 61.2802 40.45C61.2576 40.3503 61.2349 40.2507 61.2123 40.151C61.1897 40.0514 61.1892 39.9467 61.1665 39.847C61.1439 39.7474 61.1102 39.6502 61.0901 39.5617C61.0649 39.4509 61.0669 39.3573 61.0443 39.2577C61.0217 39.158 61.0101 39.0559 60.9875 38.9562C60.9648 38.8566 60.9201 38.762 60.8974 38.6623C60.8748 38.5627 60.8854 38.4555 60.8652 38.3669C60.8401 38.2562 60.8175 38.1565 60.7973 38.0679ZM68.7809 39.5612C68.7533 39.4394 68.7256 39.3176 68.6501 39.2416C68.5721 39.1545 68.471 39.1193 68.3245 39.1409C68.247 39.1585 68.1474 39.1812 68.0477 39.2038C67.9591 39.2239 67.857 39.2355 67.7573 39.2581C67.6577 39.2808 67.558 39.3034 67.4584 39.326C67.3698 39.3461 67.2626 39.3356 67.163 39.3582C67.0744 39.3783 66.9722 39.3899 66.8726 39.4125C66.784 39.4326 66.6894 39.4774 66.5897 39.5001C66.4901 39.5227 66.4065 39.565 66.3069 39.5876C66.2072 39.6102 66.1136 39.6082 66.025 39.6283C65.9143 39.6535 65.8197 39.6983 65.7422 39.7159C65.6561 39.7471 65.641 39.9368 65.6526 40.0389C65.6666 40.1522 65.7129 40.3047 65.8277 40.3485C65.9203 40.3973 66.0788 40.3264 66.2031 40.3098C66.2695 40.2947 66.3717 40.2831 66.5046 40.2529C66.6042 40.2303 66.7014 40.1966 66.8121 40.1714C66.9117 40.1488 67.0189 40.1594 67.1296 40.1342C67.2293 40.1116 67.3315 40.1 67.4311 40.0774C67.5418 40.0523 67.639 40.0185 67.7386 39.9959C67.8604 39.9682 67.9686 39.932 68.0351 39.9169C68.0416 39.997 68.0421 40.1016 68.0451 40.2174C68.0405 40.2999 68.041 40.4046 68.0305 40.5118C68.0284 40.6054 68.0153 40.7015 67.9937 40.8112C67.9806 40.9074 67.9811 41.012 67.968 41.1082C67.9413 41.1957 67.9061 41.2969 67.8708 41.398C67.8441 41.4856 67.82 41.5842 67.7822 41.6743C67.7334 41.7669 67.6685 41.8399 67.6196 41.9325C67.5683 42.014 67.5195 42.1066 67.4545 42.1796C67.3896 42.2525 67.3111 42.3169 67.2326 42.3813C67.1651 42.4432 67.0866 42.5076 66.9945 42.5635C66.9135 42.6168 66.8349 42.6812 66.7403 42.726C66.6543 42.7572 66.5571 42.7909 66.4575 42.8136C66.3578 42.8362 66.2531 42.8367 66.1595 42.8347C66.0574 42.8462 65.9552 42.8578 65.8591 42.8447C65.7519 42.8341 65.6643 42.8074 65.5657 42.7833C65.4645 42.748 65.377 42.7213 65.2844 42.6725C65.1943 42.6348 65.1128 42.5834 65.0202 42.5346C64.9386 42.4832 64.8742 42.4047 64.7902 42.3423C64.7172 42.2774 64.6272 42.2396 64.5517 42.1636C64.4898 42.0962 64.4143 42.0202 64.3524 41.9527C64.288 41.8742 64.2543 41.7771 64.2009 41.696C64.1365 41.6175 64.0721 41.539 64.0188 41.458C63.9629 41.3659 63.9096 41.2848 63.8673 41.2013C63.8115 41.1092 63.7889 41.0095 63.7577 40.9235C63.7129 40.8289 63.6595 40.7478 63.6258 40.6507C63.6032 40.551 63.572 40.465 63.5494 40.3653C63.5267 40.2657 63.5262 40.161 63.5036 40.0613C63.492 39.9592 63.4694 39.8595 63.4578 39.7574C63.4463 39.6552 63.4347 39.553 63.4232 39.4509C63.4227 39.3462 63.4468 39.2476 63.4463 39.1429C63.4459 39.0382 63.4232 38.9385 63.4363 38.8424C63.4469 38.7352 63.4711 38.6366 63.4952 38.5379C63.5169 38.4282 63.5546 38.3382 63.5924 38.2481C63.6276 38.1469 63.6407 38.0508 63.6896 37.9582C63.7273 37.8681 63.7897 37.7841 63.8521 37.7C63.9035 37.6185 63.9659 37.5345 64.0419 37.459C64.1068 37.386 64.1828 37.3106 64.2614 37.2461C64.3424 37.1928 64.432 37.1259 64.5266 37.0811C64.6101 37.0388 64.7234 37.0248 64.8205 36.9911C64.9066 36.9599 64.9962 36.8929 65.1069 36.8678C65.2176 36.8426 65.3223 36.8421 65.4245 36.8306C65.5377 36.8165 65.6484 36.7914 65.7531 36.7909C65.8714 36.7989 65.964 36.8478 66.0626 36.8719C66.1834 36.8911 66.2881 36.8906 66.3892 36.9258C66.4929 36.9721 66.588 37.032 66.6695 37.0834C66.7757 37.1408 66.8708 37.2007 66.9413 37.2545C67.0711 37.3647 67.1491 37.4518 67.1873 37.4664C67.2935 37.5238 67.3786 37.5394 67.4561 37.5218C67.5225 37.5067 67.6035 37.4534 67.6745 37.3558C67.7344 37.2606 67.7389 37.1781 67.746 37.1066C67.748 37.013 67.744 36.9441 67.6575 36.8706C67.5956 36.8032 67.514 36.7518 67.43 36.6894C67.357 36.6245 67.2926 36.546 67.2111 36.4946C67.1406 36.4408 67.0481 36.3919 66.9555 36.3431C66.8764 36.3028 66.7864 36.2651 66.6852 36.2298C66.5976 36.2031 66.5076 36.1654 66.4114 36.1523C66.3128 36.1281 66.2167 36.115 66.1231 36.113C66.027 36.0999 65.9258 36.0647 65.8211 36.0652C65.7275 36.0631 65.6329 36.1079 65.5307 36.1195C65.4396 36.1285 65.335 36.129 65.2353 36.1517C65.1442 36.1607 65.0481 36.1476 64.9484 36.1702C64.8377 36.1954 64.7456 36.2512 64.6596 36.2824C64.5624 36.3161 64.4628 36.3388 64.3656 36.3725C64.271 36.4173 64.1739 36.451 64.0903 36.4932C63.9982 36.5491 63.9061 36.6049 63.8276 36.6694C63.7466 36.7227 63.6842 36.8067 63.6056 36.8711C63.5271 36.9355 63.435 36.9914 63.3701 37.0644C63.3077 37.1484 63.2453 37.2324 63.1939 37.314C63.1315 37.398 63.1073 37.4966 63.0585 37.5892C63.0097 37.6818 62.9719 37.7719 62.9367 37.8731C62.8989 37.9631 62.8501 38.0557 62.8259 38.1544C62.8018 38.253 62.7776 38.3517 62.767 38.4589C62.7428 38.5575 62.7297 38.6536 62.7192 38.7608C62.7171 38.8544 62.7176 38.9591 62.7181 39.0638C62.7186 39.1685 62.7055 39.2646 62.706 39.3693C62.7065 39.4739 62.6959 39.5811 62.7075 39.6833C62.7165 39.7744 62.7417 39.8851 62.7643 39.9848C62.7759 40.0869 62.8096 40.1841 62.8212 40.2862C62.8438 40.3859 62.8664 40.4855 62.8891 40.5852C62.9117 40.6848 62.9454 40.782 62.968 40.8816C63.0017 40.9787 62.9912 41.0859 63.0274 41.1941C63.0611 41.2913 63.1255 41.3698 63.1703 41.4644C63.2151 41.559 63.2291 41.6723 63.2714 41.7558C63.3273 41.8479 63.3831 41.94 63.439 42.0321C63.4812 42.1157 63.5371 42.2078 63.5929 42.2999C63.6573 42.3784 63.7328 42.4544 63.7972 42.5329C63.8616 42.6114 63.9371 42.6874 64.0015 42.766C64.077 42.842 64.1525 42.918 64.2255 42.9829C64.3095 43.0453 64.4021 43.0941 64.4972 43.154C64.5787 43.2054 64.6628 43.2678 64.7639 43.303C64.8565 43.3519 64.9466 43.3896 65.0477 43.4249C65.1489 43.4601 65.2536 43.4596 65.3633 43.4813C65.4619 43.5054 65.5606 43.5296 65.6678 43.5402C65.7614 43.5422 65.8721 43.5171 65.9768 43.5166C66.0789 43.505 66.1886 43.5267 66.2908 43.5151C66.393 43.5035 66.4926 43.4809 66.6033 43.4557C66.703 43.4331 66.7951 43.3773 66.8922 43.3436C66.9894 43.3098 67.1026 43.2958 67.1887 43.2646C67.2944 43.2173 67.389 43.1725 67.47 43.1192C67.5621 43.0633 67.6245 42.9793 67.7166 42.9234C67.7952 42.859 67.8873 42.8032 67.9633 42.7277C68.0307 42.6658 68.1178 42.5878 68.1827 42.5148C68.2451 42.4308 68.2804 42.3296 68.3292 42.237C68.3916 42.153 68.4676 42.0775 68.5164 41.9849C68.5653 41.8923 68.5758 41.7851 68.6111 41.684C68.6488 41.5939 68.6841 41.4927 68.7193 41.3916C68.7435 41.2929 68.7677 41.1943 68.7808 41.0982C68.8024 40.9885 68.8377 40.8873 68.8507 40.7912C68.8613 40.684 68.8498 40.5818 68.8603 40.4746C68.8599 40.37 68.884 40.2713 68.8725 40.1692C68.872 40.0645 68.8715 39.9598 68.8599 39.8576C68.8484 39.7555 68.8036 39.6609 68.7809 39.5612Z" fill="#E9E7CF"/>
</svg>
