<svg viewBox="0 0 169 76" fill="none" xmlns="http://www.w3.org/2000/svg">
<g clip-path="url(#clip0)">
<rect width="165.512" height="33.9792" transform="translate(0 42.4116) rotate(-14.8474)" fill="white"/>
<rect y="42.4116" width="165.512" height="33.9792" transform="rotate(-14.8474 0 42.4116)" fill="#639FD9"/>
<mask id="path-2-outside-1" maskUnits="userSpaceOnUse" x="3.13461" y="-8.21872" width="166.736" height="90.6276" fill="black">
<rect fill="white" x="3.13461" y="-8.21872" width="166.736" height="90.6276"/>
<path d="M10.3103 54.1328C10.3413 54.2213 10.439 54.2368 10.6035 54.1793C10.7173 54.1395 11.2031 53.8844 12.0607 53.4141C12.931 52.9393 13.7371 52.5651 14.479 52.2914C13.7238 52.8111 13.0846 53.2973 12.5615 53.75C12.0466 54.1856 11.5175 54.6617 10.9742 55.1783C10.439 55.6778 10.05 56.0268 9.80713 56.2253C9.55981 56.4112 9.33496 56.5395 9.13257 56.6103C8.48745 56.836 8.01889 56.5314 7.72689 55.6965C6.97476 53.5461 6.98999 51.8443 7.77256 50.591C8.09141 50.0819 8.65377 49.4168 9.45965 48.5954C10.2738 47.757 11.2191 46.9082 12.2957 46.0489C13.3804 45.1726 14.6075 44.3175 15.9769 43.4837C17.3463 42.6498 18.752 41.9807 20.194 41.4763C21.674 40.9587 23.109 40.6981 24.499 40.6946C25.8891 40.6911 27.1387 40.9355 28.2479 41.4277C29.3526 41.9074 30.3232 42.6326 31.1597 43.6036C32.0089 44.5701 32.679 45.7554 33.1701 47.1595C33.9178 49.2972 34.0235 51.5885 33.4873 54.0333C32.9638 56.4737 31.941 58.8261 30.4189 61.0905C28.9051 63.3378 27.015 65.3618 24.7486 67.1624C22.4823 68.9631 20.0968 70.3014 17.5922 71.1774C17.1242 71.3411 16.7333 71.421 16.4197 71.4172C16.1186 71.4089 15.8581 71.2729 15.6381 71.0091C15.4225 70.758 15.2129 70.3415 15.0094 69.7596C14.7572 69.0386 14.6084 68.4305 14.563 67.9353C14.5175 67.4401 14.5237 66.8488 14.5814 66.1614C14.9915 61.4891 16.3839 55.3021 18.7584 47.6004C17.883 48.0201 16.9523 48.5657 15.9662 49.2371C14.9757 49.8959 14.0531 50.5664 13.1986 51.2486C12.344 51.9308 11.6369 52.5472 11.0771 53.098C10.5173 53.6487 10.2617 53.9936 10.3103 54.1328ZM19.2688 47.2941C19.2776 47.3194 19.3538 47.456 19.4973 47.7039C19.6364 47.9392 19.7391 48.1517 19.8055 48.3415C19.9072 48.6324 19.8992 49.0966 19.7815 49.7341C19.6719 50.3544 19.4152 51.4877 19.0114 53.1338C18.6076 54.7799 18.2727 56.2173 18.0068 57.4461C17.741 58.6748 17.463 60.2343 17.1729 62.1245C17.0843 62.7234 17.0203 63.1291 16.9811 63.3416C16.9418 63.5541 16.8791 63.9025 16.793 64.3869C16.7196 64.8669 16.6831 65.2701 16.6837 65.5964C16.6842 65.9228 16.7111 66.1618 16.7641 66.3136C16.8792 66.6425 17.1381 66.8146 17.541 66.8298C17.952 66.828 18.4928 66.7099 19.1632 66.4754C20.8835 65.8737 22.5966 64.9267 24.3025 63.6344C26.004 62.3294 27.5013 60.8262 28.7943 59.1246C30.1 57.4186 31.0133 55.6866 31.5341 53.9286C32.055 52.1705 32.0478 50.5262 31.5124 48.9957C30.9019 47.2501 29.7941 46.1327 28.1891 45.6435C26.5797 45.1416 24.5544 45.3176 22.113 46.1715C21.0884 46.5299 20.1403 46.9041 19.2688 47.2941Z"/>
<path d="M36.2911 39.9987C36.2645 39.9228 36.2007 39.9026 36.0995 39.938C35.5808 40.1194 35.2308 39.9508 35.0494 39.4321C34.9034 39.0147 34.8975 38.4702 35.0318 37.7986C35.166 37.127 35.4026 36.5047 35.7417 35.9318C36.0808 35.3589 36.4338 35.0083 36.8006 34.88C37.3193 34.6986 37.698 34.9495 37.9369 35.6325C38.1758 36.3156 38.1858 37.1355 37.9668 38.0923C37.7433 39.0365 37.4235 39.9079 37.0072 40.7066C36.5991 41.4881 36.3128 41.9077 36.1484 41.9652C36.0725 41.9918 36.0213 41.9671 35.9947 41.8912C35.9328 41.7141 35.9686 41.4105 36.1021 40.9805C36.2812 40.4778 36.3442 40.1505 36.2911 39.9987Z"/>
<path d="M51.4373 36.6177C51.7478 36.4097 52.0584 36.2017 52.369 35.9937C52.6922 35.7813 53.0198 35.5815 53.3519 35.3944C53.6966 35.2029 54.0397 35.0474 54.3813 34.9279C55.1149 34.6713 55.7986 34.6167 56.4322 34.7642C57.0785 34.9073 57.6277 35.2192 58.0798 35.6999C58.5401 36.1636 58.8853 36.7243 59.1154 37.3821C59.4737 38.4067 59.6954 39.6494 59.7805 41.1103C59.8738 42.5542 59.8115 44.0808 59.5936 45.6903C59.3757 47.2998 59.0111 48.8754 58.4998 50.4171C57.7973 52.5084 56.725 54.3741 55.2827 56.0143C53.8487 57.6374 52.3853 58.71 50.8927 59.2321C49.7922 59.617 48.7142 59.6604 47.6588 59.3623C46.6116 59.0471 45.6485 58.4044 44.7697 57.4341C43.899 56.4467 43.1938 55.1814 42.6541 53.6381C41.9285 51.5636 41.7658 49.2923 42.166 46.824C42.5745 44.3387 43.3446 41.954 44.4765 39.6699C45.6166 37.3688 46.8889 35.4047 48.2932 33.7778C49.6931 32.1382 50.9433 31.126 52.0438 30.7411C52.9419 30.427 53.7286 30.4641 54.4039 30.8526C55.0749 31.2284 55.8336 31.9568 56.6802 33.0378C55.5171 33.4872 54.5433 33.991 53.759 34.5493C52.9703 35.0949 52.1964 35.7844 51.4373 36.6177ZM48.003 42.1418C47.4494 43.4002 46.9804 44.9414 46.5962 46.7652C46.2201 48.5719 46.006 50.2936 45.9538 51.9303C45.9016 53.567 46.0082 54.7649 46.2737 55.5238C46.9329 57.4086 48.1416 58.0435 49.8999 57.4285C51.1269 56.9994 52.4182 55.6178 53.774 53.2838C55.1424 50.9454 56.1343 48.3625 56.7496 45.5351C57.3732 42.6906 57.3509 40.3133 56.6828 38.4032C56.1918 36.9992 55.3896 36.4918 54.2765 36.8811C53.4163 37.182 52.4859 37.8907 51.4852 39.0074C50.4844 40.124 49.6338 41.5076 48.9334 43.158C48.6879 43.755 48.274 45.1491 47.6917 47.3403C47.5035 46.0716 47.6073 44.3388 48.003 42.1418Z"/>
<path d="M64.4082 48.8616L63.9768 47.6283C64.3767 46.5799 64.6542 45.7091 64.8093 45.016C64.3559 45.0184 63.9989 44.9516 63.7384 44.8156C63.4905 44.6751 63.2957 44.4025 63.1542 43.9977C62.9949 43.5424 62.9833 42.9005 63.1195 42.072C63.2556 41.2436 63.4958 40.4284 63.84 39.6266C64.1842 38.8248 64.553 38.2557 64.9465 37.9193C65.0926 37.7688 65.2479 37.6648 65.4123 37.6073C65.6653 37.5188 65.8338 37.5947 65.9179 37.8351C65.9931 38.0501 65.9497 38.5551 65.7876 39.35C68.2518 38.0338 69.8254 37.2563 70.5085 37.0174C70.7741 36.9245 70.9664 36.8856 71.0853 36.9008C71.3402 36.9394 71.6102 37.1431 71.8953 37.5119C72.1804 37.8807 72.396 38.2738 72.542 38.6912C72.6349 38.9568 72.6165 39.2898 72.4868 39.6901C72.3653 40.0733 72.1239 40.6617 71.7626 41.4553C71.3444 42.4108 71.0558 43.392 70.8968 44.3988C70.7379 45.4055 70.7336 46.124 70.884 46.5541C71.092 47.1486 71.5628 47.3175 72.2964 47.0609C73.068 46.791 74.1346 45.5378 75.496 43.3012L75.9407 44.5725C75.2757 46.0402 74.7123 47.2097 74.2504 48.0811C73.7886 48.9525 73.3331 49.6797 72.8839 50.2627C72.4303 50.833 71.9759 51.1978 71.5205 51.3571C70.9892 51.5429 70.4624 51.4574 69.9401 51.1006C69.4134 50.7312 68.9885 50.0848 68.6656 49.1614C68.4753 48.6175 68.3977 47.949 68.4326 47.1559C68.4676 46.3629 68.6091 45.4687 68.8572 44.4733C69.1136 43.4608 69.4354 42.4326 69.8227 41.3885C69.495 41.5883 69.1253 41.8099 68.7136 42.0533C68.2974 42.284 67.8581 42.5299 67.3958 42.791C66.9334 43.0521 66.5783 43.2544 66.3303 43.3979C66.0947 45.2408 65.454 47.062 64.4082 48.8616Z"/>
<path d="M80.2463 32.1634C79.9301 32.274 79.5844 32.26 79.2095 32.1214C78.8471 31.9784 78.6018 31.7235 78.4735 31.3567C78.2788 30.8001 78.3277 30.0874 78.62 29.2185C78.9124 28.3496 79.3432 27.8156 79.9124 27.6165C80.2919 27.4838 80.6501 27.4934 80.9872 27.6452C81.3198 27.7844 81.5636 28.0754 81.7184 28.5181C81.9086 29.062 81.8595 29.7536 81.5709 30.5927C81.2824 31.4319 80.8408 31.9555 80.2463 32.1634ZM84.503 40.1935L84.9875 41.5786C84.3135 43.589 83.5868 45.1847 82.8074 46.3659C82.0236 47.5345 81.2586 48.2493 80.5122 48.5103C79.475 48.8731 78.5131 48.599 77.6267 47.6882C76.7402 46.7773 76.0713 45.6767 75.6201 44.3865C75.4475 43.8932 75.3344 43.4074 75.2808 42.9293C75.2227 42.4385 75.2123 42.0234 75.2497 41.6838C75.2871 41.3442 75.3871 40.7981 75.5498 40.0455C76.3683 36.6218 77.5238 34.6489 79.0165 34.1268C79.7881 33.8569 80.2778 34.0192 80.4858 34.6138C80.6274 35.0185 80.5956 35.7395 80.3905 36.7766C80.198 37.8093 79.9698 38.5777 79.706 39.0817C78.9771 40.5291 78.5149 41.5213 78.3194 42.0582C78.1365 42.5906 78.138 43.1225 78.3238 43.6538C78.4831 44.1091 78.7866 44.4289 79.2343 44.613C79.682 44.7972 80.1778 44.7941 80.7218 44.6039C81.3163 44.3959 81.8925 43.953 82.4505 43.2752C83.0166 42.5803 83.7008 41.5531 84.503 40.1935Z"/>
<path d="M99.8802 36.2419L95.3926 43.6251C94.6923 47.3057 93.8781 50.153 92.9499 52.1671C92.0262 54.1938 91.2101 55.331 90.5017 55.5788C90.1222 55.7115 89.8507 55.5438 89.687 55.0758C89.3684 54.1651 89.4231 52.8398 89.851 51.1001C90.0231 50.4153 90.2503 49.7253 90.5325 49.0304C90.8274 48.331 91.115 47.7122 91.3952 47.1741C91.6926 46.6442 92.0874 45.9666 92.5796 45.1414C93.0762 44.3289 93.4134 43.7708 93.5912 43.4673C93.9535 40.4444 94.1741 38.1525 94.2529 36.5917C93.5062 38.2726 92.8318 39.6726 92.2295 40.7919C91.6272 41.9111 91.0303 42.8226 90.4388 43.5264C89.8556 44.2131 89.2667 44.6604 88.6722 44.8683C88.0271 45.094 87.2534 44.7896 86.3511 43.9552C85.4444 43.1082 84.8008 42.1408 84.4203 41.053C84.2433 40.547 84.1713 39.9759 84.2044 39.3397C84.25 38.6991 84.4089 37.9762 84.681 37.1712C84.9658 36.3618 85.379 35.4932 85.9205 34.5656C86.4576 33.6253 87.1342 32.6575 87.9502 31.6623C89.4817 29.7495 90.7914 28.6029 91.8793 28.2224C92.6888 27.9393 93.1976 28.0949 93.4055 28.6895C93.6931 29.5117 93.0949 30.6224 91.6109 32.0216C90.6994 32.8657 89.8474 33.8594 89.0547 35.0026C88.2747 36.1415 87.7084 37.2623 87.3559 38.3652C87.0117 39.451 86.9612 40.3417 87.2045 41.0374C87.324 41.379 87.5013 41.6222 87.7366 41.767C87.9718 41.9119 88.2222 41.9379 88.4879 41.845C88.9306 41.6901 89.3658 41.3108 89.7934 40.7069C90.2211 40.103 90.8123 39.0941 91.5671 37.6802C91.9093 37.0352 92.3165 36.0481 92.7886 34.7188C93.2689 33.3725 93.6859 32.3323 94.0395 31.5981C94.4014 30.8469 94.8038 30.3938 95.2465 30.239C95.4995 30.1505 95.7306 30.1619 95.9399 30.2733C96.1575 30.3675 96.3193 30.5665 96.4255 30.8701C96.629 31.4519 96.6914 32.3813 96.6127 33.6581C96.5423 34.9179 96.3464 37.0165 96.0251 39.9541L99.4489 35.0086L99.8802 36.2419Z"/>
<path d="M104.116 23.8148C103.799 23.9254 103.454 23.9114 103.079 23.7729C102.716 23.6298 102.471 23.3749 102.343 23.0081C102.148 22.4515 102.197 21.7388 102.489 20.8699C102.782 20.001 103.213 19.467 103.782 19.2679C104.161 19.1352 104.52 19.1448 104.857 19.2966C105.189 19.4358 105.433 19.7268 105.588 20.1695C105.778 20.7135 105.729 21.405 105.44 22.2442C105.152 23.0833 104.71 23.6069 104.116 23.8148ZM108.372 31.8449L108.857 33.23C108.183 35.2404 107.456 36.8361 106.677 38.0173C105.893 39.1859 105.128 39.9007 104.382 40.1617C103.344 40.5245 102.382 40.2504 101.496 39.3396C100.61 38.4287 99.9407 37.3281 99.4894 36.0379C99.3169 35.5446 99.2038 35.0589 99.1501 34.5807C99.0921 34.09 99.0817 33.6748 99.1191 33.3352C99.1565 32.9956 99.2565 32.4495 99.4192 31.6969C100.238 28.2732 101.393 26.3003 102.886 25.7782C103.657 25.5083 104.147 25.6707 104.355 26.2652C104.497 26.67 104.465 27.3909 104.26 28.428C104.067 29.4607 103.839 30.2291 103.575 30.7331C102.847 32.1805 102.384 33.1727 102.189 33.7096C102.006 34.242 102.007 34.7739 102.193 35.3052C102.352 35.7606 102.656 36.0803 103.104 36.2644C103.551 36.4486 104.047 36.4455 104.591 36.2553C105.186 36.0473 105.762 35.6044 106.32 34.9266C106.886 34.2317 107.57 33.2045 108.372 31.8449Z"/>
<path d="M119.808 23.9908C118.449 27.2487 117.94 29.3647 118.28 30.3387C118.47 30.8826 118.787 31.0772 119.23 30.9223C119.596 30.794 120.004 30.4384 120.454 29.8554C120.911 29.2553 121.593 28.243 122.5 26.8183L122.958 28.1275C121.782 30.5267 120.85 32.2865 120.163 33.407C119.476 34.5275 118.828 35.1939 118.221 35.4063C117.184 35.7691 116.426 35.2674 115.949 33.9013C115.807 33.4965 115.731 33.0759 115.72 32.6396C115.71 32.2032 115.739 31.7387 115.808 31.246C115.885 30.7363 116.014 30.0097 116.195 29.0662C116.372 28.11 116.583 27.0283 116.828 25.821C116.235 26.44 115.585 27.4837 114.878 28.952C114.408 29.8829 114.035 30.7445 113.759 31.5368C113.478 32.3165 113.185 33.1854 112.882 34.1435C112.586 35.0845 112.352 35.7342 112.179 36.0928C112.015 36.4343 111.8 36.6514 111.534 36.7443C111.129 36.8859 110.608 36.5927 109.97 35.8646C109.332 35.1366 108.816 34.2097 108.422 33.0839C108.179 32.3882 108.065 31.8177 108.079 31.3725C108.107 30.9228 108.228 30.2556 108.444 29.3709C108.848 27.7248 109.258 26.4812 109.673 25.6402C110.085 24.7865 110.581 24.2579 111.163 24.0544C111.568 23.9128 111.915 23.8696 112.204 23.9247C112.505 23.9753 112.707 24.1461 112.809 24.4371C112.853 24.5636 112.862 24.7097 112.834 24.8753C112.807 25.041 112.763 25.1985 112.701 25.3477C112.653 25.4925 112.534 25.7825 112.345 26.2175C111.121 29.1302 110.624 30.9154 110.854 31.5732C110.982 31.94 111.167 32.0814 111.407 31.9974C111.559 31.9443 111.766 31.6022 112.028 30.9711C112.298 30.3229 112.637 29.4872 113.046 28.4641C113.463 27.4238 113.989 26.3099 114.624 25.1224C115.272 23.9304 116.058 22.7258 116.981 21.5086C117.487 20.8061 117.962 20.3774 118.405 20.2225C118.607 20.1517 118.901 20.3615 119.285 20.8517C119.682 21.3375 119.98 21.865 120.179 22.4342C120.276 22.7125 120.153 23.2313 119.808 23.9908Z"/>
<path d="M123.445 22.7612C124.757 20.3431 126.17 18.394 127.682 16.9138C129.195 15.4336 130.444 14.521 131.431 14.1759C131.696 14.083 131.983 14.1105 132.29 14.2586C132.593 14.394 132.859 14.585 133.087 14.8317C133.328 15.074 133.473 15.2647 133.521 15.4039C133.601 15.6315 133.572 15.8333 133.435 16.0091C133.293 16.1722 133.027 16.4071 132.638 16.7137C132.797 16.8851 133.002 17.1046 133.251 17.3722C133.501 17.6398 133.699 17.8615 133.846 18.0373C133.988 18.2005 134.086 18.358 134.139 18.5098C134.245 18.8134 134.134 19.491 133.807 20.5427C133.487 21.5772 133.269 22.3348 133.153 22.8154C133.05 23.2916 133.098 23.8143 133.297 24.3836C133.625 25.3196 134.219 25.6372 135.079 25.3364C135.964 25.0267 137.059 23.7137 138.365 21.3974L138.769 22.5548C136.812 27.2286 135.144 29.8066 133.766 30.2889C133.272 30.4614 132.861 30.4209 132.531 30.1672C132.218 29.9218 131.95 29.4828 131.729 28.8503C131.38 27.851 131.234 26.2766 131.291 24.127C130.161 26.8221 129.3 28.7632 128.707 29.9501C128.109 31.1244 127.52 31.8133 126.938 32.0168C126.66 32.1141 126.228 31.9955 125.642 31.6608C125.057 31.3261 124.467 30.8368 123.872 30.1929C123.286 29.5319 122.849 28.7903 122.562 27.9681C122.354 27.3735 122.238 26.8603 122.215 26.4284C122.187 25.9838 122.265 25.4952 122.448 24.9628C122.631 24.4303 122.963 23.6964 123.445 22.7612ZM131.804 17.4952C129.041 20.1508 127.142 22.2491 126.105 23.7901C125.081 25.3266 124.763 26.6515 125.153 27.7647C125.294 28.1694 125.481 28.4803 125.713 28.6973C125.941 28.9016 126.175 28.9617 126.415 28.8777C126.554 28.829 126.77 28.6542 127.062 28.3532C128.116 27.1044 128.974 25.6614 129.637 24.0242C130.295 22.3743 131.017 20.198 131.804 17.4952Z"/>
<path d="M147.196 18.0316L147.687 19.4357C146.269 23.8642 144.731 26.3683 143.074 26.9479C142.176 27.262 141.298 27.0228 140.438 26.2302C139.587 25.4205 138.883 24.2187 138.325 22.6249C137.874 21.3347 137.642 19.6979 137.63 17.7146C137.614 15.7187 137.793 13.633 138.168 11.4576C138.551 9.26506 139.049 7.30181 139.664 5.56784C140.287 3.8168 140.971 2.50562 141.717 1.6343C142.016 1.27388 142.274 1.05607 142.489 0.980858C142.755 0.887948 142.974 0.946173 143.146 1.15554C143.314 1.35226 143.498 1.73524 143.697 2.30446C144.312 4.06272 144.354 6.47573 143.823 9.54349C143.287 12.5986 142.208 15.9075 140.587 19.4702C140.69 20.1722 140.804 20.7003 140.928 21.0545C141.211 21.8641 141.612 22.4621 142.13 22.8486C142.662 23.2307 143.237 23.3134 143.857 23.0966C144.173 22.986 144.473 22.7464 144.755 22.3777C145.034 21.9964 145.311 21.5516 145.588 21.0432C145.864 20.5348 146.4 19.5309 147.196 18.0316ZM140.328 16.6006C140.761 15.7254 141.136 14.7705 141.456 13.7359C141.788 12.6969 142.063 11.6143 142.279 10.488C142.496 9.36171 142.625 8.37231 142.668 7.51982C142.723 6.6629 142.684 6.0447 142.551 5.66522C142.45 5.37428 142.298 5.26421 142.095 5.33499C142.019 5.36154 141.898 5.48199 141.732 5.69635C141.181 6.59869 140.749 8.14139 140.433 10.3244C140.113 12.4949 140.078 14.5869 140.328 16.6006Z"/>
<path d="M153.925 -4.68004C154.164 -4.84885 154.385 -4.96865 154.587 -5.03944C155.005 -5.18544 155.506 -5.2119 156.093 -5.11881C156.692 -5.03014 157.246 -4.80519 157.755 -4.44398C157.466 -3.36323 156.998 -1.59539 156.352 0.85953C155.719 3.31003 155.246 5.14364 154.933 6.36035C154.62 7.57706 154.302 8.83836 153.978 10.1442C153.654 11.4501 153.416 12.4559 153.266 13.1617C153.524 13.1282 153.695 13.2317 153.779 13.472C153.832 13.6238 153.771 13.9362 153.595 14.4092C153.433 14.8778 153.231 15.1541 152.991 15.2382C152.713 15.3355 152.27 15.2064 151.663 14.8509C151.056 14.4953 150.688 14.1341 150.56 13.7673C150.498 13.5902 150.487 13.2534 150.526 12.757C150.578 12.2561 150.7 11.4893 150.893 10.4566C151.081 9.41127 151.295 8.25747 151.535 6.99521C151.787 5.72852 152.089 4.17504 152.439 2.33477C153.132 -1.24396 153.627 -3.58223 153.925 -4.68004ZM153.007 22.7713C152.627 22.904 152.196 22.8701 151.714 22.6695C151.228 22.4563 150.879 22.0461 150.666 21.4389C150.388 20.642 150.276 19.6731 150.331 18.5322C150.399 17.3869 150.655 16.7368 151.097 16.582C151.376 16.4847 151.689 16.4885 152.038 16.5936C152.396 16.6816 152.737 16.8672 153.064 17.1506C153.39 17.434 153.628 17.7908 153.779 18.2208C154.022 18.9166 154.071 19.808 153.926 20.8951C153.781 21.9822 153.475 22.6076 153.007 22.7713Z"/>
</mask>
<path d="M10.3103 54.1328C10.3413 54.2213 10.439 54.2368 10.6035 54.1793C10.7173 54.1395 11.2031 53.8844 12.0607 53.4141C12.931 52.9393 13.7371 52.5651 14.479 52.2914C13.7238 52.8111 13.0846 53.2973 12.5615 53.75C12.0466 54.1856 11.5175 54.6617 10.9742 55.1783C10.439 55.6778 10.05 56.0268 9.80713 56.2253C9.55981 56.4112 9.33496 56.5395 9.13257 56.6103C8.48745 56.836 8.01889 56.5314 7.72689 55.6965C6.97476 53.5461 6.98999 51.8443 7.77256 50.591C8.09141 50.0819 8.65377 49.4168 9.45965 48.5954C10.2738 47.757 11.2191 46.9082 12.2957 46.0489C13.3804 45.1726 14.6075 44.3175 15.9769 43.4837C17.3463 42.6498 18.752 41.9807 20.194 41.4763C21.674 40.9587 23.109 40.6981 24.499 40.6946C25.8891 40.6911 27.1387 40.9355 28.2479 41.4277C29.3526 41.9074 30.3232 42.6326 31.1597 43.6036C32.0089 44.5701 32.679 45.7554 33.1701 47.1595C33.9178 49.2972 34.0235 51.5885 33.4873 54.0333C32.9638 56.4737 31.941 58.8261 30.4189 61.0905C28.9051 63.3378 27.015 65.3618 24.7486 67.1624C22.4823 68.9631 20.0968 70.3014 17.5922 71.1774C17.1242 71.3411 16.7333 71.421 16.4197 71.4172C16.1186 71.4089 15.8581 71.2729 15.6381 71.0091C15.4225 70.758 15.2129 70.3415 15.0094 69.7596C14.7572 69.0386 14.6084 68.4305 14.563 67.9353C14.5175 67.4401 14.5237 66.8488 14.5814 66.1614C14.9915 61.4891 16.3839 55.3021 18.7584 47.6004C17.883 48.0201 16.9523 48.5657 15.9662 49.2371C14.9757 49.8959 14.0531 50.5664 13.1986 51.2486C12.344 51.9308 11.6369 52.5472 11.0771 53.098C10.5173 53.6487 10.2617 53.9936 10.3103 54.1328ZM19.2688 47.2941C19.2776 47.3194 19.3538 47.456 19.4973 47.7039C19.6364 47.9392 19.7391 48.1517 19.8055 48.3415C19.9072 48.6324 19.8992 49.0966 19.7815 49.7341C19.6719 50.3544 19.4152 51.4877 19.0114 53.1338C18.6076 54.7799 18.2727 56.2173 18.0068 57.4461C17.741 58.6748 17.463 60.2343 17.1729 62.1245C17.0843 62.7234 17.0203 63.1291 16.9811 63.3416C16.9418 63.5541 16.8791 63.9025 16.793 64.3869C16.7196 64.8669 16.6831 65.2701 16.6837 65.5964C16.6842 65.9228 16.7111 66.1618 16.7641 66.3136C16.8792 66.6425 17.1381 66.8146 17.541 66.8298C17.952 66.828 18.4928 66.7099 19.1632 66.4754C20.8835 65.8737 22.5966 64.9267 24.3025 63.6344C26.004 62.3294 27.5013 60.8262 28.7943 59.1246C30.1 57.4186 31.0133 55.6866 31.5341 53.9286C32.055 52.1705 32.0478 50.5262 31.5124 48.9957C30.9019 47.2501 29.7941 46.1327 28.1891 45.6435C26.5797 45.1416 24.5544 45.3176 22.113 46.1715C21.0884 46.5299 20.1403 46.9041 19.2688 47.2941Z" stroke="#E9E7CF" stroke-width="0.385526" mask="url(#path-2-outside-1)"/>
<path d="M36.2911 39.9987C36.2645 39.9228 36.2007 39.9026 36.0995 39.938C35.5808 40.1194 35.2308 39.9508 35.0494 39.4321C34.9034 39.0147 34.8975 38.4702 35.0318 37.7986C35.166 37.127 35.4026 36.5047 35.7417 35.9318C36.0808 35.3589 36.4338 35.0083 36.8006 34.88C37.3193 34.6986 37.698 34.9495 37.9369 35.6325C38.1758 36.3156 38.1858 37.1355 37.9668 38.0923C37.7433 39.0365 37.4235 39.9079 37.0072 40.7066C36.5991 41.4881 36.3128 41.9077 36.1484 41.9652C36.0725 41.9918 36.0213 41.9671 35.9947 41.8912C35.9328 41.7141 35.9686 41.4105 36.1021 40.9805C36.2812 40.4778 36.3442 40.1505 36.2911 39.9987Z" stroke="#E9E7CF" stroke-width="0.385526" mask="url(#path-2-outside-1)"/>
<path d="M51.4373 36.6177C51.7478 36.4097 52.0584 36.2017 52.369 35.9937C52.6922 35.7813 53.0198 35.5815 53.3519 35.3944C53.6966 35.2029 54.0397 35.0474 54.3813 34.9279C55.1149 34.6713 55.7986 34.6167 56.4322 34.7642C57.0785 34.9073 57.6277 35.2192 58.0798 35.6999C58.5401 36.1636 58.8853 36.7243 59.1154 37.3821C59.4737 38.4067 59.6954 39.6494 59.7805 41.1103C59.8738 42.5542 59.8115 44.0808 59.5936 45.6903C59.3757 47.2998 59.0111 48.8754 58.4998 50.4171C57.7973 52.5084 56.725 54.3741 55.2827 56.0143C53.8487 57.6374 52.3853 58.71 50.8927 59.2321C49.7922 59.617 48.7142 59.6604 47.6588 59.3623C46.6116 59.0471 45.6485 58.4044 44.7697 57.4341C43.899 56.4467 43.1938 55.1814 42.6541 53.6381C41.9285 51.5636 41.7658 49.2923 42.166 46.824C42.5745 44.3387 43.3446 41.954 44.4765 39.6699C45.6166 37.3688 46.8889 35.4047 48.2932 33.7778C49.6931 32.1382 50.9433 31.126 52.0438 30.7411C52.9419 30.427 53.7286 30.4641 54.4039 30.8526C55.0749 31.2284 55.8336 31.9568 56.6802 33.0378C55.5171 33.4872 54.5433 33.991 53.759 34.5493C52.9703 35.0949 52.1964 35.7844 51.4373 36.6177ZM48.003 42.1418C47.4494 43.4002 46.9804 44.9414 46.5962 46.7652C46.2201 48.5719 46.006 50.2936 45.9538 51.9303C45.9016 53.567 46.0082 54.7649 46.2737 55.5238C46.9329 57.4086 48.1416 58.0435 49.8999 57.4285C51.1269 56.9994 52.4182 55.6178 53.774 53.2838C55.1424 50.9454 56.1343 48.3625 56.7496 45.5351C57.3732 42.6906 57.3509 40.3133 56.6828 38.4032C56.1918 36.9992 55.3896 36.4918 54.2765 36.8811C53.4163 37.182 52.4859 37.8907 51.4852 39.0074C50.4844 40.124 49.6338 41.5076 48.9334 43.158C48.6879 43.755 48.274 45.1491 47.6917 47.3403C47.5035 46.0716 47.6073 44.3388 48.003 42.1418Z" stroke="#E9E7CF" stroke-width="0.385526" mask="url(#path-2-outside-1)"/>
<path d="M64.4082 48.8616L63.9768 47.6283C64.3767 46.5799 64.6542 45.7091 64.8093 45.016C64.3559 45.0184 63.9989 44.9516 63.7384 44.8156C63.4905 44.6751 63.2957 44.4025 63.1542 43.9977C62.9949 43.5424 62.9833 42.9005 63.1195 42.072C63.2556 41.2436 63.4958 40.4284 63.84 39.6266C64.1842 38.8248 64.553 38.2557 64.9465 37.9193C65.0926 37.7688 65.2479 37.6648 65.4123 37.6073C65.6653 37.5188 65.8338 37.5947 65.9179 37.8351C65.9931 38.0501 65.9497 38.5551 65.7876 39.35C68.2518 38.0338 69.8254 37.2563 70.5085 37.0174C70.7741 36.9245 70.9664 36.8856 71.0853 36.9008C71.3402 36.9394 71.6102 37.1431 71.8953 37.5119C72.1804 37.8807 72.396 38.2738 72.542 38.6912C72.6349 38.9568 72.6165 39.2898 72.4868 39.6901C72.3653 40.0733 72.1239 40.6617 71.7626 41.4553C71.3444 42.4108 71.0558 43.392 70.8968 44.3988C70.7379 45.4055 70.7336 46.124 70.884 46.5541C71.092 47.1486 71.5628 47.3175 72.2964 47.0609C73.068 46.791 74.1346 45.5378 75.496 43.3012L75.9407 44.5725C75.2757 46.0402 74.7123 47.2097 74.2504 48.0811C73.7886 48.9525 73.3331 49.6797 72.8839 50.2627C72.4303 50.833 71.9759 51.1978 71.5205 51.3571C70.9892 51.5429 70.4624 51.4574 69.9401 51.1006C69.4134 50.7312 68.9885 50.0848 68.6656 49.1614C68.4753 48.6175 68.3977 47.949 68.4326 47.1559C68.4676 46.3629 68.6091 45.4687 68.8572 44.4733C69.1136 43.4608 69.4354 42.4326 69.8227 41.3885C69.495 41.5883 69.1253 41.8099 68.7136 42.0533C68.2974 42.284 67.8581 42.5299 67.3958 42.791C66.9334 43.0521 66.5783 43.2544 66.3303 43.3979C66.0947 45.2408 65.454 47.062 64.4082 48.8616Z" stroke="#E9E7CF" stroke-width="0.385526" mask="url(#path-2-outside-1)"/>
<path d="M80.2463 32.1634C79.9301 32.274 79.5844 32.26 79.2095 32.1214C78.8471 31.9784 78.6018 31.7235 78.4735 31.3567C78.2788 30.8001 78.3277 30.0874 78.62 29.2185C78.9124 28.3496 79.3432 27.8156 79.9124 27.6165C80.2919 27.4838 80.6501 27.4934 80.9872 27.6452C81.3198 27.7844 81.5636 28.0754 81.7184 28.5181C81.9086 29.062 81.8595 29.7536 81.5709 30.5927C81.2824 31.4319 80.8408 31.9555 80.2463 32.1634ZM84.503 40.1935L84.9875 41.5786C84.3135 43.589 83.5868 45.1847 82.8074 46.3659C82.0236 47.5345 81.2586 48.2493 80.5122 48.5103C79.475 48.8731 78.5131 48.599 77.6267 47.6882C76.7402 46.7773 76.0713 45.6767 75.6201 44.3865C75.4475 43.8932 75.3344 43.4074 75.2808 42.9293C75.2227 42.4385 75.2123 42.0234 75.2497 41.6838C75.2871 41.3442 75.3871 40.7981 75.5498 40.0455C76.3683 36.6218 77.5238 34.6489 79.0165 34.1268C79.7881 33.8569 80.2778 34.0192 80.4858 34.6138C80.6274 35.0185 80.5956 35.7395 80.3905 36.7766C80.198 37.8093 79.9698 38.5777 79.706 39.0817C78.9771 40.5291 78.5149 41.5213 78.3194 42.0582C78.1365 42.5906 78.138 43.1225 78.3238 43.6538C78.4831 44.1091 78.7866 44.4289 79.2343 44.613C79.682 44.7972 80.1778 44.7941 80.7218 44.6039C81.3163 44.3959 81.8925 43.953 82.4505 43.2752C83.0166 42.5803 83.7008 41.5531 84.503 40.1935Z" stroke="#E9E7CF" stroke-width="0.385526" mask="url(#path-2-outside-1)"/>
<path d="M99.8802 36.2419L95.3926 43.6251C94.6923 47.3057 93.8781 50.153 92.9499 52.1671C92.0262 54.1938 91.2101 55.331 90.5017 55.5788C90.1222 55.7115 89.8507 55.5438 89.687 55.0758C89.3684 54.1651 89.4231 52.8398 89.851 51.1001C90.0231 50.4153 90.2503 49.7253 90.5325 49.0304C90.8274 48.331 91.115 47.7122 91.3952 47.1741C91.6926 46.6442 92.0874 45.9666 92.5796 45.1414C93.0762 44.3289 93.4134 43.7708 93.5912 43.4673C93.9535 40.4444 94.1741 38.1525 94.2529 36.5917C93.5062 38.2726 92.8318 39.6726 92.2295 40.7919C91.6272 41.9111 91.0303 42.8226 90.4388 43.5264C89.8556 44.2131 89.2667 44.6604 88.6722 44.8683C88.0271 45.094 87.2534 44.7896 86.3511 43.9552C85.4444 43.1082 84.8008 42.1408 84.4203 41.053C84.2433 40.547 84.1713 39.9759 84.2044 39.3397C84.25 38.6991 84.4089 37.9762 84.681 37.1712C84.9658 36.3618 85.379 35.4932 85.9205 34.5656C86.4576 33.6253 87.1342 32.6575 87.9502 31.6623C89.4817 29.7495 90.7914 28.6029 91.8793 28.2224C92.6888 27.9393 93.1976 28.0949 93.4055 28.6895C93.6931 29.5117 93.0949 30.6224 91.6109 32.0216C90.6994 32.8657 89.8474 33.8594 89.0547 35.0026C88.2747 36.1415 87.7084 37.2623 87.3559 38.3652C87.0117 39.451 86.9612 40.3417 87.2045 41.0374C87.324 41.379 87.5013 41.6222 87.7366 41.767C87.9718 41.9119 88.2222 41.9379 88.4879 41.845C88.9306 41.6901 89.3658 41.3108 89.7934 40.7069C90.2211 40.103 90.8123 39.0941 91.5671 37.6802C91.9093 37.0352 92.3165 36.0481 92.7886 34.7188C93.2689 33.3725 93.6859 32.3323 94.0395 31.5981C94.4014 30.8469 94.8038 30.3938 95.2465 30.239C95.4995 30.1505 95.7306 30.1619 95.9399 30.2733C96.1575 30.3675 96.3193 30.5665 96.4255 30.8701C96.629 31.4519 96.6914 32.3813 96.6127 33.6581C96.5423 34.9179 96.3464 37.0165 96.0251 39.9541L99.4489 35.0086L99.8802 36.2419Z" stroke="#E9E7CF" stroke-width="0.385526" mask="url(#path-2-outside-1)"/>
<path d="M104.116 23.8148C103.799 23.9254 103.454 23.9114 103.079 23.7729C102.716 23.6298 102.471 23.3749 102.343 23.0081C102.148 22.4515 102.197 21.7388 102.489 20.8699C102.782 20.001 103.213 19.467 103.782 19.2679C104.161 19.1352 104.52 19.1448 104.857 19.2966C105.189 19.4358 105.433 19.7268 105.588 20.1695C105.778 20.7135 105.729 21.405 105.44 22.2442C105.152 23.0833 104.71 23.6069 104.116 23.8148ZM108.372 31.8449L108.857 33.23C108.183 35.2404 107.456 36.8361 106.677 38.0173C105.893 39.1859 105.128 39.9007 104.382 40.1617C103.344 40.5245 102.382 40.2504 101.496 39.3396C100.61 38.4287 99.9407 37.3281 99.4894 36.0379C99.3169 35.5446 99.2038 35.0589 99.1501 34.5807C99.0921 34.09 99.0817 33.6748 99.1191 33.3352C99.1565 32.9956 99.2565 32.4495 99.4192 31.6969C100.238 28.2732 101.393 26.3003 102.886 25.7782C103.657 25.5083 104.147 25.6707 104.355 26.2652C104.497 26.67 104.465 27.3909 104.26 28.428C104.067 29.4607 103.839 30.2291 103.575 30.7331C102.847 32.1805 102.384 33.1727 102.189 33.7096C102.006 34.242 102.007 34.7739 102.193 35.3052C102.352 35.7606 102.656 36.0803 103.104 36.2644C103.551 36.4486 104.047 36.4455 104.591 36.2553C105.186 36.0473 105.762 35.6044 106.32 34.9266C106.886 34.2317 107.57 33.2045 108.372 31.8449Z" stroke="#E9E7CF" stroke-width="0.385526" mask="url(#path-2-outside-1)"/>
<path d="M119.808 23.9908C118.449 27.2487 117.94 29.3647 118.28 30.3387C118.47 30.8826 118.787 31.0772 119.23 30.9223C119.596 30.794 120.004 30.4384 120.454 29.8554C120.911 29.2553 121.593 28.243 122.5 26.8183L122.958 28.1275C121.782 30.5267 120.85 32.2865 120.163 33.407C119.476 34.5275 118.828 35.1939 118.221 35.4063C117.184 35.7691 116.426 35.2674 115.949 33.9013C115.807 33.4965 115.731 33.0759 115.72 32.6396C115.71 32.2032 115.739 31.7387 115.808 31.246C115.885 30.7363 116.014 30.0097 116.195 29.0662C116.372 28.11 116.583 27.0283 116.828 25.821C116.235 26.44 115.585 27.4837 114.878 28.952C114.408 29.8829 114.035 30.7445 113.759 31.5368C113.478 32.3165 113.185 33.1854 112.882 34.1435C112.586 35.0845 112.352 35.7342 112.179 36.0928C112.015 36.4343 111.8 36.6514 111.534 36.7443C111.129 36.8859 110.608 36.5927 109.97 35.8646C109.332 35.1366 108.816 34.2097 108.422 33.0839C108.179 32.3882 108.065 31.8177 108.079 31.3725C108.107 30.9228 108.228 30.2556 108.444 29.3709C108.848 27.7248 109.258 26.4812 109.673 25.6402C110.085 24.7865 110.581 24.2579 111.163 24.0544C111.568 23.9128 111.915 23.8696 112.204 23.9247C112.505 23.9753 112.707 24.1461 112.809 24.4371C112.853 24.5636 112.862 24.7097 112.834 24.8753C112.807 25.041 112.763 25.1985 112.701 25.3477C112.653 25.4925 112.534 25.7825 112.345 26.2175C111.121 29.1302 110.624 30.9154 110.854 31.5732C110.982 31.94 111.167 32.0814 111.407 31.9974C111.559 31.9443 111.766 31.6022 112.028 30.9711C112.298 30.3229 112.637 29.4872 113.046 28.4641C113.463 27.4238 113.989 26.3099 114.624 25.1224C115.272 23.9304 116.058 22.7258 116.981 21.5086C117.487 20.8061 117.962 20.3774 118.405 20.2225C118.607 20.1517 118.901 20.3615 119.285 20.8517C119.682 21.3375 119.98 21.865 120.179 22.4342C120.276 22.7125 120.153 23.2313 119.808 23.9908Z" stroke="#E9E7CF" stroke-width="0.385526" mask="url(#path-2-outside-1)"/>
<path d="M123.445 22.7612C124.757 20.3431 126.17 18.394 127.682 16.9138C129.195 15.4336 130.444 14.521 131.431 14.1759C131.696 14.083 131.983 14.1105 132.29 14.2586C132.593 14.394 132.859 14.585 133.087 14.8317C133.328 15.074 133.473 15.2647 133.521 15.4039C133.601 15.6315 133.572 15.8333 133.435 16.0091C133.293 16.1722 133.027 16.4071 132.638 16.7137C132.797 16.8851 133.002 17.1046 133.251 17.3722C133.501 17.6398 133.699 17.8615 133.846 18.0373C133.988 18.2005 134.086 18.358 134.139 18.5098C134.245 18.8134 134.134 19.491 133.807 20.5427C133.487 21.5772 133.269 22.3348 133.153 22.8154C133.05 23.2916 133.098 23.8143 133.297 24.3836C133.625 25.3196 134.219 25.6372 135.079 25.3364C135.964 25.0267 137.059 23.7137 138.365 21.3974L138.769 22.5548C136.812 27.2286 135.144 29.8066 133.766 30.2889C133.272 30.4614 132.861 30.4209 132.531 30.1672C132.218 29.9218 131.95 29.4828 131.729 28.8503C131.38 27.851 131.234 26.2766 131.291 24.127C130.161 26.8221 129.3 28.7632 128.707 29.9501C128.109 31.1244 127.52 31.8133 126.938 32.0168C126.66 32.1141 126.228 31.9955 125.642 31.6608C125.057 31.3261 124.467 30.8368 123.872 30.1929C123.286 29.5319 122.849 28.7903 122.562 27.9681C122.354 27.3735 122.238 26.8603 122.215 26.4284C122.187 25.9838 122.265 25.4952 122.448 24.9628C122.631 24.4303 122.963 23.6964 123.445 22.7612ZM131.804 17.4952C129.041 20.1508 127.142 22.2491 126.105 23.7901C125.081 25.3266 124.763 26.6515 125.153 27.7647C125.294 28.1694 125.481 28.4803 125.713 28.6973C125.941 28.9016 126.175 28.9617 126.415 28.8777C126.554 28.829 126.77 28.6542 127.062 28.3532C128.116 27.1044 128.974 25.6614 129.637 24.0242C130.295 22.3743 131.017 20.198 131.804 17.4952Z" stroke="#E9E7CF" stroke-width="0.385526" mask="url(#path-2-outside-1)"/>
<path d="M147.196 18.0316L147.687 19.4357C146.269 23.8642 144.731 26.3683 143.074 26.9479C142.176 27.262 141.298 27.0228 140.438 26.2302C139.587 25.4205 138.883 24.2187 138.325 22.6249C137.874 21.3347 137.642 19.6979 137.63 17.7146C137.614 15.7187 137.793 13.633 138.168 11.4576C138.551 9.26506 139.049 7.30181 139.664 5.56784C140.287 3.8168 140.971 2.50562 141.717 1.6343C142.016 1.27388 142.274 1.05607 142.489 0.980858C142.755 0.887948 142.974 0.946173 143.146 1.15554C143.314 1.35226 143.498 1.73524 143.697 2.30446C144.312 4.06272 144.354 6.47573 143.823 9.54349C143.287 12.5986 142.208 15.9075 140.587 19.4702C140.69 20.1722 140.804 20.7003 140.928 21.0545C141.211 21.8641 141.612 22.4621 142.13 22.8486C142.662 23.2307 143.237 23.3134 143.857 23.0966C144.173 22.986 144.473 22.7464 144.755 22.3777C145.034 21.9964 145.311 21.5516 145.588 21.0432C145.864 20.5348 146.4 19.5309 147.196 18.0316ZM140.328 16.6006C140.761 15.7254 141.136 14.7705 141.456 13.7359C141.788 12.6969 142.063 11.6143 142.279 10.488C142.496 9.36171 142.625 8.37231 142.668 7.51982C142.723 6.6629 142.684 6.0447 142.551 5.66522C142.45 5.37428 142.298 5.26421 142.095 5.33499C142.019 5.36154 141.898 5.48199 141.732 5.69635C141.181 6.59869 140.749 8.14139 140.433 10.3244C140.113 12.4949 140.078 14.5869 140.328 16.6006Z" stroke="#E9E7CF" stroke-width="0.385526" mask="url(#path-2-outside-1)"/>
<path d="M153.925 -4.68004C154.164 -4.84885 154.385 -4.96865 154.587 -5.03944C155.005 -5.18544 155.506 -5.2119 156.093 -5.11881C156.692 -5.03014 157.246 -4.80519 157.755 -4.44398C157.466 -3.36323 156.998 -1.59539 156.352 0.85953C155.719 3.31003 155.246 5.14364 154.933 6.36035C154.62 7.57706 154.302 8.83836 153.978 10.1442C153.654 11.4501 153.416 12.4559 153.266 13.1617C153.524 13.1282 153.695 13.2317 153.779 13.472C153.832 13.6238 153.771 13.9362 153.595 14.4092C153.433 14.8778 153.231 15.1541 152.991 15.2382C152.713 15.3355 152.27 15.2064 151.663 14.8509C151.056 14.4953 150.688 14.1341 150.56 13.7673C150.498 13.5902 150.487 13.2534 150.526 12.757C150.578 12.2561 150.7 11.4893 150.893 10.4566C151.081 9.41127 151.295 8.25747 151.535 6.99521C151.787 5.72852 152.089 4.17504 152.439 2.33477C153.132 -1.24396 153.627 -3.58223 153.925 -4.68004ZM153.007 22.7713C152.627 22.904 152.196 22.8701 151.714 22.6695C151.228 22.4563 150.879 22.0461 150.666 21.4389C150.388 20.642 150.276 19.6731 150.331 18.5322C150.399 17.3869 150.655 16.7368 151.097 16.582C151.376 16.4847 151.689 16.4885 152.038 16.5936C152.396 16.6816 152.737 16.8672 153.064 17.1506C153.39 17.434 153.628 17.7908 153.779 18.2208C154.022 18.9166 154.071 19.808 153.926 20.8951C153.781 21.9822 153.475 22.6076 153.007 22.7713Z" stroke="#E9E7CF" stroke-width="0.385526" mask="url(#path-2-outside-1)"/>
<path d="M37.7027 45.0901C37.7172 45.1447 37.7751 45.1586 37.8764 45.1317C37.9466 45.1131 38.2499 44.9826 38.7864 44.7403C39.3306 44.4959 39.8317 44.3088 40.2895 44.1791C39.8123 44.4558 39.4061 44.7178 39.0712 44.9651C38.742 45.2026 38.4024 45.4636 38.0524 45.7483C37.7081 46.0232 37.4585 46.2145 37.3035 46.3223C37.1465 46.4223 37.0056 46.4889 36.8809 46.5219C36.4833 46.6273 36.2163 46.4228 36.0799 45.9083C35.7286 44.5831 35.8169 43.5627 36.3447 42.8471C36.5597 42.5565 36.928 42.1835 37.4497 41.7282C37.9772 41.2629 38.5838 40.7976 39.2697 40.3321C39.9613 39.8567 40.7373 39.4007 41.5977 38.9641C42.4581 38.5274 43.3327 38.1913 44.2213 37.9557C45.1334 37.7139 46.0065 37.6243 46.8407 37.6868C47.6749 37.7493 48.4134 37.954 49.056 38.3009C49.6965 38.6401 50.2452 39.1204 50.7019 39.7418C51.1665 40.3612 51.5135 41.1036 51.7429 41.9688C52.0921 43.2863 52.049 44.666 51.6137 46.1079C51.1861 47.5479 50.463 48.9118 49.4445 50.1996C48.4317 51.4777 47.2036 52.6042 45.76 53.5792C44.3165 54.5543 42.823 55.2464 41.2795 55.6556C40.9911 55.732 40.7528 55.7618 40.5648 55.7449C40.3846 55.7259 40.2346 55.6322 40.1148 55.4637C39.9971 55.303 39.8908 55.0434 39.7957 54.6848C39.6779 54.2405 39.6169 53.8687 39.6127 53.5694C39.6084 53.2702 39.6396 52.9157 39.7062 52.5059C40.1695 49.7216 41.2925 46.0741 43.0752 41.5634C42.5305 41.7746 41.9467 42.0586 41.3238 42.4157C40.6989 42.7649 40.1142 43.1243 39.5698 43.4939C39.0253 43.8635 38.5723 44.2005 38.2109 44.5049C37.8494 44.8093 37.68 45.0044 37.7027 45.0901ZM43.3957 41.4034C43.3999 41.4189 43.4392 41.5045 43.5138 41.6599C43.5863 41.8075 43.6381 41.9398 43.6691 42.0568C43.7166 42.236 43.6902 42.5142 43.5899 42.8912C43.4954 43.2583 43.2887 43.9264 42.9698 44.8953C42.651 45.8642 42.3833 46.7111 42.1666 47.4359C41.95 48.1608 41.7107 49.0836 41.4488 50.2043C41.3677 50.5595 41.3105 50.7999 41.2771 50.9256C41.2437 51.0513 41.1898 51.2574 41.1157 51.5441C41.0493 51.8287 41.0086 52.0689 40.9938 52.2647C40.979 52.4605 40.984 52.6052 41.0088 52.6988C41.0625 52.9014 41.2099 53.0167 41.4509 53.0446C41.6976 53.0626 42.0275 53.0169 42.4407 52.9073C43.5009 52.6263 44.5728 52.1377 45.6564 51.4416C46.738 50.7378 47.7062 49.9054 48.5611 48.9446C49.4239 47.9817 50.0524 46.9849 50.4466 45.9543C50.8408 44.9237 50.9129 43.9368 50.6629 42.9935C50.3777 41.9178 49.765 41.1958 48.8247 40.8277C47.8824 40.4517 46.659 40.4632 45.1545 40.862C44.5231 41.0294 43.9368 41.2099 43.3957 41.4034Z" fill="#0B1F3C"/>
<path d="M53.9484 37.8174C53.936 37.7707 53.8986 37.7556 53.8362 37.7721C53.5166 37.8568 53.3144 37.7394 53.2297 37.4198C53.1615 37.1625 53.1833 36.8355 53.2951 36.4388C53.4068 36.0421 53.5777 35.6797 53.8078 35.3517C54.0379 35.0238 54.266 34.8298 54.4921 34.7699C54.8117 34.6852 55.0273 34.8533 55.1389 35.2742C55.2505 35.6952 55.2183 36.1876 55.0424 36.7515C54.8645 37.3076 54.632 37.8156 54.3451 38.2754C54.0639 38.7254 53.8727 38.9639 53.7713 38.9907C53.7246 39.0031 53.695 38.9859 53.6826 38.9392C53.6536 38.83 53.6892 38.6495 53.7893 38.3977C53.9202 38.1044 53.9732 37.911 53.9484 37.8174Z" fill="#0B1F3C"/>
<path d="M63.1934 36.493C63.3894 36.3826 63.5854 36.2722 63.7814 36.1619C63.9852 36.0494 64.1911 35.9448 64.399 35.848C64.6147 35.7491 64.8278 35.6717 65.0383 35.6159C65.4904 35.496 65.9032 35.4951 66.2765 35.613C66.6577 35.7289 66.9727 35.9416 67.2216 36.2511C67.4762 36.5507 67.6572 36.9031 67.7647 37.3085C67.9321 37.9399 68.0074 38.6959 67.9905 39.5764C67.9793 40.4471 67.871 41.3602 67.6654 42.3157C67.4599 43.2713 67.1678 44.1997 66.7894 45.101C66.2707 46.3231 65.5405 47.3927 64.5989 48.3098C63.663 49.217 62.7352 49.7925 61.8153 50.0364C61.1371 50.2162 60.4883 50.1921 59.8689 49.9642C59.2552 49.7264 58.7072 49.296 58.225 48.6729C57.7485 48.04 57.3842 47.248 57.1321 46.297C56.7932 45.0185 56.8012 43.6481 57.1561 42.1858C57.5167 40.7135 58.0896 39.3185 58.875 38.0007C59.666 36.673 60.5207 35.5537 61.4389 34.6428C62.3551 33.7241 63.1522 33.1749 63.8304 32.9951C64.3839 32.8484 64.8542 32.9073 65.2414 33.1717C65.6265 33.4284 66.0479 33.9007 66.5056 34.5887C65.7868 34.8043 65.1791 35.0613 64.6826 35.3598C64.184 35.6505 63.6875 36.0282 63.1934 36.493ZM60.876 39.6478C60.4853 40.3771 60.1323 41.28 59.8169 42.3564C59.5073 43.423 59.2988 44.4461 59.1914 45.4257C59.084 46.4053 59.0922 47.1289 59.2162 47.5967C59.5241 48.7582 60.2199 49.1953 61.3034 48.9081C62.0596 48.7076 62.8987 47.9387 63.8206 46.6013C64.7504 45.2619 65.4656 43.7582 65.9662 42.0904C66.4726 40.4126 66.5698 38.9852 66.2577 37.8081C66.0283 36.9428 65.5706 36.6011 64.8846 36.783C64.3546 36.9235 63.7633 37.3055 63.111 37.929C62.4586 38.5524 61.884 39.343 61.387 40.3008C61.2119 40.6475 60.8988 41.4647 60.4475 42.7524C60.3936 41.9825 60.5364 40.9476 60.876 39.6478Z" fill="#0B1F3C"/>
<path d="M70.4068 44.4424L70.2053 43.6823C70.494 43.0718 70.701 42.5622 70.8262 42.1536C70.5541 42.134 70.343 42.0773 70.193 41.9836C70.0508 41.8878 69.9466 41.7152 69.8805 41.4657C69.8061 41.1851 69.829 40.7994 69.9492 40.3086C70.0694 39.8179 70.2514 39.34 70.4952 38.8749C70.739 38.4098 70.9867 38.0854 71.2384 37.9019C71.3331 37.8184 71.4311 37.7632 71.5325 37.7364C71.6884 37.695 71.7859 37.7484 71.8252 37.8965C71.8603 38.0291 71.8108 38.33 71.6766 38.7995C73.2163 38.1243 74.1967 37.7309 74.6176 37.6193C74.7813 37.5759 74.8985 37.5616 74.9691 37.5762C75.1202 37.6112 75.2728 37.746 75.4267 37.9805C75.5807 38.215 75.6917 38.4609 75.7599 38.7182C75.8033 38.8819 75.7768 39.0808 75.6803 39.3149C75.5896 39.5392 75.4174 39.8811 75.1638 40.3404C74.8684 40.8943 74.6496 41.4696 74.5075 42.0663C74.3653 42.6629 74.3293 43.0938 74.3996 43.3588C74.4967 43.7252 74.7713 43.8485 75.2235 43.7286C75.699 43.6026 76.3972 42.9002 77.318 41.6215L77.5257 42.405C77.0585 43.2547 76.6661 43.9302 76.3484 44.4316C76.0308 44.933 75.7237 45.3481 75.4271 45.677C75.1285 45.9981 74.8388 46.1959 74.5582 46.2703C74.2308 46.3571 73.9187 46.2813 73.6219 46.043C73.323 45.7968 73.0981 45.3892 72.9473 44.8201C72.8584 44.4849 72.8429 44.0802 72.9008 43.606C72.9586 43.1318 73.0851 42.6018 73.2802 42.0161C73.4811 41.4206 73.722 40.8186 74.0029 40.2102C73.797 40.3148 73.5649 40.4306 73.3065 40.5575C73.0461 40.6766 72.7711 40.8037 72.4815 40.9389C72.192 41.074 71.9695 41.1789 71.8141 41.2535C71.587 42.3482 71.1179 43.4112 70.4068 44.4424Z" fill="#0B1F3C"/>
<path d="M80.686 35.1596C80.4911 35.2113 80.2844 35.1868 80.0658 35.0862C79.8551 34.9836 79.7197 34.8192 79.6598 34.5932C79.5689 34.2502 79.6313 33.8248 79.8471 33.317C80.0629 32.8093 80.3462 32.5089 80.697 32.4159C80.9309 32.3539 81.1454 32.3763 81.3406 32.4831C81.5337 32.5821 81.6664 32.768 81.7387 33.0409C81.8276 33.3761 81.766 33.7887 81.5538 34.2788C81.3416 34.7689 81.0524 35.0625 80.686 35.1596ZM82.8667 40.1756L83.093 41.0292C82.5952 42.2041 82.085 43.1278 81.5624 43.8003C81.0378 44.465 80.5456 44.8583 80.0856 44.9802C79.4464 45.1497 78.882 44.9405 78.3925 44.3528C77.903 43.765 77.5528 43.0736 77.342 42.2785C77.2614 41.9744 77.2161 41.6778 77.2062 41.3884C77.1941 41.0912 77.2072 40.8416 77.2454 40.6396C77.2837 40.4376 77.3691 40.1146 77.5017 39.6706C78.1519 37.6544 78.937 36.5243 79.8568 36.2805C80.3323 36.1544 80.6187 36.2746 80.7158 36.641C80.7819 36.8904 80.7293 37.3215 80.558 37.9343C80.3945 38.545 80.2219 38.9954 80.0402 39.2855C79.5356 40.1201 79.2121 40.6939 79.0699 41.007C78.9354 41.3179 78.9115 41.6371 78.9983 41.9645C79.0727 42.2452 79.24 42.4511 79.5 42.5824C79.7601 42.7137 80.0577 42.7349 80.393 42.6461C80.7593 42.5489 81.1257 42.31 81.4919 41.9292C81.8639 41.5386 82.3222 40.9541 82.8667 40.1756Z" fill="#0B1F3C"/>
<path d="M92.2769 38.5195L89.241 42.7408C88.6498 44.9166 88.0289 46.5872 87.3783 47.7525C86.7298 48.9256 86.1873 49.57 85.7508 49.6857C85.5169 49.7477 85.3618 49.6345 85.2853 49.3461C85.1365 48.7848 85.2309 47.9922 85.5685 46.9683C85.7037 46.5653 85.872 46.1619 86.0737 45.7581C86.2831 45.3521 86.4844 44.9942 86.6776 44.6844C86.8806 44.3803 87.149 43.9921 87.4827 43.5198C87.8185 43.0554 88.0467 42.7362 88.1675 42.5624C88.5255 40.7655 88.7643 39.4006 88.8842 38.4678C88.358 39.4416 87.8883 40.2503 87.4749 40.8938C87.0614 41.5374 86.6609 42.0565 86.2733 42.4513C85.8915 42.8362 85.5173 43.0772 85.151 43.1743C84.7534 43.2797 84.3033 43.0611 83.8007 42.5186C83.2961 41.9682 82.9549 41.3578 82.7772 40.6874C82.6945 40.3756 82.6779 40.0296 82.7272 39.6494C82.7844 39.2672 82.9134 38.8409 83.1141 38.3705C83.3226 37.8981 83.6108 37.3961 83.9789 36.8647C84.3449 36.3255 84.7958 35.7763 85.3317 35.2171C86.3395 34.1406 87.1787 33.5135 87.8491 33.3358C88.348 33.2035 88.646 33.3206 88.7431 33.687C88.8774 34.1937 88.4669 34.8323 87.5114 35.6029C86.9253 36.0669 86.3678 36.6235 85.8391 37.2727C85.3181 37.9197 84.9263 38.5659 84.6635 39.2112C84.4065 39.8467 84.3348 40.3788 84.4484 40.8076C84.5042 41.018 84.5993 41.1722 84.7337 41.2701C84.8681 41.3679 85.0172 41.3952 85.1809 41.3518C85.4537 41.2794 85.7325 41.072 86.0172 40.7296C86.3018 40.3871 86.7034 39.8093 87.222 38.996C87.4574 38.6249 87.7476 38.0516 88.0926 37.276C88.4434 36.4905 88.742 35.8857 88.9883 35.4617C89.2404 35.0277 89.5028 34.7746 89.7757 34.7023C89.9316 34.6609 90.0697 34.6785 90.1901 34.7551C90.3163 34.8218 90.4041 34.9487 90.4537 35.1357C90.5488 35.4943 90.543 36.0548 90.4365 36.8173C90.3356 37.5699 90.1205 38.82 89.7912 40.5676L92.0754 37.7595L92.2769 38.5195Z" fill="#0B1F3C"/>
<path d="M95.3959 31.2601C95.201 31.3117 94.9943 31.2873 94.7757 31.1867C94.5649 31.084 94.4296 30.9197 94.3697 30.6936C94.2787 30.3506 94.3412 29.9252 94.557 29.4175C94.7728 28.9098 95.0561 28.6094 95.4069 28.5164C95.6408 28.4544 95.8553 28.4768 96.0504 28.5836C96.2436 28.6826 96.3763 28.8685 96.4486 29.1413C96.5375 29.4765 96.4758 29.8892 96.2637 30.3792C96.0515 30.8693 95.7622 31.1629 95.3959 31.2601ZM97.5766 36.2761L97.8029 37.1297C97.3051 38.3045 96.7949 39.2282 96.2723 39.9007C95.7477 40.5654 95.2554 40.9587 94.7955 41.0806C94.1563 41.2501 93.5919 41.041 93.1024 40.4532C92.6128 39.8655 92.2627 39.174 92.0519 38.3789C91.9713 38.0749 91.926 37.7782 91.916 37.4888C91.904 37.1917 91.9171 36.9421 91.9553 36.74C91.9935 36.538 92.0789 36.215 92.2115 35.7711C92.8618 33.7548 93.6468 32.6248 94.5667 32.3809C95.0422 32.2549 95.3285 32.375 95.4256 32.7414C95.4918 32.9909 95.4392 33.422 95.2679 34.0347C95.1044 34.6454 94.9318 35.0958 94.7501 35.3859C94.2455 36.2205 93.922 36.7944 93.7797 37.1074C93.6453 37.4184 93.6214 37.7376 93.7082 38.065C93.7826 38.3456 93.9498 38.5516 94.2099 38.6829C94.47 38.8142 94.7676 38.8354 95.1028 38.7465C95.4692 38.6494 95.8355 38.4104 96.2018 38.0297C96.5738 37.639 97.0321 37.0545 97.5766 36.2761Z" fill="#0B1F3C"/>
<path d="M104.803 32.0952C103.836 33.9868 103.432 35.2327 103.591 35.8329C103.68 36.1681 103.861 36.2996 104.134 36.2272C104.36 36.1673 104.621 35.9729 104.918 35.644C105.22 35.3052 105.677 34.7295 106.287 33.9168L106.501 34.7237C105.683 36.1085 105.043 37.1211 104.578 37.7614C104.114 38.4018 103.695 38.7716 103.32 38.8708C102.681 39.0402 102.25 38.704 102.027 37.8621C101.961 37.6126 101.935 37.3568 101.948 37.0944C101.962 36.8321 102.001 36.5548 102.066 36.2624C102.136 35.9601 102.247 35.5302 102.4 34.9725C102.55 34.407 102.727 33.7677 102.93 33.0548C102.546 33.3986 102.107 33.9946 101.614 34.8427C101.289 35.3794 101.026 35.879 100.823 36.3416C100.618 36.7964 100.402 37.3041 100.175 37.8648C99.9543 38.4157 99.7836 38.7947 99.6633 39.0018C99.5487 39.199 99.4096 39.3193 99.2459 39.3627C98.9964 39.4289 98.6972 39.2287 98.3483 38.7622C97.9994 38.2957 97.7329 37.7155 97.549 37.0218C97.4354 36.593 97.3933 36.2454 97.4228 35.979C97.46 35.7104 97.564 35.3158 97.7346 34.795C98.0535 33.8261 98.3571 33.099 98.6456 32.6137C98.9321 32.1206 99.2546 31.8265 99.6132 31.7314C99.8626 31.6653 100.073 31.6555 100.244 31.702C100.422 31.7464 100.535 31.8583 100.583 32.0375C100.604 32.1155 100.602 32.2035 100.578 32.3017C100.554 32.3998 100.52 32.4923 100.476 32.579C100.44 32.6636 100.355 32.832 100.222 33.0843C99.3521 34.775 98.9708 35.823 99.0783 36.2284C99.1382 36.4545 99.2422 36.5479 99.3903 36.5086C99.4839 36.4838 99.6239 36.2882 99.8104 35.9217C100.003 35.5453 100.245 35.0597 100.538 34.4648C100.837 33.86 101.204 33.2161 101.64 32.5331C102.084 31.8481 102.612 31.1618 103.222 30.4744C103.559 30.0764 103.864 29.8413 104.136 29.7689C104.261 29.7359 104.427 29.8753 104.635 30.1873C104.851 30.4973 105.005 30.8276 105.098 31.1784C105.144 31.3499 105.045 31.6555 104.803 32.0952Z" fill="#0B1F3C"/>
<path d="M107.043 31.5265C107.942 30.1366 108.88 29.0328 109.857 28.215C110.833 27.3972 111.625 26.9077 112.233 26.7465C112.397 26.7031 112.567 26.7329 112.745 26.8361C112.92 26.9314 113.071 27.0584 113.196 27.217C113.33 27.3735 113.408 27.4947 113.43 27.5805C113.468 27.7208 113.441 27.8405 113.35 27.9396C113.258 28.0309 113.087 28.1594 112.839 28.3253C112.927 28.4356 113.04 28.5768 113.177 28.7489C113.314 28.9211 113.423 29.0633 113.503 29.1756C113.581 29.2802 113.632 29.3792 113.657 29.4728C113.706 29.6599 113.608 30.0613 113.363 30.677C113.123 31.2829 112.957 31.7274 112.865 32.0104C112.781 32.2913 112.786 32.6071 112.879 32.9579C113.032 33.5348 113.373 33.7529 113.903 33.6124C114.449 33.4678 115.167 32.7309 116.058 31.4018L116.247 32.115C114.855 34.8284 113.735 36.2977 112.885 36.5229C112.581 36.6035 112.336 36.56 112.15 36.3925C111.973 36.2307 111.833 35.9549 111.73 35.5651C111.567 34.9493 111.552 33.9978 111.687 32.7107C110.883 34.2753 110.276 35.3999 109.865 36.0845C109.452 36.7613 109.067 37.1472 108.708 37.2423C108.537 37.2877 108.283 37.1965 107.947 36.9684C107.611 36.7404 107.28 36.4194 106.954 36.0054C106.633 35.5815 106.405 35.1163 106.271 34.6096C106.173 34.2432 106.128 33.9299 106.134 33.6696C106.138 33.4016 106.207 33.112 106.342 32.8011C106.476 32.4901 106.71 32.0652 107.043 31.5265ZM112.303 28.7554C110.522 30.2204 109.284 31.3911 108.591 32.2675C107.905 33.1418 107.653 33.922 107.835 34.608C107.901 34.8574 107.998 35.0526 108.127 35.1936C108.255 35.3268 108.392 35.3737 108.54 35.3345C108.626 35.3117 108.764 35.2169 108.953 35.0499C109.643 34.3496 110.225 33.5236 110.699 32.5721C111.17 31.6128 111.705 30.3406 112.303 28.7554Z" fill="#0B1F3C"/>
<path d="M121.513 29.7929L121.743 30.6581C120.686 33.2494 119.647 34.6803 118.626 34.951C118.072 35.0978 117.556 34.9134 117.077 34.3979C116.604 33.8725 116.238 33.1187 115.977 32.1365C115.766 31.3413 115.704 30.3485 115.788 29.158C115.871 27.9596 116.076 26.7165 116.402 25.4287C116.733 24.1309 117.124 22.9762 117.573 21.9643C118.028 20.9427 118.5 20.1878 118.988 19.6996C119.184 19.4973 119.349 19.3786 119.482 19.3435C119.645 19.3001 119.774 19.3452 119.868 19.4788C119.96 19.6047 120.052 19.843 120.145 20.1938C120.432 21.2774 120.345 22.7271 119.884 24.5431C119.42 26.3513 118.619 28.2865 117.481 30.3488C117.51 30.7748 117.554 31.0969 117.612 31.3152C117.744 31.8141 117.957 32.1916 118.25 32.4476C118.551 32.7016 118.892 32.7779 119.274 32.6766C119.469 32.625 119.66 32.4951 119.847 32.2871C120.031 32.0712 120.219 31.8172 120.408 31.525C120.598 31.2328 120.966 30.6554 121.513 29.7929ZM117.459 28.6149C117.759 28.1099 118.029 27.5545 118.269 26.9486C118.516 26.3406 118.731 25.7038 118.914 25.0381C119.096 24.3723 119.22 23.7847 119.285 23.2752C119.358 22.7636 119.363 22.3909 119.301 22.157C119.254 21.9777 119.168 21.9046 119.043 21.9377C118.996 21.9501 118.918 22.0167 118.808 22.1376C118.436 22.6534 118.104 23.5589 117.814 24.8541C117.521 26.1415 117.403 27.3951 117.459 28.6149Z" fill="#0B1F3C"/>
<path d="M126.606 16.4785C126.758 16.3884 126.896 16.3267 127.02 16.2937C127.278 16.2255 127.58 16.2329 127.927 16.316C128.283 16.3971 128.605 16.5578 128.894 16.7982C128.67 17.4333 128.307 18.4722 127.805 19.9152C127.311 21.356 126.942 22.4342 126.698 23.1497C126.454 23.8652 126.204 24.6072 125.949 25.3756C125.694 26.1441 125.505 26.7366 125.381 27.153C125.538 27.1449 125.636 27.215 125.675 27.3631C125.7 27.4566 125.648 27.6412 125.521 27.9169C125.402 28.1905 125.268 28.3469 125.12 28.3862C124.949 28.4316 124.689 28.3336 124.341 28.092C123.994 27.8505 123.79 27.6167 123.73 27.3906C123.701 27.2815 123.71 27.0789 123.756 26.7828C123.811 26.4847 123.92 26.0303 124.083 25.4197C124.245 24.8012 124.427 24.1188 124.629 23.3726C124.84 22.6244 125.093 21.7063 125.389 20.6184C125.971 18.5033 126.377 17.1234 126.606 16.4785ZM124.779 32.9068C124.545 32.9688 124.288 32.9284 124.009 32.7857C123.727 32.6351 123.536 32.3727 123.437 31.9986C123.307 31.5075 123.285 30.9209 123.371 30.239C123.465 29.5549 123.648 29.1768 123.921 29.1044C124.093 29.059 124.281 29.0759 124.485 29.1551C124.696 29.2245 124.892 29.3518 125.075 29.537C125.257 29.7222 125.384 29.9474 125.454 30.2124C125.568 30.6411 125.556 31.1783 125.418 31.8238C125.281 32.4693 125.068 32.8303 124.779 32.9068Z" fill="#0B1F3C"/>
</g>
<defs>
<clipPath id="clip0">
<rect width="165.512" height="33.9792" fill="white" transform="translate(0 42.4116) rotate(-14.8474)"/>
</clipPath>
</defs>
</svg>
