<svg viewBox="0 0 91 89" fill="none" xmlns="http://www.w3.org/2000/svg">
<g clip-path="url(#clip0)">
<rect width="70.7402" height="65.4157" transform="translate(26.1516) rotate(23.5642)" fill="white"/>
<rect x="26.1516" width="74.5797" height="66.1763" transform="rotate(23.5642 26.1516 0)" fill="#E46328"/>
<path d="M40.6528 11.8432C40.8081 11.3491 40.9466 10.8476 41.0271 10.3409C41.1076 9.83416 41.1302 9.32225 41.1117 8.8125C41.0674 7.80985 40.6344 6.77816 39.7638 6.19776C39.5762 6.07579 39.3643 5.96334 39.1378 5.8846C38.9039 5.82272 38.6553 5.79457 38.4088 5.80749C38.1624 5.82041 37.9181 5.8744 37.6738 5.9284C37.6085 5.94006 37.5674 5.94221 37.519 5.96122C37.5022 5.95387 37.4948 5.97073 37.4948 5.97073C37.3474 5.9867 37.2168 6.01002 37.062 6.04284C36.7282 6.118 36.3702 6.20267 36.0291 6.29469C35.7848 6.34869 35.5405 6.40268 35.3152 6.5051C35.291 6.51461 35.2668 6.52411 35.2425 6.53362C35.1141 6.59802 35.0151 6.59497 34.9131 6.69093C34.5079 6.97577 34.1576 7.36482 33.8579 7.77593C33.5413 8.17968 33.2775 8.64657 33.0379 9.10396C32.8224 9.55183 32.6408 10.0144 32.4928 10.4917C32.3375 10.9859 32.199 11.4874 32.1111 12.0109C32.083 12.2595 32.0548 12.5081 32.0267 12.7567C32.0154 13.0127 32.0283 13.2591 32.0412 13.5056C32.0468 13.7689 32.0766 14.0227 32.1232 14.2838C32.1603 14.5208 32.2312 14.7724 32.2925 14.9998C32.4247 15.4789 32.6054 15.939 32.8418 16.3632C32.9516 16.5716 33.0855 16.7705 33.2511 16.9431C33.4262 17.1398 33.6086 17.3197 33.8079 17.507C33.8827 17.5195 33.9479 17.5079 34.0374 17.4867C34.1101 17.4582 34.1996 17.437 34.2817 17.4327C34.5018 17.3882 34.7461 17.3342 34.9735 17.2729C35.2178 17.2189 35.4695 17.148 35.7211 17.0772C35.7622 17.075 35.7864 17.0655 35.8106 17.056C35.9001 17.0348 35.9823 17.0305 36.0549 17.002C36.2919 16.9649 36.5193 16.9035 36.7467 16.8422C37.0563 16.7765 37.3564 16.6867 37.6565 16.5968C37.7386 16.5925 37.8112 16.564 37.8744 16.5112C38.4962 15.9597 39.0052 15.2987 39.4373 14.5841C39.9524 13.7251 40.3737 12.8052 40.6528 11.8432ZM37.3269 14.8677C36.9264 15.556 36.4658 16.1979 35.9188 16.762C35.9019 16.7547 35.8851 16.7473 35.8851 16.7473C35.7026 16.5674 35.5202 16.3875 35.3767 16.1644C35.2354 15.9823 35.1183 15.7908 35.0158 15.5655C34.8036 15.1318 34.6304 14.6549 34.515 14.1832C34.461 13.9389 34.3902 13.6872 34.3604 13.4334C34.3306 13.1796 34.3177 12.9332 34.3121 12.6699C34.2936 12.1601 34.3573 11.6461 34.4642 11.1709C34.6663 10.1554 34.9696 9.18391 35.4657 8.2765C35.7222 7.82647 35.9787 7.37644 36.3121 6.98004C36.4751 6.79026 36.655 6.60785 36.8371 6.46651C36.9456 6.49377 37.071 6.52838 37.1817 6.59672C37.4103 6.71653 37.6317 6.8532 37.8046 7.00888C37.987 7.18878 38.1284 7.37083 38.2623 7.56974C38.4058 7.79287 38.5251 8.0255 38.6202 8.26764C38.7079 8.52664 38.7545 8.7878 38.7938 9.06581C38.831 9.30275 38.8197 9.5587 38.8326 9.80515C38.8286 10.0442 38.8174 10.3002 38.7892 10.5488C38.7255 11.0629 38.6039 11.5717 38.4655 12.0732C38.2033 13.0425 37.8157 13.9772 37.3269 14.8677Z" fill="#E9E7CF"/>
<path d="M49.1818 15.5631C49.3371 15.0689 49.4756 14.5674 49.5561 14.0607C49.6366 13.554 49.6592 13.0421 49.6407 12.5324C49.5964 11.5297 49.1634 10.498 48.2928 9.91763C48.1051 9.79567 47.8933 9.68321 47.6668 9.60447C47.4329 9.5426 47.1843 9.51444 46.9378 9.52736C46.6914 9.54028 46.4471 9.59428 46.2028 9.64827C46.1375 9.65993 46.0964 9.66208 46.048 9.6811C46.0311 9.67374 46.0238 9.6906 46.0238 9.6906C45.8764 9.70657 45.7458 9.72989 45.591 9.76272C45.2572 9.83788 44.8992 9.92255 44.558 10.0146C44.3137 10.0686 44.0694 10.1226 43.8442 10.225C43.82 10.2345 43.7957 10.244 43.7715 10.2535C43.6431 10.3179 43.5441 10.3148 43.442 10.4108C43.0369 10.6956 42.6866 11.0847 42.3869 11.4958C42.0703 11.8996 41.8065 12.3664 41.5668 12.8238C41.3514 13.2717 41.1697 13.7343 41.0218 14.2116C40.8665 14.7057 40.728 15.2072 40.6401 15.7308C40.612 15.9794 40.5838 16.228 40.5557 16.4766C40.5444 16.7326 40.5573 16.979 40.5702 17.2254C40.5758 17.4888 40.6055 17.7426 40.6522 18.0037C40.6893 18.2406 40.7602 18.4923 40.8215 18.7197C40.9537 19.1988 41.1344 19.6589 41.3708 20.0831C41.4805 20.2915 41.6145 20.4904 41.7801 20.6629C41.9551 20.8597 42.1376 21.0396 42.3368 21.2268C42.4116 21.2394 42.4769 21.2277 42.5664 21.2066C42.6391 21.178 42.7286 21.1569 42.8107 21.1526C43.0308 21.1081 43.2751 21.0541 43.5025 20.9928C43.7468 20.9388 43.9985 20.8679 44.2501 20.797C44.2912 20.7949 44.3154 20.7854 44.3396 20.7759C44.4291 20.7547 44.5113 20.7504 44.5839 20.7219C44.8208 20.6848 45.0483 20.6234 45.2757 20.5621C45.5853 20.4964 45.8854 20.4065 46.1854 20.3167C46.2676 20.3124 46.3402 20.2838 46.4034 20.2311C47.0252 19.6796 47.5342 19.0186 47.9663 18.304C48.4814 17.445 48.9027 16.525 49.1818 15.5631ZM45.8559 18.5876C45.4554 19.2758 44.9948 19.9178 44.4478 20.4819C44.4309 20.4745 44.414 20.4672 44.414 20.4672C44.2316 20.2873 44.0492 20.1074 43.9057 19.8843C43.7644 19.7022 43.6472 19.5107 43.5448 19.2854C43.3326 18.8517 43.1593 18.3748 43.044 17.903C42.99 17.6587 42.9192 17.4071 42.8894 17.1533C42.8596 16.8995 42.8467 16.653 42.8411 16.3897C42.8226 15.88 42.8863 15.3659 42.9932 14.8908C43.1953 13.8752 43.4986 12.9038 43.9947 11.9964C44.2512 11.5463 44.5077 11.0963 44.8411 10.6999C45.0041 10.5101 45.184 10.3277 45.3661 10.1864C45.4746 10.2136 45.6 10.2483 45.7106 10.3166C45.9393 10.4364 46.1607 10.5731 46.3336 10.7288C46.516 10.9087 46.6573 11.0907 46.7913 11.2896C46.9348 11.5127 47.0541 11.7454 47.1492 11.9875C47.2369 12.2465 47.2835 12.5077 47.3228 12.7857C47.3599 13.0226 47.3486 13.2786 47.3616 13.525C47.3576 13.7641 47.3463 14.0201 47.3182 14.2687C47.2545 14.7827 47.1329 15.2916 46.9945 15.7931C46.7322 16.7624 46.3447 17.6971 45.8559 18.5876Z" fill="#E9E7CF"/>
<path d="M66.1566 17.8092L65.4761 17.7131L58.9195 23.2217C58.9269 23.2048 58.91 23.1974 58.9174 23.1806L58.804 21.6461L58.5715 19.0965L58.093 14.212L55.9276 15.174L51.4566 25.4251L53.1412 24.8755C53.3517 24.8068 53.5411 24.6486 53.6294 24.4463L56.7767 17.23L56.957 19.2552L57.2137 21.7954L57.4432 24.4441L58.0805 24.5013L63.4902 20.0578L59.6001 28.9769L61.2847 28.4273C61.4953 28.3586 61.6847 28.2004 61.7729 27.9981L66.2366 17.7638L66.1566 17.8092Z" fill="#E9E7CF"/>
<path d="M72.6403 22.3428C72.7606 21.6528 72.7197 20.8723 72.2399 20.3621C71.9594 20.039 71.5305 19.8721 71.1154 19.8114C70.6835 19.7435 70.2412 19.7914 69.8231 19.8298C69.0617 19.9191 68.2783 20.059 67.5687 20.3516C67.0529 20.5681 66.534 20.8836 66.188 21.3548L65.9557 21.7953C65.5733 22.6721 65.1741 23.5414 64.7748 24.4108C64.3925 25.2876 63.9932 26.157 63.6108 27.0337C63.2284 27.9104 62.8292 28.7798 62.4468 29.6566C62.41 29.7409 62.3733 29.8252 62.3291 29.9263C62.7135 29.8732 63.1031 29.7622 63.4875 29.7091C63.8887 29.6633 64.2856 29.5355 64.5507 29.2497C64.7064 29.0768 64.7947 28.8745 64.9071 28.6627C65.2086 27.9714 65.5175 27.2632 65.8263 26.5551L65.9293 26.3191L66.6205 26.6206C66.7891 26.6941 66.963 26.7097 67.1251 26.66L69.3099 26.0677C69.2584 26.1857 69.1901 26.2964 69.1386 26.4144C68.3401 28.1532 67.4093 30.1954 66.5939 31.9269C67.3489 31.7143 68.2538 31.8481 68.8008 31.284C68.9881 31.0847 69.1152 30.8391 69.2255 30.5862C69.9064 29.1172 70.7269 27.3279 71.4151 25.842C71.9247 24.7197 72.4658 23.5711 72.6403 22.3428ZM67.5975 25.3008L66.2256 25.6857L66.38 25.3317C67.0146 23.9227 67.6491 22.5138 68.2668 21.0975C68.3918 20.8109 68.5653 20.5053 68.8653 20.4154C69.0443 20.3731 69.2614 20.4276 69.4226 20.518C69.8536 20.726 70.1869 21.1122 70.3433 21.5818C70.5261 22.0829 70.4572 22.6549 70.3525 23.1711C70.1335 24.1793 69.7386 25.1309 69.3173 26.0508L67.5975 25.3008Z" fill="#E9E7CF"/>
<path d="M80.4598 24.2883L76.2976 28.1722L76.1882 28.285C76.186 28.2439 76.2008 28.2102 76.1986 28.1691L76.0748 26.7505L75.6898 21.6058L74.1379 22.1732L74.4824 26.8587L74.6502 28.9587L75.9434 28.8003L70.6668 33.5828L72.4532 33.7198C72.6608 33.7501 72.8955 33.6719 73.0439 33.5159L75.5689 31.0852L77.4206 29.3242L82.4845 24.5693L80.4598 24.2883Z" fill="#E9E7CF"/>
<path d="M41.2849 26.2286L34.3776 34.4739C34.4278 34.1748 34.4612 33.8682 34.5188 33.5522C34.6746 32.5967 34.8305 31.6412 34.9863 30.6858C35.1495 29.7134 35.3127 28.7411 35.4759 27.7688C35.5763 27.1704 35.6694 26.5889 35.7793 26.0147C35.8014 25.9642 35.9417 25.1825 35.9827 25.1803C35.9827 25.1803 35.8426 25.1794 35.7774 25.1911C35.7047 25.2196 35.6226 25.2239 35.5331 25.2451C35.3298 25.2969 35.1098 25.3414 34.9065 25.3933C34.6138 25.4663 34.3285 25.5224 34.0452 25.6196C33.9726 25.6482 33.9073 25.6598 33.8442 25.7126L28.5681 31.9201C28.6854 31.3291 28.8269 30.7286 28.9516 30.1207C29.1727 29.1536 29.3939 28.1864 29.6318 27.2267C29.853 26.2595 30.0815 25.2755 30.3195 24.3157C30.4337 23.8237 30.5648 23.3391 30.6886 22.8713C30.7578 22.6206 30.8028 22.3793 30.8647 22.1454C30.9214 21.9695 30.9685 21.7693 31.0421 21.6007C30.9599 21.605 30.902 21.5998 30.8293 21.6283C30.7472 21.6326 30.6577 21.6538 30.5924 21.6655C30.3723 21.7099 30.1691 21.7618 29.949 21.8063C29.6732 21.8866 29.3804 21.9596 29.0972 22.0569C29.0151 22.0612 28.9593 22.097 28.9035 22.1329C28.8962 22.1498 28.8888 22.1666 28.8888 22.1666C28.8006 22.369 28.7461 22.586 28.6989 22.7862C28.637 23.0201 28.5751 23.2539 28.5133 23.4878C28.399 23.9798 28.2679 24.4645 28.161 24.9396C27.9157 25.9163 27.6872 26.9003 27.4587 27.8843C27.228 28.8272 27.0069 29.7943 26.7931 30.7446C26.5941 31.6611 26.4023 32.5608 26.2033 33.4774C26.2201 33.4847 26.3265 33.4709 26.4402 33.4403C26.5466 33.4264 26.6771 33.4031 26.6529 33.4126C26.8561 33.3608 27.0762 33.3163 27.2794 33.2645C27.5722 33.1915 27.8649 33.1184 28.1481 33.0212C28.2134 33.0096 28.286 32.981 28.3418 32.9452L33.578 26.9209C33.5382 27.1042 33.4984 27.2876 33.4754 27.4782C33.2954 28.4432 33.1395 29.3987 32.9763 30.371C32.8205 31.3265 32.6573 32.2988 32.5014 33.2543C32.3529 34.1929 32.2118 35.1147 32.0707 36.0364C32.0875 36.0438 32.2107 36.0373 32.3245 36.0067C32.4308 35.9928 32.5445 35.9622 32.5203 35.9717C32.7404 35.9272 32.9436 35.8753 33.1637 35.8309C33.4564 35.7579 33.7491 35.6848 34.0324 35.5876C34.0977 35.576 34.1703 35.5474 34.2261 35.5116L42.0476 26.3204L41.2849 26.2286Z" fill="#E9E7CF"/>
<path d="M42.2647 28.3015L37.7937 38.5526L39.4783 38.003C39.6889 37.9343 39.8783 37.7761 39.9665 37.5738L44.4302 27.3395L42.2647 28.3015Z" fill="#E9E7CF"/>
<path d="M44.8824 33.7176L44.8751 33.7344L46.5075 29.9914L49.2727 31.1974C49.4413 31.271 49.6151 31.2866 49.7941 31.2442L51.9862 30.6351L47.1473 28.5246L44.9819 29.4866L40.5109 39.7377L42.1955 39.1881C42.406 39.1194 42.5954 38.9612 42.6837 38.7588L44.2426 35.1844L45.9961 35.9492C46.1479 36.0154 46.3385 36.0383 46.5007 35.9886L48.7097 35.3868L44.8824 33.7176Z" fill="#E9E7CF"/>
<path d="M51.8475 32.481L47.3765 42.7321L49.0611 42.1825C49.2716 42.1138 49.461 41.9556 49.5493 41.7532L54.0129 31.519L51.8475 32.481Z" fill="#E9E7CF"/>
<path d="M61.664 46.736C62.0757 46.5744 62.4778 46.3886 62.7576 46.0691C63.1006 45.6969 63.2706 45.1691 63.2763 44.6498C63.2747 44.1474 63.1403 43.6272 62.9428 43.1598C62.401 41.7796 61.4496 40.6021 60.8519 39.2578C60.6471 38.8072 60.4907 38.3377 60.4406 37.8543C60.4074 37.3783 60.4953 36.8547 60.7876 36.4604C60.8339 36.4003 60.8802 36.3403 60.9602 36.2949C61.0328 36.2664 61.115 36.2621 61.1898 36.2746C61.8344 36.315 62.4677 36.6112 62.9212 37.09C63.3578 37.5613 63.6145 38.2151 63.632 38.8649C64.3018 38.7557 64.9525 38.598 65.618 38.4066C65.6664 38.3876 65.7148 38.3686 65.7537 38.3254C65.7927 38.2821 65.8052 38.2073 65.7935 38.1421C65.7946 37.2194 65.1238 36.3649 64.2639 35.9899C63.4114 35.598 62.4308 35.5917 61.5189 35.7961C60.9313 35.901 60.3575 36.1123 59.8555 36.4352C59.363 36.7822 58.9685 37.2725 58.8344 37.8561C58.715 38.406 58.8199 38.9936 59.0048 39.5359C59.4983 40.9351 60.4592 42.1368 61.0979 43.4789C61.4579 44.2179 61.699 45.0455 61.5682 45.8514C61.5505 45.9841 61.5159 46.1095 61.4475 46.2202C61.3572 46.3814 61.1898 46.489 61.0203 46.5556C60.4171 46.8343 59.6839 46.6751 59.1284 46.2923C58.5729 45.9096 58.2046 45.3275 57.9574 44.698C57.7008 44.0442 57.582 43.3502 57.6033 42.6572C56.9578 42.7569 56.3071 42.9146 55.6827 43.1038C55.6006 43.1081 55.5279 43.1367 55.4817 43.1967C55.428 43.2737 55.4155 43.3485 55.4124 43.4475C55.4015 44.0247 55.5402 44.627 55.7662 45.1671C56.1019 45.9155 56.6462 46.5542 57.3344 46.9547C58.5855 47.7211 60.4049 47.2304 61.664 46.736Z" fill="#E9E7CF"/>
<path d="M72.6275 41.4237C72.7478 40.7336 72.7069 39.9532 72.2271 39.4429C71.9466 39.1199 71.5177 38.9529 71.1027 38.8923C70.6708 38.8244 70.2284 38.8722 69.8103 38.9106C69.0489 39 68.2655 39.1399 67.5559 39.4325C67.0401 39.649 66.5212 39.9645 66.1752 40.4357L65.9429 40.8762C65.5605 41.7529 65.1613 42.6223 64.7621 43.4917C64.3797 44.3684 63.9804 45.2378 63.598 46.1146C63.2157 46.9913 62.8164 47.8607 62.434 48.7374C62.3973 48.8217 62.3605 48.906 62.3164 49.0072C62.7007 48.9541 63.0903 48.8431 63.4747 48.79C63.8759 48.7442 64.2729 48.6163 64.5379 48.3306C64.6936 48.1577 64.7819 47.9554 64.8943 47.7435C65.1958 47.0523 65.5047 46.3441 65.8135 45.636L65.9165 45.3999L66.6078 45.7014C66.7764 45.775 66.9502 45.7906 67.1123 45.7409L69.2971 45.1486C69.2457 45.2666 69.1773 45.3773 69.1258 45.4953C68.3274 47.2341 67.3965 49.2763 66.5811 51.0077C67.3361 50.7952 68.241 50.929 68.788 50.3649C68.9753 50.1656 69.1024 49.92 69.2127 49.6671C69.8936 48.1981 70.7141 46.4088 71.4023 44.9229C71.9119 43.8006 72.453 42.6519 72.6275 41.4237ZM67.5847 44.3817L66.2128 44.7666L66.3672 44.4125C67.0018 43.0036 67.6363 41.5947 68.254 40.1784C68.379 39.8918 68.5525 39.5862 68.8525 39.4963C69.0316 39.454 69.2486 39.5085 69.4098 39.5989C69.8408 39.8069 70.1741 40.1931 70.3305 40.6627C70.5133 41.1638 70.4444 41.7358 70.3397 42.252C70.1207 43.2602 69.7258 44.2118 69.3045 45.1317L67.5847 44.3817Z" fill="#E9E7CF"/>
<path d="M17.2802 37.5948C17.3957 37.2839 17.5381 36.5433 17.488 36.0599C17.4263 35.5113 17.2487 34.9522 16.8796 34.5103C16.4936 34.061 15.6264 33.7028 15.0648 33.518C13.7077 33.0867 12.6708 33.5776 11.3399 33.9604L6.9719 43.9755L8.64912 43.4428C8.87656 43.3814 9.0491 43.2159 9.13734 43.0135L13.1009 33.9258C13.1009 33.9258 14.6682 33.9672 15.3403 35.0028C16.0366 36.0289 15.338 37.6307 14.7849 38.3928C14.2149 39.1476 12.203 39.8956 11.2358 39.6744L11.219 39.6671C11.219 39.6671 12.9517 40.6636 14.2289 40.3578C14.9691 40.1789 15.6912 39.8116 16.2309 39.2643C16.6928 38.8035 17.0492 38.2164 17.2802 37.5948Z" fill="#E9E7CF"/>
<path d="M21.9314 47.3494C21.8408 46.4068 21.7428 45.4811 21.6354 44.5312C21.5706 44.0816 21.5301 43.6224 21.4653 43.1727C21.4282 42.9358 21.4079 42.7062 21.3708 42.4693C21.3569 42.3629 21.3526 42.2808 21.3388 42.1744C21.3388 42.1744 21.322 42.167 21.3293 42.1502C21.6389 42.0845 21.9558 42.002 22.2801 41.9026C22.6697 41.7916 23.0835 41.6711 23.4087 41.4316C23.5834 41.3071 23.7486 41.1584 23.9042 40.9855C24.0357 40.8221 24.165 40.6176 24.2701 40.4227C24.3584 40.2203 24.4298 40.0107 24.4843 39.7936C24.5241 39.6103 24.5376 39.3954 24.5194 39.2069C24.516 38.9847 24.4642 38.7815 24.3955 38.5709C24.3194 38.3772 24.217 38.1519 24.0757 37.9699C23.8077 37.572 23.4061 37.2965 22.9751 37.0885C22.5609 36.8878 22.1026 36.7883 21.6318 36.7635C21.3758 36.7522 21.1294 36.7651 20.8682 36.8118C20.3459 36.9051 19.8331 37.0225 19.3394 37.1885C19.1193 37.233 18.9161 37.2848 18.7055 37.3535C18.6402 37.3652 18.5844 37.401 18.5286 37.4369C18.2198 38.145 17.9014 38.829 17.5757 39.5297C17.1838 40.3823 16.7919 41.2348 16.4242 42.0778C16.025 42.9472 15.6331 43.7997 15.2581 44.6596C14.8809 45.4784 14.5111 46.2804 14.1507 47.1065C14.2087 47.1117 14.274 47.1001 14.3466 47.0715C14.4287 47.0672 14.494 47.0556 14.5835 47.0344C14.7794 46.9994 14.9826 46.9476 15.1858 46.8957C15.4543 46.8322 15.7302 46.7519 16.0061 46.6715C16.0714 46.6599 16.1271 46.624 16.1829 46.5881C16.538 45.8199 16.9005 45.0348 17.2388 44.2592C17.6307 43.4067 18.0226 42.5542 18.4218 41.6848C18.7895 40.8418 19.1814 39.9892 19.5733 39.1367C19.8307 38.5466 20.0975 37.9807 20.3718 37.3979C20.6057 37.4598 20.8491 37.5459 21.0946 37.6731C21.5014 37.8906 21.8883 38.1999 22.1321 38.6072C22.2419 38.8156 22.3348 39.0167 22.4035 39.2272C22.4553 39.4305 22.4829 39.6432 22.4768 39.8412C22.4837 40.2857 22.3409 40.705 22.1381 41.0781C22.0329 41.2731 21.8941 41.4533 21.7458 41.6094C21.6048 41.7486 21.447 41.8804 21.2796 41.988C21.2143 41.9997 21.1248 42.0209 21.0353 42.042C20.8879 42.058 20.75 42.0982 20.5952 42.131C20.2856 42.1967 19.9855 42.2865 19.6686 42.369C19.5549 42.3997 19.4338 42.4472 19.3201 42.4779C19.2475 42.5064 19.2643 42.5138 19.2665 42.5549C19.2781 42.6202 19.2971 42.6686 19.2919 42.7265C19.3153 42.8571 19.3386 42.9877 19.345 43.1109C19.377 43.4058 19.4331 43.6911 19.4651 43.986C19.5799 44.9191 19.6852 45.8279 19.7831 46.7536C19.8642 47.6719 19.9527 48.5734 20.0411 49.4749C20.1085 49.5043 21.0446 49.2905 21.0857 49.2883C21.3616 49.208 21.6301 49.1445 21.9059 49.0641C21.9712 49.0525 22.027 49.0166 22.0828 48.9807C22.0379 48.4394 21.9931 47.8981 21.9314 47.3494Z" fill="#E9E7CF"/>
<path d="M32.5757 46.4934C32.7311 45.9992 32.8695 45.4977 32.95 44.991C33.0306 44.4843 33.0532 43.9724 33.0347 43.4626C32.9903 42.46 32.5573 41.4283 31.6867 40.8479C31.4991 40.7259 31.2872 40.6135 31.0607 40.5347C30.8268 40.4729 30.5782 40.4447 30.3318 40.4576C30.0853 40.4705 29.841 40.5245 29.5967 40.5785C29.5315 40.5902 29.4904 40.5923 29.4419 40.6114C29.4251 40.604 29.4177 40.6209 29.4177 40.6209C29.2703 40.6368 29.1397 40.6602 28.9849 40.693C28.6511 40.7681 28.2931 40.8528 27.952 40.9448C27.7077 40.9988 27.4634 41.0528 27.2381 41.1552C27.2139 41.1647 27.1897 41.1743 27.1655 41.1838C27.037 41.2482 26.938 41.2451 26.836 41.3411C26.4308 41.6259 26.0805 42.015 25.7808 42.4261C25.4642 42.8298 25.2004 43.2967 24.9608 43.7541C24.7454 44.202 24.5637 44.6646 24.4157 45.1418C24.2604 45.636 24.1219 46.1375 24.0341 46.6611C24.0059 46.9097 23.9778 47.1583 23.9496 47.4069C23.9383 47.6628 23.9512 47.9093 23.9641 48.1557C23.9697 48.419 23.9995 48.6728 24.0461 48.934C24.0833 49.1709 24.1541 49.4226 24.2155 49.65C24.3477 50.1291 24.5283 50.5891 24.7647 51.0133C24.8745 51.2217 25.0085 51.4207 25.174 51.5932C25.3491 51.79 25.5315 51.9699 25.7308 52.1571C25.8056 52.1697 25.8709 52.158 25.9604 52.1368C26.033 52.1083 26.1225 52.0871 26.2047 52.0828C26.4247 52.0384 26.669 51.9844 26.8965 51.923C27.1408 51.869 27.3924 51.7982 27.6441 51.7273C27.6851 51.7252 27.7093 51.7157 27.7336 51.7061C27.8231 51.685 27.9052 51.6807 27.9779 51.6521C28.2148 51.615 28.4422 51.5537 28.6697 51.4923C28.9792 51.4267 29.2793 51.3368 29.5794 51.2469C29.6615 51.2426 29.7342 51.2141 29.7973 51.1614C30.4192 50.6098 30.9282 49.9488 31.3602 49.2343C31.8754 48.3753 32.2967 47.4553 32.5757 46.4934ZM29.2499 49.5179C28.8494 50.2061 28.3888 50.8481 27.8417 51.4122C27.8248 51.4048 27.808 51.3975 27.808 51.3975C27.6256 51.2176 27.4432 51.0377 27.2997 50.8145C27.1583 50.6325 27.0412 50.4409 26.9388 50.2156C26.7266 49.7819 26.5533 49.305 26.438 48.8333C26.384 48.589 26.3131 48.3374 26.2833 48.0836C26.2535 47.8298 26.2406 47.5833 26.2351 47.32C26.2166 46.8103 26.2802 46.2962 26.3871 45.8211C26.5893 44.8055 26.8925 43.834 27.3886 42.9266C27.6451 42.4766 27.9016 42.0266 28.235 41.6302C28.3981 41.4404 28.578 41.258 28.76 41.1166C28.8685 41.1439 28.9939 41.1785 29.1046 41.2469C29.3333 41.3667 29.5546 41.5033 29.7275 41.659C29.9099 41.8389 30.0513 42.021 30.1853 42.2199C30.3288 42.443 30.448 42.6756 30.5431 42.9178C30.6308 43.1768 30.6775 43.4379 30.7168 43.7159C30.7539 43.9529 30.7426 44.2088 30.7555 44.4553C30.7516 44.6944 30.7403 44.9503 30.7121 45.1989C30.6485 45.713 30.5269 46.2218 30.3884 46.7234C30.1262 47.6926 29.7386 48.6273 29.2499 49.5179Z" fill="#E9E7CF"/>
<path d="M39.6584 52.7932C39.8159 52.3402 39.9227 51.865 39.8316 51.3838C39.7236 50.8952 39.4756 50.4057 39.1034 50.0628C38.9305 49.9071 38.726 49.7778 38.4994 49.6991C38.4657 49.6843 38.432 49.6696 38.3983 49.6549C39.2596 49.4286 40.1451 49.1927 40.7415 48.4695C41.0191 48.1089 41.2177 47.6537 41.3003 47.1881C41.3852 46.7635 41.3784 46.3191 41.2578 45.9053C41.0474 45.1914 40.437 44.7044 39.7942 44.3839C39.3294 44.1612 38.8353 44.0058 38.3139 43.959C38.0242 43.933 37.744 43.9313 37.4344 43.9969C36.9774 44.0785 36.5299 44.1844 36.0993 44.2975C35.8308 44.3611 35.5791 44.4319 35.337 44.527C35.3128 44.5365 35.2159 44.5745 35.1843 44.6009C35.0948 44.622 34.9811 44.6527 34.8843 44.6907C34.819 44.7024 34.7463 44.7309 34.6832 44.7837C34.4773 45.2557 34.2545 45.7205 34.0486 46.1926C33.6442 47.1199 33.2397 48.0472 32.8279 48.9914C32.4308 49.9019 32.0264 50.8292 31.6293 51.7396C31.2616 52.5827 30.8939 53.4257 30.5336 54.2518L30.4601 54.4204C30.7299 54.5381 31.1008 54.6999 31.3705 54.8175C31.5971 54.8963 31.8163 54.9919 32.0428 55.0706C32.2862 55.1567 32.5223 55.2596 32.773 55.3289C33.2577 55.46 33.7644 55.5405 34.2594 55.5557C34.6386 55.5606 35.0134 55.4833 35.3883 55.4059C36.0075 55.2746 36.6414 55.1096 37.2584 54.9372C37.4036 54.8802 37.5658 54.8305 37.7111 54.7735C37.929 54.6879 38.1543 54.5855 38.37 54.4588C38.569 54.3249 38.751 54.1835 38.8993 54.0275C39.0719 53.8619 39.2181 53.6648 39.34 53.4772C39.4767 53.2558 39.5723 53.0366 39.6584 52.7932ZM35.8398 46.733C36.1413 46.0417 36.4501 45.3336 36.7516 44.6423C37.0192 44.7189 37.2626 44.805 37.5082 44.9321C37.9561 45.1475 38.3745 45.4304 38.6762 45.8429C38.8271 46.0492 38.9537 46.2649 39.0246 46.5166C39.0786 46.7609 39.1083 47.0147 39.0897 47.2875C39.0481 47.751 38.9676 48.2577 38.7089 48.6666C38.6038 48.8616 38.4819 49.0492 38.3167 49.1979C38.1757 49.3371 38.0179 49.4689 37.8747 49.5671C37.563 49.5916 37.266 49.5825 36.9689 49.5733C36.4644 49.5339 35.192 49.4606 34.7294 49.2789C35.0971 48.4359 35.4721 47.576 35.8398 46.733ZM37.0488 54.0833C36.9195 54.2878 36.7638 54.4607 36.5913 54.6262C36.4577 54.7486 36.324 54.8709 36.1567 54.9785C35.826 54.9547 35.5099 54.8971 35.1844 54.8153C34.7166 54.6916 34.2371 54.5025 33.7819 54.304C33.4205 54.1664 33.0591 54.0288 32.7124 53.8576C32.9477 53.318 33.183 52.7785 33.4183 52.239C33.7786 51.4128 34.1463 50.5698 34.5066 49.7436C34.8806 49.8064 35.2377 49.8618 35.6095 49.8835C35.7012 49.9034 35.8002 49.9065 35.8845 49.9432C36.7612 50.3256 37.4373 51.1222 37.5837 52.0288C37.6208 52.2658 37.6 52.4975 37.5718 52.7461C37.5268 52.9874 37.4481 53.2139 37.3694 53.4404C37.2906 53.667 37.195 53.8862 37.0488 54.0833Z" fill="#E9E7CF"/>
<path d="M42.9764 47.6983L38.5054 57.9494L40.19 57.3998C40.4006 57.3311 40.59 57.1729 40.6782 56.9706L45.1418 46.7364L42.9764 47.6983Z" fill="#E9E7CF"/>
<path d="M51.6453 51.4792L48.6156 58.4257L48.415 56.1709L48.1825 53.6213L47.8871 47.6728L45.6261 48.854L41.2434 58.9028L42.9448 58.3605C43.1554 58.2918 43.3206 58.1431 43.4088 57.9408L46.49 50.8763L46.7035 53.3775L46.9433 55.9103L47.2846 61.4774L47.2867 61.5185L47.3278 61.5163L48.964 60.9857C49.1745 60.917 49.3397 60.7684 49.428 60.566L53.9063 50.2981L51.6453 51.4792Z" fill="#E9E7CF"/>
<path d="M56.8105 63.7056C57.2221 63.544 57.6243 63.3582 57.9041 63.0387C58.247 62.6665 58.417 62.1386 58.4227 61.6194C58.4211 61.117 58.2868 60.5968 58.0893 60.1294C57.5474 58.7492 56.596 57.5717 55.9984 56.2274C55.7935 55.7768 55.6371 55.3073 55.587 54.8239C55.5538 54.3479 55.6417 53.8243 55.9341 53.43C55.9804 53.3699 56.0266 53.3099 56.1066 53.2645C56.1793 53.236 56.2614 53.2316 56.3362 53.2442C56.9808 53.2845 57.6142 53.5808 58.0676 54.0596C58.5042 54.5309 58.7609 55.1847 58.7785 55.8345C59.4482 55.7253 60.099 55.5676 60.7644 55.3762C60.8128 55.3572 60.8612 55.3382 60.9002 55.295C60.9391 55.2517 60.9516 55.1769 60.94 55.1116C60.941 54.189 60.2702 53.3345 59.4103 52.9595C58.5578 52.5676 57.5772 52.5613 56.6653 52.7657C56.0777 52.8706 55.504 53.0819 55.0019 53.4048C54.5094 53.7518 54.115 54.2421 53.9808 54.8257C53.8614 55.3756 53.9663 55.9632 54.1513 56.5054C54.6447 57.9047 55.6056 59.1064 56.2443 60.4485C56.6043 61.1875 56.8454 62.0151 56.7147 62.821C56.6969 62.9537 56.6623 63.0791 56.594 63.1898C56.5036 63.351 56.3362 63.4586 56.1667 63.5252C55.5635 63.8039 54.8303 63.6447 54.2748 63.2619C53.7193 62.8792 53.3511 62.2971 53.1039 61.6676C52.8472 61.0138 52.7284 60.3198 52.7498 59.6268C52.1042 59.7265 51.4535 59.8842 50.8292 60.0734C50.747 60.0777 50.6744 60.1063 50.6281 60.1663C50.5745 60.2433 50.5619 60.3181 50.5589 60.4171C50.5479 60.9943 50.6866 61.5966 50.9126 62.1367C51.2484 62.8851 51.7926 63.5238 52.4808 63.9243C53.7319 64.6907 55.5514 64.2 56.8105 63.7056Z" fill="#E9E7CF"/>
<path d="M68.5299 57.258L64.3677 61.1419L64.2583 61.2547C64.2561 61.2136 64.2708 61.1799 64.2687 61.1388L64.1449 59.7203L63.7598 54.5756L62.208 55.1429L62.5525 59.8285L62.7202 61.9284L64.0134 61.77L58.7368 66.5525L60.5233 66.6895C60.7308 66.7198 60.9656 66.6416 61.1139 66.4856L63.639 64.055L65.4907 62.2939L70.5546 57.5391L68.5299 57.258Z" fill="#E9E7CF"/>
<path d="M76.0559 62.0054C76.1763 61.3154 76.1354 60.535 75.6555 60.0247C75.375 59.7017 74.9461 59.5347 74.5311 59.4741C74.0992 59.4061 73.6569 59.454 73.2388 59.4924C72.4774 59.5817 71.6939 59.7217 70.9844 60.0142C70.4685 60.2307 69.9496 60.5462 69.6036 61.0174L69.3714 61.4579C68.989 62.3347 68.5897 63.2041 68.1905 64.0735C67.8081 64.9502 67.4089 65.8196 67.0265 66.6963C66.6441 67.5731 66.2448 68.4424 65.8625 69.3192C65.8257 69.4035 65.7889 69.4878 65.7448 69.589C66.1292 69.5359 66.5187 69.4248 66.9031 69.3717C67.3044 69.326 67.7013 69.1981 67.9664 68.9124C68.1221 68.7394 68.2103 68.5371 68.3228 68.3253C68.6243 67.634 68.9331 66.9259 69.242 66.2177L69.3449 65.9817L70.0362 66.2832C70.2048 66.3567 70.3786 66.3723 70.5407 66.3226L72.7256 65.7303C72.6741 65.8484 72.6058 65.959 72.5543 66.077C71.7558 67.8158 70.8249 69.8581 70.0096 71.5895C70.7645 71.3769 71.6694 71.5107 72.2165 70.9466C72.4037 70.7473 72.5309 70.5018 72.6412 70.2489C73.322 68.7799 74.1426 66.9905 74.8308 65.5046C75.3403 64.3824 75.8814 63.2337 76.0559 62.0054ZM71.0132 64.9634L69.6412 65.3484L69.7956 64.9943C70.4302 63.5854 71.0648 62.1764 71.6825 60.7602C71.8075 60.4735 71.9809 60.1679 72.281 60.078C72.46 60.0357 72.677 60.0902 72.8383 60.1806C73.2693 60.3887 73.6026 60.7748 73.759 61.2444C73.9418 61.7456 73.8729 62.3175 73.7682 62.8338C73.5492 63.842 73.1542 64.7935 72.7329 65.7135L71.0132 64.9634Z" fill="#E9E7CF"/>
<path d="M24.646 58.7901L21.6163 65.7365L21.4157 63.4818L21.1832 60.9321L20.8879 54.9837L18.6268 56.1648L14.2441 66.2136L15.9455 65.6714C16.1561 65.6027 16.3213 65.454 16.4095 65.2516L19.4907 58.1872L19.7042 60.6884L19.944 63.2212L20.2853 68.7883L20.2875 68.8293L20.3285 68.8272L21.9647 68.2966C22.1753 68.2279 22.3404 68.0792 22.4287 67.8769L26.907 57.6089L24.646 58.7901Z" fill="#E9E7CF"/>
<path d="M32.9537 62.293C33.074 61.603 33.0331 60.8226 32.5533 60.3123C32.2727 59.9893 31.8439 59.8223 31.4288 59.7617C30.9969 59.6937 30.5546 59.7416 30.1365 59.78C29.3751 59.8693 28.5917 60.0093 27.8821 60.3018C27.3663 60.5183 26.8474 60.8338 26.5014 61.305L26.2691 61.7456C25.8867 62.6223 25.4875 63.4917 25.0882 64.3611C24.7058 65.2378 24.3066 66.1072 23.9242 66.9839C23.5418 67.8607 23.1426 68.7301 22.7602 69.6068C22.7234 69.6911 22.6867 69.7754 22.6425 69.8766C23.0269 69.8235 23.4165 69.7124 23.8009 69.6593C24.2021 69.6136 24.599 69.4857 24.8641 69.2C25.0198 69.027 25.1081 68.8247 25.2205 68.6129C25.522 67.9216 25.8309 67.2135 26.1397 66.5053L26.2427 66.2693L26.9339 66.5708C27.1025 66.6443 27.2763 66.6599 27.4385 66.6102L29.6233 66.0179C29.5718 66.136 29.5035 66.2466 29.452 66.3647C28.6535 68.1034 27.7227 70.1457 26.9073 71.8771C27.6623 71.6645 28.5672 71.7983 29.1142 71.2342C29.3015 71.0349 29.4286 70.7894 29.5389 70.5365C30.2198 69.0675 31.0403 67.2781 31.7285 65.7923C32.2381 64.67 32.7792 63.5213 32.9537 62.293ZM27.9109 65.251L26.539 65.636L26.6934 65.2819C27.3279 63.873 27.9625 62.4641 28.5802 61.0478C28.7052 60.7612 28.8787 60.4555 29.1787 60.3656C29.3577 60.3233 29.5748 60.3778 29.736 60.4682C30.167 60.6763 30.5003 61.0624 30.6567 61.532C30.8395 62.0332 30.7706 62.6052 30.6659 63.1214C30.4469 64.1296 30.052 65.0811 29.6307 66.0011L27.9109 65.251Z" fill="#E9E7CF"/>
<path d="M44.3347 65.5511L43.6542 65.4549L37.0977 70.9635C37.105 70.9467 37.0882 70.9393 37.0955 70.9225L36.9821 69.388L36.7496 66.8383L36.2711 61.9539L34.1057 62.9159L29.6347 73.167L31.3193 72.6174C31.5299 72.5487 31.7193 72.3905 31.8075 72.1882L34.9549 64.9719L35.1352 66.9971L35.3919 69.5373L35.6213 72.1859L36.2586 72.2431L41.6683 67.7996L37.7783 76.7188L39.4629 76.1692C39.6734 76.1005 39.8628 75.9423 39.9511 75.7399L44.4147 65.5057L44.3347 65.5511Z" fill="#E9E7CF"/>
<path d="M44.89 67.6194L40.4191 77.8705L42.1036 77.3209C42.3142 77.2522 42.5036 77.094 42.5919 76.8917L47.0555 66.6574L44.89 67.6194Z" fill="#E9E7CF"/>
<path d="M53.5589 71.4003L50.5292 78.3468L50.3286 76.092L50.0961 73.5423L49.8008 67.5939L47.5397 68.7751L43.157 78.8239L44.8584 78.2816C45.069 78.2129 45.2342 78.0642 45.3225 77.8619L48.4036 70.7974L48.6171 73.2986L48.857 75.8314L49.1982 81.3985L49.2004 81.4396L49.2415 81.4374L50.8776 80.9068C51.0882 80.8381 51.2534 80.6894 51.3416 80.4871L55.8199 70.2191L53.5589 71.4003Z" fill="#E9E7CF"/>
</g>
<defs>
<clipPath id="clip0">
<rect width="70.7402" height="65.4157" fill="white" transform="translate(26.1516) rotate(23.5642)"/>
</clipPath>
</defs>
</svg>
