<svg viewBox="0 0 94 94" fill="none" xmlns="http://www.w3.org/2000/svg">
<g clip-path="url(#clip0)">
<circle cx="46.9322" cy="46.9321" r="33.1099" transform="rotate(-27.9831 46.9322 46.9321)" fill="#2B66B1" stroke="#E46328" stroke-width="3.19131"/>
<line x1="58.1989" y1="15.5715" x2="39.0473" y2="78.1477" stroke="#E46328" stroke-width="3.19131"/>
<path d="M18.9866 47.8982L23.4845 56.3636L24.0135 54.9398C24.0796 54.7619 24.0744 54.5504 23.9856 54.3833L19.4951 45.9319L18.9866 47.8982Z" fill="#E9E7CF"/>
<path d="M28.8694 41.0225L28.4421 41.428L28.6449 48.7654C28.6375 48.7515 28.6236 48.7589 28.6162 48.7449L27.5258 48.0031L25.6904 46.8002L22.1566 44.5178L21.6481 46.4841L26.146 54.9494L26.675 53.5257C26.7412 53.3477 26.7359 53.1363 26.6471 52.9692L23.4809 47.01L24.9364 47.9685L26.7783 49.1502L28.6785 50.408L29.0566 50.0107L28.9575 44.0109L32.871 51.3763L33.4 49.9525C33.4661 49.7746 33.4609 49.5631 33.3721 49.396L28.8816 40.9446L28.8694 41.0225Z" fill="#E9E7CF"/>
<path d="M36.5578 39.5441C36.4107 39.3008 35.9895 38.8105 35.6383 38.5864C35.2372 38.3354 34.7672 38.1566 34.2738 38.1688C33.7664 38.1884 33.0638 38.5796 32.6404 38.8581C31.6275 39.5392 31.4043 40.4969 30.9519 41.5943L35.3462 49.8647L35.8826 48.4549C35.9627 48.2695 35.9435 48.0654 35.8548 47.8983L31.8673 40.3937C31.8673 40.3937 32.7305 39.3637 33.7839 39.4646C34.8439 39.5442 35.5467 40.8669 35.7634 41.6444C35.9662 42.4294 35.3959 44.1786 34.732 44.7099L34.718 44.7173C34.718 44.7173 36.3105 44.0854 36.786 43.065C37.0606 42.4728 37.1989 41.7923 37.1192 41.1383C37.0561 40.5827 36.852 40.0305 36.5578 39.5441Z" fill="#E9E7CF"/>
<path d="M42.3274 44.7985L42.3348 44.8124L40.6924 41.7214L41.4304 41.3293C41.5557 41.2628 41.6727 41.147 41.7258 41.0117L42.4993 39.2081L40.8007 40.1106L40.3743 41.1227L38.4139 37.4331L40.6973 36.2198C40.8365 36.1458 40.9396 36.0375 41.0066 35.8948L41.7662 34.0986L37.7703 36.2217L37.2617 38.1881L41.7596 46.6534L45.2544 44.7965C45.3936 44.7226 45.4967 44.6142 45.5637 44.4715L46.3233 42.6753L42.3274 44.7985Z" fill="#E9E7CF"/>
<path d="M52.3213 38.0422C51.6403 37.6006 50.9668 37.1729 50.2719 36.7387C49.9355 36.5425 49.6057 36.3249 49.2693 36.1287C49.0905 36.0274 48.9255 35.9186 48.7467 35.8172C48.6679 35.7698 48.6105 35.7289 48.5318 35.6815C48.5318 35.6815 48.5178 35.6889 48.5104 35.675C48.6314 35.4321 48.7449 35.1754 48.8511 34.9048C48.9842 34.5841 49.1239 34.2421 49.1364 33.8962C49.146 33.7125 49.1343 33.5224 49.1012 33.3257C49.0616 33.1504 48.9932 32.9546 48.9184 32.7801C48.8296 32.613 48.7269 32.4533 48.6103 32.3011C48.5085 32.1766 48.3714 32.053 48.2352 31.9647C48.0842 31.8486 47.9202 31.775 47.7422 31.7089C47.5716 31.6567 47.3658 31.6054 47.1683 31.6032C46.7584 31.571 46.3594 31.6938 45.99 31.8722C45.6345 32.0432 45.3234 32.2978 45.0558 32.6006C44.9118 32.7664 44.7891 32.9387 44.6812 33.1389C44.4654 33.5392 44.271 33.9461 44.1192 34.366C44.0317 34.5374 43.9582 34.7015 43.8921 34.8794C43.8651 34.9295 43.8594 34.986 43.8538 35.0426C44.1645 35.6274 44.4539 36.2056 44.7507 36.7978C45.114 37.5153 45.4774 38.2328 45.8473 38.9289C46.2181 39.6603 46.5814 40.3778 46.9587 41.0879C47.3073 41.7775 47.6485 42.4533 48.011 43.1355C48.0453 43.0994 48.0723 43.0493 48.0919 42.9854C48.1328 42.9279 48.1598 42.8779 48.1933 42.8065C48.2742 42.6564 48.3477 42.4924 48.4212 42.3283C48.5217 42.1142 48.6148 41.8862 48.7079 41.6582C48.7349 41.6082 48.7405 41.5516 48.7462 41.4951C48.4198 40.8472 48.086 40.1854 47.7457 39.5449C47.3824 38.8274 47.019 38.11 46.6482 37.3786C46.2783 36.6824 45.915 35.9649 45.5516 35.2474C45.2927 34.7601 45.0551 34.2793 44.8101 33.7846C44.9763 33.6606 45.1638 33.5431 45.3801 33.4461C45.7429 33.289 46.1567 33.1941 46.5601 33.2476C46.7585 33.285 46.943 33.3298 47.121 33.3959C47.285 33.4694 47.4425 33.5643 47.5722 33.6739C47.8742 33.9062 48.0796 34.2256 48.2219 34.5606C48.2967 34.7351 48.3437 34.9244 48.3694 35.1071C48.3877 35.276 48.3921 35.4522 48.3751 35.6219C48.3481 35.6719 48.3146 35.7433 48.2811 35.8146C48.2133 35.9221 48.1667 36.0361 48.1062 36.1575C47.9853 36.4003 47.8857 36.6497 47.7721 36.9064C47.7321 36.9991 47.6995 37.1057 47.6594 37.1983C47.6399 37.2623 47.6538 37.2549 47.6825 37.2754C47.7325 37.3023 47.7752 37.3154 47.8113 37.3498C47.9114 37.4037 48.0115 37.4577 48.0976 37.519C48.3126 37.6547 48.5341 37.7692 48.749 37.9049C49.4365 38.3252 50.1027 38.7389 50.7763 39.1666C51.436 39.6017 52.0882 40.0228 52.7405 40.444C52.7962 40.4144 53.1516 39.6721 53.1721 39.6434C53.2652 39.4153 53.3657 39.2013 53.4588 38.9733C53.4858 38.9232 53.4914 38.8666 53.4971 38.8101C53.1098 38.5516 52.7225 38.2932 52.3213 38.0422Z" fill="#E9E7CF"/>
<path d="M50.5396 31.1331L55.0375 39.5984L55.5665 38.1747C55.6327 37.9967 55.6274 37.7853 55.5387 37.6182L51.0482 29.1668L50.5396 31.1331Z" fill="#E9E7CF"/>
<path d="M58.0021 27.0609C57.603 26.6124 57.0574 26.2238 56.4591 26.2739C56.0927 26.29 55.752 26.4889 55.4901 26.7352C55.2143 26.9889 55.0106 27.3113 54.8136 27.6124C54.4677 28.1712 54.144 28.7716 53.9622 29.4039C53.8325 29.8655 53.7677 30.382 53.8996 30.8654L54.0715 31.2562C54.4562 31.9802 54.8269 32.7116 55.1977 33.443C55.5824 34.167 55.9532 34.8984 56.3378 35.6224C56.7225 36.3464 57.0933 37.0778 57.478 37.8018C57.515 37.8715 57.552 37.9411 57.5964 38.0246C57.7656 37.7383 57.8987 37.4176 58.068 37.1313C58.2511 36.8376 58.3769 36.503 58.3264 36.1727C58.2933 35.976 58.2045 35.809 58.1223 35.6206C57.8189 35.0497 57.5082 34.4649 57.1975 33.8801L57.094 33.6852L57.6648 33.3819C57.804 33.3079 57.9072 33.1996 57.9602 33.0643L58.7272 31.282C58.779 31.3794 58.8169 31.4843 58.8687 31.5818C59.6102 33.0446 60.4849 34.758 61.2125 36.2282C61.4722 35.6082 62.0444 35.0721 61.9573 34.4042C61.9233 34.1722 61.8263 33.956 61.7153 33.7471C61.0922 32.5071 60.3284 31.0025 59.6979 29.7486C59.2161 28.8083 58.7335 27.8328 58.0021 27.0609ZM57.2997 32.0226L56.8268 33.1487L56.6714 32.8564C56.0639 31.6794 55.4564 30.5025 54.835 29.3329C54.7092 29.0962 54.5965 28.8169 54.6961 28.5675C54.7631 28.4248 54.9154 28.3082 55.062 28.2481C55.4315 28.0697 55.8683 28.0518 56.2669 28.1972C56.7007 28.3416 57.048 28.6927 57.3386 29.0382C57.8987 29.7226 58.3269 30.4949 58.7198 31.268L57.2997 32.0226Z" fill="#E9E7CF"/>
<path d="M64.3944 32.8771L59.8225 24.2726L59.4102 26.4199L63.8267 34.7321L67.6417 32.7051L68.3347 30.7835L64.3944 32.8771Z" fill="#E9E7CF"/>
<path d="M37.6613 53.5167L37.234 53.9223L37.4368 61.2596C37.4294 61.2457 37.4155 61.2531 37.4081 61.2392L36.3176 60.4974L34.4822 59.2944L30.9485 57.012L30.44 58.9783L34.9379 67.4437L35.4669 66.0199C35.533 65.842 35.5278 65.6305 35.439 65.4634L32.2727 59.5043L33.7283 60.4627L35.5702 61.6444L37.4704 62.9022L37.8485 62.5049L37.7494 56.5051L41.6628 63.8705L42.1918 62.4468C42.258 62.2688 42.2527 62.0573 42.164 61.8902L37.6734 53.4388L37.6613 53.5167Z" fill="#E9E7CF"/>
<path d="M44.5782 51.3591C44.1791 50.9105 43.6335 50.522 43.0352 50.5721C42.6688 50.5882 42.3282 50.7871 42.0662 51.0334C41.7904 51.2871 41.5868 51.6095 41.3897 51.9106C41.0438 52.4693 40.7201 53.0698 40.5383 53.7021C40.4086 54.1637 40.3438 54.6802 40.4757 55.1636L40.6476 55.5543C41.0323 56.2783 41.4031 57.0098 41.7738 57.7412C42.1585 58.4652 42.5293 59.1966 42.914 59.9206C43.2987 60.6446 43.6694 61.376 44.0541 62.1C44.0911 62.1696 44.1281 62.2392 44.1725 62.3228C44.3417 62.0365 44.4748 61.7158 44.6441 61.4295C44.8273 61.1357 44.953 60.8011 44.9025 60.4709C44.8694 60.2742 44.7806 60.1071 44.6984 59.9187C44.3951 59.3479 44.0844 58.7631 43.7736 58.1783L43.6701 57.9834L44.2409 57.6801C44.3802 57.6061 44.4833 57.4978 44.5364 57.3624L45.3034 55.5801C45.3551 55.6776 45.393 55.7825 45.4448 55.8799C46.1863 57.3427 47.061 59.0562 47.7886 60.5264C48.0483 59.9063 48.6205 59.3702 48.5334 58.7023C48.4995 58.4704 48.4024 58.2542 48.2915 58.0453C47.6683 56.8053 46.9046 55.3007 46.274 54.0467C45.7923 53.1065 45.3097 52.131 44.5782 51.3591ZM43.8758 56.3208L43.4029 57.4469L43.2475 57.1545C42.64 55.9776 42.0325 54.8006 41.4111 53.6311C41.2853 53.3944 41.1726 53.115 41.2723 52.8657C41.3393 52.723 41.4915 52.6064 41.6382 52.5463C42.0076 52.3679 42.4444 52.35 42.843 52.4953C43.2768 52.6398 43.6241 52.9909 43.9147 53.3363C44.4748 54.0207 44.903 54.793 45.296 55.5662L43.8758 56.3208Z" fill="#E9E7CF"/>
<path d="M50.943 48.0844L53.9909 53.8208L52.3704 52.7536L50.535 51.5506L46.3847 48.5781L45.9724 50.7255L50.3815 59.0237L50.9244 57.5926C50.9906 57.4146 50.9788 57.2245 50.89 57.0574L47.7903 51.2236L49.5831 52.4135L51.4111 53.6026L55.3299 56.3409L55.3586 56.3614L55.3791 56.3327L55.895 54.9516C55.9612 54.7736 55.9494 54.5834 55.8606 54.4164L51.3553 45.9371L50.943 48.0844Z" fill="#E9E7CF"/>
<path d="M53.3255 46.8185L57.8234 55.2839L58.3524 53.8601C58.4185 53.6822 58.4133 53.4707 58.3245 53.3036L53.834 44.8522L53.3255 46.8185Z" fill="#E9E7CF"/>
<path d="M60.9295 51.8838L56.3576 43.2792L55.9452 45.4266L60.3617 53.7388L64.1767 51.7117L64.8697 49.7902L60.9295 51.8838Z" fill="#E9E7CF"/>
<path d="M67.0795 39.4035C66.6804 38.9549 66.1348 38.5664 65.5365 38.6164C65.1701 38.6326 64.8294 38.8314 64.5675 39.0777C64.2917 39.3314 64.0881 39.6538 63.891 39.955C63.5451 40.5137 63.2214 41.1142 63.0396 41.7464C62.9099 42.2081 62.8451 42.7245 62.977 43.208L63.1489 43.5987C63.5336 44.3227 63.9043 45.0541 64.2751 45.7855C64.6598 46.5095 65.0306 47.2409 65.4153 47.9649C65.7999 48.6889 66.1707 49.4203 66.5554 50.1444C66.5924 50.214 66.6294 50.2836 66.6738 50.3671C66.843 50.0808 66.9761 49.7601 67.1454 49.4738C67.3285 49.1801 67.4543 48.8455 67.4038 48.5152C67.3707 48.3186 67.2819 48.1515 67.1997 47.9631C66.8964 47.3922 66.5856 46.8074 66.2749 46.2227L66.1714 46.0277L66.7422 45.7244C66.8815 45.6504 66.9846 45.5421 67.0376 45.4068L67.8046 43.6245C67.8564 43.7219 67.8943 43.8268 67.9461 43.9243C68.6876 45.3871 69.5623 47.1005 70.2899 48.5707C70.5496 47.9507 71.1218 47.4146 71.0347 46.7467C71.0008 46.5148 70.9037 46.2985 70.7927 46.0897C70.1696 44.8496 69.4059 43.345 68.7753 42.0911C68.2936 41.1508 67.8109 40.1753 67.0795 39.4035ZM66.3771 44.3651L65.9042 45.4913L65.7488 45.1989C65.1413 44.0219 64.5338 42.845 63.9124 41.6754C63.7866 41.4387 63.6739 41.1594 63.7735 40.9101C63.8405 40.7673 63.9928 40.6507 64.1395 40.5907C64.5089 40.4122 64.9457 40.3944 65.3443 40.5397C65.7781 40.6841 66.1254 41.0352 66.416 41.3807C66.9761 42.0651 67.4043 42.8374 67.7972 43.6106L66.3771 44.3651Z" fill="#E9E7CF"/>
</g>
<defs>
<clipPath id="clip0">
<rect width="69.411" height="69.411" fill="white" transform="translate(0 32.5684) rotate(-27.9831)"/>
</clipPath>
</defs>
</svg>
