<svg width="75" height="75" viewBox="0 0 75 75" fill="none" xmlns="http://www.w3.org/2000/svg">
<path d="M0.244664 64.0503L9.97394 0.244737L73.7795 9.97402L64.0502 73.7796L0.244664 64.0503Z" stroke="#E9E7CF" stroke-width="0.413797"/>
<path d="M27.5709 26.1311C27.5897 26.0076 27.6085 25.8842 27.5661 25.7858C27.5254 25.6762 27.4441 25.6064 27.2999 25.573C27.2214 25.561 27.1203 25.5456 27.0193 25.5302C26.9295 25.5165 26.8302 25.4898 26.7292 25.4744C26.6282 25.459 26.5272 25.4436 26.4261 25.4282C26.3363 25.4145 26.2405 25.3655 26.1394 25.3501C26.0496 25.3364 25.9503 25.3097 25.8493 25.2943C25.7595 25.2806 25.6551 25.2877 25.554 25.2723C25.453 25.2569 25.3598 25.2656 25.2588 25.2502C25.1578 25.2348 25.0714 25.1987 24.9816 25.185C24.8694 25.1679 24.7649 25.1749 24.6863 25.1629C24.5948 25.1605 24.5113 25.3315 24.4847 25.4308C24.4564 25.5414 24.4436 25.7002 24.5344 25.783C24.6027 25.8623 24.7762 25.8543 24.8979 25.8843C24.9653 25.8946 25.0646 25.9212 25.1993 25.9418C25.3003 25.9572 25.403 25.9614 25.5153 25.9785C25.6163 25.9939 25.7122 26.043 25.8244 26.0601C25.9254 26.0755 26.0248 26.1021 26.1258 26.1175C26.238 26.1346 26.3408 26.1388 26.4418 26.1542C26.5652 26.173 26.6792 26.1789 26.7465 26.1892C26.7233 26.2661 26.6855 26.3636 26.6459 26.4725C26.6115 26.5476 26.5736 26.6452 26.5246 26.7411C26.4884 26.8275 26.4411 26.9121 26.3808 27.0063C26.3334 27.091 26.2955 27.1886 26.2482 27.2732C26.1913 27.345 26.1215 27.4262 26.0517 27.5074C25.9948 27.5792 25.9362 27.6621 25.8681 27.7321C25.7888 27.8004 25.7016 27.8446 25.6223 27.9129C25.5447 27.9699 25.4654 28.0382 25.3782 28.0824C25.2911 28.1265 25.1945 28.1577 25.0978 28.1889C25.0124 28.2219 24.9158 28.2531 24.8096 28.2713C24.7147 28.2913 24.618 28.3225 24.5136 28.3296C24.4221 28.3271 24.3193 28.3229 24.2183 28.3075C24.1173 28.2921 24.0197 28.2543 23.9333 28.2181C23.834 28.1915 23.7347 28.1649 23.6501 28.1175C23.5542 28.0684 23.4824 28.0115 23.3995 27.9529C23.3183 27.8831 23.2465 27.8263 23.1782 27.7469C23.1082 27.6788 23.0511 27.6012 22.9828 27.5219C22.9258 27.4443 22.8946 27.3476 22.8392 27.2588C22.795 27.1717 22.725 27.1035 22.6826 27.0052C22.6497 26.9198 22.6073 26.8214 22.5743 26.736C22.5431 26.6394 22.5473 26.5366 22.5273 26.4417C22.4961 26.3451 22.4649 26.2484 22.4449 26.1535C22.4267 26.0473 22.4067 25.9524 22.3979 25.8592C22.3797 25.753 22.3951 25.652 22.3975 25.5605C22.3905 25.4561 22.3705 25.3611 22.3747 25.2584C22.3901 25.1574 22.3926 25.0659 22.408 24.9648C22.4234 24.8638 22.4612 24.7662 22.4766 24.6652C22.5032 24.5659 22.5187 24.4649 22.5453 24.3656C22.5719 24.2663 22.5985 24.1669 22.6252 24.0676C22.663 23.97 22.7216 23.8871 22.7595 23.7895C22.7973 23.6919 22.8127 23.5909 22.8601 23.5062C22.9092 23.4103 22.9678 23.3274 23.0263 23.2444C23.0866 23.1503 23.1547 23.0802 23.2229 23.0102C23.2927 22.929 23.34 22.8443 23.4194 22.776C23.4875 22.706 23.5763 22.6506 23.6651 22.5953C23.7428 22.5382 23.8316 22.4828 23.93 22.4404C24.0171 22.3963 24.1154 22.3538 24.2121 22.3226C24.307 22.3026 24.4149 22.2731 24.5193 22.2661C24.6125 22.2573 24.7231 22.2857 24.8258 22.2899C24.9173 22.2923 25.0252 22.2628 25.1374 22.28C25.2497 22.2971 25.3473 22.3349 25.4466 22.3616C25.5571 22.3899 25.6694 22.407 25.767 22.4449C25.8741 22.4957 25.9424 22.575 26.0253 22.6336C26.1307 22.6956 26.2283 22.7334 26.3096 22.8033C26.3891 22.8843 26.4557 22.9748 26.5127 23.0525C26.5906 23.1447 26.6572 23.2353 26.703 23.3112C26.7835 23.4613 26.8242 23.5709 26.8545 23.5984C26.9323 23.6907 27.0057 23.7364 27.0843 23.7483C27.1516 23.7586 27.2466 23.7386 27.3483 23.6737C27.4389 23.6072 27.4733 23.532 27.506 23.4681C27.5422 23.3817 27.5637 23.3161 27.51 23.216C27.4771 23.1306 27.42 23.053 27.3647 22.9641C27.3205 22.877 27.2893 22.7804 27.2322 22.7027C27.1864 22.6268 27.1181 22.5475 27.0498 22.4682C26.991 22.4018 26.921 22.3337 26.8397 22.2639C26.768 22.207 26.698 22.1389 26.6133 22.0915C26.5304 22.0329 26.4457 21.9856 26.3593 21.9494C26.2747 21.9021 26.1934 21.8323 26.0959 21.7944C26.0095 21.7583 25.905 21.7653 25.8057 21.7387C25.7176 21.7138 25.62 21.6759 25.519 21.6605C25.4309 21.6356 25.3463 21.5882 25.2453 21.5728C25.133 21.5557 25.0269 21.574 24.9353 21.5715C24.8326 21.5673 24.7316 21.5519 24.6289 21.5477C24.5244 21.5548 24.4217 21.5506 24.3285 21.5594C24.2223 21.5776 24.1162 21.5959 24.0195 21.6271C23.9246 21.6471 23.8357 21.7024 23.7391 21.7337C23.6425 21.7649 23.5363 21.7831 23.4492 21.8273C23.3603 21.8826 23.2715 21.938 23.1939 21.9951C23.105 22.0504 23.0464 22.1334 22.9671 22.2017C22.8878 22.27 22.8197 22.34 22.7499 22.4213C22.6818 22.4913 22.6024 22.5596 22.5439 22.6425C22.4853 22.7255 22.4267 22.8084 22.3776 22.9043C22.319 22.9873 22.2716 23.0719 22.2226 23.1678C22.1864 23.2542 22.1486 23.3518 22.1107 23.4494C22.0729 23.547 22.0255 23.6316 21.9876 23.7292C21.9498 23.8268 21.9007 23.9227 21.8741 24.022C21.8492 24.1101 21.832 24.2223 21.8166 24.3234C21.79 24.4227 21.7858 24.5254 21.7592 24.6247C21.7438 24.7257 21.7284 24.8268 21.713 24.9278C21.6976 25.0288 21.6934 25.1315 21.678 25.2326C21.6738 25.3353 21.6248 25.4312 21.6189 25.5451C21.6147 25.6479 21.6459 25.7445 21.6529 25.8489C21.66 25.9534 21.6316 26.0639 21.6404 26.1571C21.6587 26.2633 21.6769 26.3695 21.6952 26.4756C21.704 26.5688 21.7222 26.675 21.7405 26.7811C21.7717 26.8778 21.8141 26.9761 21.8453 27.0728C21.8765 27.1694 21.919 27.2678 21.9502 27.3644C21.9926 27.4628 22.035 27.5611 22.0792 27.6483C22.1345 27.7371 22.2029 27.8164 22.2694 27.907C22.3265 27.9846 22.3819 28.0734 22.4631 28.1432C22.5314 28.2226 22.6014 28.2907 22.6827 28.3605C22.7639 28.4303 22.8615 28.4682 22.9557 28.5285C23.0386 28.5871 23.1216 28.6456 23.2175 28.6947C23.3038 28.7309 23.4161 28.748 23.5137 28.7858C23.613 28.8125 23.7072 28.8728 23.8065 28.8994C23.9058 28.926 24.0068 28.9414 24.1191 28.9585C24.2201 28.9739 24.3262 28.9557 24.429 28.9599C24.5317 28.964 24.6422 28.9924 24.7337 28.9948C24.8494 28.9895 24.9538 28.9825 25.0488 28.9625C25.1549 28.9442 25.2438 28.8888 25.3499 28.8706C25.4466 28.8394 25.5527 28.8211 25.6511 28.7787C25.7365 28.7458 25.8461 28.705 25.9332 28.6609C26.022 28.6055 26.0919 28.5243 26.1712 28.456C26.26 28.4006 26.3584 28.3582 26.4377 28.2899C26.517 28.2216 26.5661 28.1257 26.6359 28.0445C26.704 27.9744 26.7739 27.8932 26.8437 27.812C26.9023 27.729 26.9608 27.6461 27.0082 27.5614C27.0685 27.4672 27.1383 27.386 27.1857 27.3013C27.2348 27.2054 27.2614 27.1061 27.3105 27.0103C27.3483 26.9127 27.4069 26.8297 27.4336 26.7304C27.4714 26.6328 27.5093 26.5352 27.5359 26.4359C27.5625 26.3366 27.5555 26.2321 27.5709 26.1311ZM33.6228 29.9942C33.6168 29.9588 33.5873 29.851 33.5534 29.6965C33.5429 29.6145 33.5359 29.5101 33.5081 29.391C33.4864 29.3073 33.4328 29.2072 33.4145 29.101C33.3945 29.0061 33.3762 28.9 33.3467 28.7921C33.3268 28.6972 33.3309 28.5944 33.3127 28.4883C33.2815 28.3916 33.2503 28.295 33.2208 28.1871C33.2008 28.0922 33.1696 27.9956 33.1401 27.8877C33.1201 27.7928 33.1148 27.6771 33.0948 27.5822C33.0765 27.476 33.0341 27.3776 33.0029 27.281C32.9846 27.1748 32.9534 27.0782 32.9351 26.9721C32.9152 26.8771 32.9081 26.7727 32.8898 26.6665C32.8699 26.5716 32.8404 26.4637 32.8204 26.3688C32.8021 26.2626 32.7709 26.166 32.7414 26.0581C32.7214 25.9632 32.7256 25.8605 32.6961 25.7526C32.6761 25.6577 32.6225 25.5576 32.6025 25.4627C32.5842 25.3565 32.5772 25.2521 32.546 25.1554C32.5277 25.0493 32.5319 24.9465 32.5007 24.8499C32.4824 24.7437 32.4383 24.6566 32.4183 24.5617C32.3888 24.4538 32.3818 24.3494 32.3618 24.2544C32.3323 24.1466 32.3123 24.0516 32.2923 23.9567C32.2628 23.8488 32.2316 23.7522 32.2004 23.6556C32.1839 23.5382 32.1526 23.4415 32.131 23.3578C32.0937 23.2258 32.1091 23.1248 32.0857 23.0523C32.0423 22.8849 31.9723 22.8168 31.923 22.7633C31.8513 22.7065 31.771 22.7057 31.6138 22.6817C31.5223 22.6793 31.4662 22.6707 31.3395 22.8237C31.2843 22.8842 31.1938 22.9508 31.1154 23.0881C31.0715 23.1503 31.0448 23.2497 30.9828 23.355C30.9355 23.4397 30.8786 23.5114 30.8166 23.6168C30.7709 23.6903 30.7331 23.7879 30.684 23.8838C30.6366 23.9684 30.578 24.0514 30.529 24.1473C30.4816 24.2319 30.4325 24.3278 30.3851 24.4125C30.3378 24.4971 30.2792 24.5801 30.2301 24.676C30.1827 24.7606 30.1656 24.8729 30.1183 24.9575C30.0597 25.0405 29.9899 25.1217 29.9425 25.2064C29.8934 25.3023 29.8668 25.4016 29.8082 25.4845C29.7591 25.5804 29.7022 25.6521 29.6419 25.7463C29.5946 25.831 29.5567 25.9286 29.5093 26.0132C29.4603 26.1091 29.4129 26.1938 29.3638 26.2897C29.3165 26.3743 29.2691 26.459 29.22 26.5549C29.1727 26.6395 29.1236 26.7354 29.0762 26.8201C29.0288 26.9047 28.9478 26.9843 28.9004 27.0689C28.8531 27.1536 28.836 27.2658 28.7886 27.3505C28.7395 27.4464 28.6921 27.531 28.6448 27.6157C28.5957 27.7116 28.5164 27.7799 28.469 27.8646C28.4199 27.9604 28.4045 28.0615 28.3572 28.1461C28.3081 28.242 28.2495 28.325 28.2021 28.4096C28.1531 28.5055 28.0945 28.5885 28.0471 28.6731C27.998 28.769 27.9489 28.8649 27.9145 28.94C27.8215 29.0981 27.7949 29.1974 27.7932 29.2087C27.7519 29.3287 27.7933 29.358 27.8927 29.3846C27.96 29.3949 28.0403 29.3957 28.1301 29.4094C28.2743 29.4428 28.3787 29.4358 28.4908 29.3036C28.5201 29.2621 28.5821 29.1567 28.6458 29.0401C28.6932 28.9554 28.763 28.8742 28.8138 28.7671C28.8724 28.6841 28.9102 28.5865 28.9593 28.4906C29.0196 28.3964 29.0575 28.2988 29.1048 28.2142C29.1815 28.088 29.2323 27.9809 29.2633 27.9282C29.3194 27.9368 29.4282 27.9764 29.5612 28.0081C29.651 28.0218 29.7555 28.0148 29.8548 28.0414C29.9558 28.0568 30.0602 28.0498 30.1612 28.0652C30.251 28.0789 30.3469 28.1279 30.4479 28.1433C30.549 28.1587 30.6517 28.1629 30.7527 28.1783C30.8408 28.2032 30.9435 28.2074 31.0446 28.2228C31.1439 28.2495 31.2449 28.2649 31.3347 28.2785C31.4469 28.2957 31.5384 28.2981 31.6395 28.3135C31.7405 28.3289 31.8398 28.3556 31.9296 28.3693C32.0418 28.3864 32.1446 28.3906 32.2231 28.4025C32.4027 28.4299 32.4001 28.3721 32.5098 28.4807C32.6196 28.5893 32.5506 28.5903 32.5922 28.7689C32.6122 28.8639 32.6193 28.9683 32.6375 29.0745C32.6687 29.1711 32.687 29.2773 32.7182 29.3739C32.7365 29.4801 32.7789 29.5784 32.8006 29.6621C32.8362 29.8054 32.8544 29.9115 32.8571 29.9694C32.872 30.098 32.9005 30.1368 32.9886 30.1617C33.0542 30.1832 33.1474 30.1744 33.2597 30.1915C33.3832 30.2104 33.4712 30.2353 33.5325 30.2102C33.6274 30.1902 33.6489 30.1245 33.6228 29.9942ZM32.0315 27.7761C31.9417 27.7624 31.8441 27.7245 31.7336 27.6962C31.6326 27.6808 31.5298 27.6766 31.4193 27.6483C31.3183 27.6329 31.2138 27.6399 31.1128 27.6245C31.0118 27.6091 30.9108 27.5937 30.8115 27.5671C30.6992 27.55 30.6016 27.5121 30.5006 27.4967C30.3996 27.4813 30.2986 27.4659 30.1975 27.4505C30.0853 27.4334 29.9843 27.418 29.8945 27.4043C29.7615 27.3725 29.6475 27.3666 29.5802 27.3563C29.6112 27.3036 29.6637 27.1853 29.7274 27.0687C29.7731 26.9953 29.8334 26.9011 29.8937 26.8069C29.9411 26.7222 29.9694 26.6117 30.0185 26.5158C30.0658 26.4312 30.1581 26.3533 30.2072 26.2575C30.2545 26.1728 30.2829 26.0623 30.332 25.9664C30.3793 25.8817 30.4379 25.7988 30.487 25.7029C30.5361 25.607 30.5852 25.5111 30.6325 25.4264C30.6816 25.3306 30.7307 25.2347 30.778 25.15C30.8271 25.0541 30.8762 24.9582 30.9236 24.8736C30.9726 24.7777 31.0312 24.6947 31.0803 24.5989C31.1294 24.503 31.1448 24.402 31.1922 24.3173C31.2429 24.2102 31.324 24.1307 31.3584 24.0555C31.4351 23.9294 31.4746 23.8205 31.5169 23.7696C31.542 23.8308 31.5698 23.9499 31.6071 24.0819C31.627 24.1769 31.6582 24.2735 31.686 24.3926C31.706 24.4875 31.7372 24.5842 31.7555 24.6903C31.7738 24.7965 31.792 24.9026 31.8215 25.0105C31.8398 25.1167 31.8598 25.2116 31.878 25.3177C31.8963 25.4239 31.8904 25.5379 31.9087 25.644C31.927 25.7502 31.9823 25.839 32.0006 25.9452C32.0189 26.0513 32.0371 26.1575 32.0554 26.2636C32.0754 26.3586 32.0583 26.4708 32.0765 26.577C32.0948 26.6831 32.1372 26.7815 32.1572 26.8764C32.1738 26.9938 32.1808 27.0982 32.2008 27.1932C32.2286 27.3122 32.2356 27.4167 32.2573 27.5004C32.2817 27.6419 32.3112 27.7498 32.3363 27.8111C32.2689 27.8008 32.1662 27.7966 32.0315 27.7761ZM39.2507 30.393C39.1358 30.318 38.9881 30.307 38.8535 30.2864C38.7637 30.2728 38.6756 30.2478 38.5745 30.2324C38.483 30.23 38.395 30.205 38.3052 30.1914C38.2137 30.1889 38.1092 30.1959 38.0194 30.1822C37.9633 30.1737 37.8674 30.1246 37.7215 30.1024C37.6317 30.0887 37.5272 30.0957 37.415 30.0786C37.314 30.0632 37.213 30.0478 37.1119 30.0324C37.0109 30.017 36.9133 29.9791 36.8123 29.9637C36.7113 29.9483 36.599 29.9312 36.5092 29.9175C36.397 29.9004 36.2977 29.8738 36.2079 29.8601C36.0956 29.843 35.98 29.8483 35.9014 29.8363C35.7106 29.8072 35.6822 29.9177 35.6113 29.7806C35.5291 29.6417 35.6077 29.6537 35.635 29.4741C35.6617 29.3748 35.6995 29.2772 35.7149 29.1762C35.7269 29.0976 35.7423 28.9966 35.7611 28.8731C35.7748 28.7833 35.8015 28.684 35.8186 28.5718C35.8435 28.4837 35.8252 28.3775 35.8406 28.2765C35.856 28.1755 35.8939 28.0779 35.9093 27.9769C35.9247 27.8758 35.9289 27.7731 35.9443 27.6721C35.9597 27.5711 36.0088 27.4752 36.0242 27.3742C36.0396 27.2731 36.0196 27.1782 36.0367 27.066C36.0504 26.9762 36.0882 26.8786 36.1036 26.7776C36.1191 26.6765 36.1345 26.5755 36.1611 26.4762C36.1765 26.3752 36.1694 26.2707 36.1961 26.1714C36.2115 26.0704 36.2269 25.9694 36.2406 25.8796C36.256 25.7786 36.2826 25.6793 36.298 25.5782C36.3134 25.4772 36.3176 25.3745 36.333 25.2735C36.3484 25.1724 36.3863 25.0749 36.3999 24.9851C36.4171 24.8728 36.4308 24.783 36.4462 24.682C36.4633 24.5697 36.4433 24.4748 36.457 24.385C36.4758 24.2616 36.4912 24.1605 36.5032 24.082C36.5152 24.0034 36.5625 23.9187 36.5745 23.8402C36.5865 23.7616 36.576 23.6796 36.5768 23.5993C36.5905 23.5095 36.5249 23.488 36.4385 23.4519C36.3521 23.4157 36.2623 23.402 36.2062 23.3935C36.1147 23.391 35.8987 23.3007 35.855 23.5122C35.8318 23.5891 35.8147 23.7013 35.7976 23.8136C35.7934 23.9163 35.7555 24.0139 35.7401 24.1149C35.7333 24.1598 35.7516 24.266 35.7293 24.4119C35.7173 24.4905 35.6795 24.5881 35.6624 24.7003C35.6487 24.7901 35.6557 24.8945 35.6386 25.0068C35.6249 25.0966 35.5758 25.1925 35.5492 25.2918C35.5338 25.3928 35.5313 25.4843 35.5159 25.5853C35.5005 25.6863 35.5076 25.7908 35.4922 25.8918C35.4767 25.9928 35.4406 26.0792 35.4252 26.1802C35.4098 26.2812 35.4168 26.3857 35.4014 26.4867C35.386 26.5877 35.3594 26.687 35.3457 26.7768C35.3303 26.8779 35.2925 26.9755 35.2771 27.0765C35.2617 27.1775 35.2575 27.2802 35.2438 27.37C35.2284 27.471 35.213 27.5721 35.1993 27.6619C35.1839 27.7629 35.1572 27.8622 35.1418 27.9632C35.1264 28.0642 35.1335 28.1687 35.1198 28.2585C35.1044 28.3595 35.1002 28.4622 35.0848 28.5632C35.0694 28.6643 35.0428 28.7636 35.0291 28.8534C35.0137 28.9544 34.9983 29.0554 34.9846 29.1452C34.9675 29.2575 34.9408 29.3568 34.9271 29.4466C34.9066 29.5813 34.9024 29.684 34.9051 29.7418C34.8931 29.8204 34.8553 29.918 34.8381 30.0302C34.8227 30.1313 34.8073 30.2323 34.7954 30.3108C34.7739 30.3765 34.8214 30.4412 34.8888 30.4514C34.9673 30.4634 35.0701 30.4676 35.1823 30.4847C35.2833 30.5001 35.3844 30.5155 35.4742 30.5292C35.5303 30.5378 35.6425 30.5549 35.7772 30.5754C35.867 30.5891 35.9663 30.6157 36.0786 30.6329C36.1796 30.6483 36.2823 30.6524 36.3833 30.6678C36.4844 30.6832 36.5932 30.7228 36.6942 30.7382C36.7952 30.7536 36.8997 30.7466 37.0007 30.762C37.1129 30.7791 37.214 30.7945 37.315 30.8099C37.416 30.8253 37.5136 30.8632 37.6146 30.8786C37.7286 30.8845 37.833 30.8774 37.9228 30.8911C38.0463 30.9099 38.1439 30.9478 38.2337 30.9615C38.3684 30.982 38.4694 30.9974 38.5384 30.9965C38.6507 31.0136 38.7439 31.0048 38.8337 31.0185C38.9364 31.0227 39.034 31.0605 39.1419 31.031C39.2256 31.0094 39.2513 30.841 39.265 30.7512C39.2804 30.6502 39.3336 30.4516 39.2507 30.393ZM41.6563 27.5094C41.67 27.4196 41.6966 27.3203 41.7137 27.208C41.7291 27.107 41.7333 27.0043 41.7487 26.9033C41.7641 26.8022 41.7571 26.6978 41.7742 26.5855C41.7896 26.4845 41.8274 26.3869 41.8428 26.2859C41.8583 26.1849 41.8624 26.0822 41.8778 25.9811C41.8932 25.8801 41.944 25.773 41.9577 25.6832C41.9748 25.571 41.979 25.4682 41.9944 25.3672C42.0098 25.2662 42.0045 25.1505 42.0182 25.0607C42.037 24.9373 42.0636 24.8379 42.0756 24.7594C42.103 24.5798 42.0847 24.4736 42.0613 24.4011C42.0223 24.2803 41.9472 24.2459 41.7805 24.209C41.6121 24.1833 41.4999 24.1662 41.4267 24.2699C41.3827 24.3321 41.3639 24.4556 41.3253 24.6335C41.3133 24.7121 41.3204 24.8165 41.3015 24.94C41.2878 25.0298 41.2724 25.1308 41.2553 25.243C41.2416 25.3328 41.2262 25.4338 41.1979 25.5444C41.1842 25.6342 41.1576 25.7335 41.1404 25.8457C41.125 25.9467 41.1209 26.0495 41.1055 26.1505C41.09 26.2515 41.0859 26.3543 41.0705 26.4553C41.0551 26.5563 41.006 26.6522 40.9906 26.7532C40.9752 26.8542 40.9934 26.9604 40.978 27.0614C40.9626 27.1624 40.936 27.2617 40.9189 27.374C40.9035 27.475 40.8769 27.5743 40.8615 27.6753C40.8348 27.7746 40.8531 27.8808 40.8377 27.9818C40.8223 28.0828 40.7732 28.1787 40.7466 28.278C40.7312 28.379 40.727 28.4818 40.7116 28.5828C40.6962 28.6838 40.7032 28.7883 40.6878 28.8893C40.6724 28.9903 40.6346 29.0879 40.6192 29.1889C40.6038 29.2899 40.6108 29.3944 40.5954 29.4954C40.58 29.5964 40.5534 29.6957 40.538 29.7968C40.5226 29.8978 40.4847 29.9954 40.4693 30.0964C40.4522 30.2086 40.448 30.3114 40.4343 30.4012C40.4172 30.5134 40.4018 30.6144 40.3881 30.7042C40.3727 30.8052 40.3236 30.9011 40.298 31.0695C40.2576 31.2586 40.5029 31.3075 40.5702 31.3178C40.6712 31.3332 40.774 31.3373 40.8655 31.3398C40.9811 31.3345 41.0631 31.324 41.0768 31.2342C41.0793 31.1427 41.0913 31.0641 41.1015 30.9968C41.1152 30.907 41.1497 30.8318 41.1599 30.7645C41.1719 30.6859 41.1761 30.5832 41.1932 30.4709C41.2069 30.3811 41.2448 30.2835 41.2619 30.1713C41.2756 30.0815 41.2797 29.9788 41.2952 29.8778C41.3106 29.7767 41.3355 29.6886 41.3509 29.5876C41.3663 29.4866 41.3705 29.3839 41.3859 29.2829C41.4013 29.1818 41.415 29.092 41.4304 28.991C41.4458 28.89 41.4499 28.7873 41.4636 28.6975C41.479 28.5964 41.5057 28.4971 41.5211 28.3961C41.5365 28.2951 41.5407 28.1924 41.5544 28.1026C41.5732 27.9791 41.6205 27.8944 41.6325 27.8159C41.6428 27.7485 41.6375 27.6329 41.6563 27.5094ZM48.8585 26.1152C48.8756 26.003 48.8798 25.9003 48.8935 25.8105C48.9175 25.6533 48.9233 25.5394 48.8999 25.4669C48.8722 25.3478 48.8004 25.2909 48.6304 25.2765C48.5389 25.274 48.4137 25.2664 48.2626 25.2778C48.2523 25.3452 48.2577 25.4608 48.2371 25.5955C48.2139 25.6724 48.1761 25.77 48.1477 25.8805C48.1341 25.9703 48.1411 26.0748 48.1257 26.1758C48.1103 26.2768 48.0837 26.3761 48.0683 26.4771C48.0529 26.5782 48.0167 26.6645 48.0013 26.7656C47.9859 26.8666 47.9705 26.9676 47.9551 27.0686C47.9285 27.1679 47.9131 27.2689 47.8994 27.3587C47.884 27.4598 47.891 27.5642 47.8756 27.6652C47.849 27.7645 47.8224 27.8638 47.8069 27.9649C47.7933 28.0547 47.8003 28.1591 47.7849 28.2601C47.7695 28.3611 47.7316 28.4587 47.7179 28.5485C47.6913 28.6478 47.6871 28.7506 47.6717 28.8516C47.6563 28.9526 47.6185 29.0502 47.6048 29.14C47.5894 29.241 47.5964 29.3455 47.581 29.4465C47.5544 29.5458 47.5278 29.6451 47.5141 29.7349C47.497 29.8472 47.4833 29.937 47.4696 30.0268C47.4525 30.139 47.4034 30.2349 47.3785 30.323C47.3511 30.5026 47.3435 30.6277 47.3323 30.626C47.2217 30.5977 47.1566 30.3466 47.1254 30.2499C47.083 30.1516 47.0518 30.0549 47.0189 29.9695C46.9765 29.8712 46.9211 29.7823 46.8787 29.684C46.8362 29.5856 46.805 29.489 46.7609 29.4018C46.7184 29.3035 46.6872 29.2068 46.6448 29.1085C46.6007 29.0214 46.5341 28.9308 46.4916 28.8325C46.4475 28.7453 46.418 28.6375 46.3739 28.5503C46.3314 28.452 46.2873 28.3648 46.2449 28.2665C46.1895 28.1777 46.1212 28.0983 46.0788 28C46.0346 27.9128 45.9793 27.824 45.9368 27.7256C45.8815 27.6368 45.8632 27.5306 45.8208 27.4323C45.7766 27.3452 45.7083 27.2658 45.6547 27.1658C45.6105 27.0786 45.5664 26.9915 45.524 26.8932C45.4798 26.806 45.4374 26.7077 45.395 26.6093C45.3508 26.5222 45.3196 26.4256 45.2772 26.3272C45.2347 26.2288 45.1906 26.1417 45.1482 26.0434C45.104 25.9562 45.0745 25.8484 45.0416 25.7629C44.9992 25.6646 44.9326 25.574 44.8885 25.4869C44.846 25.3886 44.8278 25.2824 44.7836 25.1953C44.7412 25.0969 44.6858 25.0081 44.6546 24.9114C44.6044 24.7889 44.568 24.726 44.4946 24.6803C44.4307 24.6476 44.3521 24.6356 44.2157 24.6263C43.9368 24.5723 43.9644 24.542 43.9241 24.7311C43.9138 24.7985 43.8984 24.8995 43.8779 25.0342C43.8642 25.124 43.8488 25.225 43.8316 25.3373C43.8179 25.427 43.7689 25.5229 43.7518 25.6352C43.7381 25.725 43.7451 25.8294 43.728 25.9417C43.7126 26.0427 43.7084 26.1454 43.693 26.2464C43.6776 26.3475 43.6285 26.4433 43.6131 26.5444C43.5977 26.6454 43.5935 26.7481 43.5781 26.8491C43.5627 26.9502 43.5361 27.0495 43.5302 27.1634C43.5148 27.2644 43.5106 27.3672 43.4952 27.4682C43.4798 27.5692 43.4756 27.6719 43.4602 27.773C43.4448 27.874 43.4182 27.9733 43.4028 28.0743C43.3874 28.1753 43.3495 28.2729 43.3341 28.374C43.3187 28.475 43.337 28.5811 43.3216 28.6822C43.3062 28.7832 43.2908 28.8842 43.2754 28.9852C43.26 29.0862 43.2334 29.1855 43.218 29.2866C43.2008 29.3988 43.1967 29.5015 43.183 29.5913C43.1641 29.7148 43.16 29.8175 43.1368 29.8944C43.1231 29.9842 43.0964 30.0835 43.081 30.1845C43.0656 30.2855 43.0614 30.3883 43.046 30.4893C43.0306 30.5903 42.9816 30.6862 42.9679 30.776C42.9525 30.877 42.9707 30.9832 42.9553 31.0842C42.9399 31.1852 42.9021 31.2828 42.8867 31.3838C42.8678 31.5073 42.9681 31.603 43.0977 31.6572C43.216 31.7097 43.349 31.7415 43.4612 31.7586C43.684 31.804 43.5915 31.7325 43.6404 31.4873C43.6507 31.4199 43.6644 31.3301 43.6781 31.2403C43.6935 31.1393 43.7072 31.0495 43.7174 30.9822C43.7182 30.9019 43.7224 30.7992 43.7429 30.6645C43.7566 30.5747 43.7832 30.4754 43.8021 30.3519C43.8045 30.2604 43.8104 30.1464 43.8258 30.0454C43.8412 29.9444 43.8583 29.8321 43.8737 29.7311C43.8892 29.6301 43.9046 29.5291 43.9217 29.4168C43.9371 29.3158 43.9525 29.2148 43.9696 29.1026C43.985 29.0015 44.0004 28.9005 44.0175 28.7883C44.0329 28.6872 44.0483 28.5862 44.0637 28.4852C44.0808 28.373 44.085 28.2702 44.1004 28.1692C44.1158 28.0682 44.1442 27.9577 44.1596 27.8566C44.175 27.7556 44.2241 27.6597 44.2395 27.5587C44.2566 27.4465 44.2495 27.342 44.2649 27.241C44.2821 27.1288 44.2975 27.0277 44.3129 26.9267C44.3317 26.8032 44.3488 26.691 44.3591 26.6237C44.3711 26.5451 44.3528 26.4389 44.4296 26.4621C44.4616 26.4785 44.517 26.5673 44.5672 26.6898C44.5906 26.7623 44.6218 26.859 44.6547 26.9444C44.6876 27.0298 44.7076 27.1247 44.731 27.1972C44.7561 27.2585 44.8115 27.3473 44.8617 27.4698C44.9076 27.5457 44.9517 27.6329 45.0037 27.7442C45.0366 27.8296 45.0549 27.9357 45.099 28.0229C45.1414 28.1212 45.2227 28.191 45.2651 28.2894C45.3093 28.3765 45.3405 28.4731 45.3958 28.562C45.4383 28.6603 45.4582 28.7553 45.5007 28.8536C45.5448 28.9408 45.6131 29.0201 45.6573 29.1072C45.6997 29.2056 45.718 29.3117 45.7604 29.4101C45.8045 29.4972 45.8487 29.5843 45.8928 29.6715C45.9352 29.7698 46.0035 29.8491 46.0477 29.9363C46.0901 30.0346 46.1213 30.1313 46.1655 30.2184C46.2079 30.3168 46.2762 30.3961 46.3203 30.4832C46.3628 30.5816 46.394 30.6782 46.4381 30.7653C46.4805 30.8637 46.5005 30.9586 46.5447 31.0458C46.5983 31.1458 46.6537 31.2347 46.6883 31.3089C46.7403 31.4201 46.7844 31.5073 46.8173 31.5927C46.8805 31.7057 46.8988 31.8118 46.9239 31.8731C46.9853 31.9973 47.0614 32.1008 47.141 32.1819C47.2205 32.2629 47.3147 32.3232 47.4718 32.3472C47.6177 32.3694 47.6738 32.378 47.7144 32.3382C47.7661 32.3002 47.7651 32.2311 47.7857 32.0964C47.8089 32.0195 47.8355 31.9202 47.8639 31.8097C47.8776 31.7199 47.8817 31.6172 47.8988 31.5049C47.9143 31.4039 47.9504 31.3175 47.9787 31.207C47.9924 31.1172 47.9966 31.0145 48.0249 30.9039C48.0386 30.8141 48.0653 30.7148 48.0824 30.6026C48.0961 30.5128 48.1003 30.4101 48.1157 30.309C48.1423 30.2097 48.1577 30.1087 48.1731 30.0077C48.1997 29.9084 48.2039 29.8056 48.2193 29.7046C48.2347 29.6036 48.2613 29.5043 48.288 29.405C48.3034 29.304 48.3076 29.2012 48.323 29.1002C48.3496 29.0009 48.3874 28.9033 48.4028 28.8023C48.4182 28.7013 48.4095 28.608 48.4361 28.5087C48.4515 28.4077 48.4669 28.3067 48.4823 28.2057C48.4977 28.1047 48.5356 28.0071 48.551 27.906C48.5664 27.805 48.5706 27.7023 48.5843 27.6125C48.6014 27.5002 48.6375 27.4139 48.6529 27.3128C48.6683 27.2118 48.695 27.1125 48.7104 27.0115C48.7258 26.9105 48.7187 26.806 48.7341 26.705C48.7495 26.604 48.7986 26.5081 48.8123 26.4183C48.8294 26.3061 48.8448 26.205 48.8585 26.1152ZM55.7418 30.4267C55.7606 30.3032 55.7794 30.1798 55.737 30.0814C55.6963 29.9718 55.615 29.902 55.4708 29.8685C55.3922 29.8566 55.2912 29.8412 55.1902 29.8258C55.1004 29.8121 55.0011 29.7854 54.9001 29.77C54.7991 29.7546 54.698 29.7392 54.597 29.7238C54.5072 29.7101 54.4113 29.6611 54.3103 29.6456C54.2205 29.632 54.1212 29.6053 54.0202 29.5899C53.9304 29.5762 53.8259 29.5833 53.7249 29.5679C53.6239 29.5525 53.5307 29.5612 53.4297 29.5458C53.3286 29.5304 53.2423 29.4943 53.1525 29.4806C53.0402 29.4635 52.9358 29.4705 52.8572 29.4585C52.7657 29.4561 52.6822 29.6271 52.6556 29.7264C52.6272 29.8369 52.6145 29.9958 52.7052 30.0785C52.7735 30.1579 52.9471 30.1499 53.0688 30.1799C53.1362 30.1902 53.2355 30.2168 53.3702 30.2374C53.4712 30.2528 53.5739 30.2569 53.6862 30.2741C53.7872 30.2895 53.8831 30.3385 53.9953 30.3557C54.0963 30.3711 54.1956 30.3977 54.2967 30.4131C54.4089 30.4302 54.5116 30.4344 54.6127 30.4498C54.7361 30.4686 54.8501 30.4745 54.9174 30.4848C54.8942 30.5616 54.8564 30.6592 54.8168 30.7681C54.7824 30.8432 54.7445 30.9408 54.6954 31.0367C54.6593 31.1231 54.6119 31.2077 54.5516 31.3019C54.5043 31.3866 54.4664 31.4842 54.4191 31.5688C54.3622 31.6405 54.2924 31.7218 54.2225 31.803C54.1657 31.8747 54.1071 31.9577 54.039 32.0277C53.9596 32.096 53.8725 32.1402 53.7932 32.2085C53.7156 32.2655 53.6362 32.3338 53.5491 32.378C53.462 32.4221 53.3653 32.4533 53.2687 32.4845C53.1833 32.5175 53.0866 32.5487 52.9805 32.5669C52.8856 32.5869 52.7889 32.6181 52.6845 32.6252C52.593 32.6227 52.4902 32.6185 52.3892 32.6031C52.2882 32.5877 52.1906 32.5498 52.1042 32.5137C52.0049 32.4871 51.9056 32.4605 51.8209 32.4131C51.7251 32.364 51.6533 32.3071 51.5704 32.2485C51.4891 32.1787 51.4174 32.1218 51.3491 32.0425C51.2791 31.9744 51.222 31.8968 51.1537 31.8175C51.0966 31.7399 51.0654 31.6432 51.0101 31.5544C50.9659 31.4672 50.8959 31.3991 50.8535 31.3008C50.8206 31.2154 50.7781 31.117 50.7452 31.0316C50.714 30.935 50.7182 30.8322 50.6982 30.7373C50.667 30.6406 50.6358 30.544 50.6158 30.4491C50.5975 30.3429 50.5776 30.248 50.5688 30.1548C50.5505 30.0486 50.5659 29.9476 50.5684 29.8561C50.5614 29.7516 50.5414 29.6567 50.5456 29.554C50.561 29.453 50.5634 29.3614 50.5788 29.2604C50.5942 29.1594 50.6321 29.0618 50.6475 28.9608C50.6741 28.8615 50.6895 28.7605 50.7162 28.6612C50.7428 28.5618 50.7694 28.4625 50.796 28.3632C50.8339 28.2656 50.8925 28.1827 50.9303 28.0851C50.9682 27.9875 50.9836 27.8865 51.031 27.8018C51.08 27.7059 51.1386 27.623 51.1972 27.54C51.2575 27.4458 51.3256 27.3758 51.3937 27.3058C51.4635 27.2246 51.5109 27.1399 51.5902 27.0716C51.6583 27.0016 51.7472 26.9462 51.836 26.8909C51.9136 26.8338 52.0025 26.7784 52.1008 26.736C52.188 26.6918 52.2863 26.6494 52.383 26.6182C52.4779 26.5982 52.5858 26.5687 52.6902 26.5617C52.7834 26.5529 52.894 26.5813 52.9967 26.5855C53.0882 26.5879 53.1961 26.5584 53.3083 26.5755C53.4206 26.5927 53.5182 26.6305 53.6175 26.6571C53.728 26.6855 53.8402 26.7026 53.9378 26.7405C54.0449 26.7912 54.1133 26.8706 54.1962 26.9292C54.3016 26.9912 54.3992 27.029 54.4804 27.0988C54.56 27.1799 54.6266 27.2704 54.6836 27.348C54.7614 27.4403 54.828 27.5309 54.8739 27.6068C54.9544 27.7569 54.9951 27.8664 55.0253 27.894C55.1032 27.9863 55.1766 28.0319 55.2552 28.0439C55.3225 28.0542 55.4174 28.0342 55.5192 27.9693C55.6098 27.9027 55.6442 27.8276 55.6769 27.7637C55.7131 27.6773 55.7346 27.6117 55.6809 27.5116C55.648 27.4262 55.5909 27.3486 55.5355 27.2597C55.4914 27.1726 55.4602 27.076 55.4031 26.9983C55.3573 26.9224 55.289 26.8431 55.2207 26.7638C55.1619 26.6974 55.0919 26.6293 55.0106 26.5595C54.9389 26.5026 54.8689 26.4345 54.7842 26.3871C54.7013 26.3285 54.6166 26.2812 54.5302 26.245C54.4456 26.1977 54.3643 26.1278 54.2667 26.09C54.1804 26.0538 54.0759 26.0609 53.9766 26.0343C53.8885 26.0093 53.7909 25.9715 53.6899 25.9561C53.6018 25.9312 53.5172 25.8838 53.4161 25.8684C53.3039 25.8513 53.1977 25.8696 53.1062 25.8671C53.0035 25.8629 52.9025 25.8475 52.7997 25.8433C52.6953 25.8504 52.5926 25.8462 52.4993 25.8549C52.3932 25.8732 52.287 25.8915 52.1904 25.9227C52.0955 25.9427 52.0066 25.998 51.91 26.0292C51.8133 26.0605 51.7072 26.0787 51.6201 26.1229C51.5312 26.1782 51.4424 26.2336 51.3648 26.2907C51.2759 26.346 51.2173 26.429 51.138 26.4973C51.0587 26.5656 50.9906 26.6356 50.9208 26.7168C50.8526 26.7869 50.7733 26.8552 50.7147 26.9381C50.6561 27.0211 50.5976 27.104 50.5485 27.1999C50.4899 27.2828 50.4425 27.3675 50.3934 27.4634C50.3573 27.5498 50.3194 27.6474 50.2816 27.745C50.2437 27.8426 50.1964 27.9272 50.1585 28.0248C50.1207 28.1224 50.0716 28.2183 50.045 28.3176C50.02 28.4057 50.0029 28.5179 49.9875 28.619C49.9609 28.7183 49.9567 28.821 49.9301 28.9203C49.9147 29.0213 49.8993 29.1224 49.8839 29.2234C49.8685 29.3244 49.8643 29.4271 49.8489 29.5281C49.8447 29.6309 49.7956 29.7268 49.7897 29.8407C49.7856 29.9435 49.8168 30.0401 49.8238 30.1445C49.8309 30.249 49.8025 30.3595 49.8113 30.4527C49.8295 30.5589 49.8478 30.665 49.8661 30.7712C49.8748 30.8644 49.8931 30.9706 49.9114 31.0767C49.9426 31.1734 49.985 31.2717 50.0162 31.3684C50.0474 31.465 50.0899 31.5634 50.1211 31.66C50.1635 31.7584 50.2059 31.8567 50.2501 31.9438C50.3054 32.0327 50.3737 32.112 50.4403 32.2026C50.4974 32.2802 50.5528 32.369 50.634 32.4388C50.7023 32.5182 50.7723 32.5863 50.8536 32.6561C50.9348 32.7259 51.0324 32.7638 51.1266 32.8241C51.2095 32.8826 51.2925 32.9412 51.3884 32.9903C51.4747 33.0265 51.587 33.0436 51.6846 33.0814C51.7839 33.108 51.8781 33.1684 51.9774 33.195C52.0767 33.2216 52.1777 33.237 52.2899 33.2541C52.391 33.2695 52.4971 33.2513 52.5998 33.2554C52.7026 33.2596 52.8131 33.288 52.9046 33.2904C53.0203 33.2851 53.1247 33.278 53.2197 33.2581C53.3258 33.2398 53.4147 33.1844 53.5208 33.1662C53.6175 33.135 53.7236 33.1167 53.822 33.0743C53.9074 33.0413 54.017 33.0006 54.1041 32.9565C54.1929 32.9011 54.2627 32.8199 54.3421 32.7516C54.4309 32.6962 54.5293 32.6538 54.6086 32.5855C54.6879 32.5172 54.737 32.4213 54.8068 32.34C54.8749 32.27 54.9447 32.1888 55.0145 32.1076C55.0731 32.0246 55.1317 31.9417 55.1791 31.857C55.2394 31.7628 55.3092 31.6816 55.3566 31.5969C55.4057 31.501 55.4323 31.4017 55.4814 31.3058C55.5192 31.2082 55.5778 31.1253 55.6044 31.026C55.6423 30.9284 55.6801 30.8308 55.7068 30.7315C55.7334 30.6322 55.7264 30.5277 55.7418 30.4267Z" fill="#E9E7CF"/>
<path d="M23.1377 51.6339C25.6556 51.3608 28.0613 49.5041 29.2548 47.3109C29.4707 46.889 29.6695 46.4139 29.7164 45.941C29.2305 46.1448 28.7655 46.3771 28.3214 46.6379C27.9381 46.8321 27.5756 47.0548 27.2132 47.2775C27.1031 47.3365 27.0177 47.3993 26.957 47.4659C26.7076 48.4386 26.2892 49.3602 25.6673 50.1245C25.183 50.1517 24.6929 50.0517 24.2066 49.927C23.5796 49.7303 22.9961 49.414 22.4809 48.9816C22.0112 48.5815 21.6345 48.0693 21.3679 47.498C21.1259 46.9305 21.0263 46.2583 20.9685 45.6431C20.9145 45.0031 20.9136 44.346 20.9621 43.6964C21.0742 42.2985 21.3135 40.8947 21.7466 39.5458C22.1078 38.3374 22.6208 37.127 23.4285 36.1384C23.6052 36.14 23.8065 36.1454 23.9793 36.1718C24.325 36.2245 24.6632 36.3266 24.9939 36.4781C25.6058 36.7736 26.0679 37.223 26.4086 37.8056C26.5857 38.1358 26.7343 38.487 26.8582 38.8344C26.8716 38.9122 26.8887 38.9654 26.9021 39.0432C26.9231 39.0717 26.9612 39.1533 26.9536 39.2027C27.0562 39.193 27.1378 39.155 27.2479 39.0959C27.3332 39.0331 27.4433 38.9741 27.5496 38.9398C27.8229 38.8046 28.1 38.6447 28.377 38.4848C28.7604 38.2906 29.1475 38.0717 29.51 37.849C29.5954 37.7862 29.6807 37.7234 29.7661 37.6606C29.7774 37.5865 29.7146 37.5012 29.7222 37.4518C29.6707 37.2923 29.5945 37.1291 29.543 36.9696C29.3257 36.4059 29.0097 35.8271 28.5401 35.427C28.2701 35.2089 27.9926 35.0403 27.6867 34.8925C27.546 34.8206 27.3769 34.7695 27.2078 34.7185C27.0597 34.6959 26.8906 34.6448 26.7424 34.6222C26.3929 34.5942 26.0359 34.6156 25.6752 34.6616C25.491 34.7093 25.3069 34.7571 25.1474 34.8086C24.8816 34.8944 24.633 35.0333 24.4129 35.1514C24.2212 35.2485 24.0048 35.3418 23.8131 35.439C22.9857 35.894 22.1089 36.3414 21.3577 36.9596C21.0693 37.1936 20.8019 37.4561 20.5838 37.726C19.7079 38.8306 19.1722 40.1892 18.7885 41.5457C18.4086 42.8775 18.1692 44.2813 18.1312 45.6905C18.1074 46.3439 18.1083 47.001 18.2079 47.6731C18.2904 48.2921 18.4545 48.8731 18.7496 49.4234C19.3227 50.471 20.5716 51.3942 21.8063 51.5825C22.2471 51.6749 22.6782 51.6649 23.1377 51.6339Z" fill="#E9E7CF"/>
<path d="M32.3762 51.1222L32.3724 51.1469L33.2084 45.6649L34.5171 45.8644C34.7394 45.8983 34.9976 45.8619 35.1931 45.7401L37.8821 44.1792L34.8694 43.7198L33.3703 44.603L34.3681 38.0591L38.4179 38.6767C38.6648 38.7143 38.8984 38.6741 39.1185 38.5561L41.7828 36.9914L34.6957 35.9108L32.1896 37.9291L29.9002 52.943L36.0984 53.8881C36.3454 53.9258 36.5789 53.8856 36.799 53.7675L39.4634 52.2029L32.3762 51.1222Z" fill="#E9E7CF"/>
<path d="M51.8983 49.1717C51.9468 48.5222 51.9212 47.8613 51.6337 47.2615C51.3214 46.658 50.825 46.1022 50.2168 45.7821C49.9356 45.6381 49.6221 45.5398 49.2973 45.5155C49.2479 45.508 49.1985 45.5005 49.1491 45.4929C50.2004 44.8952 51.2802 44.2766 51.8105 43.1193C52.049 42.5492 52.1507 41.8825 52.0966 41.2425C52.0598 40.6557 51.8957 40.0748 51.593 39.5739C51.0677 38.7104 50.0967 38.2844 49.1412 38.0882C48.4535 37.9581 47.7508 37.9267 47.0501 38.0473C46.6609 38.1143 46.2926 38.2097 45.9092 38.404C45.3379 38.6706 44.7876 38.9657 44.2619 39.2646C43.9317 39.4416 43.6262 39.6224 43.3416 39.8317C43.3131 39.8527 43.1993 39.9364 43.1671 39.982C43.057 40.041 42.9185 40.121 42.8046 40.2047C42.723 40.2428 42.6376 40.3056 42.5732 40.3968C42.4677 41.0882 42.3376 41.7759 42.2322 42.4673C42.0251 43.8255 41.818 45.1837 41.6071 46.5665C41.4038 47.9 41.1967 49.2581 40.9934 50.5916C40.8051 51.8263 40.6168 53.061 40.4323 54.271L40.3947 54.518C40.7898 54.5782 41.333 54.661 41.7281 54.7213C42.0529 54.7455 42.374 54.7945 42.6987 54.8187C43.0482 54.8468 43.3939 54.8995 43.7472 54.9028C44.429 54.9057 45.1221 54.8345 45.7771 54.6817C46.2764 54.5557 46.7414 54.3234 47.2063 54.0911C47.9731 53.7026 48.7474 53.2648 49.4969 52.8232C49.6677 52.6976 49.8631 52.5758 50.0339 52.4502C50.29 52.2619 50.5499 52.0488 50.7889 51.8073C51.0032 51.5621 51.1928 51.313 51.3329 51.0564C51.5016 50.7789 51.6246 50.4692 51.7192 50.1804C51.8213 49.8422 51.8703 49.5212 51.8983 49.1717ZM44.7715 42.5513C44.9258 41.5389 45.084 40.5017 45.2384 39.4893C45.6163 39.4963 45.9658 39.5244 46.3324 39.6055C46.9954 39.7319 47.6433 39.957 48.1833 40.3931C48.4532 40.6112 48.6947 40.8501 48.8756 41.1557C49.0317 41.4574 49.1594 41.7801 49.2301 42.1446C49.3373 42.7674 49.4085 43.4605 49.2118 44.0875C49.1419 44.3801 49.0474 44.6689 48.8825 44.9217C48.746 45.1535 48.5849 45.3817 48.4313 45.5604C48.0308 45.7014 47.6378 45.7931 47.2448 45.8848C46.5689 46.0092 44.8734 46.3571 44.2029 46.2801C44.3912 45.0454 44.5832 43.786 44.7715 42.5513ZM48.9239 51.7756C48.8255 52.0891 48.6816 52.3704 48.5129 52.6479C48.3803 52.8551 48.2476 53.0622 48.0656 53.2619C47.6232 53.3461 47.1883 53.3808 46.7325 53.3871C46.0754 53.388 45.3802 53.3073 44.7135 53.2056C44.1911 53.1512 43.6688 53.0968 43.154 52.9931C43.2745 52.2029 43.395 51.4127 43.5155 50.6224C43.7 49.4124 43.8883 48.1778 44.0728 46.9677C44.5855 46.9196 45.0735 46.8677 45.569 46.7663C45.6963 46.7605 45.8273 46.7299 45.9507 46.7487C47.2348 46.9445 48.4001 47.7539 48.9087 48.8927C49.0401 49.1907 49.0937 49.5021 49.1435 49.8382C49.1686 50.1705 49.1444 50.4953 49.1201 50.8201C49.0959 51.1449 49.0469 51.4659 48.9239 51.7756Z" fill="#E9E7CF"/>
</svg>
