<svg width="96" height="96" viewBox="0 0 96 96" fill="none" xmlns="http://www.w3.org/2000/svg">
<path d="M40.7511 34.3023C40.796 34.1858 40.841 34.0692 40.8207 33.9641C40.8044 33.8483 40.7401 33.7626 40.6065 33.699C40.5323 33.6704 40.4369 33.6336 40.3416 33.5969C40.2568 33.5642 40.1656 33.5168 40.0702 33.4801C39.9749 33.4433 39.8795 33.4066 39.7842 33.3698C39.6994 33.3372 39.6163 33.2686 39.521 33.2319C39.4362 33.1992 39.3449 33.1519 39.2496 33.1151C39.1648 33.0824 39.0613 33.0669 38.966 33.0301C38.8706 32.9934 38.7777 32.9819 38.6824 32.9451C38.587 32.9084 38.5104 32.8545 38.4257 32.8218C38.3197 32.781 38.2162 32.7654 38.142 32.7369C38.0532 32.7148 37.9349 32.8639 37.8875 32.9551C37.8361 33.057 37.7895 33.2094 37.8604 33.3097C37.91 33.4019 38.0812 33.4314 38.1937 33.4869C38.2572 33.5114 38.3485 33.5587 38.4756 33.6077C38.571 33.6445 38.6704 33.6706 38.7764 33.7115C38.8717 33.7482 38.9548 33.8168 39.0607 33.8576C39.1561 33.8944 39.2474 33.9417 39.3427 33.9785C39.4487 34.0193 39.5481 34.0455 39.6434 34.0822C39.76 34.1271 39.87 34.1574 39.9336 34.1819C39.8944 34.2519 39.8364 34.3391 39.7744 34.4369C39.7246 34.5029 39.6667 34.5901 39.5982 34.6732C39.5443 34.7498 39.4799 34.8223 39.4007 34.9013C39.3363 34.9738 39.2783 35.061 39.2139 35.1335C39.1429 35.1913 39.0573 35.2556 38.9716 35.32C38.9007 35.3778 38.8256 35.4462 38.7441 35.5C38.6519 35.5496 38.5573 35.574 38.4652 35.6237C38.3771 35.6627 38.285 35.7124 38.1904 35.7368C38.0958 35.7612 37.9947 35.7709 37.8936 35.7806C37.8031 35.7944 37.702 35.8041 37.5944 35.7991C37.4974 35.7982 37.3963 35.8079 37.2928 35.7924C37.204 35.7703 37.1045 35.7441 37.0092 35.7074C36.9138 35.6706 36.8267 35.6127 36.7501 35.5588C36.6588 35.5115 36.5675 35.4641 36.495 35.3997C36.4119 35.3311 36.3541 35.2602 36.2857 35.1851C36.2213 35.0995 36.1635 35.0285 36.1139 34.9364C36.0601 34.8548 36.0211 34.7667 35.9714 34.6746C35.9323 34.5865 35.9226 34.4854 35.8876 34.3868C35.8633 34.2922 35.8095 34.2106 35.7892 34.1055C35.7754 34.015 35.7551 33.9098 35.7413 33.8193C35.7316 33.7182 35.7578 33.6188 35.7587 33.5218C35.749 33.4207 35.7392 33.3196 35.7401 33.2226C35.7451 33.115 35.746 33.018 35.7575 32.925C35.7624 32.8174 35.7992 32.7221 35.8213 32.6333C35.8368 32.5297 35.8377 32.4327 35.8639 32.3333C35.9006 32.2379 35.9227 32.1491 35.9595 32.0538C35.9962 31.9584 36.0542 31.8712 36.0909 31.7759C36.1383 31.6846 36.175 31.5893 36.2224 31.498C36.2697 31.4067 36.3171 31.3155 36.3644 31.2242C36.4223 31.137 36.4974 31.0686 36.5553 30.9814C36.6133 30.8942 36.65 30.7989 36.7145 30.7264C36.783 30.6433 36.8581 30.5749 36.9331 30.5064C37.0123 30.4274 37.0938 30.3737 37.1754 30.3199C37.261 30.2556 37.3255 30.1831 37.4176 30.1334C37.4992 30.0797 37.5978 30.0447 37.6965 30.0097C37.7846 29.9707 37.8832 29.9357 37.9884 29.9154C38.083 29.891 38.1882 29.8707 38.2893 29.861C38.3863 29.8619 38.4979 29.8562 38.6015 29.8718C38.6944 29.8833 38.7962 29.9347 38.8957 29.9609C38.9845 29.983 39.0962 29.9773 39.2021 30.0182C39.3081 30.059 39.3953 30.1169 39.4865 30.1643C39.5884 30.2157 39.6943 30.2566 39.7815 30.3145C39.8752 30.3871 39.9249 30.4793 39.9933 30.5543C40.0829 30.6375 40.1701 30.6955 40.2344 30.7811C40.2947 30.8774 40.3403 30.9801 40.3793 31.0682C40.4355 31.175 40.4811 31.2778 40.5095 31.3617C40.5559 31.5256 40.5721 31.6414 40.5957 31.6748C40.6519 31.7817 40.7138 31.842 40.788 31.8706C40.8515 31.8951 40.9485 31.896 41.0619 31.8545C41.1646 31.8089 41.2144 31.743 41.2601 31.6876C41.3139 31.611 41.349 31.5515 41.3181 31.4422C41.3044 31.3517 41.2653 31.2637 41.2303 31.165C41.2059 31.0704 41.1962 30.9693 41.1571 30.8813C41.1287 30.7973 41.079 30.7051 41.0294 30.613C40.9862 30.5355 40.9325 30.4539 40.8681 30.3683C40.8103 30.2973 40.7566 30.2158 40.6841 30.1513C40.6156 30.0763 40.5431 30.0118 40.4665 29.958C40.394 29.8935 40.3297 29.8079 40.2425 29.7499C40.1659 29.6961 40.0624 29.6805 39.9712 29.6332C39.8905 29.5899 39.8033 29.5319 39.7079 29.4952C39.6273 29.4519 39.5548 29.3875 39.4594 29.3507C39.3535 29.3099 39.2459 29.3049 39.157 29.2828C39.0576 29.2567 38.9623 29.2199 38.8628 29.1938C38.7593 29.1782 38.6599 29.152 38.5669 29.1406C38.4593 29.1356 38.3517 29.1306 38.2507 29.1403C38.1536 29.1394 38.055 29.1744 37.9539 29.1841C37.8528 29.1938 37.7452 29.1889 37.6506 29.2133C37.552 29.2482 37.4533 29.2832 37.3652 29.3223C37.2666 29.3573 37.1915 29.4257 37.0994 29.4753C37.0072 29.525 36.9256 29.5787 36.84 29.6431C36.7584 29.6968 36.6663 29.7465 36.5912 29.8149C36.5162 29.8833 36.4412 29.9517 36.3726 30.0348C36.2976 30.1033 36.2331 30.1758 36.1646 30.2589C36.1107 30.3355 36.0528 30.4226 35.9948 30.5098C35.9369 30.597 35.8724 30.6695 35.8145 30.7567C35.7566 30.8439 35.688 30.927 35.6407 31.0182C35.5974 31.0989 35.5566 31.2048 35.5198 31.3002C35.4725 31.3915 35.4463 31.4909 35.399 31.5822C35.3622 31.6775 35.3255 31.7729 35.2887 31.8682C35.2519 31.9636 35.2258 32.063 35.189 32.1583C35.1629 32.2578 35.0943 32.3409 35.0641 32.4509C35.0379 32.5503 35.0476 32.6514 35.0321 32.755C35.0165 32.8585 34.9651 32.9603 34.9536 33.0533C34.9486 33.1609 34.9437 33.2685 34.9387 33.3761C34.9272 33.469 34.9222 33.5766 34.9173 33.6842C34.927 33.7853 34.9473 33.8904 34.957 33.9915C34.9667 34.0926 34.987 34.1978 34.9967 34.2989C35.017 34.4041 35.0373 34.5092 35.0617 34.6038C35.0967 34.7025 35.1463 34.7946 35.1919 34.8974C35.231 34.9855 35.266 35.0841 35.3303 35.1698C35.38 35.2619 35.4337 35.3435 35.498 35.4291C35.5624 35.5148 35.6496 35.5727 35.7286 35.6518C35.797 35.7269 35.8654 35.8019 35.9485 35.8705C36.0251 35.9243 36.131 35.9652 36.2182 36.0231C36.3095 36.0704 36.3885 36.1496 36.4798 36.1969C36.571 36.2443 36.6664 36.281 36.7723 36.3219C36.8677 36.3586 36.9753 36.3636 37.0747 36.3897C37.1742 36.4159 37.276 36.4673 37.3649 36.4894C37.479 36.5091 37.5825 36.5246 37.6795 36.5255C37.7871 36.5305 37.8858 36.4955 37.9934 36.5005C38.0944 36.4908 38.202 36.4957 38.3072 36.4754C38.3977 36.4616 38.5135 36.4454 38.6081 36.421C38.7067 36.3861 38.7924 36.3217 38.8845 36.2721C38.9832 36.2371 39.0884 36.2168 39.1805 36.1671C39.2727 36.1175 39.3412 36.0344 39.4268 35.97C39.5084 35.9163 39.594 35.8519 39.6797 35.7876C39.7547 35.7192 39.8298 35.6508 39.8942 35.5783C39.9734 35.4992 40.059 35.4349 40.1235 35.3624C40.192 35.2793 40.2393 35.188 40.3079 35.1049C40.3658 35.0178 40.4409 34.9493 40.4882 34.8581C40.5462 34.7709 40.6041 34.6837 40.6515 34.5924C40.6988 34.5012 40.7144 34.3977 40.7511 34.3023ZM45.8315 39.3757C45.8332 39.3399 45.8275 39.2282 45.8277 39.07C45.8351 38.9877 45.8506 38.8842 45.8491 38.7619C45.8459 38.6755 45.815 38.5662 45.82 38.4586C45.8208 38.3616 45.8258 38.254 45.8202 38.1423C45.8211 38.0453 45.8472 37.9459 45.8522 37.8383C45.8425 37.7372 45.8328 37.6361 45.8272 37.5244C45.828 37.4274 45.8183 37.3263 45.8127 37.2147C45.8136 37.1176 45.8332 37.0035 45.8341 36.9065C45.8391 36.7989 45.8188 36.6938 45.8091 36.5927C45.8141 36.4851 45.8044 36.384 45.8093 36.2764C45.8102 36.1794 45.8258 36.0758 45.8307 35.9682C45.8316 35.8712 45.826 35.7596 45.8269 35.6625C45.8319 35.5549 45.8222 35.4539 45.8165 35.3422C45.8174 35.2452 45.8436 35.1457 45.838 35.034C45.8388 34.937 45.8079 34.8278 45.8088 34.7308C45.8138 34.6232 45.8294 34.5197 45.8197 34.4186C45.8246 34.311 45.8508 34.2115 45.8411 34.1104C45.846 34.0028 45.8217 33.9083 45.8225 33.8113C45.8169 33.6996 45.8325 33.5961 45.8334 33.499C45.8278 33.3874 45.8286 33.2904 45.8295 33.1933C45.8239 33.0817 45.8142 32.9806 45.8045 32.8795C45.8135 32.7613 45.8038 32.6602 45.8006 32.5738C45.7926 32.4368 45.8293 32.3415 45.8221 32.2657C45.8157 32.0928 45.7619 32.0113 45.7253 31.9485C45.6675 31.8775 45.5892 31.8595 45.4409 31.8024C45.352 31.7803 45.2991 31.7599 45.1425 31.882C45.0756 31.9293 44.9728 31.9748 44.8668 32.0921C44.8105 32.1435 44.7631 32.2347 44.6799 32.3243C44.6155 32.3968 44.5445 32.4547 44.4613 32.5443C44.4009 32.6062 44.343 32.6934 44.2745 32.7765C44.21 32.849 44.135 32.9174 44.0664 33.0005C44.002 33.073 43.9334 33.1561 43.869 33.2286C43.8045 33.3011 43.7295 33.3695 43.6609 33.4526C43.5965 33.5251 43.5556 33.6311 43.4912 33.7036C43.4161 33.772 43.3305 33.8363 43.266 33.9088C43.1975 33.9919 43.1502 34.0832 43.0751 34.1516C43.0066 34.2347 42.9356 34.2925 42.8565 34.3716C42.792 34.4441 42.7341 34.5312 42.6696 34.6037C42.6011 34.6868 42.5366 34.7593 42.4681 34.8424C42.4037 34.915 42.3392 34.9875 42.2707 35.0706C42.2062 35.1431 42.1377 35.2262 42.0732 35.2987C42.0088 35.3712 41.9125 35.4314 41.8481 35.5039C41.7836 35.5764 41.7428 35.6824 41.6783 35.7549C41.6098 35.838 41.5453 35.9105 41.4809 35.983C41.4124 36.0661 41.3202 36.1157 41.2558 36.1882C41.1872 36.2713 41.1505 36.3667 41.086 36.4392C41.0175 36.5223 40.9424 36.5907 40.878 36.6632C40.8094 36.7463 40.7344 36.8147 40.6699 36.8872C40.6014 36.9703 40.5329 37.0534 40.4831 37.1194C40.3583 37.2539 40.3109 37.3451 40.3068 37.3557C40.2407 37.4641 40.2749 37.5016 40.3662 37.549C40.4298 37.5735 40.508 37.5915 40.5928 37.6241C40.7264 37.6878 40.8299 37.7034 40.9678 37.5983C41.0053 37.5641 41.0885 37.4745 41.1758 37.3743C41.2403 37.3018 41.3259 37.2374 41.3985 37.1438C41.4736 37.0753 41.5315 36.9881 41.6 36.9051C41.6792 36.826 41.7371 36.7389 41.8016 36.6663C41.9036 36.5596 41.9762 36.4659 42.0178 36.4211C42.0708 36.4416 42.1685 36.5036 42.2916 36.5632C42.3763 36.5958 42.4799 36.6114 42.5711 36.6588C42.6665 36.6955 42.77 36.7111 42.8653 36.7478C42.9501 36.7805 43.0332 36.849 43.1285 36.8858C43.2239 36.9225 43.3233 36.9487 43.4187 36.9855C43.4993 37.0287 43.5988 37.0549 43.6941 37.0916C43.7854 37.139 43.8807 37.1757 43.9655 37.2084C44.0714 37.2492 44.1603 37.2713 44.2556 37.3081C44.351 37.3448 44.4423 37.3922 44.527 37.4248C44.633 37.4657 44.7324 37.4918 44.8065 37.5204C44.9761 37.5858 44.9859 37.5287 45.0698 37.6584C45.1536 37.7881 45.086 37.7742 45.0883 37.9576C45.0874 38.0546 45.0718 38.1581 45.0669 38.2657C45.0766 38.3668 45.0716 38.4744 45.0813 38.5755C45.0763 38.6831 45.0966 38.7883 45.0998 38.8747C45.1038 39.0222 45.0988 39.1298 45.089 39.1869C45.0759 39.3157 45.0954 39.3597 45.1761 39.403C45.2356 39.4381 45.3285 39.4495 45.4344 39.4904C45.551 39.5353 45.6316 39.5786 45.6969 39.5672C45.7939 39.5681 45.829 39.5086 45.8315 39.3757ZM44.754 36.8674C44.6693 36.8348 44.5821 36.7768 44.4802 36.7254C44.3849 36.6886 44.2855 36.6625 44.1836 36.611C44.0882 36.5743 43.9847 36.5587 43.8894 36.522C43.794 36.4852 43.6987 36.4485 43.6074 36.4011C43.5015 36.3603 43.4143 36.3023 43.3189 36.2656C43.2236 36.2288 43.1282 36.1921 43.0329 36.1553C42.9269 36.1145 42.8316 36.0777 42.7468 36.0451C42.6238 35.9855 42.5138 35.9552 42.4502 35.9307C42.4918 35.8859 42.5685 35.7816 42.6558 35.6814C42.7162 35.6195 42.7953 35.5405 42.8744 35.4615C42.9389 35.389 42.9903 35.2871 43.0589 35.204C43.1233 35.1315 43.2301 35.0753 43.2987 34.9922C43.3631 34.9197 43.4146 34.8179 43.4831 34.7348C43.5476 34.6623 43.6226 34.5938 43.6911 34.5108C43.7597 34.4277 43.8282 34.3446 43.8927 34.272C43.9612 34.1889 44.0297 34.1059 44.0942 34.0333C44.1627 33.9502 44.2313 33.8671 44.2957 33.7946C44.3643 33.7115 44.4393 33.6431 44.5078 33.56C44.5764 33.4769 44.6131 33.3816 44.6776 33.3091C44.7502 33.2154 44.8464 33.1551 44.8962 33.0891C44.9982 32.9824 45.0602 32.8846 45.1124 32.8439C45.1238 32.9091 45.1253 33.0314 45.1334 33.1684C45.1325 33.2654 45.1422 33.3665 45.1437 33.4888C45.1428 33.5858 45.1526 33.6869 45.1476 33.7945C45.1426 33.9021 45.1376 34.0097 45.1433 34.1213C45.1383 34.2289 45.1374 34.326 45.1324 34.4336C45.1275 34.5412 45.0972 34.6512 45.0923 34.7588C45.0873 34.8664 45.1223 34.965 45.1173 35.0726C45.1123 35.1802 45.1074 35.2878 45.1024 35.3955C45.1015 35.4925 45.0607 35.5984 45.0557 35.706C45.0507 35.8136 45.071 35.9188 45.0701 36.0158C45.0611 36.134 45.0455 36.2375 45.0446 36.3345C45.0462 36.4568 45.0306 36.5603 45.0338 36.6467C45.0272 36.7902 45.0328 36.9019 45.0442 36.9671C44.9806 36.9426 44.8812 36.9164 44.754 36.8674ZM51.2422 40.9746C51.146 40.8767 51.0042 40.8342 50.8771 40.7852C50.7923 40.7525 50.7117 40.7093 50.6163 40.6725C50.5275 40.6504 50.4468 40.6072 50.3621 40.5745C50.2732 40.5524 50.1697 40.5369 50.0849 40.5042C50.032 40.4838 49.9489 40.4152 49.8111 40.3621C49.7264 40.3295 49.6229 40.3139 49.5169 40.2731C49.4216 40.2363 49.3262 40.1996 49.2309 40.1628C49.1355 40.1261 49.0483 40.0681 48.953 40.0314C48.8576 39.9946 48.7517 39.9538 48.6669 39.9211C48.561 39.8803 48.4697 39.8329 48.385 39.8002C48.279 39.7594 48.1649 39.7398 48.0908 39.7112C47.9107 39.6417 47.8592 39.7436 47.8194 39.5944C47.769 39.4411 47.8431 39.4697 47.9085 39.3002C47.9558 39.2089 48.0138 39.1217 48.0505 39.0264C48.0791 38.9522 48.1158 38.8569 48.1608 38.7403C48.1934 38.6556 48.2408 38.5643 48.2816 38.4584C48.3249 38.3777 48.3299 38.2701 48.3666 38.1747C48.4034 38.0794 48.4613 37.9922 48.4981 37.8969C48.5348 37.8015 48.561 37.7021 48.5977 37.6067C48.6345 37.5114 48.703 37.4283 48.7398 37.3329C48.7765 37.2376 48.7774 37.1406 48.8182 37.0346C48.8509 36.9499 48.9089 36.8627 48.9456 36.7673C48.9824 36.672 49.0191 36.5766 49.0665 36.4854C49.1032 36.39 49.1188 36.2865 49.1661 36.1952C49.2029 36.0999 49.2396 36.0045 49.2723 35.9198C49.3091 35.8244 49.3564 35.7332 49.3932 35.6378C49.4299 35.5425 49.4561 35.443 49.4928 35.3477C49.5296 35.2523 49.5875 35.1652 49.6202 35.0804C49.661 34.9745 49.6937 34.8897 49.7305 34.7943C49.7713 34.6884 49.7722 34.5914 49.8048 34.5066C49.8498 34.3901 49.8865 34.2947 49.9151 34.2206C49.9437 34.1464 50.0081 34.0739 50.0367 33.9998C50.0653 33.9256 50.0727 33.8433 50.0907 33.765C50.1234 33.6803 50.0639 33.6452 49.9873 33.5913C49.9107 33.5375 49.826 33.5048 49.773 33.4844C49.6842 33.4623 49.4927 33.3276 49.4045 33.5249C49.3653 33.5949 49.3245 33.7009 49.2836 33.8068C49.2575 33.9063 49.1995 33.9934 49.1628 34.0888C49.1465 34.1312 49.1415 34.2388 49.0884 34.3765C49.0598 34.4507 49.0019 34.5378 48.961 34.6438C48.9284 34.7285 48.9128 34.8321 48.872 34.938C48.8393 35.0228 48.7708 35.1059 48.7234 35.1971C48.6866 35.2925 48.6646 35.3813 48.6278 35.4767C48.5911 35.572 48.5755 35.6755 48.5387 35.7709C48.502 35.8662 48.4481 35.9428 48.4114 36.0382C48.3746 36.1335 48.3591 36.237 48.3223 36.3324C48.2856 36.4277 48.2382 36.519 48.2055 36.6038C48.1688 36.6991 48.1108 36.7863 48.0741 36.8816C48.0373 36.977 48.0112 37.0764 47.9785 37.1612C47.9418 37.2565 47.905 37.3519 47.8723 37.4366C47.8356 37.532 47.7882 37.6232 47.7515 37.7186C47.7147 37.8139 47.6992 37.9175 47.6665 38.0022C47.6297 38.0976 47.6036 38.197 47.5668 38.2924C47.5301 38.3877 47.4827 38.479 47.4501 38.5637C47.4133 38.6591 47.3765 38.7544 47.3439 38.8392C47.303 38.9451 47.2557 39.0364 47.223 39.1211C47.174 39.2483 47.1479 39.3477 47.138 39.4048C47.1094 39.4789 47.0515 39.5661 47.0107 39.6721C46.9739 39.7674 46.9372 39.8628 46.9086 39.9369C46.8735 39.9964 46.906 40.0698 46.9696 40.0943C47.0438 40.1229 47.1432 40.149 47.2491 40.1899C47.3445 40.2266 47.4398 40.2634 47.5246 40.2961C47.5776 40.3165 47.6835 40.3573 47.8106 40.4063C47.8954 40.439 47.9867 40.4863 48.0926 40.5272C48.188 40.5639 48.2874 40.5901 48.3827 40.6268C48.4781 40.6636 48.5759 40.7256 48.6712 40.7624C48.7666 40.7991 48.8701 40.8147 48.9654 40.8514C49.0714 40.8923 49.1667 40.929 49.2621 40.9658C49.3574 41.0025 49.4446 41.0605 49.54 41.0972C49.65 41.1275 49.7535 41.143 49.8383 41.1757C49.9548 41.2206 50.042 41.2786 50.1267 41.3112C50.2539 41.3603 50.3492 41.397 50.4169 41.4109C50.5228 41.4518 50.6157 41.4632 50.7005 41.4959C50.7999 41.5221 50.8871 41.58 50.9988 41.5744C51.0852 41.5712 51.1465 41.4123 51.1791 41.3275C51.2159 41.2322 51.3106 41.0496 51.2422 40.9746ZM54.2112 38.6753C54.2439 38.5906 54.2913 38.4993 54.3321 38.3934C54.3689 38.298 54.395 38.1986 54.4318 38.1032C54.4685 38.0079 54.4841 37.9044 54.5249 37.7984C54.5617 37.7031 54.6196 37.6159 54.6564 37.5205C54.6931 37.4252 54.7193 37.3258 54.756 37.2304C54.7928 37.1351 54.8654 37.0414 54.8981 36.9566C54.9389 36.8507 54.9651 36.7512 55.0018 36.6559C55.0386 36.5605 55.0582 36.4464 55.0909 36.3617C55.1358 36.2451 55.1832 36.1539 55.2118 36.0797C55.2771 35.9102 55.2821 35.8026 55.2748 35.7268C55.2626 35.6004 55.1967 35.5506 55.0418 35.4788C54.8829 35.4175 54.777 35.3767 54.6832 35.4622C54.6269 35.5135 54.5819 35.6301 54.506 35.7955C54.4774 35.8697 54.4619 35.9732 54.4169 36.0897C54.3843 36.1745 54.3475 36.2698 54.3067 36.3758C54.274 36.4605 54.2373 36.5559 54.1858 36.6577C54.1532 36.7425 54.1058 36.8338 54.065 36.9397C54.0282 37.035 54.0021 37.1345 53.9653 37.2298C53.9286 37.3252 53.9024 37.4246 53.8656 37.52C53.8289 37.6153 53.7603 37.6984 53.7236 37.7938C53.6868 37.8891 53.6819 37.9967 53.6451 38.0921C53.6084 38.1874 53.561 38.2787 53.5202 38.3846C53.4834 38.48 53.4361 38.5712 53.3993 38.6666C53.352 38.7579 53.347 38.8655 53.3103 38.9608C53.2735 39.0562 53.205 39.1393 53.1576 39.2305C53.1209 39.3259 53.0947 39.4253 53.0579 39.5207C53.0212 39.616 53.0056 39.7195 52.9689 39.8149C52.9321 39.9102 52.8742 39.9974 52.8374 40.0928C52.8007 40.1881 52.7851 40.2916 52.7484 40.387C52.7116 40.4823 52.6643 40.5736 52.6275 40.6689C52.5907 40.7643 52.5328 40.8515 52.4961 40.9468C52.4552 41.0528 52.4291 41.1522 52.3964 41.237C52.3555 41.3429 52.3188 41.4382 52.2861 41.523C52.2494 41.6184 52.1808 41.7015 52.1196 41.8604C52.0396 42.0364 52.2686 42.1368 52.3321 42.1613C52.4275 42.1981 52.5269 42.2242 52.6157 42.2463C52.7299 42.266 52.8122 42.2734 52.8449 42.1886C52.8669 42.0998 52.8955 42.0256 52.92 41.962C52.9527 41.8773 53.0025 41.8113 53.027 41.7477C53.0556 41.6736 53.0817 41.5741 53.1225 41.4682C53.1552 41.3834 53.2132 41.2962 53.254 41.1903C53.2867 41.1055 53.3128 41.0061 53.3496 40.9108C53.3863 40.8154 53.4296 40.7347 53.4663 40.6394C53.5031 40.544 53.5293 40.4446 53.566 40.3493C53.6028 40.2539 53.6354 40.1692 53.6722 40.0738C53.7089 39.9785 53.7351 39.879 53.7678 39.7943C53.8045 39.6989 53.8519 39.6076 53.8886 39.5123C53.9254 39.4169 53.9515 39.3175 53.9842 39.2328C54.0291 39.1162 54.0936 39.0437 54.1222 38.9696C54.1467 38.906 54.1663 38.7919 54.2112 38.6753ZM61.5448 38.8615C61.5856 38.7556 61.6118 38.6562 61.6445 38.5714C61.7016 38.4231 61.7319 38.3131 61.7246 38.2372C61.7231 38.115 61.6652 38.044 61.5022 37.9933C61.4134 37.9713 61.2928 37.9369 61.1428 37.9156C61.1183 37.9792 61.0986 38.0933 61.0496 38.2204C61.0104 38.2905 60.9525 38.3777 60.9011 38.4796C60.8684 38.5643 60.8528 38.6678 60.8161 38.7632C60.7793 38.8585 60.732 38.9498 60.6952 39.0452C60.6585 39.1405 60.6046 39.2171 60.5679 39.3124C60.5311 39.4078 60.4944 39.5031 60.4576 39.5985C60.4103 39.6898 60.3735 39.7851 60.3408 39.8699C60.3041 39.9652 60.2885 40.0687 60.2518 40.1641C60.2044 40.2553 60.1571 40.3466 60.1203 40.442C60.0876 40.5267 60.0721 40.6302 60.0353 40.7256C59.9986 40.8209 59.9406 40.9081 59.908 40.9929C59.8606 41.0841 59.8345 41.1836 59.7977 41.2789C59.7609 41.3743 59.703 41.4615 59.6703 41.5462C59.6336 41.6416 59.618 41.7451 59.5813 41.8404C59.5339 41.9317 59.4866 42.023 59.4539 42.1077C59.4131 42.2137 59.3804 42.2984 59.3477 42.3832C59.3069 42.4891 59.2383 42.5722 59.1951 42.6529C59.1297 42.8224 59.0954 42.943 59.0848 42.9389C58.983 42.8875 58.9734 42.6283 58.9637 42.5272C58.9434 42.422 58.9337 42.3209 58.9199 42.2304C58.8996 42.1252 58.8646 42.0266 58.8443 41.9214C58.824 41.8162 58.8143 41.7151 58.7899 41.6206C58.7696 41.5154 58.7599 41.4143 58.7396 41.3091C58.7152 41.2145 58.6696 41.1118 58.6493 41.0066C58.6249 40.912 58.6193 40.8004 58.5949 40.7058C58.5746 40.6006 58.5502 40.506 58.5299 40.4009C58.4949 40.3022 58.4453 40.21 58.425 40.1049C58.4006 40.0103 58.3656 39.9116 58.3453 39.8064C58.3103 39.7078 58.3153 39.6002 58.295 39.495C58.2706 39.4004 58.2209 39.3083 58.19 39.199C58.1657 39.1044 58.1413 39.0099 58.121 38.9047C58.0966 38.8101 58.0763 38.7049 58.056 38.5998C58.0316 38.5052 58.0219 38.4041 58.0016 38.2989C57.9813 38.1937 57.9569 38.0992 57.9366 37.994C57.9122 37.8994 57.9066 37.7877 57.8928 37.6972C57.8725 37.592 57.8269 37.4893 57.8025 37.3947C57.7822 37.2895 57.7872 37.1819 57.7628 37.0874C57.7425 36.9822 57.7075 36.8835 57.6978 36.7824C57.6751 36.652 57.6531 36.5827 57.5912 36.5223C57.5358 36.4766 57.4617 36.448 57.3304 36.4096C57.0697 36.2969 57.1031 36.2733 57.0231 36.4493C56.9986 36.5129 56.9618 36.6083 56.9128 36.7354C56.8802 36.8201 56.8434 36.9155 56.8026 37.0214C56.7699 37.1062 56.7014 37.1893 56.6605 37.2952C56.6279 37.38 56.6123 37.4835 56.5715 37.5895C56.5347 37.6848 56.5085 37.7842 56.4718 37.8796C56.435 37.9749 56.3665 38.058 56.3297 38.1534C56.293 38.2487 56.2668 38.3482 56.2301 38.4435C56.1933 38.5389 56.146 38.6301 56.1157 38.7402C56.079 38.8355 56.0528 38.935 56.0161 39.0303C55.9793 39.1257 55.9532 39.2251 55.9164 39.3204C55.8796 39.4158 55.8323 39.5071 55.7955 39.6024C55.7588 39.6978 55.7008 39.7849 55.6641 39.8803C55.6273 39.9756 55.6224 40.0832 55.5856 40.1786C55.5489 40.2739 55.5121 40.3693 55.4754 40.4646C55.4386 40.56 55.3913 40.6513 55.3545 40.7466C55.3137 40.8525 55.2875 40.952 55.2548 41.0367C55.2099 41.1533 55.1838 41.2527 55.1446 41.3228C55.1119 41.4075 55.0646 41.4988 55.0278 41.5942C54.9911 41.6895 54.9649 41.7889 54.9281 41.8843C54.8914 41.9796 54.8228 42.0627 54.7902 42.1475C54.7534 42.2428 54.7485 42.3504 54.7117 42.4458C54.6749 42.5411 54.617 42.6283 54.5803 42.7237C54.5353 42.8402 54.6127 42.9552 54.7276 43.036C54.8319 43.1127 54.9549 43.1723 55.0609 43.2131C55.2687 43.3054 55.1937 43.2157 55.2942 42.9867C55.3187 42.9231 55.3513 42.8384 55.384 42.7536C55.4208 42.6583 55.4534 42.5735 55.4779 42.5099C55.4959 42.4317 55.5221 42.3323 55.5711 42.2051C55.6038 42.1204 55.6511 42.0291 55.696 41.9126C55.7181 41.8237 55.7483 41.7137 55.7851 41.6184C55.8218 41.523 55.8627 41.4171 55.8994 41.3217C55.9362 41.2264 55.9729 41.131 56.0138 41.0251C56.0505 40.9297 56.0873 40.8344 56.1281 40.7284C56.1649 40.6331 56.2016 40.5377 56.2425 40.4318C56.2792 40.3364 56.316 40.2411 56.3527 40.1457C56.3936 40.0398 56.4197 39.9403 56.4565 39.845C56.4932 39.7496 56.5447 39.6478 56.5814 39.5524C56.6182 39.4571 56.6867 39.374 56.7235 39.2786C56.7643 39.1727 56.7799 39.0692 56.8166 38.9738C56.8575 38.8679 56.8942 38.7725 56.931 38.6772C56.9759 38.5606 57.0167 38.4547 57.0412 38.3911C57.0698 38.317 57.0748 38.2094 57.1449 38.2486C57.1726 38.2714 57.2075 38.3701 57.2303 38.5005C57.2376 38.5763 57.2473 38.6774 57.261 38.7679C57.2748 38.8584 57.274 38.9554 57.2812 39.0312C57.2926 39.0965 57.3276 39.1951 57.3503 39.3256C57.3788 39.4096 57.4032 39.5041 57.43 39.624C57.4438 39.7145 57.4388 39.8221 57.4632 39.9167C57.4835 40.0218 57.5478 40.1075 57.5681 40.2127C57.5925 40.3072 57.6022 40.4083 57.6372 40.507C57.6575 40.6122 57.6566 40.7092 57.6769 40.8143C57.7013 40.9089 57.751 41.0011 57.7754 41.0957C57.7957 41.2008 57.7907 41.3084 57.811 41.4136C57.8354 41.5082 57.8598 41.6028 57.8841 41.6973C57.9044 41.8025 57.9541 41.8947 57.9785 41.9892C57.9988 42.0944 58.0085 42.1955 58.0329 42.2901C58.0532 42.3953 58.1029 42.4874 58.1272 42.582C58.1475 42.6872 58.1572 42.7883 58.1816 42.8828C58.2019 42.988 58.2011 43.085 58.2254 43.1796C58.2563 43.2889 58.2913 43.3875 58.3092 43.4674C58.336 43.5873 58.3604 43.6819 58.3742 43.7724C58.4116 43.8963 58.4066 44.0039 58.418 44.0691C58.4513 44.2036 58.5034 44.3211 58.5636 44.4173C58.6239 44.5135 58.7029 44.5927 58.8512 44.6498C58.989 44.7029 59.0419 44.7234 59.0901 44.6932C59.1488 44.6672 59.1627 44.5995 59.2117 44.4724C59.2509 44.4023 59.2982 44.3111 59.3496 44.2092C59.3823 44.1244 59.4085 44.025 59.4493 43.9191C59.4861 43.8237 59.5399 43.7471 59.5913 43.6453C59.624 43.5605 59.6502 43.4611 59.7016 43.3592C59.7343 43.2745 59.7816 43.1832 59.8225 43.0772C59.8551 42.9925 59.8813 42.8931 59.918 42.7977C59.9654 42.7064 60.0021 42.6111 60.0389 42.5157C60.0862 42.4245 60.1124 42.325 60.1492 42.2297C60.1859 42.1343 60.2333 42.0431 60.2806 41.9518C60.3174 41.8565 60.3435 41.757 60.3803 41.6617C60.4276 41.5704 60.4856 41.4832 60.5223 41.3879C60.5591 41.2925 60.5706 41.1996 60.6179 41.1083C60.6547 41.013 60.6914 40.9176 60.7282 40.8223C60.7649 40.7269 60.8229 40.6398 60.8596 40.5444C60.8964 40.4491 60.9225 40.3496 60.9552 40.2649C60.996 40.1589 61.0499 40.0823 61.0866 39.987C61.1234 39.8916 61.1707 39.8004 61.2075 39.705C61.2443 39.6097 61.2598 39.5061 61.2966 39.4108C61.3333 39.3154 61.4019 39.2324 61.4345 39.1476C61.4754 39.0417 61.5121 38.9463 61.5448 38.8615ZM67.3407 44.5515C67.3856 44.435 67.4305 44.3184 67.4102 44.2132C67.394 44.0975 67.3297 44.0118 67.196 43.9481C67.1219 43.9196 67.0265 43.8828 66.9312 43.8461C66.8464 43.8134 66.7551 43.766 66.6598 43.7293C66.5644 43.6925 66.4691 43.6558 66.3737 43.619C66.289 43.5863 66.2059 43.5178 66.1105 43.4811C66.0258 43.4484 65.9345 43.401 65.8392 43.3643C65.7544 43.3316 65.6509 43.3161 65.5555 43.2793C65.4602 43.2425 65.3673 43.2311 65.2719 43.1943C65.1766 43.1576 65.1 43.1037 65.0152 43.071C64.9093 43.0302 64.8058 43.0146 64.7316 42.986C64.6428 42.964 64.5244 43.1131 64.4771 43.2043C64.4257 43.3062 64.3791 43.4586 64.4499 43.5589C64.4996 43.6511 64.6708 43.6805 64.7832 43.7361C64.8468 43.7606 64.9381 43.8079 65.0652 43.8569C65.1605 43.8937 65.26 43.9198 65.3659 43.9607C65.4613 43.9974 65.5444 44.0659 65.6503 44.1068C65.7457 44.1435 65.8369 44.1909 65.9323 44.2276C66.0382 44.2685 66.1377 44.2946 66.233 44.3314C66.3495 44.3763 66.4596 44.4066 66.5231 44.4311C66.484 44.5011 66.426 44.5883 66.364 44.6861C66.3142 44.7521 66.2563 44.8393 66.1877 44.9224C66.1339 44.999 66.0694 45.0715 65.9903 45.1505C65.9258 45.223 65.8679 45.3102 65.8034 45.3827C65.7325 45.4405 65.6468 45.5048 65.5612 45.5692C65.4902 45.627 65.4152 45.6954 65.3336 45.7492C65.2415 45.7988 65.1469 45.8232 65.0547 45.8729C64.9667 45.9119 64.8745 45.9616 64.7799 45.986C64.6854 46.0104 64.5843 46.0201 64.4832 46.0298C64.3927 46.0436 64.2916 46.0533 64.184 46.0483C64.087 46.0474 63.9859 46.0571 63.8824 46.0416C63.7935 46.0195 63.6941 45.9933 63.5987 45.9566C63.5034 45.9198 63.4162 45.8619 63.3396 45.808C63.2484 45.7607 63.1571 45.7133 63.0846 45.6489C63.0015 45.5803 62.9437 45.5094 62.8752 45.4343C62.8109 45.3487 62.7531 45.2777 62.7034 45.1856C62.6497 45.104 62.6106 45.0159 62.561 44.9238C62.5219 44.8357 62.5122 44.7346 62.4772 44.636C62.4528 44.5414 62.3991 44.4598 62.3788 44.3546C62.365 44.2641 62.3447 44.159 62.3309 44.0685C62.3212 43.9674 62.3473 43.868 62.3482 43.7709C62.3385 43.6699 62.3288 43.5688 62.3297 43.4718C62.3347 43.3642 62.3356 43.2672 62.347 43.1742C62.352 43.0666 62.3888 42.9713 62.4108 42.8824C62.4264 42.7789 62.4273 42.6819 62.4534 42.5825C62.4902 42.4871 62.5123 42.3983 62.549 42.3029C62.5858 42.2076 62.6437 42.1204 62.6805 42.0251C62.7278 41.9338 62.7646 41.8384 62.8119 41.7472C62.8593 41.6559 62.9066 41.5646 62.954 41.4734C63.0119 41.3862 63.087 41.3178 63.1449 41.2306C63.2028 41.1434 63.2396 41.0481 63.3041 40.9756C63.3726 40.8925 63.4476 40.824 63.5227 40.7556C63.6018 40.6766 63.6834 40.6229 63.7649 40.5691C63.8506 40.5048 63.915 40.4323 64.0072 40.3826C64.0887 40.3289 64.1874 40.2939 64.2861 40.2589C64.3741 40.2198 64.4728 40.1849 64.578 40.1646C64.6725 40.1402 64.7777 40.1199 64.8788 40.1102C64.9758 40.1111 65.0875 40.1054 65.191 40.121C65.2839 40.1325 65.3858 40.1839 65.4852 40.2101C65.5741 40.2321 65.6858 40.2265 65.7917 40.2674C65.8977 40.3082 65.9848 40.3661 66.0761 40.4135C66.178 40.4649 66.2839 40.5058 66.3711 40.5637C66.4648 40.6363 66.5144 40.7285 66.5829 40.8035C66.6725 40.8867 66.7597 40.9447 66.824 41.0303C66.8842 41.1266 66.9298 41.2293 66.9689 41.3174C67.0251 41.4242 67.0706 41.5269 67.0991 41.6109C67.1454 41.7748 67.1617 41.8906 67.1853 41.924C67.2414 42.0309 67.3034 42.0912 67.3775 42.1198C67.4411 42.1443 67.5381 42.1452 67.6514 42.1037C67.7542 42.0581 67.804 41.9921 67.8496 41.9367C67.9035 41.8602 67.9386 41.8007 67.9077 41.6914C67.8939 41.6009 67.8548 41.5128 67.8199 41.4142C67.7955 41.3196 67.7858 41.2185 67.7467 41.1304C67.7182 41.0465 67.6686 40.9543 67.6189 40.8622C67.5758 40.7847 67.522 40.7031 67.4577 40.6175C67.3999 40.5465 67.3461 40.465 67.2736 40.4005C67.2052 40.3255 67.1327 40.261 67.0561 40.2071C66.9836 40.1427 66.9193 40.0571 66.8321 39.9991C66.7555 39.9452 66.652 39.9297 66.5607 39.8823C66.48 39.8391 66.3929 39.7811 66.2975 39.7444C66.2168 39.7011 66.1443 39.6367 66.049 39.5999C65.943 39.5591 65.8354 39.5541 65.7466 39.532C65.6472 39.5059 65.5518 39.4691 65.4524 39.443C65.3489 39.4274 65.2494 39.4012 65.1565 39.3897C65.0489 39.3848 64.9413 39.3798 64.8402 39.3895C64.7432 39.3886 64.6445 39.4236 64.5435 39.4333C64.4424 39.443 64.3348 39.4381 64.2402 39.4624C64.1415 39.4974 64.0429 39.5324 63.9548 39.5715C63.8561 39.6064 63.7811 39.6749 63.6889 39.7245C63.5968 39.7742 63.5152 39.8279 63.4296 39.8923C63.348 39.946 63.2559 39.9957 63.1808 40.0641C63.1058 40.1325 63.0307 40.2009 62.9622 40.284C62.8871 40.3524 62.8227 40.425 62.7541 40.508C62.7003 40.5846 62.6423 40.6718 62.5844 40.759C62.5265 40.8462 62.462 40.9187 62.4041 41.0059C62.3461 41.0931 62.2776 41.1762 62.2302 41.2674C62.187 41.3481 62.1461 41.454 62.1094 41.5494C62.062 41.6407 62.0359 41.7401 61.9885 41.8314C61.9518 41.9267 61.915 42.0221 61.8783 42.1174C61.8415 42.2128 61.8154 42.3122 61.7786 42.4075C61.7524 42.507 61.6839 42.5901 61.6537 42.7001C61.6275 42.7995 61.6372 42.9006 61.6216 43.0041C61.6061 43.1077 61.5546 43.2095 61.5432 43.3024C61.5382 43.41 61.5332 43.5176 61.5283 43.6252C61.5168 43.7182 61.5118 43.8258 61.5068 43.9334C61.5165 44.0345 61.5368 44.1396 61.5466 44.2407C61.5563 44.3418 61.5766 44.447 61.5863 44.5481C61.6066 44.6533 61.6269 44.7584 61.6513 44.853C61.6862 44.9517 61.7359 45.0438 61.7815 45.1466C61.8205 45.2346 61.8555 45.3333 61.9199 45.4189C61.9695 45.5111 62.0233 45.5927 62.0876 45.6783C62.1519 45.7639 62.2391 45.8219 62.3181 45.901C62.3866 45.9761 62.455 46.0511 62.5381 46.1196C62.6147 46.1735 62.7206 46.2143 62.8078 46.2723C62.8991 46.3196 62.9781 46.3988 63.0693 46.4461C63.1606 46.4935 63.2559 46.5302 63.3619 46.571C63.4572 46.6078 63.5648 46.6128 63.6643 46.6389C63.7637 46.6651 63.8656 46.7165 63.9544 46.7386C64.0685 46.7582 64.172 46.7738 64.269 46.7747C64.3766 46.7797 64.4753 46.7447 64.5829 46.7497C64.684 46.7399 64.7916 46.7449 64.8968 46.7246C64.9873 46.7108 65.103 46.6946 65.1976 46.6702C65.2963 46.6352 65.3819 46.5709 65.4741 46.5212C65.5727 46.4863 65.6779 46.466 65.7701 46.4163C65.8622 46.3666 65.9308 46.2835 66.0164 46.2192C66.098 46.1655 66.1836 46.1011 66.2692 46.0368C66.3443 45.9684 66.4193 45.8999 66.4838 45.8274C66.5629 45.7484 66.6486 45.6841 66.713 45.6116C66.7816 45.5285 66.8289 45.4372 66.8974 45.3541C66.9554 45.2669 67.0304 45.1985 67.0778 45.1073C67.1357 45.0201 67.1937 44.9329 67.241 44.8416C67.2884 44.7504 67.3039 44.6468 67.3407 44.5515Z" fill="#E9E7CF"/>
<path d="M39.2422 46.932C39.3878 45.6553 39.2244 44.4195 38.5681 43.2869C37.9261 42.1865 36.8339 41.2857 35.6504 40.8295C35.3487 40.7132 35.0381 40.6202 34.7185 40.5503C34.5614 40.543 34.381 40.5268 34.2239 40.5196C34.1221 40.507 34.0346 40.5266 33.9471 40.5462C33.1684 40.6991 32.3772 40.9539 31.6466 41.2587C31.2608 41.4299 30.9161 41.5635 30.5535 41.7436C30.4249 41.8007 29.7908 42.0627 29.746 42.1787L24.7814 55.0585L24.8368 55.0532C24.8046 55.0675 24.7725 55.0817 24.7635 55.1049C24.7867 55.1139 24.8099 55.1228 24.8331 55.1318C24.9724 55.1855 25.1116 55.2391 25.2276 55.2839C25.6222 55.4359 26.0024 55.5558 26.3969 55.7079C27.1342 55.9388 27.8715 56.1697 28.6608 56.1274C29.4412 56.1083 30.1734 55.9375 30.9236 55.7202C33.2008 54.9987 35.0874 53.7001 36.7047 51.9246C37.5518 50.9716 38.3097 49.9044 38.7659 48.7208C38.9895 48.1407 39.1668 47.5426 39.2422 46.932ZM34.0525 52.5815C33.2286 53.5434 32.2691 54.373 31.2615 55.0508C31.1472 55.14 31.0186 55.197 30.9042 55.2862C30.3168 55.2197 29.7277 55.0193 29.1296 54.8421C28.6191 54.6453 27.9371 54.4091 27.4355 54.1891L32.3018 41.5645C32.5053 41.5897 32.7321 41.6238 32.9409 41.7043C34.2083 42.2195 35.5734 43.5187 36.1064 44.7637C36.4772 45.5996 36.5212 46.5228 36.417 47.4156C36.2012 49.3582 35.3089 51.12 34.0525 52.5815Z" fill="#E9E7CF"/>
<path d="M52.4712 47.7664L43.5738 59.3702C43.6461 58.1453 43.7184 56.9204 43.805 55.7276C43.881 54.4242 43.9801 53.1296 44.0471 51.8494C44.0999 50.537 44.1437 49.2477 44.1875 47.9585C44.2255 47.3068 44.2313 46.6693 44.2461 46.0087C44.2516 45.7176 44.2661 45.4033 44.2574 45.0801C44.2647 44.923 44.263 44.7891 44.2471 44.623C44.2507 44.5444 44.2311 44.4569 44.2115 44.3694C44.2205 44.3462 44.0687 44.3943 43.9026 44.4102C43.7508 44.4583 43.6311 44.4922 43.6401 44.469C43.3686 44.5509 43.0971 44.6329 42.8256 44.7148C42.4666 44.8163 42.1076 44.9178 41.7308 45.0658C41.6433 45.0853 41.5789 45.1139 41.4968 45.1888C41.5074 45.2995 41.5091 45.4335 41.5108 45.5674C41.5178 45.7567 41.5248 45.9459 41.5318 46.1352C41.5201 47.4102 41.4531 48.6904 41.4093 49.9796C41.3566 51.2921 41.3038 52.6045 41.2368 53.8847C41.1698 55.165 41.0796 56.4363 40.9894 57.7076C40.917 58.9325 40.8215 60.1485 40.7724 61.3823C40.7956 61.3913 40.9385 61.3664 41.0813 61.3415C41.2331 61.2934 41.376 61.2685 41.3528 61.2595C41.6153 61.2008 41.8868 61.1189 42.1583 61.0369C42.5173 60.9354 42.8995 60.8428 43.2532 60.686C43.3407 60.6664 43.405 60.6379 43.4782 60.5861L43.5014 60.5951L53.4605 47.8279L52.4712 47.7664Z" fill="#E9E7CF"/>
<path d="M62.2128 57.9985C62.3937 57.3219 62.5513 56.6363 62.6304 55.9471C62.7095 55.2579 62.71 54.5651 62.6551 53.8776C62.5365 52.5258 61.8911 51.1575 60.6809 50.4245C60.4203 50.2707 60.1276 50.1312 59.817 50.0381C59.4974 49.9683 59.1599 49.9448 58.8278 49.9767C58.4956 50.0086 58.1688 50.0959 57.8419 50.1831C57.7544 50.2027 57.6991 50.208 57.6348 50.2365C57.6116 50.2276 57.6026 50.2508 57.6026 50.2508C57.4044 50.281 57.2294 50.3202 57.0222 50.3736C56.5757 50.4947 56.097 50.63 55.6416 50.7743C55.3147 50.8616 54.9879 50.9488 54.6896 51.1004C54.6574 51.1147 54.6253 51.1289 54.5931 51.1432C54.4234 51.2377 54.2895 51.2394 54.1573 51.375C53.6266 51.7835 53.1762 52.3296 52.7955 52.9025C52.3915 53.4665 52.0625 54.1127 51.7656 54.7446C51.5009 55.3622 51.2825 55.9977 51.1106 56.6511C50.9298 57.3278 50.7721 58.0133 50.6841 58.7258C50.6607 59.0632 50.6372 59.4007 50.6137 59.7382C50.6135 60.0846 50.6454 60.4167 50.6773 60.7489C50.7002 61.1043 50.7553 61.4454 50.8337 61.7954C50.8977 62.1133 51.0082 62.4491 51.1044 62.7527C51.311 63.3921 51.582 64.003 51.9262 64.5622C52.0867 64.8373 52.2794 65.0981 52.5131 65.3215C52.7612 65.577 53.0181 65.8094 53.2983 66.0506C53.4001 66.0632 53.4876 66.0436 53.6072 66.0098C53.7037 65.967 53.8234 65.9332 53.9341 65.9225C54.2288 65.8495 54.5556 65.7623 54.8592 65.6661C55.1861 65.5788 55.5219 65.4684 55.8576 65.3579C55.913 65.3526 55.9452 65.3383 55.9773 65.3241C56.097 65.2902 56.2077 65.2796 56.3041 65.2368C56.622 65.1727 56.9257 65.0765 57.2293 64.9803C57.6436 64.8735 58.0437 64.7345 58.4438 64.5955C58.5545 64.5849 58.651 64.5421 58.7332 64.4672C59.5409 63.6857 60.1898 62.763 60.7315 61.7723C61.377 60.5818 61.8922 59.3143 62.2128 57.9985ZM57.8973 62.2791C57.3966 63.2323 56.8121 64.1265 56.1062 64.9206C56.083 64.9116 56.0598 64.9027 56.0598 64.9027C55.8028 64.6704 55.5458 64.4381 55.3389 64.1451C55.1373 63.9074 54.9679 63.6555 54.8163 63.3572C54.5042 62.7838 54.2422 62.1497 54.0587 61.5192C53.9715 61.1924 53.861 60.8566 53.8059 60.5155C53.7508 60.1744 53.7189 59.8422 53.696 59.4869C53.6411 58.7994 53.697 58.1012 53.8135 57.4531C54.027 56.0694 54.3798 54.7393 54.9968 53.4845C55.3168 52.8615 55.6369 52.2386 56.0641 51.6835C56.2732 51.4176 56.5055 51.1607 56.7432 50.9591C56.8914 50.9895 57.0628 51.0289 57.2163 51.1148C57.5322 51.2632 57.8392 51.4349 58.0819 51.635C58.3389 51.8673 58.5405 52.105 58.7332 52.3658C58.9401 52.6588 59.1148 52.9661 59.2575 53.2876C59.3911 53.6323 59.4694 53.9824 59.5388 54.3556C59.6029 54.6735 59.6026 55.0199 59.6345 55.3521C59.6432 55.6753 59.6429 56.0217 59.6195 56.3592C59.5636 57.0573 59.4292 57.7519 59.2715 58.4374C58.9741 59.7622 58.5054 61.0475 57.8973 62.2791Z" fill="#E9E7CF"/>
<circle cx="47.6091" cy="47.6091" r="36.621" transform="rotate(21.0796 47.6091 47.6091)" stroke="#E9E7CF" stroke-width="0.413797"/>
</svg>
