<svg width="107" height="67" viewBox="0 0 107 67" fill="none" xmlns="http://www.w3.org/2000/svg">
<g clip-path="url(#clip0)">
<path d="M48.8557 8.71119C21.8734 13.5222 3.90013 39.2958 8.71118 66.278L106.423 48.8557C101.611 21.8734 75.8379 3.90014 48.8557 8.71119Z" fill="#87962F"/>
<path d="M20.7434 40.7753C20.6794 40.7452 20.5957 40.7156 20.512 40.686C20.448 40.6559 20.368 40.6183 20.2961 40.5844C20.2241 40.5506 20.1484 40.5248 20.0684 40.4871C19.9964 40.4533 19.9282 40.4115 19.8482 40.3739C19.7725 40.348 19.6968 40.3222 19.6211 40.2963C19.5491 40.2625 19.4729 40.2169 19.4009 40.183C19.3289 40.1492 19.2532 40.1233 19.1732 40.0857C19.0975 40.0599 19.0255 40.026 18.9536 39.9922C18.8736 39.9546 18.7979 39.9287 18.7221 39.9029C18.6502 39.869 18.5782 39.8352 18.5062 39.8013C18.4225 39.7717 18.3505 39.7379 18.2748 39.712C18.2028 39.6782 18.1309 39.6444 18.0589 39.6105C17.9789 39.5729 17.9032 39.5471 17.8275 39.5212C17.7555 39.4874 17.6911 39.4375 17.6153 39.4117C17.5354 39.3741 17.4559 39.3562 17.3839 39.3224C17.3002 39.2928 17.2282 39.2589 17.1642 39.2288C17.0725 39.1955 17.0043 39.1536 16.9403 39.1235C16.8764 39.0935 16.826 39.1382 16.7725 39.2106C16.7381 39.2628 16.6921 39.3193 16.6582 39.3912C16.6131 39.4872 16.615 39.5662 16.6399 39.617C16.6653 39.6875 16.7415 39.7331 16.7942 39.7872C16.8347 39.8258 16.8799 39.8958 16.941 39.9734C16.9937 40.0275 17.0464 40.0816 17.1151 40.1432C17.164 40.2052 17.2205 40.2513 17.2812 40.3092C17.3339 40.3632 17.3908 40.4291 17.4435 40.4831C17.5042 40.541 17.5413 40.6073 17.602 40.6651C17.651 40.7272 17.6999 40.7893 17.7606 40.8471C17.8133 40.9012 17.8777 40.951 17.9384 41.0088C17.9911 41.0629 18.0245 41.1372 18.0852 41.195C18.1341 41.2571 18.1986 41.307 18.2513 41.361C18.3082 41.4269 18.3609 41.4809 18.4136 41.535C18.4705 41.6008 18.5114 41.6591 18.5604 41.7212C18.621 41.7791 18.67 41.8411 18.7227 41.8952C18.7834 41.953 18.8323 42.0151 18.885 42.0692C18.9499 42.1388 19.0144 42.1886 19.0548 42.2272C19.0953 42.2657 19.1244 42.3283 19.1814 42.3941C19.2143 42.4486 19.275 42.5065 19.3239 42.5686C19.2567 42.5662 19.1654 42.5526 19.0667 42.555C18.9914 42.5489 18.9124 42.5508 18.8136 42.5532C18.7384 42.5471 18.6551 42.5372 18.5681 42.5354C18.4891 42.5373 18.4143 42.5509 18.3235 42.5571C18.2403 42.5472 18.165 42.5411 18.078 42.5392C17.999 42.5412 17.9082 42.5473 17.8292 42.5492C17.7502 42.5511 17.6665 42.5215 17.5795 42.5196C17.5004 42.5215 17.4181 42.5512 17.3311 42.5493C17.2521 42.5512 17.1726 42.5334 17.0856 42.5315C17.0066 42.5334 16.9196 42.5316 16.8443 42.5255C16.7573 42.5236 16.6746 42.5335 16.5955 42.5354C16.5085 42.5335 16.4333 42.5275 16.3463 42.5256C16.2672 42.5275 16.184 42.5176 16.105 42.5195C16.018 42.5177 15.9352 42.5276 15.8562 42.5295C15.7612 42.5239 15.6699 42.5102 15.6144 42.5037C15.5472 42.5013 15.4677 42.4835 15.3967 42.4892C15.3294 42.4868 15.2711 42.5278 15.2053 42.5847C15.1629 42.6331 15.1366 42.6891 15.0952 42.7771C15.0379 42.8575 15.0116 42.9135 15.0445 42.968C15.0732 43.0108 15.1329 43.0292 15.2171 43.0785C15.2731 43.1048 15.3371 43.1349 15.4091 43.1688C15.465 43.1951 15.5332 43.2369 15.6212 43.2783C15.6814 43.3164 15.7496 43.3582 15.8296 43.3958C15.9016 43.4297 15.9698 43.4715 16.0497 43.5091C16.1179 43.551 16.1862 43.5928 16.2544 43.6347C16.3263 43.6685 16.4058 43.6863 16.4858 43.724C16.554 43.7658 16.6222 43.8076 16.6942 43.8415C16.7624 43.8833 16.8419 43.9012 16.9181 43.9468C16.9901 43.9806 17.0583 44.0225 17.1302 44.0563C17.2022 44.0902 17.2742 44.124 17.3424 44.1658C17.4223 44.2034 17.4943 44.2373 17.5625 44.2791C17.6345 44.313 17.7065 44.3468 17.7747 44.3887C17.8466 44.4225 17.9186 44.4564 17.9906 44.4902C18.0668 44.5358 18.1312 44.5856 18.1952 44.6157C18.2714 44.6613 18.3509 44.6792 18.4191 44.721C18.4991 44.7586 18.571 44.7925 18.635 44.8226C18.723 44.8639 18.7837 44.9218 18.8396 44.9481C18.9036 44.9782 19.072 45.0769 19.135 45.0675C19.2018 45.05 19.2305 44.9268 19.2648 44.8746C19.2911 44.8186 19.3781 44.6545 19.3452 44.5999C19.2882 44.5341 19.1528 44.4899 19.0686 44.4405C19.0403 44.4175 18.9721 44.3757 18.8799 44.3225C18.816 44.2924 18.7515 44.2426 18.6795 44.2088C18.6193 44.1707 18.5398 44.1528 18.4679 44.119C18.3997 44.0771 18.3277 44.0433 18.2557 44.0095C18.1917 43.9794 18.1273 43.9295 18.0553 43.8957C17.9914 43.8656 17.9231 43.8238 17.8512 43.7899C17.7872 43.7598 17.7152 43.726 17.6433 43.6921C17.5751 43.6503 17.5148 43.6122 17.4429 43.5784C17.3747 43.5365 17.3107 43.5064 17.2387 43.4726C17.1705 43.4308 17.1141 43.3847 17.0501 43.3546C16.9739 43.309 16.8944 43.2911 16.8422 43.2568C16.718 43.1887 16.6418 43.1431 16.6418 43.1431C16.7603 43.1402 16.7598 43.1205 16.8864 43.1214C17.0049 43.1185 16.9974 43.1345 17.1159 43.1316C17.2424 43.1326 17.2382 43.1208 17.3567 43.1179C17.4794 43.1268 17.4757 43.1348 17.5942 43.132C17.7127 43.1291 17.717 43.1409 17.8355 43.138C17.954 43.1352 17.9498 43.1234 18.0683 43.1206C18.1868 43.1177 18.1911 43.1295 18.3058 43.1346C18.4243 43.1318 18.4281 43.1238 18.5466 43.1209C18.6651 43.1181 18.6571 43.1143 18.7757 43.1115C18.9022 43.1124 18.9022 43.1124 19.0207 43.1095C19.1392 43.1067 19.1392 43.1067 19.254 43.1118C19.3725 43.1089 19.3767 43.1207 19.4915 43.1258C19.61 43.123 19.6063 43.131 19.7248 43.1281C19.8433 43.1253 19.8471 43.1173 19.9618 43.1224C20.0644 43.1121 20.1923 43.0062 20.2299 42.9262C20.2637 42.8543 20.2054 42.7292 20.1597 42.6394C20.0901 42.5383 20.0708 42.5585 19.9894 42.4616C19.9123 42.3765 19.9278 42.3643 19.8506 42.2792C19.7692 42.1823 19.7692 42.1823 19.6921 42.0972C19.6069 42.0083 19.5914 42.0205 19.5142 41.9354C19.4371 41.8503 19.4408 41.8423 19.3637 41.7572C19.2865 41.6721 19.2748 41.6764 19.1976 41.5912C19.1162 41.4944 19.1317 41.4821 19.0546 41.397C18.9774 41.3119 18.9812 41.3039 18.904 41.2188C18.8189 41.1299 18.8189 41.1299 18.7417 41.0448C18.6566 40.956 18.6528 40.964 18.5757 40.8789C18.4905 40.79 18.4905 40.79 18.4134 40.7049C18.3362 40.6198 18.34 40.6118 18.2548 40.5229C18.1776 40.4378 18.1894 40.4336 18.1043 40.3447C18.0271 40.2596 17.9961 40.284 17.9382 40.1787C17.8841 40.0654 18.0337 40.2041 18.1734 40.26C18.2373 40.2901 18.3018 40.3399 18.3855 40.3695C18.4575 40.4034 18.5407 40.4132 18.6245 40.4428C18.6964 40.4767 18.7684 40.5105 18.8521 40.5401C18.9241 40.574 18.9923 40.6158 19.0643 40.6497C19.148 40.6793 19.2275 40.6971 19.3032 40.723C19.3752 40.7568 19.4476 40.8104 19.5116 40.8405C19.5916 40.8781 19.6673 40.904 19.743 40.9298C19.823 40.9674 19.9025 40.9853 19.9702 41.0074C20.0822 41.06 20.1584 41.1056 20.1904 41.1207C20.2421 41.1352 20.3216 41.1531 20.3936 41.1869C20.4495 41.2132 20.5178 41.2551 20.5775 41.2734C20.6495 41.3073 20.7059 41.3533 20.7656 41.3717C20.8494 41.4013 20.9034 41.3486 20.9415 41.2884C20.9796 41.2282 21.0017 41.1604 21.0318 41.0964C21.0877 40.9567 21.0943 40.9012 20.9706 40.8528C20.9146 40.8265 20.8313 40.8167 20.7434 40.7753Z" fill="#E9E7CF"/>
<path d="M25.8946 33.6338C25.8488 33.6208 25.7728 33.618 25.6759 33.5991C25.6107 33.5823 25.5385 33.5602 25.454 33.5396C25.3888 33.5229 25.315 33.4883 25.2374 33.4732C25.1722 33.4564 25.0947 33.4413 25.0225 33.4191C24.9449 33.404 24.8674 33.3888 24.8022 33.372C24.7106 33.3461 24.6368 33.3115 24.591 33.2986C24.5329 33.2872 24.4445 33.2861 24.3599 33.2655C24.2877 33.2434 24.2086 33.2158 24.124 33.1953C24.0518 33.1731 23.978 33.1386 23.8989 33.111C23.8213 33.0959 23.7383 33.0877 23.6662 33.0656C23.5816 33.045 23.5148 33.0158 23.4302 32.9953C23.358 32.9731 23.2735 32.9526 23.2013 32.9304C23.1167 32.9099 23.0392 32.8947 22.967 32.8726C22.8894 32.8574 22.8048 32.8369 22.7327 32.8147C22.6481 32.7942 22.5797 32.7526 22.5075 32.7305C22.423 32.7099 22.347 32.7072 22.2694 32.692C22.1902 32.6645 22.1181 32.6423 22.0389 32.6148C21.9613 32.5996 21.8783 32.5915 21.8062 32.5693C21.7216 32.5488 21.6586 32.5002 21.581 32.4851C21.4895 32.4591 21.4135 32.4564 21.3483 32.4396C21.232 32.4169 21.156 32.4141 21.0918 32.4539C21.0347 32.4991 20.9931 32.5675 20.9354 32.6569C20.9031 32.6989 20.8313 32.7775 20.8474 32.9014C20.8554 32.9634 20.8844 33.0416 20.9539 33.1397C20.9867 33.1984 21.0211 33.2696 21.0625 33.3461C21.1023 33.4103 21.1653 33.4588 21.2067 33.5354C21.2465 33.5995 21.2686 33.6723 21.3154 33.7418C21.3552 33.806 21.4074 33.8685 21.4472 33.9327C21.487 33.9968 21.5215 34.068 21.5559 34.1391C21.5957 34.2033 21.6479 34.2658 21.6823 34.337C21.7221 34.4011 21.7743 34.4636 21.8141 34.5278C21.854 34.5919 21.9008 34.6615 21.9352 34.7326C21.975 34.7968 22.0272 34.8593 22.067 34.9235C22.1068 34.9876 22.1235 35.0674 22.1703 35.1369C22.2101 35.2011 22.2731 35.2496 22.3129 35.3138C22.3597 35.3833 22.3941 35.4545 22.434 35.5186C22.4738 35.5828 22.5028 35.6609 22.5356 35.7197C22.5824 35.7892 22.64 35.8448 22.6798 35.9089C22.7197 35.9731 22.7541 36.0442 22.7939 36.1084C22.8353 36.1849 22.8697 36.2561 22.9079 36.3078C22.9165 36.3256 22.958 36.4021 23.015 36.5019C23.0478 36.5606 23.1 36.6232 23.1398 36.6873C23.1796 36.7515 23.2017 36.8242 23.2345 36.883C23.2915 36.9827 23.3383 37.0523 23.3523 37.063C23.4465 37.158 23.4676 37.0292 23.5841 36.907C23.6435 36.83 23.7771 36.7434 23.7325 36.642C23.6997 36.5833 23.6707 36.5051 23.6277 36.4162C23.5808 36.3467 23.534 36.2771 23.4926 36.2006C23.4512 36.124 23.4044 36.0545 23.37 35.9833C23.3199 35.889 23.2715 35.8071 23.2403 35.7607C23.2888 35.6977 23.3692 35.6369 23.4231 35.5669C23.4717 35.5039 23.5256 35.4339 23.5795 35.3639C23.6335 35.2939 23.6944 35.2293 23.7376 35.1733C23.7468 35.1469 23.8007 35.0769 23.8708 34.986C23.9086 34.937 23.9431 34.8632 23.9987 34.8056C24.0418 34.7496 24.085 34.6936 24.1335 34.6306C24.1821 34.5676 24.2322 34.517 24.2878 34.4594C24.3309 34.4034 24.3725 34.335 24.4156 34.279C24.4712 34.2214 24.5267 34.1638 24.5645 34.1148C24.6346 34.0238 24.6885 33.9538 24.6993 33.9398C24.7155 33.9188 24.7737 33.9302 24.8055 33.9324C24.8318 33.9416 24.932 33.9853 25.0624 34.0188C25.1469 34.0394 25.2423 34.0459 25.3339 34.0718C25.4448 34.1016 25.5488 34.1259 25.5946 34.1389C25.6738 34.1664 25.7357 34.1584 25.7843 34.0954C25.8166 34.0534 25.8458 33.9866 25.8943 33.9236C25.9429 33.8606 25.9736 33.8062 25.9812 33.7675C25.998 33.7023 25.9862 33.6597 25.8946 33.6338ZM24.0382 33.9436C23.9897 34.0065 23.9411 34.0695 23.8818 34.1465C23.8262 34.2041 23.7863 34.2849 23.7324 34.3549C23.6768 34.4125 23.6229 34.4825 23.5743 34.5455C23.5204 34.6155 23.4525 34.6747 23.4039 34.7377C23.35 34.8077 23.3014 34.8707 23.2529 34.9337C23.1865 35.0053 23.1326 35.0753 23.0895 35.1313C23.0247 35.2153 22.9724 35.2977 22.94 35.3397C22.9088 35.2933 22.8728 35.2097 22.8174 35.1224C22.7846 35.0637 22.7378 34.9941 22.6909 34.9246C22.6511 34.8604 22.6097 34.7839 22.5699 34.7197C22.5231 34.6502 22.4833 34.586 22.4365 34.5165C22.402 34.4453 22.3676 34.3742 22.3208 34.3046C22.281 34.2405 22.2164 34.1796 22.1766 34.1154C22.1352 34.0389 22.1061 33.9607 22.0663 33.8966C22.0195 33.827 21.9673 33.7645 21.9275 33.7003C21.8807 33.6308 21.8586 33.558 21.8188 33.4939C21.7704 33.4119 21.7252 33.3548 21.6854 33.2906C21.6354 33.1963 21.5886 33.1268 21.5643 33.0858C21.6209 33.0848 21.7055 33.1053 21.8078 33.1173C21.88 33.1394 21.963 33.1476 22.0546 33.1735C22.1321 33.1887 22.2005 33.2302 22.2851 33.2508C22.3573 33.2729 22.451 33.2671 22.5356 33.2876C22.6078 33.3098 22.6869 33.3373 22.7715 33.3579C22.8491 33.373 22.9245 33.42 23.0037 33.4475C23.0812 33.4627 23.1696 33.4638 23.2488 33.4914C23.3333 33.5119 23.4071 33.5465 23.4847 33.5616C23.5693 33.5822 23.643 33.6167 23.7206 33.6319C23.8122 33.6578 23.8898 33.673 23.9619 33.6951C24.0659 33.7194 24.1629 33.7384 24.2086 33.7514C24.1763 33.7934 24.1029 33.8596 24.0382 33.9436Z" fill="#E9E7CF"/>
<path d="M30.6013 25.7935C30.5373 25.732 30.4789 25.6772 30.4206 25.6224C30.3556 25.5734 30.2905 25.5243 30.2312 25.482C30.1595 25.4387 30.0954 25.3772 30.0294 25.3406C29.9576 25.2972 29.8926 25.2482 29.8198 25.2173C29.747 25.1864 29.6666 25.1737 29.5871 25.1486C29.5076 25.1235 29.4328 25.1175 29.3524 25.1048C29.2719 25.0922 29.1904 25.0919 29.1089 25.0917C29.0275 25.0915 28.9517 25.098 28.875 25.117C28.7925 25.1292 28.7121 25.1165 28.6353 25.1355C28.5519 25.1602 28.4799 25.1983 28.4089 25.224C28.3312 25.2554 28.2544 25.2744 28.1825 25.3125C28.1047 25.344 28.0385 25.3888 27.9665 25.427C27.8935 25.4776 27.8215 25.5157 27.762 25.5548C27.6765 25.6045 27.615 25.6685 27.5689 25.6962C27.5161 25.7296 27.4499 25.7744 27.3759 25.8375C27.3097 25.8824 27.2434 25.9272 27.1761 25.9846C27.1099 26.0294 27.0551 26.0878 26.9946 26.1393C26.9273 26.1967 26.8611 26.2415 26.8063 26.2999C26.739 26.3572 26.6718 26.4145 26.6247 26.4546C26.5699 26.513 26.54 26.5733 26.5169 26.6278C26.4927 26.6949 26.4811 26.7629 26.501 26.8272C26.5277 26.8857 26.5745 26.927 26.6194 26.9933C26.6481 27.0269 26.6919 27.1056 26.7665 27.1931C26.8056 27.2526 26.8706 27.3016 26.928 27.3689C26.9796 27.4294 27.0244 27.4957 27.0818 27.5629C27.1334 27.6234 27.185 27.684 27.2423 27.7512C27.2939 27.8117 27.3522 27.8665 27.4038 27.9271C27.4554 27.9876 27.5137 28.0424 27.571 28.1096C27.6226 28.1701 27.6608 28.2421 27.7181 28.3094C27.7697 28.3699 27.8347 28.419 27.8863 28.4795C27.9379 28.54 27.9885 28.613 28.0401 28.6735C28.0917 28.734 28.1567 28.7831 28.2083 28.8436C28.2657 28.9109 28.2971 28.9886 28.3487 29.0491C28.4003 29.1097 28.471 29.1654 28.5169 29.2192C28.5742 29.2865 28.6191 29.3527 28.6707 29.4133C28.728 29.4805 28.7863 29.5353 28.8322 29.5891C28.8953 29.6631 28.9401 29.7293 28.986 29.7831C29.0672 29.8648 29.1246 29.9321 29.1475 29.959C29.2277 30.0531 29.2861 30.1079 29.3406 30.1311C29.4134 30.1619 29.4796 30.1171 29.5661 30.055C29.6256 30.0159 29.6976 29.9777 29.7783 29.9089C29.8186 29.8745 29.8802 29.8105 29.9541 29.7474C30.0079 29.7016 30.0867 29.6577 30.1472 29.6061C30.2077 29.5545 30.2682 29.5029 30.3355 29.4456C30.3624 29.4227 30.4239 29.3586 30.5046 29.2898C30.5527 29.2372 30.6065 29.1914 30.668 29.1273C30.716 29.0747 30.7651 29.0097 30.8142 28.9446C30.8689 28.8863 30.9295 28.8347 30.9785 28.7697C31.0209 28.7104 31.0403 28.6242 31.0769 28.5581C31.1192 28.4988 31.1625 28.427 31.1934 28.3543C31.2243 28.2815 31.2733 28.2165 31.2975 28.1495C31.3226 28.07 31.3286 27.9952 31.3412 27.9147C31.3597 27.841 31.3781 27.7672 31.3907 27.6868C31.3967 27.612 31.4094 27.5315 31.4029 27.4558C31.4031 27.3743 31.3909 27.2919 31.3776 27.2219C31.3654 27.1394 31.3397 27.0684 31.3207 26.9917C31.3018 26.915 31.2953 26.8392 31.2639 26.7615C31.2314 26.6962 31.2 26.6185 31.1619 26.5465C31.1295 26.4813 31.0779 26.4207 31.033 26.3545C30.9881 26.2882 30.949 26.2287 30.8984 26.1557C30.8525 26.1019 30.8144 26.0299 30.7628 25.9694C30.7112 25.9089 30.6472 25.8473 30.6013 25.7935ZM30.467 26.535C30.5176 26.608 30.5625 26.6743 30.5949 26.7395C30.633 26.8115 30.6453 26.894 30.671 26.965C30.6967 27.036 30.7415 27.1022 30.7605 27.179C30.7794 27.2557 30.7668 27.3362 30.7733 27.4119C30.7798 27.4877 30.7796 27.5691 30.7736 27.6439C30.7609 27.7244 30.7425 27.7981 30.7241 27.8719C30.699 27.9513 30.6805 28.0251 30.6497 28.0979C30.6188 28.1706 30.5822 28.2367 30.5456 28.3027C30.5023 28.3745 30.4475 28.4328 30.4052 28.4921C30.3618 28.5639 30.3195 28.6232 30.2647 28.6815C30.2156 28.7465 30.1551 28.7981 30.1013 28.844C30.0398 28.908 29.9793 28.9596 29.9322 28.9998C29.8851 29.0399 29.8303 29.0982 29.7698 29.1498C29.7093 29.2014 29.6373 29.2395 29.5902 29.2797C29.5038 29.3417 29.4423 29.4058 29.4154 29.4287C29.3753 29.3816 29.3247 29.3086 29.2559 29.228C29.21 29.1742 29.1382 29.1308 29.0809 29.0636C29.0293 29.0031 28.9912 28.9311 28.9338 28.8638C28.8822 28.8033 28.8239 28.7485 28.7666 28.6812C28.715 28.6207 28.6701 28.5545 28.6128 28.4872C28.5612 28.4267 28.5096 28.3662 28.4523 28.2989C28.4007 28.2384 28.3424 28.1836 28.2851 28.1164C28.2335 28.0558 28.1819 27.9953 28.1303 27.9348C28.073 27.8675 28.0214 27.807 27.9698 27.7465C27.9182 27.686 27.881 27.6015 27.8294 27.541C27.7778 27.4805 27.7003 27.4304 27.6545 27.3766C27.5972 27.3094 27.5456 27.2488 27.494 27.1883C27.4366 27.1211 27.3928 27.0424 27.3469 26.9886C27.2781 26.9079 27.2063 26.8645 27.1719 26.8242C27.1146 26.7569 27.1724 26.6612 27.2541 26.58C27.329 26.5045 27.4279 26.4434 27.4683 26.409C27.5288 26.3574 27.5893 26.3058 27.6499 26.2542C27.7094 26.2151 27.7642 26.1568 27.8304 26.1119C27.8967 26.067 27.9677 26.0414 28.034 25.9965C28.0992 25.9641 28.1655 25.9192 28.2375 25.8811C28.3085 25.8554 28.3747 25.8105 28.4457 25.7848C28.5167 25.7591 28.5944 25.7277 28.6644 25.7145C28.7412 25.6955 28.8226 25.6957 28.8984 25.6892C28.9741 25.6827 29.0556 25.683 29.1371 25.6832C29.2118 25.6891 29.2865 25.6951 29.366 25.7202C29.4398 25.7386 29.5203 25.7513 29.593 25.7822C29.6533 25.8121 29.7251 25.8554 29.7969 25.8987C29.8562 25.941 29.9145 25.9958 29.9795 26.0449C30.0321 26.093 30.0981 26.1296 30.1565 26.1844C30.2081 26.2449 30.2731 26.2939 30.3247 26.3545C30.3763 26.415 30.4212 26.4812 30.467 26.535Z" fill="#E9E7CF"/>
<path d="M35.0479 21.0334C35.1022 21.0039 35.1763 20.9737 35.254 20.9315C35.3161 20.8977 35.374 20.8562 35.4439 20.8183C35.5138 20.7803 35.5674 20.731 35.6373 20.6931C35.7072 20.6551 35.7771 20.6172 35.8392 20.5834C35.9091 20.5454 35.9832 20.5153 36.0453 20.4815C36.1152 20.4435 36.1851 20.4056 36.2472 20.3718C36.3171 20.3339 36.387 20.2959 36.4491 20.2622C36.519 20.2242 36.5931 20.194 36.6552 20.1603C36.7329 20.1181 36.795 20.0844 36.8571 20.0506C36.9425 20.0042 37.0166 19.974 37.0632 19.9487C37.1409 19.9065 37.1784 19.8459 37.1961 19.786C37.2061 19.7303 37.1921 19.6675 37.1534 19.5779C37.1028 19.4847 37.0917 19.3902 37.0198 19.3689C36.9719 19.3547 36.8936 19.3772 36.7771 19.4404C36.746 19.4573 36.6804 19.503 36.5794 19.5579C36.5173 19.5916 36.4432 19.6218 36.3655 19.664C36.3034 19.6977 36.242 19.7512 36.1721 19.7892C36.1022 19.8271 36.0401 19.8609 35.9702 19.8988C35.9003 19.9368 35.8262 19.967 35.7563 20.005C35.6864 20.0429 35.6165 20.0809 35.5544 20.1146C35.4768 20.1568 35.4111 20.2025 35.349 20.2363C35.2713 20.2785 35.1972 20.3087 35.1429 20.3382C35.0419 20.393 34.9727 20.4507 34.9459 20.4754C34.8837 20.5091 34.8096 20.5393 34.732 20.5815C34.6657 20.6075 34.5796 20.6341 34.5097 20.6721C34.4356 20.7023 34.3699 20.748 34.3 20.7859C34.2301 20.8239 34.1483 20.8583 34.0826 20.904C34.1121 20.9584 34.1543 21.0361 34.1965 21.1137C34.2225 21.18 34.2682 21.2457 34.3061 21.3156C34.3441 21.3855 34.3821 21.4554 34.42 21.5253C34.4538 21.5874 34.4762 21.6657 34.5142 21.7356C34.5521 21.8055 34.6056 21.8669 34.6436 21.9368C34.6815 22.0067 34.7117 22.0808 34.7497 22.1507C34.7834 22.2128 34.8292 22.2785 34.8671 22.3484C34.9051 22.4182 34.9198 22.5008 34.9577 22.5707C34.9957 22.6405 35.0492 22.702 35.0829 22.7641C35.1209 22.834 35.1433 22.9123 35.1813 22.9822C35.2192 23.0521 35.265 23.1178 35.3029 23.1876C35.3367 23.2498 35.3669 23.3239 35.4048 23.3938C35.4428 23.4636 35.4885 23.5293 35.5265 23.5992C35.5644 23.6691 35.5904 23.7354 35.6284 23.8053C35.6586 23.8794 35.7198 23.9366 35.7578 24.0065C35.7957 24.0764 35.8182 24.1547 35.8519 24.2169C35.8899 24.2867 35.9356 24.3524 35.9736 24.4223C36.0115 24.4922 36.0417 24.5663 36.0755 24.6284C36.1176 24.7061 36.1556 24.7759 36.1851 24.8303C36.2189 24.8924 36.3824 24.9343 36.4488 24.9083C36.4953 24.883 36.5772 24.8486 36.6626 24.8022C36.7325 24.7643 36.8024 24.7263 36.88 24.6841C36.9499 24.6462 37.0402 24.6273 37.1101 24.5893C37.18 24.5514 37.245 24.4859 37.3149 24.4479C37.3925 24.4057 37.4624 24.3678 37.5365 24.3376C37.6142 24.2954 37.6925 24.273 37.7624 24.235C37.84 24.1928 37.9015 24.1393 37.9714 24.1014C38.049 24.0592 38.1231 24.029 38.193 23.991C38.2707 23.9489 38.3448 23.9187 38.4147 23.8807C38.4923 23.8385 38.558 23.7928 38.6279 23.7548C38.7055 23.7127 38.7789 23.6627 38.8411 23.629C38.9265 23.5826 39.0126 23.5559 39.0627 23.5186C39.1404 23.4765 39.1616 23.4046 39.1357 23.3382C39.1217 23.2754 39.0569 23.2302 38.9843 23.1891C38.904 23.1523 38.809 23.033 38.7271 23.0674C38.6608 23.0934 38.5669 23.1242 38.4737 23.1749C38.3961 23.217 38.3149 23.2712 38.2372 23.3134C38.144 23.364 38.0628 23.4182 37.993 23.4561C37.9619 23.473 37.8885 23.5229 37.7875 23.5778C37.7254 23.6115 37.6393 23.6382 37.5617 23.6803C37.4918 23.7183 37.4177 23.7485 37.3478 23.7865C37.2701 23.8286 37.2045 23.8744 37.1346 23.9123C37.0569 23.9545 36.9955 24.008 36.9256 24.0459C36.8479 24.0881 36.7781 24.1261 36.7159 24.1598C36.5839 24.2315 36.6106 24.3176 36.4907 24.2822C36.3709 24.2467 36.4514 24.1728 36.3797 24.0408C36.346 23.9786 36.2805 23.9136 36.2341 23.8282C36.1962 23.7583 36.1618 23.6765 36.1238 23.6066C36.0774 23.5212 36.0317 23.4555 35.9937 23.3856C35.9389 23.2847 35.9002 23.195 35.8792 23.1562C35.8454 23.0941 35.8095 23.0835 35.787 23.0051C35.8259 22.984 35.9071 22.9299 36.008 22.875C36.0701 22.8413 36.152 22.8069 36.2296 22.7647C36.3073 22.7225 36.373 22.6768 36.4506 22.6346C36.5205 22.5967 36.5981 22.5545 36.6758 22.5123C36.7457 22.4743 36.8233 22.4322 36.8932 22.3942C36.9709 22.352 37.0323 22.2985 37.1022 22.2606C37.1876 22.2142 37.2695 22.1798 37.3316 22.146C37.4283 22.0834 37.5053 22.0215 37.5364 22.0046C37.6373 21.9498 37.7072 21.9118 37.7369 21.8555C37.7702 21.7871 37.7597 21.7123 37.7091 21.6192C37.6676 21.5613 37.6106 21.5118 37.5487 21.4348C37.4823 21.4608 37.3962 21.4874 37.3031 21.5381C37.2254 21.5802 37.1435 21.6146 37.0581 21.661C36.9685 21.6997 36.8915 21.7616 36.8252 21.7876C36.7941 21.8044 36.708 21.8311 36.6035 21.8979C36.5414 21.9317 36.4673 21.9619 36.3897 22.004C36.3198 22.042 36.2548 22.1075 36.1849 22.1454C36.115 22.1834 36.0289 22.21 35.959 22.248C35.8814 22.2902 35.8241 22.3514 35.762 22.3852C35.642 22.4604 35.6644 22.5388 35.5446 22.5033C35.441 22.4791 35.4904 22.4221 35.4272 22.3056C35.3934 22.2435 35.3632 22.1694 35.3253 22.0995C35.2795 22.0338 35.2416 21.9639 35.2001 21.906C35.1495 21.8129 35.1228 21.7268 35.1059 21.6957C35.0891 21.6647 35.0631 21.5983 35.0167 21.5129C34.9872 21.4585 34.9457 21.4006 34.9197 21.3343C34.8817 21.2644 34.8635 21.1939 34.846 21.143C34.8926 21.1177 34.9547 21.084 35.0479 21.0334Z" fill="#E9E7CF"/>
<path d="M50.6501 17.3521C50.6383 17.2824 50.6148 17.1967 50.6 17.1096C50.5868 17.0312 50.5894 16.9411 50.5849 16.8612C50.5701 16.7741 50.5568 16.6957 50.5421 16.6086C50.5288 16.5301 50.5053 16.4445 50.492 16.3661C50.4773 16.279 50.4553 16.202 50.442 16.1236C50.4273 16.0365 50.4125 15.9494 50.4007 15.8797C50.3845 15.7838 50.3712 15.7054 50.3579 15.627C50.3417 15.5311 50.3443 15.4411 50.334 15.3801C50.3017 15.2422 50.271 15.1667 50.236 15.1188C50.1777 15.0391 50.0993 15.0524 49.9773 15.073C49.8466 15.0952 49.7565 15.0925 49.7277 15.187C49.7104 15.2437 49.7426 15.3279 49.7662 15.4673C49.778 15.537 49.7826 15.6169 49.7974 15.704C49.8106 15.7824 49.8065 15.8638 49.8198 15.9422C49.833 16.0206 49.8638 16.0961 49.8785 16.1832C49.8918 16.2616 49.8789 16.3444 49.8922 16.4229C49.9055 16.5013 49.9188 16.5797 49.9321 16.6581C49.9453 16.7365 49.976 16.812 49.9908 16.8991C50.0041 16.9775 50.0086 17.0574 50.0219 17.1358C50.0352 17.2142 50.0572 17.2912 50.0705 17.3696C50.0838 17.448 50.0883 17.5279 50.1016 17.6063C50.1164 17.6934 50.1122 17.7748 50.1255 17.8532C50.1388 17.9316 50.1608 18.0086 50.174 18.087C50.1873 18.1654 50.2006 18.2438 50.2139 18.3222C50.2272 18.4006 50.2317 18.4805 50.245 18.5589C50.2583 18.6373 50.2905 18.7215 50.3023 18.7912C50.317 18.8783 50.3303 18.9568 50.3421 19.0265C50.3569 19.1136 50.3614 19.1935 50.3733 19.2632C50.3865 19.3416 50.3911 19.4215 50.4147 19.5609C50.4311 19.7105 50.6011 19.7086 50.6606 19.6895C50.739 19.6762 50.8144 19.6455 50.874 19.6265C50.9683 19.6016 51.0423 19.5621 51.0203 19.4852C51.0013 19.4257 50.9909 19.3647 50.9806 19.3037C50.9703 19.2427 50.9687 19.1803 50.9583 19.1193C50.9465 19.0496 50.9231 18.9639 50.9068 18.8681C50.8935 18.7897 50.8875 18.7011 50.8727 18.6139C50.858 18.5268 50.836 18.4499 50.8212 18.3628C50.8065 18.2756 50.8004 18.187 50.7872 18.1086C50.7709 18.0128 50.7489 17.9358 50.7357 17.8574C50.7194 17.7616 50.7221 17.6715 50.7088 17.5931C50.6985 17.5321 50.6678 17.4566 50.6501 17.3521Z" fill="#E9E7CF"/>
<path d="M60.0726 14.5165C60.0293 14.454 59.959 14.4265 59.8351 14.4335C59.7732 14.4415 59.6933 14.4668 59.5957 14.4919C59.5861 14.5448 59.5762 14.6154 59.5748 14.7126C59.5738 14.7833 59.5726 14.8628 59.5713 14.9511C59.5702 15.0307 59.5514 15.1099 59.5502 15.1894C59.5491 15.269 59.5656 15.3487 59.5644 15.4283C59.5633 15.5078 59.5533 15.5872 59.5433 15.6666C59.5421 15.7461 59.5498 15.8257 59.5487 15.9053C59.5475 15.9848 59.5199 16.0639 59.5187 16.1434C59.5175 16.223 59.5429 16.3029 59.5418 16.3824C59.5406 16.4619 59.5218 16.5412 59.5206 16.6207C59.5195 16.7002 59.5095 16.7796 59.5085 16.8503C59.5072 16.9387 59.5149 17.0183 59.5138 17.089C59.5125 17.1774 59.5026 17.2568 59.5015 17.3274C59.5002 17.4158 59.4903 17.4952 59.4892 17.5659C59.488 17.6542 59.4956 17.7339 59.4858 17.8044C59.4836 17.9546 59.4824 18.0342 59.4826 18.0253C59.4133 17.9271 59.4133 17.9271 59.344 17.8289C59.2747 17.7307 59.2569 17.7393 59.1877 17.641C59.1184 17.5428 59.1096 17.5427 59.0403 17.4445C58.971 17.3463 58.98 17.3375 58.9107 17.2393C58.8414 17.1411 58.8324 17.1498 58.763 17.0604C58.6938 16.9622 58.6849 16.9621 58.6157 16.8639C58.5464 16.7657 58.5553 16.7569 58.4859 16.6676C58.4167 16.5693 58.4168 16.5605 58.3475 16.4623C58.2782 16.3641 58.2782 16.3641 58.209 16.2659C58.1397 16.1676 58.1486 16.1589 58.0794 16.0607C58.0101 15.9625 57.9922 15.9799 57.9229 15.8817C57.8536 15.7835 57.8626 15.7748 57.7933 15.6765C57.724 15.5783 57.7151 15.587 57.6458 15.4888C57.5764 15.3994 57.5765 15.3906 57.5071 15.3012C57.4378 15.203 57.429 15.2029 57.3597 15.1046C57.2904 15.0064 57.2904 15.0064 57.2212 14.9082C57.1519 14.81 57.1519 14.81 57.0826 14.7118C57.0132 14.6224 57.0132 14.6224 56.9439 14.5242C56.8921 14.4439 56.831 14.39 56.7428 14.3798C56.6723 14.3612 56.5837 14.3775 56.4777 14.376C56.2568 14.3728 56.2748 14.3465 56.2731 14.4702C56.2631 14.5496 56.2441 14.6377 56.2427 14.7349C56.2327 14.8143 56.2403 14.9028 56.239 14.9912C56.2467 15.0708 56.2365 15.1591 56.2353 15.2474C56.2428 15.3359 56.2504 15.4244 56.2492 15.5039C56.2479 15.5923 56.2555 15.6807 56.2543 15.7603C56.2529 15.8575 56.2429 15.9369 56.2418 16.0164C56.2411 16.0606 56.2222 16.1487 56.2207 16.2547C56.2196 16.3254 56.2362 16.4052 56.2349 16.4935C56.2338 16.5642 56.2415 16.6438 56.2402 16.7322C56.2392 16.8029 56.2292 16.8823 56.2281 16.9618C56.2269 17.0413 56.2258 17.1208 56.2246 17.2004C56.2235 17.2799 56.2311 17.3595 56.23 17.4391C56.2288 17.5186 56.2188 17.598 56.2177 17.6775C56.2165 17.757 56.2154 17.8365 56.2144 17.9072C56.2131 17.9956 56.1943 18.0749 56.1932 18.1455C56.192 18.2339 56.2086 18.3048 56.2074 18.3844C56.2062 18.4727 56.1963 18.5433 56.1953 18.614C56.1936 18.7288 56.1925 18.8084 56.1918 18.8525C56.1905 18.9409 56.2164 18.9855 56.269 19.0127C56.3218 19.0312 56.3835 19.0409 56.463 19.0421C56.5426 19.0432 56.6132 19.0442 56.6666 19.0185C56.72 18.9928 56.765 18.9404 56.7663 18.852C56.7764 18.7638 56.7609 18.6133 56.7623 18.5161C56.7541 18.4718 56.7642 18.3836 56.7569 18.2774C56.758 18.2068 56.7504 18.1183 56.7517 18.0299C56.7528 17.9504 56.7452 17.8707 56.7464 17.7824C56.7476 17.7029 56.7399 17.6232 56.7412 17.5349C56.7423 17.4553 56.7435 17.3758 56.7448 17.2875C56.7371 17.2078 56.7382 17.1283 56.7395 17.0399C56.7407 16.9604 56.733 16.8808 56.7341 16.8012C56.7354 16.7129 56.7366 16.6334 56.7377 16.5538C56.7302 16.4653 56.7402 16.3859 56.7413 16.3064C56.7426 16.2181 56.7614 16.1388 56.7626 16.0593C56.7639 15.9709 56.7473 15.8911 56.7484 15.8205C56.7498 15.7233 56.7598 15.6439 56.7608 15.5732C56.763 15.423 56.7643 15.3346 56.7819 15.3349C56.8512 15.4331 56.8424 15.433 56.9116 15.5312C56.9809 15.6294 56.9986 15.6297 57.0679 15.7279C57.1371 15.8261 57.1371 15.8261 57.2064 15.9243C57.2757 16.0225 57.2669 16.0224 57.345 16.1208C57.4143 16.219 57.4321 16.2104 57.5013 16.3086C57.5706 16.4068 57.5707 16.398 57.64 16.4962C57.7181 16.5946 57.7093 16.5944 57.7786 16.6927C57.8478 16.7909 57.8478 16.7909 57.926 16.8892C57.9952 16.9874 57.9863 16.9961 58.0555 17.0944C58.1249 17.1837 58.1338 17.1839 58.2031 17.2821C58.2725 17.3715 58.2634 17.389 58.3328 17.4784C58.4021 17.5766 58.4021 17.5766 58.4802 17.675C58.5494 17.7732 58.5406 17.7731 58.6187 17.8714C58.688 17.9696 58.6881 17.9608 58.7574 18.059C58.8355 18.1574 58.8267 18.1572 58.9048 18.2556C58.9741 18.3538 58.9741 18.3538 59.0435 18.4432C59.1127 18.5414 59.1126 18.5502 59.182 18.6396C59.2513 18.7378 59.2513 18.7378 59.3206 18.836C59.3813 18.9165 59.4243 18.9966 59.503 19.0508C59.5643 19.0959 59.6613 19.1061 59.7674 19.1077C59.8734 19.1092 59.9265 19.1011 59.9533 19.0838C59.989 19.0578 59.9986 19.005 60 18.9078C60.0098 18.846 59.9932 18.7663 59.9947 18.6691C60.0045 18.5985 60.0146 18.5103 60.0159 18.4219C60.0258 18.3514 60.0271 18.263 60.0282 18.1835C60.0294 18.104 60.0218 18.0155 60.023 17.936C60.0241 17.8564 60.0429 17.7772 60.0442 17.6888C60.0454 17.6093 60.0465 17.5298 60.0478 17.4414C60.049 17.3619 60.0413 17.2822 60.0424 17.2027C60.0437 17.1144 60.0449 17.0348 60.046 16.9553C60.0472 16.8758 60.0573 16.7876 60.0673 16.7082C60.0684 16.6287 60.0696 16.5491 60.0796 16.4697C60.0809 16.3814 60.0643 16.3016 60.0655 16.2221C60.0666 16.1426 60.0856 16.0545 60.0868 15.9749C60.0879 15.8954 60.0802 15.8158 60.0814 15.7362C60.0827 15.6479 60.0838 15.5684 60.085 15.4888C60.0862 15.4005 60.1051 15.3212 60.1061 15.2505C60.1074 15.1622 60.1087 15.0738 60.1097 15.0031C60.1111 14.9059 60.1211 14.8265 60.1221 14.7559C60.1238 14.641 60.0984 14.5611 60.0726 14.5165Z" fill="#E9E7CF"/>
<path d="M76.3928 18.3272C76.3763 18.2731 76.3221 18.242 76.2351 18.1978C76.1776 18.1749 76.107 18.1373 76.0167 18.1013C75.9543 18.0669 75.8739 18.0539 75.7918 18.0212C75.7179 17.9918 75.644 17.9624 75.5701 17.9329C75.4962 17.9035 75.4256 17.8659 75.3517 17.8364C75.2779 17.807 75.2072 17.7694 75.1251 17.7367C75.0513 17.7072 74.9774 17.6778 74.9035 17.6484C74.8296 17.6189 74.7557 17.5895 74.6818 17.5601C74.6079 17.5307 74.5373 17.493 74.4634 17.4636C74.3814 17.4309 74.3042 17.4097 74.2385 17.3835C74.1564 17.3508 74.0858 17.3132 74.0119 17.2837C73.938 17.2543 73.8576 17.2413 73.7837 17.2119C73.7099 17.1824 73.6425 17.1366 73.5801 17.1022C73.4898 17.0663 73.4094 17.0533 73.3437 17.0271C73.3026 17.0107 73.2435 16.9682 73.2091 16.983C73.1205 17.0143 73.0616 17.1145 73.0436 17.1834C73.0044 17.2819 72.952 17.3657 73.0047 17.4723C73.0458 17.5362 73.1426 17.5558 73.2297 17.5999C73.2707 17.6163 73.3577 17.6605 73.4645 17.703C73.5466 17.7357 73.6254 17.7766 73.7075 17.8093C73.7978 17.8453 73.8766 17.8862 73.9505 17.9156C74.0704 17.9729 74.1754 17.9957 74.2 18.0055C74.246 18.0333 74.2593 18.0956 74.2364 18.1531C74.238 18.1728 74.2103 18.2664 74.1612 18.3895C74.1351 18.4552 74.0942 18.534 74.0615 18.6161C74.032 18.69 73.9993 18.7721 73.9666 18.8542C73.9372 18.9281 73.9078 19.002 73.8751 19.084C73.8456 19.1579 73.8129 19.24 73.7835 19.3139C73.7508 19.396 73.7296 19.4732 73.6969 19.5553C73.6675 19.6291 73.643 19.7145 73.6135 19.7884C73.5809 19.8705 73.5399 19.9493 73.5138 20.015C73.4647 20.1381 73.437 20.2317 73.4222 20.2448C73.3895 20.3269 73.3683 20.4041 73.3389 20.478C73.3062 20.5601 73.2603 20.6274 73.2342 20.6931C73.2015 20.7752 73.172 20.8491 73.1426 20.923C73.1132 20.9968 73.092 21.074 73.0625 21.1479C73.0331 21.2218 73.0037 21.2957 72.971 21.3777C72.9448 21.4434 72.9072 21.514 72.8745 21.5961C72.8222 21.7275 72.8288 21.8062 72.8601 21.8472C72.8913 21.8882 72.9799 21.9045 73.0817 21.9355C73.1885 21.978 73.2525 21.9845 73.3033 21.9762C73.3657 21.963 73.3935 21.917 73.436 21.8103C73.4638 21.7167 73.4899 21.651 73.5095 21.6018C73.539 21.5279 73.5586 21.4786 73.5913 21.3965C73.6109 21.3473 73.6174 21.2833 73.6566 21.1848C73.673 21.1437 73.7106 21.0731 73.7498 20.9746C73.776 20.9089 73.7972 20.8318 73.8299 20.7497C73.8561 20.684 73.9101 20.6199 73.9396 20.546C73.969 20.4721 73.9984 20.3983 74.0278 20.3244C74.0491 20.2472 74.0785 20.1733 74.0997 20.0962C74.1259 20.0305 74.1635 19.9599 74.1929 19.886C74.2224 19.8121 74.2354 19.7317 74.2648 19.6578C74.2942 19.5839 74.3204 19.5182 74.3416 19.4411C74.371 19.3672 74.4005 19.2933 74.4299 19.2194C74.4593 19.1456 74.4888 19.0717 74.5149 19.006C74.5444 18.9321 74.5738 18.8582 74.5999 18.7925C74.6326 18.7105 74.6785 18.6431 74.7046 18.5774C74.7406 18.4871 74.7536 18.4067 74.7732 18.3574C74.7994 18.2918 74.8617 18.2786 74.9274 18.3047C74.9603 18.3178 75.0456 18.3423 75.1359 18.3783C75.2016 18.4044 75.264 18.4388 75.3379 18.4682C75.4118 18.4976 75.4807 18.5156 75.5546 18.545C75.6285 18.5744 75.6942 18.6006 75.7598 18.6268C75.8584 18.666 75.9404 18.6987 75.9651 18.7085C76.0915 18.7494 76.1686 18.7706 76.2146 18.7508C76.2687 18.7343 76.2981 18.6604 76.3472 18.5373C76.3831 18.447 76.4011 18.378 76.3928 18.3272Z" fill="#E9E7CF"/>
<path d="M83.3704 25.0159C83.4139 24.9493 83.4426 24.8731 83.4861 24.8065C83.5248 24.7473 83.5757 24.6856 83.6192 24.619C83.6627 24.5524 83.694 24.4884 83.7375 24.4218C83.781 24.3552 83.8392 24.2983 83.8779 24.2391C83.9214 24.1725 83.9723 24.1108 84.0158 24.0442C84.0593 23.9776 84.0906 23.9136 84.1341 23.847C84.1776 23.7804 84.2137 23.709 84.2523 23.6498C84.3006 23.5759 84.3393 23.5167 84.378 23.4575C84.4311 23.3761 84.4698 23.3169 84.5085 23.2577C84.5423 23.206 84.6176 23.1391 84.6441 23.0825C84.6728 23.0062 84.6304 22.9257 84.5808 22.8723C84.5239 22.814 84.45 22.7657 84.3959 22.7514C84.3197 22.7227 84.2309 22.6648 84.1652 22.7168C84.1262 22.7442 84.1049 22.8252 84.0688 22.8967C84.0302 22.9558 83.9915 23.015 83.9625 23.0594C83.9383 23.0964 83.8778 23.1729 83.8149 23.2691C83.7763 23.3283 83.7427 23.4119 83.6944 23.4859C83.6509 23.5525 83.5804 23.612 83.5321 23.686C83.4886 23.7525 83.4476 23.8314 83.4041 23.8979C83.3558 23.9719 83.3223 24.0556 83.2762 24.1099C83.2134 24.2061 83.1577 24.2752 83.1335 24.3122C83.0277 24.2642 82.9636 24.2329 82.9119 24.1991C82.8823 24.1798 82.8083 24.1314 82.7121 24.0686C82.6603 24.0348 82.6034 23.9765 82.5294 23.9281C82.4702 23.8895 82.3988 23.8534 82.3323 23.8099C82.2682 23.7786 82.2065 23.7277 82.1399 23.6842C82.0733 23.6407 82.0116 23.5898 81.9524 23.5512C81.8858 23.5077 81.8047 23.4864 81.7455 23.4477C81.679 23.4042 81.6076 23.3681 81.541 23.3246C81.4744 23.2811 81.4126 23.2302 81.3535 23.1916C81.2869 23.1481 81.2203 23.1046 81.1611 23.0659C81.0723 23.0079 81.0106 22.957 80.9736 22.9329C80.9929 22.9033 81.0364 22.8367 81.0944 22.7479C81.1283 22.6961 81.1717 22.6295 81.2152 22.563C81.2539 22.5038 81.29 22.4324 81.3287 22.3732C81.3722 22.3066 81.4108 22.2474 81.4495 22.1882C81.493 22.1216 81.5291 22.0502 81.5629 21.9984C81.6258 21.9023 81.684 21.8454 81.6911 21.8183C81.7321 21.7395 81.763 21.6436 81.8162 21.5623C81.8571 21.4835 81.9103 21.4021 81.9512 21.3233C82.0286 21.2049 81.9864 21.1563 81.8681 21.0789C81.8211 21.0377 81.7523 21.0138 81.6908 20.9948C81.6268 20.9635 81.5605 20.9519 81.5096 21.0137C81.4855 21.0506 81.4007 21.1642 81.3791 21.2134C81.3453 21.2652 81.3018 21.3318 81.2486 21.4131C81.21 21.4723 81.1813 21.5486 81.133 21.6226C81.0895 21.6891 81.0312 21.7461 80.9828 21.82C80.9393 21.8866 80.8958 21.9532 80.8523 22.0198C80.8088 22.0864 80.7801 22.1626 80.7318 22.2366C80.6883 22.3032 80.6448 22.3697 80.6013 22.4363C80.5578 22.5029 80.4947 22.5672 80.4512 22.6338C80.4077 22.7004 80.3716 22.7718 80.3281 22.8384C80.2846 22.905 80.2363 22.9789 80.1928 23.0455C80.1493 23.1121 80.1132 23.1835 80.0697 23.2501C80.0262 23.3167 79.9753 23.3784 79.9318 23.445C79.8835 23.519 79.8326 23.5807 79.7891 23.6473C79.7456 23.7139 79.7095 23.7853 79.666 23.8519C79.6177 23.9259 79.5816 23.9973 79.5429 24.0565C79.502 24.1353 79.4585 24.2019 79.415 24.2684C79.3666 24.3424 79.3183 24.4164 79.2919 24.473C79.2436 24.547 79.1901 24.5965 79.1759 24.6506C79.1424 24.7342 79.17 24.805 79.1999 24.8562C79.2249 24.9148 79.2696 24.9757 79.3336 25.0069C79.4446 25.0794 79.5228 25.0567 79.5811 24.9997C79.6468 24.9477 79.6926 24.8614 79.7483 24.7923C79.7725 24.7553 79.8086 24.6839 79.8665 24.5951C79.9052 24.5359 79.9561 24.4742 79.9996 24.4076C80.0431 24.341 80.0892 24.2867 80.1327 24.2201C80.1762 24.1535 80.2123 24.0821 80.2558 24.0155C80.2992 23.9489 80.3453 23.8946 80.3888 23.828C80.4323 23.7614 80.4758 23.6948 80.5145 23.6357C80.5676 23.5543 80.6086 23.4755 80.6401 23.4433C80.6498 23.4285 80.6694 23.4308 80.6842 23.4404C80.7212 23.4646 80.7974 23.4933 80.8862 23.5513C80.938 23.5851 80.9949 23.6434 81.0615 23.6869C81.1207 23.7256 81.1873 23.7691 81.2539 23.8126C81.3204 23.8561 81.3893 23.88 81.4559 23.9234C81.5224 23.9669 81.572 24.0204 81.6385 24.0639C81.7051 24.1074 81.7669 24.1583 81.8261 24.197C81.8926 24.2405 81.9737 24.2618 82.0281 24.3078C82.0947 24.3513 82.1564 24.4022 82.2156 24.4409C82.2822 24.4844 82.3439 24.5353 82.4031 24.5739C82.4697 24.6174 82.5459 24.6461 82.5977 24.68C82.6865 24.738 82.7434 24.7962 82.7804 24.8204C82.7952 24.8301 82.8125 24.852 82.8029 24.8668C82.7861 24.9086 82.7304 24.9777 82.6724 25.0665C82.6363 25.1379 82.5928 25.2045 82.5445 25.2785C82.501 25.3451 82.4501 25.4068 82.414 25.4782C82.3656 25.5522 82.3295 25.6236 82.2861 25.6902C82.2426 25.7568 82.1794 25.8211 82.1408 25.8803C82.0853 25.9813 82.0418 26.0479 82.0177 26.0849C81.9838 26.1367 81.96 26.2055 81.9213 26.2647C81.89 26.3287 81.8366 26.3782 81.815 26.4274C81.7667 26.5014 81.7965 26.5526 81.8313 26.5964C81.8734 26.645 81.9252 26.6789 81.977 26.7127C82.0831 26.7926 82.1568 26.8091 82.2389 26.6833C82.2705 26.6511 82.2995 26.6067 82.3285 26.5624C82.3623 26.5106 82.4206 26.4537 82.4689 26.3797C82.5076 26.3205 82.5585 26.2587 82.6068 26.1848C82.6455 26.1256 82.6816 26.0542 82.7251 25.9876C82.7686 25.921 82.7925 25.8522 82.8408 25.7782C82.8795 25.719 82.9377 25.6621 82.9812 25.5955C83.0247 25.5289 83.056 25.4649 83.0995 25.3983C83.143 25.3317 83.2013 25.2748 83.2448 25.2082C83.2883 25.1417 83.3269 25.0825 83.3704 25.0159Z" fill="#E9E7CF"/>
<path d="M89.4763 27.6481C89.5199 27.6919 89.5698 27.7544 89.6322 27.817C89.6821 27.8671 89.7383 27.9109 89.7944 27.9672C89.8506 28.0236 89.913 28.0612 89.9691 28.1175C90.0253 28.1738 90.0814 28.2301 90.1313 28.2802C90.1875 28.3365 90.2374 28.3991 90.2873 28.4492C90.3434 28.5055 90.3996 28.5618 90.4495 28.6119C90.5056 28.6682 90.5618 28.7245 90.6117 28.7746C90.6678 28.8309 90.7177 28.8935 90.7676 28.9436C90.83 29.0061 90.8799 29.0562 90.9298 29.1063C90.9985 29.1751 91.0483 29.2377 91.0858 29.2752C91.1482 29.3378 91.2169 29.3567 91.2793 29.3568C91.3356 29.3506 91.3919 29.3195 91.467 29.2571C91.5421 29.1822 91.6296 29.1449 91.6297 29.0699C91.6298 29.0199 91.5862 28.9511 91.4926 28.8572C91.4676 28.8322 91.4052 28.7821 91.3241 28.7008C91.2742 28.6507 91.2243 28.5881 91.162 28.5255C91.112 28.4755 91.0434 28.4316 90.9872 28.3753C90.9311 28.319 90.8812 28.2689 90.825 28.2126C90.7689 28.1563 90.719 28.0937 90.6629 28.0374C90.6067 27.981 90.5506 27.9247 90.5007 27.8746C90.4383 27.8121 90.3759 27.762 90.326 27.7119C90.2636 27.6493 90.2137 27.5868 90.17 27.5429C90.0889 27.4616 90.014 27.4115 89.9828 27.3927C89.9329 27.3426 89.883 27.28 89.8206 27.2175C89.777 27.1612 89.7271 27.0861 89.671 27.0298C89.6211 26.9672 89.5587 26.9171 89.5025 26.8608C89.4464 26.8045 89.3902 26.7356 89.3278 26.6856C89.284 26.7292 89.2214 26.7916 89.1589 26.854C89.1026 26.8976 89.0525 26.96 88.9961 27.0162C88.9398 27.0723 88.8835 27.1285 88.8272 27.1846C88.7771 27.2345 88.7083 27.2782 88.652 27.3343C88.5956 27.3905 88.5518 27.4591 88.4955 27.5153C88.4391 27.5714 88.3766 27.6213 88.3202 27.6775C88.2702 27.7274 88.2201 27.7898 88.1638 27.8459C88.1074 27.9021 88.0324 27.9394 87.9761 27.9956C87.9197 28.0517 87.8759 28.1204 87.8258 28.1703C87.7695 28.2264 87.7007 28.2701 87.6444 28.3262C87.588 28.3824 87.538 28.4448 87.4816 28.5009C87.4316 28.5508 87.369 28.6007 87.3127 28.6569C87.2563 28.713 87.2063 28.7754 87.1499 28.8316C87.0936 28.8877 87.0373 28.9314 86.981 28.9875C86.9184 29.0374 86.8808 29.1123 86.8245 29.1685C86.7681 29.2246 86.6993 29.2682 86.6493 29.3181C86.593 29.3743 86.5429 29.4367 86.4865 29.4928C86.4302 29.549 86.3676 29.5989 86.3176 29.6488C86.255 29.7112 86.1987 29.7673 86.1549 29.811C86.1048 29.8609 86.1108 30.0296 86.1544 30.0859C86.1919 30.1235 86.248 30.1923 86.3166 30.2611C86.3727 30.3175 86.4289 30.3738 86.4913 30.4364C86.5474 30.4927 86.591 30.574 86.6472 30.6303C86.7033 30.6866 86.7845 30.7305 86.8406 30.7868C86.903 30.8494 86.9592 30.9058 87.0091 30.9683C87.0714 31.0309 87.1151 31.0997 87.1712 31.156C87.2336 31.2186 87.3023 31.2625 87.3584 31.3188C87.4208 31.3814 87.4707 31.4439 87.5268 31.5003C87.5892 31.5628 87.6391 31.6254 87.6952 31.6817C87.7576 31.7443 87.82 31.7944 87.8762 31.8507C87.9386 31.9133 88.0072 31.9697 88.0571 32.0197C88.1257 32.0886 88.1756 32.1636 88.2255 32.2012C88.2879 32.2638 88.3629 32.2639 88.4192 32.2203C88.4755 32.1891 88.5006 32.1142 88.5195 32.033C88.5321 31.9455 88.6198 31.8207 88.5637 31.7519C88.52 31.6956 88.4639 31.6142 88.3891 31.5391C88.3267 31.4765 88.2518 31.4139 88.1894 31.3514C88.1145 31.2763 88.0397 31.2137 87.9835 31.1573C87.9586 31.1323 87.8899 31.0759 87.8088 30.9946C87.7589 30.9445 87.709 30.8695 87.6467 30.8069C87.5905 30.7505 87.5406 30.688 87.4845 30.6317C87.4221 30.5691 87.3597 30.519 87.3035 30.4627C87.2412 30.4001 87.1725 30.3562 87.1163 30.2999C87.054 30.2373 86.9978 30.181 86.9479 30.1309C86.8419 30.0245 86.7668 30.0744 86.767 29.9494C86.7672 29.8245 86.8608 29.8808 86.9672 29.7748C87.0173 29.7249 87.0612 29.6437 87.13 29.5751C87.1863 29.5189 87.2551 29.4628 87.3115 29.4067C87.3803 29.3381 87.4304 29.2756 87.4867 29.2195C87.5681 29.1384 87.6432 29.076 87.6745 29.0448C87.7245 28.9949 87.7246 28.9574 87.7934 28.9138C87.8246 28.9451 87.8995 29.0077 87.9806 29.0891C88.0305 29.1391 88.0866 29.208 88.149 29.2705C88.2114 29.3331 88.2738 29.3832 88.3362 29.4458C88.3923 29.5021 88.4547 29.5647 88.5171 29.6273C88.5732 29.6836 88.6356 29.7462 88.6918 29.8025C88.7541 29.8651 88.8228 29.909 88.879 29.9653C88.9476 30.0341 89.0037 30.103 89.0536 30.153C89.141 30.2281 89.2221 30.2845 89.2471 30.3095C89.3282 30.3909 89.3843 30.4472 89.4468 30.4598C89.5217 30.4724 89.5905 30.4413 89.6656 30.3665C89.7095 30.3103 89.7408 30.2416 89.7972 30.1605C89.7535 30.1042 89.7037 30.0291 89.6288 29.954C89.5664 29.8914 89.5103 29.8226 89.4417 29.7537C89.3793 29.6787 89.2982 29.6223 89.2545 29.566C89.2295 29.541 89.1797 29.4659 89.0861 29.3845C89.0362 29.3344 88.9863 29.2719 88.9239 29.2093C88.8678 29.153 88.7866 29.1091 88.7304 29.0528C88.6743 28.9965 88.6244 28.9214 88.5683 28.8651C88.5059 28.8025 88.431 28.7649 88.3811 28.7148C88.275 28.6209 88.2062 28.6645 88.2064 28.5396C88.2003 28.4333 88.269 28.4647 88.3629 28.3711C88.4129 28.3212 88.4755 28.2713 88.5318 28.2152C88.5819 28.1528 88.6382 28.0966 88.6821 28.0404C88.7572 27.9656 88.8322 27.9157 88.8573 27.8908C88.8823 27.8658 88.9386 27.8222 89.0075 27.7535C89.0513 27.7099 89.0951 27.6537 89.1514 27.61C89.2077 27.5539 89.2703 27.5165 89.3141 27.4853C89.3515 27.5229 89.4014 27.573 89.4763 27.6481Z" fill="#E9E7CF"/>
<path d="M29.0581 49.0126L31.494 43.5337C30.7472 43.6964 29.9747 43.945 29.1764 44.2795C28.3782 44.614 27.7019 44.9416 27.1473 45.2622C26.5915 45.5756 26.0959 45.871 25.6604 46.1482C25.2309 46.4169 24.922 46.6088 24.7336 46.7237C24.683 46.7327 24.6292 46.7238 24.5722 46.697C24.5152 46.6702 24.4822 46.6317 24.4733 46.5816C24.4631 46.5243 24.5668 46.1436 24.7844 45.4396C25.0092 44.7343 25.2836 43.9721 25.6075 43.1531C27.9783 41.8064 30.1325 40.9604 32.0701 40.6149C34.3114 40.2153 35.9501 40.4109 36.9863 41.2018C37.3559 41.4759 37.6673 41.8417 37.9204 42.2991C38.1795 42.7482 38.3512 43.2091 38.4355 43.6819C38.6271 44.7564 38.5737 45.7748 38.2754 46.7371C37.9829 47.691 37.4749 48.5651 36.7512 49.3593C36.0275 50.1536 35.1287 50.8238 34.0549 51.37C32.9799 51.9091 31.7664 52.2992 30.4144 52.5402C30.1758 52.5828 29.6801 52.6268 28.9274 52.6724L28.2655 54.6086C28.3936 54.741 28.4659 54.8537 28.4825 54.9469C28.5221 55.1689 28.5047 55.3642 28.4303 55.5327C28.324 55.7734 28.1829 56.0905 28.0069 56.484C27.8309 56.8776 27.7097 57.1394 27.6434 57.2695C27.5843 57.3983 27.5082 57.5153 27.4151 57.6206C27.3292 57.7247 27.2357 57.7857 27.1344 57.8037C26.9248 57.8411 26.7795 57.8005 26.6987 57.6819C26.6191 57.5704 26.5596 57.4036 26.52 57.1816C26.4638 56.8664 26.5304 56.3408 26.72 55.6048C26.9155 54.8604 27.2304 53.8656 27.6648 52.6203C27.302 52.5519 27.0081 52.4306 26.7831 52.2564C26.5581 52.0822 26.4277 51.8948 26.392 51.6942C26.3128 51.2501 26.496 50.7924 26.9416 50.3212C27.3872 49.85 28.0927 49.4138 29.0581 49.0126ZM30.2377 49.1016L29.8034 50.2433C30.0807 50.2087 30.3255 50.1798 30.5377 50.1568C30.7571 50.1324 30.9392 50.1074 31.0838 50.0816C32.349 49.856 33.4143 49.4923 34.2797 48.9906C35.1523 48.4877 35.8157 47.9407 36.2698 47.3497C36.7298 46.7503 37.0381 46.178 37.1945 45.6327C37.3509 45.0874 37.399 44.6464 37.339 44.3098C37.256 43.8441 37.0029 43.5123 36.5797 43.3143C36.1565 43.1163 35.5823 43.0339 34.8572 43.0671C34.138 43.0918 33.2217 43.2035 32.1083 43.402C32.1368 43.4782 32.1613 43.5736 32.1817 43.6882C32.2481 44.0607 32.1368 44.5869 31.8477 45.2667L30.4838 48.5366L31.8757 48.1221C31.9914 48.1015 32.0588 48.1449 32.078 48.2524C32.0946 48.3455 32.0121 48.4267 31.8305 48.496L30.2377 49.1016Z" fill="#E9E7CF"/>
<path d="M39.1534 51.1594L39.0289 50.461C39.3375 49.9329 39.5643 49.4897 39.7093 49.1312C39.4639 49.0937 39.2767 49.0272 39.1479 48.932C39.0262 48.8354 38.9449 48.6725 38.9041 48.4433C38.8581 48.1854 38.9084 47.8401 39.0551 47.4074C39.2017 46.9748 39.4034 46.5582 39.6602 46.1576C39.917 45.757 40.1666 45.4834 40.409 45.3367C40.5013 45.2685 40.5944 45.226 40.6884 45.2093C40.833 45.1835 40.9175 45.2386 40.9417 45.3747C40.9634 45.4965 40.8954 45.7637 40.7377 46.1761C42.1862 45.6813 43.1056 45.3991 43.4961 45.3295C43.6479 45.3024 43.7553 45.2981 43.8182 45.3164C43.9526 45.359 44.0807 45.4914 44.2023 45.7136C44.324 45.9358 44.4059 46.1651 44.4481 46.4015C44.4749 46.5519 44.4356 46.7289 44.3302 46.9325C44.2307 47.1276 44.0483 47.4226 43.783 47.8172C43.4726 48.2939 43.2301 48.7954 43.0554 49.3218C42.8807 49.8481 42.815 50.2331 42.8585 50.4766C42.9185 50.8133 43.1582 50.9443 43.5775 50.8695C44.0185 50.7909 44.7057 50.2101 45.639 49.1272L45.7674 49.8471C45.2784 50.5773 44.8707 51.1563 44.5441 51.5841C44.2176 52.0119 43.9072 52.3629 43.6129 52.6371C43.3174 52.9041 43.0395 53.0609 42.7792 53.1073C42.4756 53.1614 42.1983 53.0704 41.9473 52.8343C41.695 52.591 41.5223 52.2079 41.4291 51.685C41.3741 51.3769 41.3911 51.0117 41.4799 50.5894C41.5687 50.167 41.724 49.6996 41.9459 49.187C42.1738 48.6659 42.4385 48.142 42.7399 47.6152C42.5451 47.6943 42.3257 47.7814 42.0816 47.8767C41.8362 47.9648 41.577 48.0591 41.304 48.1595C41.031 48.2599 40.8211 48.338 40.6744 48.3937C40.3845 49.3619 39.8775 50.2838 39.1534 51.1594Z" fill="#E9E7CF"/>
<path d="M52.5688 47.8915L52.6972 48.6115C52.2967 49.1264 51.9646 49.4812 51.7009 49.6761C51.4373 49.8709 51.0318 50.0023 50.4844 50.0704C49.7413 51.3411 49.0118 52.0403 48.296 52.1679C47.8912 52.2401 47.4988 52.1733 47.119 51.9676C46.7391 51.7618 46.4071 51.4478 46.123 51.0254C45.846 50.6018 45.6571 50.107 45.5562 49.5411C45.4744 49.0826 45.5356 48.5469 45.7396 47.934C45.9508 47.3198 46.2559 46.7296 46.6547 46.1633C47.0595 45.5885 47.514 45.1046 48.0184 44.7116C48.5214 44.3115 49.0115 44.0689 49.4887 43.9838C49.8285 43.9232 50.1056 43.9293 50.3199 44.0019C50.533 44.0674 50.6562 44.1933 50.6894 44.3795C50.7149 44.5228 50.6612 44.7024 50.5281 44.9183C50.813 44.9266 51.0183 44.9898 51.1438 45.1078C51.268 45.2187 51.3614 45.4497 51.4239 45.8007C51.4853 46.1446 51.4794 46.5928 51.4063 47.1454C51.3405 47.6966 51.2075 48.2267 51.0073 48.7354L51.237 48.894L51.3997 48.865C51.5226 48.8431 51.6368 48.7932 51.7422 48.7152C51.8536 48.6288 51.9506 48.545 52.0331 48.4638C52.1143 48.3754 52.2929 48.1847 52.5688 47.8915ZM49.8309 45.4639C49.2947 45.9291 48.8395 46.3465 48.4653 46.7163C48.0898 47.0789 47.7807 47.437 47.5379 47.7908C47.2939 48.1373 47.1481 48.47 47.1005 48.789C47.0628 49.6235 47.0497 50.073 47.0612 50.1375C47.1455 50.6103 47.5202 50.7874 48.1854 50.6688C48.4963 50.6133 48.9696 50.2555 49.6052 49.5952C49.4223 49.2804 49.3034 48.969 49.2485 48.661C49.168 48.2097 49.1802 47.7344 49.2852 47.2353C49.3889 46.729 49.5708 46.1385 49.8309 45.4639Z" fill="#E9E7CF"/>
<path d="M53.9863 47.6831L53.952 48.6206C53.9436 48.7403 53.9521 48.8718 53.9776 49.0151C54.0466 49.4019 54.2438 49.5664 54.5691 49.5083C54.88 49.4529 55.5282 48.7165 56.5138 47.299C56.438 46.8321 56.5157 46.2639 56.747 45.5944C56.9854 44.9236 57.2698 44.3223 57.6002 43.7903C57.9378 43.2571 58.2078 42.9724 58.4102 42.9363C58.7283 42.8796 58.9244 43.059 58.9985 43.4745C59.0432 43.7252 59.0367 44.0442 58.9789 44.4314C58.9199 44.8115 58.8087 45.2342 58.6455 45.6994C58.481 46.1574 58.2648 46.6394 57.997 47.1454C58.2352 47.4355 58.4483 47.5639 58.6363 47.5303C58.7954 47.502 58.9593 47.4173 59.1281 47.2763C59.3029 47.1269 59.5144 46.9118 59.7627 46.631L59.8911 47.3509C59.5424 47.7383 59.259 48.0106 59.0409 48.1678C58.83 48.3236 58.5401 48.4344 58.1714 48.5002C58.0268 48.526 57.7493 48.4757 57.3389 48.3493C56.7394 49.2544 56.2428 49.9417 55.849 50.411C55.454 50.8732 55.1119 51.13 54.8227 51.1816C54.3238 51.2705 53.8449 51.0529 53.3859 50.5287C52.9329 49.996 52.6431 49.375 52.5167 48.6658C52.3468 47.7131 52.6853 46.4738 53.5322 44.9481C53.786 44.4889 53.9978 44.1703 54.1674 43.9922C54.343 43.8057 54.5574 43.6898 54.8104 43.6447C55.0273 43.6061 55.2404 43.6087 55.4496 43.6527C55.6589 43.6967 55.7731 43.7724 55.7923 43.8799C55.8561 44.238 55.7078 44.8077 55.3473 45.589C54.9855 46.363 54.5319 47.0611 53.9863 47.6831Z" fill="#E9E7CF"/>
<path d="M63.331 41.039C63.1502 41.0712 62.9646 41.0341 62.774 40.9276C62.5907 40.8199 62.4805 40.6621 62.4435 40.4544C62.3873 40.1392 62.4765 39.7611 62.7112 39.3201C62.9459 38.8792 63.2259 38.6297 63.5512 38.5717C63.7681 38.533 63.961 38.5688 64.1299 38.6791C64.2975 38.7823 64.4036 38.9592 64.4483 39.21C64.5032 39.518 64.4157 39.8847 64.1857 40.31C63.9557 40.7354 63.6708 40.9784 63.331 41.039ZM64.9248 45.7106L65.0647 46.495C64.5231 47.5155 63.9895 48.3091 63.4639 48.8758C62.9371 49.4354 62.4604 49.7532 62.0338 49.8293C61.441 49.935 60.945 49.7056 60.546 49.1411C60.1469 48.5766 59.8823 47.929 59.752 47.1984C59.7022 46.919 59.6839 46.6488 59.697 46.3877C59.7088 46.1195 59.7398 45.896 59.79 45.717C59.8401 45.5381 59.9424 45.2538 60.0967 44.8641C60.841 43.0979 61.6398 42.1388 62.4929 41.9866C62.9339 41.908 63.1845 42.037 63.2445 42.3737C63.2854 42.6029 63.2046 42.9869 63.0023 43.5256C62.8072 44.063 62.6161 44.4555 62.429 44.7032C61.9073 45.4171 61.5699 45.9097 61.4169 46.1809C61.271 46.4508 61.2249 46.7362 61.2786 47.037C61.3246 47.2949 61.4605 47.4924 61.6864 47.6295C61.9122 47.7667 62.1806 47.8075 62.4915 47.7521C62.8313 47.6915 63.1819 47.5033 63.5433 47.1876C63.9107 46.8634 64.3712 46.371 64.9248 45.7106Z" fill="#E9E7CF"/>
<path d="M71.8007 42.4779C70.7786 44.1088 70.3167 45.2001 70.4151 45.7517C70.47 46.0597 70.624 46.1911 70.877 46.146C71.0867 46.1086 71.3386 45.9528 71.6329 45.6786C71.9331 45.396 72.3913 44.9115 73.0074 44.2251L73.1396 44.9665C72.2918 46.1525 71.6327 47.0165 71.1624 47.5586C70.6922 48.1007 70.2835 48.4027 69.9365 48.4646C69.3436 48.5703 68.9782 48.2363 68.8403 47.4626C68.7994 47.2334 68.7953 47.0013 68.828 46.7664C68.8607 46.5314 68.9175 46.2848 68.9982 46.0265C69.0849 45.7597 69.2188 45.381 69.3999 44.8905C69.5797 44.3928 69.7891 43.8307 70.028 43.2042C69.6529 43.4854 69.2094 43.9895 68.6975 44.7164C68.3616 45.1754 68.084 45.6056 67.8646 46.0068C67.6439 46.401 67.4092 46.8419 67.1605 47.3298C66.9178 47.8091 66.7339 48.1376 66.6089 48.3151C66.4899 48.4841 66.3544 48.5822 66.2026 48.6093C65.9712 48.6505 65.7152 48.4486 65.4344 48.0034C65.1536 47.5583 64.9564 47.0169 64.8427 46.3794C64.7724 45.9854 64.7609 45.6696 64.8081 45.4321C64.8624 45.1932 64.987 44.8458 65.1817 44.3898C65.5452 43.5415 65.8763 42.9097 66.1752 42.4942C66.4729 42.0716 66.788 41.8306 67.1206 41.7713C67.3519 41.73 67.5433 41.7366 67.6947 41.7909C67.8534 41.8439 67.9474 41.9528 67.9767 42.1175C67.9895 42.1892 67.9812 42.2683 67.9519 42.3548C67.9226 42.4413 67.8847 42.522 67.8384 42.5968C67.7993 42.6703 67.7096 42.8156 67.5693 43.0328C66.6505 44.4901 66.2243 45.405 66.2907 45.7775C66.3278 45.9852 66.415 46.0768 66.5523 46.0524C66.6391 46.0369 66.7811 45.8711 66.9784 45.5551C67.1816 45.2306 67.4388 44.8115 67.7501 44.2977C68.0672 43.7755 68.4499 43.2232 68.898 42.6406C69.3534 42.0568 69.8843 41.4781 70.4907 40.9043C70.8266 40.5709 71.1211 40.3817 71.3741 40.3366C71.4898 40.3159 71.63 40.4536 71.7946 40.7494C71.9665 41.044 72.0812 41.3524 72.1386 41.6748C72.1667 41.8324 72.0541 42.1001 71.8007 42.4779Z" fill="#E9E7CF"/>
<path d="M79.4824 43.1371L79.6107 43.857C78.9712 44.7471 78.4427 45.4437 78.0252 45.9469C77.6149 46.4487 77.2169 46.8523 76.8312 47.1576C76.4527 47.4616 76.0611 47.6497 75.6562 47.7219C75.2585 47.7928 74.866 47.7039 74.4785 47.4551C74.0897 47.1993 73.7566 46.8373 73.4792 46.3694C73.2006 45.8943 73.0108 45.3738 72.9099 44.8079C72.823 44.3208 72.8542 43.8681 73.0034 43.4497C73.1526 43.0314 73.4844 42.4659 73.9989 41.7533C74.6086 40.9055 75.1935 40.2321 75.7535 39.7331C76.3195 39.2257 76.7832 38.9397 77.1447 38.8753C77.405 38.8288 77.6415 38.8791 77.8542 39.0259C78.0668 39.1728 78.1974 39.3823 78.246 39.6545C78.2868 39.8838 78.2257 40.231 78.0624 40.6962C77.8992 41.1614 77.6975 41.578 77.4573 41.946C77.2158 42.3069 77.0083 42.5028 76.8347 42.5337C76.6468 42.5673 76.5349 42.4837 76.4991 42.2832C76.4962 42.2246 76.4902 42.1702 76.4812 42.12C76.4795 42.0686 76.4742 42.0178 76.4653 41.9677C76.4499 41.8817 76.4091 41.841 76.3428 41.8454C76.2824 41.8414 76.2145 41.8793 76.1393 41.9593C75.5057 42.5896 75.0737 43.0325 74.8432 43.288C74.6115 43.5362 74.4346 43.7784 74.3126 44.0145C74.1978 44.2494 74.1608 44.4814 74.2017 44.7106C74.2771 45.1333 74.4757 45.4526 74.7977 45.6687C75.1197 45.8847 75.5012 45.9534 75.9423 45.8748C76.3977 45.7936 76.9129 45.5243 77.4879 45.0671C78.0687 44.6013 78.7336 43.958 79.4824 43.1371Z" fill="#E9E7CF"/>
<path d="M81.2393 43.2008L81.2872 43.4694C81.3625 43.8921 81.5261 44.2029 81.7779 44.4019C82.0298 44.6009 82.3256 44.6701 82.6654 44.6095C83.0196 44.5464 83.37 44.3989 83.7166 44.1671C84.0704 43.934 84.411 43.6478 84.7385 43.3086C85.0659 42.9693 85.4598 42.5222 85.9203 41.967L86.0372 42.6225C85.3939 43.7424 84.761 44.6276 84.1385 45.2782C83.5147 45.9216 82.8341 46.309 82.0967 46.4405C81.4532 46.5552 80.8994 46.399 80.4354 45.9717C79.9713 45.5445 79.6626 44.901 79.5093 44.0414C79.3752 43.2892 79.431 42.5771 79.6767 41.9051C79.9211 41.2258 80.3839 40.4744 81.0651 39.6508C81.5315 39.0872 82.0148 38.6388 82.5149 38.3058C83.015 37.9727 83.4783 37.7681 83.9048 37.6921C84.2446 37.6315 84.5262 37.6626 84.7495 37.7854C84.9788 37.8997 85.1209 38.1109 85.1758 38.4189C85.2563 38.8702 85.1668 39.3518 84.9075 39.8637C84.6469 40.3684 84.2055 40.9054 83.5834 41.4746C82.9673 42.0353 82.1859 42.6107 81.2393 43.2008ZM81.2232 42.483C81.8292 42.1163 82.3303 41.7054 82.7266 41.2504C83.1229 40.7954 83.3995 40.3802 83.5563 40.0048C83.7191 39.621 83.7865 39.3503 83.7584 39.1927C83.729 39.028 83.6384 38.9591 83.4866 38.9862C83.3565 39.0094 83.1579 39.1298 82.8908 39.3474C82.631 39.5637 82.3729 39.8315 82.1165 40.1507C81.8673 40.4686 81.6554 40.8279 81.4807 41.2286C81.306 41.6293 81.2201 42.0475 81.2232 42.483Z" fill="#E9E7CF"/>
<path d="M40.1326 33.1886C40.1955 33.1774 40.2584 33.1662 40.3214 33.155C40.3913 33.1425 40.4568 33.1453 40.5197 33.1341C40.5827 33.1228 40.6501 33.0964 40.713 33.0851C40.776 33.0739 40.8389 33.0627 40.9019 33.0515C40.9718 33.039 41.0372 33.0418 41.1002 33.0305C41.1631 33.0193 41.2318 32.9999 41.2878 32.9899C41.3577 32.9774 41.4194 32.9592 41.4823 32.948C41.5593 32.9343 41.6222 32.923 41.6662 32.8863C41.7172 32.8484 41.7364 32.7944 41.7531 32.7265C41.7642 32.6668 41.7682 32.6084 41.7614 32.5302C41.7515 32.4742 41.7555 32.4158 41.7455 32.3599C41.7355 32.3039 41.7186 32.2492 41.6704 32.2217C41.6374 32.1987 41.5847 32.1865 41.5123 32.185C41.4621 32.1867 41.4106 32.1814 41.3407 32.1939C41.2847 32.2039 41.2173 32.2303 41.1473 32.2428C41.0844 32.254 41.0132 32.2595 40.9445 32.279C40.8816 32.2902 40.8104 32.2957 40.7475 32.3069C40.6775 32.3194 40.6101 32.3458 40.5484 32.364C40.4784 32.3765 40.4085 32.389 40.3526 32.399C40.2966 32.4089 40.2349 32.4271 40.1707 32.4314C40.1148 32.4414 40.0531 32.4596 39.9901 32.4708C39.9329 32.4738 39.87 32.485 39.8071 32.4962C39.7499 32.4992 39.6844 32.4964 39.6202 32.5007C39.5643 32.5106 39.5038 32.5359 39.4409 32.5471C39.3837 32.5501 39.3195 32.5543 39.2566 32.5655C39.2006 32.5755 39.1471 32.5995 39.0912 32.6094C39.0954 32.6736 39.0914 32.7321 39.1026 32.795C39.1069 32.8592 39.1321 32.9196 39.1433 32.9826C39.1545 33.0455 39.1518 33.111 39.163 33.1739C39.1742 33.2369 39.1924 33.2986 39.1967 33.3627C39.2091 33.4327 39.2203 33.4956 39.2316 33.5586C39.2428 33.6215 39.254 33.6845 39.2652 33.7474C39.2765 33.8103 39.2807 33.8745 39.2849 33.9387C39.2961 34.0017 39.3283 34.0609 39.3396 34.1238C39.3508 34.1868 39.341 34.2534 39.3523 34.3164C39.3635 34.3793 39.3887 34.4398 39.3929 34.504C39.4041 34.5669 39.4071 34.6241 39.4184 34.687C39.4296 34.75 39.4408 34.8129 39.452 34.8759C39.4632 34.9388 39.4745 35.0018 39.4857 35.0647C39.4969 35.1276 39.5081 35.1906 39.5194 35.2535C39.5306 35.3165 39.5418 35.3794 39.553 35.4424C39.5643 35.5053 39.5615 35.5707 39.5727 35.6337C39.5769 35.6979 39.6091 35.7571 39.6204 35.82C39.6316 35.883 39.6428 35.9459 39.654 36.0089C39.6615 36.0508 39.702 36.1158 39.7596 36.156C39.8256 36.202 39.8935 36.2187 39.9425 36.21C40.0054 36.1988 40.0708 36.2015 40.1408 36.1891C40.2037 36.1778 40.2692 36.1806 40.3391 36.1681C40.402 36.1569 40.465 36.1457 40.5349 36.1332C40.5991 36.129 40.6608 36.1108 40.7307 36.0983C40.7937 36.0871 40.8661 36.0886 40.9291 36.0774C40.9933 36.0731 41.0619 36.0537 41.1249 36.0425C41.1961 36.037 41.2565 36.0118 41.3195 36.0005C41.3894 35.9881 41.4523 35.9769 41.5153 35.9656C41.5852 35.9532 41.6507 35.9559 41.7136 35.9447C41.7835 35.9322 41.8452 35.914 41.9082 35.9028C41.9781 35.8903 42.0411 35.8791 42.1028 35.8609C42.1797 35.8472 42.2237 35.8105 42.2499 35.7553C42.2774 35.7071 42.2801 35.6416 42.2607 35.5729C42.2367 35.5195 42.2103 35.452 42.1653 35.4023C42.1229 35.3666 42.0824 35.3017 42.0362 35.2449C41.9888 35.1812 41.9381 35.1398 41.8739 35.144C41.8167 35.147 41.7608 35.157 41.6908 35.1694C41.6349 35.1794 41.5719 35.1906 41.509 35.2019C41.446 35.2131 41.3806 35.2103 41.3247 35.2203C41.2617 35.2315 41.2013 35.2567 41.1466 35.2737C41.0836 35.2849 41.0182 35.2821 40.9552 35.2934C40.8923 35.3046 40.8306 35.3228 40.7816 35.3315C40.7175 35.3358 40.6615 35.3457 40.6125 35.3545C40.5496 35.3657 40.4949 35.3827 40.4459 35.3914C40.341 35.4101 40.344 35.4673 40.2711 35.4226C40.1792 35.3524 40.2479 35.3329 40.2172 35.2013C40.206 35.1383 40.1853 35.0626 40.1703 34.9787C40.1611 34.8865 40.1281 34.8636 40.1349 34.7397C40.1909 34.7297 40.255 34.7255 40.325 34.713C40.3879 34.7018 40.4496 34.6836 40.5126 34.6723C40.5755 34.6611 40.6467 34.6556 40.7096 34.6444C40.7726 34.6332 40.833 34.608 40.896 34.5968C40.9659 34.5843 41.0313 34.5871 41.0873 34.5771C41.1642 34.5634 41.2272 34.5521 41.2831 34.5422C41.3601 34.5284 41.4193 34.4962 41.4657 34.4735C41.5402 34.4458 41.5994 34.4136 41.6268 34.3654C41.6531 34.3102 41.6628 34.2435 41.6561 34.1654C41.6461 34.1094 41.6139 34.0502 41.5945 33.9815C41.5763 33.9198 41.565 33.8569 41.5386 33.7894C41.4884 33.7912 41.4242 33.7954 41.3542 33.8079C41.2983 33.8179 41.2448 33.8418 41.1807 33.846C41.1177 33.8573 41.058 33.8463 40.9951 33.8575C40.9321 33.8687 40.8787 33.8927 40.8145 33.8969C40.7585 33.9069 40.6943 33.9111 40.6384 33.9211C40.5742 33.9253 40.5113 33.9365 40.4623 33.9453C40.3911 33.9507 40.3117 33.9505 40.2488 33.9617C40.1299 33.9829 40.1238 34.0706 40.0332 34.0073C39.9438 33.9511 40.0215 33.9012 39.9945 33.7905C39.9821 33.7206 39.9684 33.6437 39.9559 33.5737C39.9434 33.5038 39.9372 33.4688 39.9329 33.4046C39.9395 33.3602 39.9447 33.3087 39.945 33.2293C40.0079 33.2181 40.0626 33.2011 40.1326 33.1886Z" fill="#B8D9ED"/>
<path d="M43.4546 32.5963C43.4891 32.5469 43.5425 32.5229 43.5947 32.492C43.6482 32.468 43.7004 32.437 43.7633 32.4258C43.8193 32.4158 43.8822 32.4046 43.9382 32.3946C44.0163 32.3879 44.0843 32.4047 44.151 32.4144C44.2246 32.4229 44.2983 32.4314 44.3605 32.4564C44.4284 32.4732 44.4919 32.5052 44.5623 32.5359C44.6245 32.5609 44.6937 32.5847 44.7628 32.6084C44.8333 32.6391 44.8847 32.6444 44.9337 32.6357C44.9954 32.6175 45.0336 32.589 45.0808 32.5301C45.1083 32.4819 45.1428 32.4324 45.176 32.376C45.2125 32.2973 45.2267 32.2154 45.2435 32.1475C45.2623 32.0503 45.2498 31.9804 45.1851 31.9414C45.1451 31.9196 45.0945 31.8782 45.0228 31.8404C44.9688 31.8212 44.9136 31.795 44.8445 31.7712C44.7893 31.745 44.7296 31.734 44.6617 31.7172C44.602 31.7062 44.541 31.6882 44.4743 31.6785C44.4077 31.6687 44.3492 31.6647 44.2768 31.6632C44.2183 31.6592 44.1517 31.6494 44.0875 31.6536C44.0233 31.6579 43.9616 31.6761 43.8904 31.6815C43.8344 31.6915 43.7703 31.6958 43.7016 31.7152C43.6456 31.7252 43.5782 31.7517 43.5165 31.7699C43.456 31.7951 43.3956 31.8203 43.3351 31.8455C43.2829 31.8765 43.225 31.9157 43.1728 31.9466C43.1218 31.9846 43.0626 32.0168 43.0129 32.0617C42.9702 32.1054 42.9204 32.1504 42.879 32.201C42.8362 32.2447 42.8043 32.3082 42.771 32.3646C42.7365 32.4141 42.7116 32.4762 42.6866 32.5384C42.6603 32.5936 42.6506 32.6603 42.6408 32.727C42.6298 32.7867 42.627 32.8521 42.6243 32.9176C42.6285 32.9817 42.6327 33.0459 42.644 33.1089C42.6564 33.1788 42.6759 33.2475 42.7011 33.308C42.7263 33.3684 42.7585 33.4276 42.8047 33.4843C42.8427 33.5353 42.8876 33.585 42.9453 33.6252C42.9972 33.6737 43.0537 33.7069 43.1171 33.7389C43.1723 33.7651 43.2357 33.7971 43.3049 33.8209C43.3658 33.8389 43.4293 33.8709 43.5042 33.8864C43.5709 33.8961 43.6363 33.8989 43.703 33.9086C43.7697 33.9184 43.8376 33.9352 43.9043 33.9449C43.9722 33.9617 44.0389 33.9714 44.1056 33.9812C44.1805 33.9967 44.2402 34.0077 44.3081 34.0244C44.3748 34.0342 44.4485 34.0427 44.5094 34.0607C44.5691 34.0717 44.6301 34.0897 44.691 34.1077C44.7577 34.1175 44.8116 34.1367 44.8668 34.163C44.9163 34.1974 44.9587 34.2332 44.9839 34.2936C44.9997 34.3413 45.0026 34.3985 44.9871 34.4734C44.9691 34.5344 44.9486 34.5813 44.9059 34.625C44.8702 34.6675 44.818 34.6984 44.7575 34.7236C44.7111 34.7464 44.6506 34.7716 44.5877 34.7828C44.533 34.7998 44.4758 34.8027 44.4046 34.8082C44.3417 34.8194 44.2705 34.8249 44.1968 34.8164C44.1301 34.8067 44.0667 34.7747 43.9975 34.7509C43.9366 34.7329 43.8616 34.7174 43.7995 34.6924C43.736 34.6604 43.6726 34.6285 43.6092 34.5965C43.5387 34.5657 43.481 34.5255 43.4271 34.5063C43.3484 34.4698 43.297 34.4645 43.2435 34.4885C43.1971 34.5112 43.1638 34.5676 43.1236 34.6253C43.0879 34.6678 43.0546 34.7242 43.0202 34.7736C42.9812 34.8383 42.9467 34.8878 42.9345 34.9405C42.9165 35.0014 42.9264 35.0574 42.9586 35.1166C42.9801 35.156 43.0238 35.1987 43.0815 35.239C43.1145 35.262 43.1824 35.2787 43.2623 35.3222C43.3092 35.3427 43.3612 35.3912 43.4304 35.4149C43.4843 35.4341 43.551 35.4439 43.6189 35.4607C43.6799 35.4787 43.7363 35.5119 43.803 35.5216C43.8639 35.5396 43.9294 35.5424 43.9948 35.5452C44.0615 35.5549 44.1257 35.5507 44.1899 35.5465C44.2553 35.5492 44.3182 35.538 44.3894 35.5325C44.4524 35.5213 44.5153 35.5101 44.5783 35.4989C44.64 35.4806 44.7029 35.4694 44.7646 35.4512C44.8263 35.433 44.888 35.4148 44.9484 35.3896C45.0089 35.3644 45.0598 35.3264 45.119 35.2942C45.1782 35.262 45.2399 35.2438 45.2909 35.2058C45.3419 35.1679 45.3916 35.1229 45.4413 35.078C45.484 35.0343 45.535 34.9963 45.5765 34.9456C45.6179 34.895 45.6582 34.8373 45.6844 34.7821C45.7176 34.7256 45.7426 34.6635 45.7606 34.6025C45.7786 34.5416 45.7896 34.4819 45.7994 34.4152C45.8021 34.3498 45.7909 34.2868 45.7854 34.2156C45.7742 34.1527 45.756 34.091 45.739 34.0363C45.7126 33.9689 45.7014 33.9059 45.6704 33.8537C45.6382 33.7945 45.6002 33.7435 45.5623 33.6926C45.5243 33.6416 45.4736 33.6001 45.423 33.5587C45.3793 33.5159 45.3356 33.4732 45.2791 33.44C45.2297 33.4055 45.1662 33.3735 45.1111 33.3473C45.0501 33.3293 44.9892 33.3113 44.9225 33.3015C44.8616 33.2835 44.8019 33.2725 44.7364 33.2698C44.6628 33.2613 44.5948 33.2445 44.5281 33.2347C44.4545 33.2262 44.3878 33.2165 44.3211 33.2067C44.2544 33.197 44.1807 33.1884 44.114 33.1787C44.0613 33.1664 43.9959 33.1637 43.9362 33.1527C43.8765 33.1417 43.8226 33.1224 43.7616 33.1044C43.702 33.0934 43.648 33.0742 43.5928 33.0479C43.5376 33.0217 43.4882 32.9872 43.4585 32.942C43.4218 32.898 43.3966 32.8376 43.3993 32.7721C43.4078 32.6985 43.4271 32.6445 43.4546 32.5963Z" fill="#B8D9ED"/>
<path d="M48.0782 31.7936C48.1411 31.7823 48.1983 31.7794 48.2543 31.7694C48.3172 31.7582 48.3719 31.7412 48.4279 31.7312C48.4966 31.7117 48.5525 31.7018 48.5945 31.6943C48.6689 31.6666 48.7071 31.6381 48.7371 31.6039C48.7659 31.5627 48.7794 31.517 48.7726 31.4388C48.7709 31.3886 48.7469 31.3352 48.7357 31.2722C48.722 31.1953 48.7178 31.1311 48.702 31.0834C48.6686 31.0172 48.6204 30.9897 48.5595 30.9717C48.5125 30.9512 48.4553 30.9542 48.3784 30.9679C48.3154 30.9791 48.2512 30.9834 48.1883 30.9946C48.1254 31.0058 48.0599 31.0031 47.997 31.0143C47.941 31.0242 47.8781 31.0355 47.8151 31.0467C47.7522 31.0579 47.6893 31.0691 47.6263 31.0804C47.5621 31.0846 47.5062 31.0946 47.4432 31.1058C47.3803 31.117 47.3173 31.1282 47.2544 31.1395C47.1915 31.1507 47.1285 31.1619 47.0656 31.1731C47.0026 31.1844 46.9492 31.2083 46.885 31.2125C46.822 31.2238 46.7566 31.221 46.6937 31.2322C46.6295 31.2365 46.569 31.2617 46.5061 31.2729C46.4431 31.2841 46.3777 31.2814 46.3147 31.2926C46.2518 31.3038 46.1889 31.315 46.1259 31.3262C46.063 31.3375 45.986 31.3512 45.9503 31.3936C45.9158 31.4431 45.8966 31.497 45.8926 31.5555C45.8816 31.6152 45.8858 31.6793 45.9015 31.7271C45.914 31.797 45.9182 31.8612 45.9364 31.9229C45.9547 31.9846 45.9799 32.045 46.0445 32.084C46.0927 32.1115 46.1557 32.1003 46.2199 32.096C46.2758 32.0861 46.3413 32.0888 46.3985 32.0858C46.4824 32.0709 46.5593 32.0572 46.6305 32.0517C46.7227 32.0425 46.8021 32.0427 46.8663 32.0385C46.9445 32.0318 47.0034 32.079 47.0241 32.1547C47.0328 32.2036 47.0498 32.2584 47.061 32.3213C47.0698 32.3702 47.0797 32.4262 47.0897 32.4821C47.0997 32.5381 47.1167 32.5928 47.1266 32.6488C47.1379 32.7117 47.1503 32.7816 47.1603 32.8376C47.1728 32.9075 47.177 32.9717 47.1882 33.0347C47.1994 33.0976 47.2119 33.1675 47.2219 33.2235C47.2344 33.2934 47.2526 33.3551 47.2638 33.4181C47.275 33.481 47.2793 33.5452 47.2905 33.6081C47.3017 33.6711 47.3059 33.7353 47.3254 33.804C47.3366 33.8669 47.3478 33.9298 47.3661 33.9915C47.3773 34.0545 47.3815 34.1187 47.401 34.1874C47.4109 34.2433 47.4164 34.3145 47.4276 34.3774C47.4389 34.4404 47.4501 34.5033 47.4626 34.5733C47.487 34.6699 47.5122 34.7304 47.5419 34.7756C47.5849 34.8545 47.6363 34.8598 47.7215 34.8518C47.7774 34.8418 47.8486 34.8364 47.9313 34.8144C48.0222 34.7982 48.0839 34.78 48.1304 34.7573C48.2188 34.7271 48.2558 34.6916 48.2655 34.6249C48.2708 34.5735 48.2513 34.5048 48.2364 34.4209C48.2239 34.3509 48.2209 34.2937 48.2052 34.246C48.1915 34.1691 48.1758 34.1214 48.167 34.0724C48.1558 34.0095 48.1681 33.9568 48.1498 33.8951C48.1411 33.8461 48.1324 33.7972 48.1187 33.7202C48.1099 33.6713 48.093 33.6166 48.0805 33.5466C48.0693 33.4837 48.065 33.4195 48.0468 33.3578C48.0356 33.2949 48.0104 33.2344 47.9979 33.1645C47.9867 33.1015 47.9685 33.0398 47.9573 32.9769C47.946 32.914 47.9266 32.8453 47.9153 32.7823C47.9041 32.7194 47.8929 32.6564 47.8804 32.5865C47.8692 32.5236 47.858 32.4606 47.8398 32.3989C47.8285 32.336 47.8301 32.2635 47.8188 32.2006C47.8076 32.1377 47.7894 32.076 47.7699 32.0073C47.755 31.9233 47.8137 31.8479 47.9046 31.8317C47.9675 31.8205 48.0222 31.8035 48.0782 31.7936Z" fill="#B8D9ED"/>
<path d="M50.3415 33.728C50.3093 33.6688 50.2714 33.6178 50.2277 33.5751C50.177 33.5336 50.1148 33.5086 50.0539 33.4906C49.9942 33.4796 49.9287 33.4769 49.8658 33.4881C49.7876 33.4948 49.7272 33.52 49.6667 33.5452C49.6087 33.5844 49.5508 33.6236 49.5106 33.6813C49.4691 33.732 49.4441 33.7942 49.4356 33.8679C49.4176 33.9288 49.4148 33.9943 49.4285 34.0712C49.434 34.1424 49.4605 34.2098 49.4844 34.2633C49.5179 34.3295 49.5571 34.3874 49.6065 34.4219C49.6585 34.4704 49.7207 34.4954 49.7956 34.5109C49.8553 34.5219 49.9207 34.5246 49.9976 34.5109C50.0688 34.5054 50.135 34.472 50.1872 34.441C50.2452 34.4018 50.2949 34.3569 50.3351 34.2992C50.3684 34.2428 50.4003 34.1793 50.4101 34.1127C50.4199 34.046 50.4144 33.9748 50.4019 33.9048C50.3907 33.8419 50.3725 33.7802 50.3415 33.728Z" fill="#B8D9ED"/>
<path d="M53.9196 32.823C53.9216 32.7938 53.9701 32.7419 54.0173 32.6829C54.06 32.6392 54.0945 32.5898 54.1372 32.5461C54.1857 32.4941 54.2214 32.4517 54.2571 32.4092C54.3068 32.3643 54.3566 32.3194 54.405 32.2674C54.4547 32.2225 54.5045 32.1775 54.5542 32.1326C54.6039 32.0876 54.6466 32.0439 54.6963 31.999C54.746 31.9541 54.804 31.9149 54.8537 31.8699C54.9034 31.825 54.9519 31.773 55.0016 31.7281C55.0443 31.6844 55.0845 31.6267 55.133 31.5748C55.1687 31.5323 55.2279 31.5001 55.2637 31.4577C55.3051 31.407 55.3231 31.346 55.3576 31.2966C55.3921 31.2471 55.4101 31.1862 55.4363 31.131C55.4638 31.0828 55.4901 31.0276 55.5163 30.9724C55.5343 30.9115 55.5536 30.8576 55.5716 30.7966C55.5826 30.7369 55.6018 30.683 55.6058 30.6245C55.6156 30.5579 55.6126 30.5007 55.6166 30.4422C55.6124 30.378 55.6234 30.3183 55.6122 30.2554C55.6022 30.1994 55.584 30.1377 55.5645 30.0691C55.5405 30.0156 55.5153 29.9551 55.4831 29.8959C55.4522 29.8437 55.4072 29.794 55.3693 29.7431C55.3313 29.6921 55.3049 29.6247 55.2612 29.5819C55.2162 29.5322 55.1655 29.4907 55.1148 29.4493C55.0654 29.4148 55.002 29.3828 54.9455 29.3496C54.8973 29.3221 54.8339 29.2901 54.773 29.2721C54.7178 29.2459 54.6568 29.2279 54.5889 29.2111C54.528 29.1931 54.4625 29.1903 54.3971 29.1876C54.3374 29.1766 54.2765 29.1586 54.211 29.1558C54.1456 29.1531 54.0801 29.1503 54.0159 29.1545C53.953 29.1657 53.8913 29.184 53.8214 29.1964C53.7514 29.2089 53.6803 29.2144 53.6046 29.2351C53.5371 29.2615 53.4804 29.3077 53.4142 29.3412C53.3398 29.3689 53.2698 29.3814 53.2037 29.4148C53.1572 29.4375 53.1087 29.4895 53.0533 29.5426C53.0105 29.5863 52.9691 29.637 52.9206 29.689C52.8791 29.7397 52.8294 29.7846 52.7962 29.841C52.7547 29.8917 52.738 29.9597 52.7047 30.0161C52.6645 30.0738 52.6148 30.1187 52.5885 30.1739C52.5508 30.2456 52.5341 30.3135 52.5275 30.358C52.5248 30.4234 52.5195 30.4749 52.548 30.5131C52.5777 30.5583 52.6201 30.594 52.6683 30.6215C52.7165 30.649 52.7775 30.667 52.8162 30.6818C52.8796 30.7137 52.9463 30.7235 53.006 30.7345C53.0739 30.7513 53.1431 30.775 53.1966 30.751C53.25 30.7271 53.2997 30.6821 53.3362 30.6035C53.3625 30.5483 53.3805 30.4873 53.4067 30.4321C53.4399 30.3757 53.4649 30.3135 53.4994 30.2641C53.5396 30.2064 53.5823 30.1627 53.6321 30.1178C53.6748 30.0741 53.7327 30.0349 53.7932 30.0096C53.8466 29.9857 53.9096 29.9745 53.9795 29.962C54.0495 29.9495 54.1161 29.9593 54.1841 29.976C54.2508 29.9858 54.3117 30.0038 54.3681 30.037C54.4316 30.069 54.488 30.1022 54.5399 30.1507C54.5906 30.1922 54.6426 30.2406 54.6735 30.2929C54.721 30.3566 54.7474 30.424 54.7574 30.48C54.7686 30.5429 54.7659 30.6083 54.7491 30.6763C54.7381 30.736 54.7131 30.7981 54.6741 30.8628C54.6466 30.911 54.6134 30.9675 54.5662 31.0264C54.5247 31.0771 54.4845 31.1348 54.436 31.1867C54.3876 31.2386 54.3366 31.2766 54.2881 31.3285C54.2384 31.3735 54.1817 31.4197 54.132 31.4646C54.0835 31.5165 54.0421 31.5672 53.9853 31.6134C53.9356 31.6584 53.8789 31.7046 53.828 31.7425C53.7712 31.7887 53.7228 31.8406 53.6731 31.8856C53.6234 31.9305 53.5806 31.9742 53.5322 32.0262C53.4837 32.0781 53.4422 32.1288 53.4007 32.1795C53.3605 32.2372 53.3121 32.2891 53.2788 32.3456C53.2456 32.402 53.2206 32.4642 53.1886 32.5276C53.1636 32.5898 53.1386 32.652 53.1219 32.7199C53.1039 32.7808 53.0871 32.8488 53.0774 32.9155C53.0676 32.9821 53.0426 33.0443 53.0411 33.1168C53.0371 33.1752 53.0343 33.2406 53.0455 33.3036C53.0568 33.3665 53.096 33.4245 53.1129 33.4792C53.1311 33.5409 53.1366 33.6121 53.1663 33.6573C53.1985 33.7165 53.2505 33.765 53.2999 33.7994C53.3494 33.8339 53.4161 33.8437 53.4802 33.8394C53.5432 33.8282 53.6036 33.803 53.6666 33.7918C53.7295 33.7806 53.7937 33.7763 53.8636 33.7639C53.9266 33.7526 53.9908 33.7484 54.0537 33.7372C54.1167 33.726 54.1796 33.7147 54.2426 33.7035C54.3125 33.691 54.3754 33.6798 54.4384 33.6686C54.5013 33.6574 54.5618 33.6322 54.6247 33.6209C54.6877 33.6097 54.7576 33.5973 54.8193 33.579C54.8822 33.5678 54.9489 33.5776 55.0119 33.5663C55.0748 33.5551 55.141 33.5217 55.2039 33.5104C55.2656 33.4922 55.3311 33.495 55.3928 33.4768C55.4557 33.4656 55.5174 33.4473 55.5874 33.4349C55.6503 33.4236 55.7145 33.4194 55.7762 33.4012C55.8391 33.39 55.9008 33.3718 55.9638 33.3605C56.0057 33.3531 56.0484 33.3094 56.0652 33.2414C56.0775 33.1887 56.0815 33.1303 56.0867 33.0788C56.0907 33.0204 56.0795 32.9574 56.072 32.9155C56.0608 32.8525 56.0426 32.7908 56.0059 32.7469C55.9679 32.6959 55.9115 32.6627 55.8506 32.6447C55.7966 32.6254 55.7369 32.6144 55.674 32.6257C55.611 32.6369 55.5456 32.6341 55.4757 32.6466C55.4127 32.6578 55.351 32.676 55.2823 32.6955C55.2194 32.7067 55.1577 32.7249 55.089 32.7444C55.0483 32.7589 54.9891 32.7911 54.9122 32.8048C54.8632 32.8135 54.8003 32.8247 54.7373 32.836C54.6744 32.8472 54.6159 32.8432 54.553 32.8544C54.49 32.8656 54.4366 32.8896 54.3736 32.9008C54.3107 32.912 54.251 32.901 54.1951 32.911C54.0971 32.9285 54.0342 32.9397 54.019 32.9352C53.9733 32.9217 53.9136 32.9107 53.9196 32.823Z" fill="#B8D9ED"/>
<path d="M59.6473 30.142C59.6278 30.0734 59.6154 30.0034 59.5947 29.9277C59.5752 29.859 59.5417 29.7929 59.521 29.7172C59.4946 29.6497 59.4681 29.5823 59.4417 29.5148C59.414 29.4404 59.3945 29.3717 59.361 29.3055C59.3346 29.2381 59.3011 29.1719 59.2689 29.1127C59.2355 29.0465 59.1893 28.9898 59.1501 28.9318C59.1109 28.8739 59.0647 28.8172 59.0198 28.7674C58.9678 28.719 58.9089 28.6717 58.8512 28.6315C58.7935 28.5913 58.7301 28.5593 58.6667 28.5273C58.6032 28.4953 58.534 28.4716 58.4661 28.4548C58.3982 28.4381 58.3245 28.4296 58.2508 28.4211C58.1854 28.4183 58.1155 28.4308 58.043 28.4293C57.9718 28.4347 57.8982 28.4262 57.8282 28.4387C57.75 28.4454 57.6826 28.4719 57.6069 28.4926C57.5382 28.512 57.4613 28.5258 57.3951 28.5592C57.3289 28.5927 57.2627 28.6261 57.1978 28.6666C57.1398 28.7058 57.0843 28.7589 57.0289 28.8121C56.9722 28.8583 56.9332 28.923 56.886 28.9819C56.8388 29.0409 56.782 29.0871 56.7431 29.1517C56.7041 29.2164 56.6803 29.2856 56.6496 29.356C56.6259 29.4252 56.6173 29.4989 56.6018 29.5738C56.5863 29.6487 56.5474 29.7134 56.5401 29.7941C56.5316 29.8678 56.5231 29.9414 56.5146 30.0151C56.513 30.0875 56.5198 30.1657 56.5182 30.2381C56.5167 30.3106 56.5235 30.3888 56.5289 30.4599C56.5287 30.5394 56.5411 30.6093 56.5478 30.6875C56.5533 30.7587 56.5378 30.8336 56.5515 30.9105C56.557 30.9817 56.5777 31.0574 56.5902 31.1273C56.6039 31.2043 56.6094 31.2754 56.6301 31.3511C56.6496 31.4198 56.6843 31.493 56.7107 31.5604C56.7302 31.6291 56.7579 31.7036 56.7843 31.771C56.8108 31.8385 56.8455 31.9116 56.872 31.9791C56.9054 32.0453 56.9389 32.1115 56.9723 32.1777C57.0058 32.2439 57.038 32.3031 57.0772 32.361C57.1176 32.426 57.1511 32.4922 57.196 32.5419C57.2422 32.5986 57.3126 32.6293 57.3646 32.6778C57.4235 32.725 57.4684 32.7747 57.5261 32.815C57.5908 32.8539 57.6587 32.8707 57.7222 32.9027C57.7856 32.9347 57.849 32.9667 57.917 32.9834C57.9861 33.0072 58.0598 33.0157 58.1335 33.0242C58.1989 33.0269 58.2701 33.0215 58.3413 33.016C58.4125 33.0105 58.4824 32.998 58.5511 32.9786C58.628 32.9649 58.7005 32.9664 58.7679 32.9399C58.8354 32.9135 58.9003 32.873 58.9595 32.8408C59.0257 32.8074 59.1014 32.7867 59.1593 32.7475C59.2161 32.7013 59.2728 32.6551 59.3295 32.6089C59.3849 32.5557 59.4169 32.4923 59.4641 32.4333C59.5044 32.3756 59.5598 32.3225 59.5988 32.2578C59.6308 32.1944 59.6475 32.1264 59.6713 32.0572C59.695 31.9881 59.734 31.9234 59.7495 31.8485C59.7593 31.7818 59.7665 31.7011 59.7681 31.6287C59.7708 31.5632 59.7584 31.4933 59.7586 31.4139C59.7614 31.3484 59.7699 31.2748 59.7714 31.2023C59.7659 31.1311 59.7465 31.0625 59.741 30.9913C59.7425 30.9188 59.7593 30.8509 59.7538 30.7797C59.7483 30.7085 59.7136 30.6353 59.7094 30.5712C59.6957 30.4942 59.6902 30.423 59.679 30.3601C59.6665 30.2902 59.661 30.219 59.6473 30.142ZM58.9258 30.7902C58.9313 30.8614 58.952 30.9371 58.9587 31.0153C58.9655 31.0935 58.9709 31.1647 58.9777 31.2428C58.9774 31.3223 58.9911 31.3992 58.9896 31.4716C58.9893 31.551 58.9598 31.6285 58.9583 31.7009C58.9485 31.7676 58.9458 31.833 58.915 31.9034C58.8901 31.9656 58.8486 32.0163 58.8001 32.0683C58.7599 32.1259 58.7197 32.1836 58.6605 32.2158C58.6025 32.255 58.5351 32.2815 58.4651 32.294C58.3812 32.3089 58.2935 32.3029 58.2161 32.2734C58.1317 32.2452 58.0518 32.2017 57.9916 32.1475C57.9162 32.0888 57.8605 32.0193 57.8143 31.9626C57.7669 31.8989 57.7404 31.8315 57.7012 31.7735C57.6608 31.7086 57.6076 31.6531 57.5811 31.5856C57.5477 31.5195 57.534 31.4425 57.5075 31.3751C57.488 31.3064 57.4534 31.2332 57.4339 31.1645C57.4144 31.0958 57.4077 31.0176 57.3952 30.9477C57.3745 30.872 57.3608 30.7951 57.3471 30.7182C57.3346 30.6482 57.3139 30.5725 57.3002 30.4956C57.2947 30.4244 57.281 30.3475 57.2813 30.2681C57.2745 30.1899 57.297 30.1137 57.3056 30.04C57.3071 29.9676 57.3073 29.8882 57.3146 29.8075C57.3314 29.7396 57.3716 29.6819 57.3966 29.6197C57.4286 29.5563 57.4618 29.4998 57.5033 29.4491C57.553 29.4042 57.5932 29.3465 57.6594 29.3131C57.7116 29.2821 57.7828 29.2766 57.8597 29.2629C57.9354 29.2422 58.0123 29.2285 58.0778 29.2313C58.1585 29.2385 58.2231 29.2775 58.2866 29.3095C58.35 29.3415 58.4089 29.3887 58.4621 29.4442C58.5071 29.4939 58.5672 29.5481 58.6007 29.6143C58.6341 29.6805 58.6524 29.7422 58.6776 29.8026C58.7098 29.8618 58.7477 29.9128 58.7742 29.9802C58.7911 30.0349 58.7966 30.1061 58.8091 30.176C58.8261 30.2308 58.8665 30.2957 58.879 30.3656C58.889 30.4216 58.9014 30.4915 58.9139 30.5615C58.9264 30.6314 58.9109 30.7063 58.9258 30.7902Z" fill="#B8D9ED"/>
<path d="M61.6031 31.453C61.6051 31.4238 61.6536 31.3719 61.7008 31.3129C61.7435 31.2692 61.778 31.2198 61.8207 31.1761C61.8692 31.1241 61.9049 31.0817 61.9406 31.0392C61.9904 30.9943 62.0401 30.9494 62.0885 30.8974C62.1382 30.8525 62.188 30.8075 62.2377 30.7626C62.2874 30.7176 62.3301 30.6739 62.3798 30.629C62.4295 30.5841 62.4875 30.5449 62.5372 30.4999C62.5869 30.455 62.6354 30.403 62.6851 30.3581C62.7278 30.3144 62.7681 30.2567 62.8165 30.2048C62.8523 30.1623 62.9115 30.1301 62.9472 30.0877C62.9887 30.037 63.0067 29.976 63.0411 29.9266C63.0756 29.8771 63.0936 29.8162 63.1199 29.761C63.1473 29.7128 63.1736 29.6576 63.1998 29.6024C63.2178 29.5415 63.2371 29.4875 63.2551 29.4266C63.2661 29.3669 63.2853 29.313 63.2893 29.2545C63.2991 29.1878 63.2961 29.1307 63.3001 29.0722C63.2959 29.008 63.3069 28.9483 63.2957 28.8854C63.2857 28.8294 63.2675 28.7677 63.248 28.699C63.224 28.6456 63.1988 28.5851 63.1666 28.5259C63.1357 28.4737 63.0907 28.424 63.0528 28.3731C63.0148 28.3221 62.9884 28.2547 62.9447 28.2119C62.8997 28.1622 62.849 28.1207 62.7983 28.0793C62.7489 28.0448 62.6855 28.0128 62.629 27.9796C62.5808 27.9521 62.5174 27.9201 62.4565 27.9021C62.4013 27.8759 62.3403 27.8579 62.2724 27.8411C62.2115 27.8231 62.146 27.8203 62.0806 27.8176C62.0209 27.8066 61.96 27.7886 61.8945 27.7858C61.8291 27.783 61.7636 27.7803 61.6995 27.7845C61.6365 27.7957 61.5748 27.814 61.5049 27.8264C61.4349 27.8389 61.3638 27.8444 61.2881 27.8651C61.2206 27.8915 61.1639 27.9377 61.0977 27.9712C61.0233 27.9989 60.9534 28.0114 60.8872 28.0448C60.8407 28.0675 60.7922 28.1195 60.7368 28.1726C60.694 28.2163 60.6526 28.267 60.6041 28.319C60.5626 28.3697 60.5129 28.4146 60.4797 28.471C60.4382 28.5217 60.4215 28.5897 60.3882 28.6461C60.348 28.7038 60.2983 28.7487 60.272 28.8039C60.2343 28.8756 60.2176 28.9435 60.2111 28.988C60.2083 29.0534 60.203 29.1049 60.2315 29.1431C60.2612 29.1883 60.3037 29.224 60.3519 29.2515C60.4001 29.279 60.461 29.297 60.4997 29.3118C60.5631 29.3437 60.6298 29.3535 60.6895 29.3645C60.7574 29.3813 60.8266 29.405 60.8801 29.381C60.9335 29.3571 60.9832 29.3121 61.0197 29.2335C61.046 29.1783 61.064 29.1173 61.0902 29.0621C61.1234 29.0057 61.1484 28.9435 61.1829 28.8941C61.2231 28.8364 61.2659 28.7927 61.3156 28.7478C61.3583 28.7041 61.4162 28.6649 61.4767 28.6396C61.5302 28.6157 61.5931 28.6045 61.663 28.592C61.733 28.5795 61.7997 28.5893 61.8676 28.606C61.9343 28.6158 61.9952 28.6338 62.0516 28.667C62.1151 28.699 62.1715 28.7322 62.2235 28.7807C62.2741 28.8222 62.3261 28.8706 62.357 28.9229C62.4045 28.9866 62.4309 29.054 62.4409 29.1099C62.4521 29.1729 62.4494 29.2383 62.4326 29.3063C62.4216 29.366 62.3966 29.4281 62.3576 29.4928C62.3302 29.541 62.2969 29.5975 62.2497 29.6564C62.2082 29.7071 62.168 29.7648 62.1195 29.8167C62.0711 29.8686 62.0201 29.9066 61.9716 29.9585C61.9219 30.0035 61.8652 30.0497 61.8155 30.0946C61.767 30.1465 61.7256 30.1972 61.6689 30.2434C61.6191 30.2884 61.5624 30.3346 61.5115 30.3725C61.4548 30.4187 61.4063 30.4706 61.3566 30.5156C61.3069 30.5605 61.2641 30.6042 61.2157 30.6562C61.1672 30.7081 61.1257 30.7588 61.0843 30.8095C61.044 30.8672 60.9956 30.9191 60.9623 30.9756C60.9291 31.032 60.9041 31.0942 60.8721 31.1576C60.8471 31.2198 60.8221 31.282 60.8054 31.3499C60.7874 31.4108 60.7706 31.4788 60.7609 31.5455C60.7511 31.6121 60.7261 31.6743 60.7246 31.7468C60.7206 31.8052 60.7178 31.8706 60.7291 31.9336C60.7403 31.9965 60.7795 32.0545 60.7964 32.1092C60.8147 32.1709 60.8201 32.2421 60.8498 32.2873C60.8821 32.3465 60.934 32.3949 60.9834 32.4294C61.0329 32.4639 61.0996 32.4737 61.1638 32.4694C61.2267 32.4582 61.2871 32.433 61.3501 32.4218C61.413 32.4106 61.4772 32.4063 61.5472 32.3939C61.6101 32.3826 61.6743 32.3784 61.7372 32.3672C61.8002 32.356 61.8631 32.3447 61.9261 32.3335C61.996 32.321 62.0589 32.3098 62.1219 32.2986C62.1848 32.2874 62.2453 32.2622 62.3082 32.2509C62.3712 32.2397 62.4411 32.2272 62.5028 32.209C62.5657 32.1978 62.6324 32.2076 62.6954 32.1963C62.7583 32.1851 62.8245 32.1517 62.8875 32.1404C62.9492 32.1222 63.0146 32.125 63.0763 32.1068C63.1392 32.0956 63.2009 32.0773 63.2709 32.0649C63.3338 32.0536 63.398 32.0494 63.4597 32.0312C63.5226 32.02 63.5843 32.0018 63.6473 31.9905C63.6892 31.9831 63.732 31.9394 63.7487 31.8714C63.761 31.8187 63.765 31.7603 63.7702 31.7088C63.7742 31.6504 63.763 31.5874 63.7555 31.5455C63.7443 31.4825 63.7261 31.4208 63.6894 31.3769C63.6514 31.3259 63.595 31.2927 63.5341 31.2747C63.4801 31.2554 63.4204 31.2444 63.3575 31.2557C63.2945 31.2669 63.2291 31.2641 63.1592 31.2766C63.0962 31.2878 63.0345 31.306 62.9658 31.3255C62.9029 31.3367 62.8412 31.3549 62.7725 31.3744C62.7318 31.3889 62.6726 31.4211 62.5957 31.4348C62.5467 31.4435 62.4838 31.4547 62.4208 31.466C62.3579 31.4772 62.2994 31.4732 62.2365 31.4844C62.1735 31.4956 62.1201 31.5196 62.0571 31.5308C61.9942 31.542 61.9345 31.531 61.8786 31.541C61.7807 31.5585 61.7177 31.5697 61.7025 31.5652C61.6568 31.5517 61.5971 31.5407 61.6031 31.453Z" fill="#B8D9ED"/>
<path d="M67.3308 28.772C67.3114 28.7034 67.2989 28.6334 67.2782 28.5577C67.2587 28.489 67.2253 28.4228 67.2045 28.3472C67.1781 28.2797 67.1516 28.2123 67.1252 28.1448C67.0975 28.0704 67.078 28.0017 67.0446 27.9355C67.0181 27.8681 66.9846 27.8019 66.9524 27.7427C66.919 27.6765 66.8728 27.6198 66.8336 27.5618C66.7944 27.5039 66.7482 27.4471 66.7033 27.3974C66.6513 27.349 66.5924 27.3017 66.5347 27.2615C66.477 27.2213 66.4136 27.1893 66.3502 27.1573C66.2867 27.1253 66.2176 27.1016 66.1496 27.0848C66.0817 27.0681 66.008 27.0596 65.9343 27.0511C65.8689 27.0483 65.799 27.0608 65.7265 27.0593C65.6553 27.0647 65.5817 27.0562 65.5117 27.0687C65.4336 27.0754 65.3661 27.1019 65.2904 27.1226C65.2217 27.142 65.1448 27.1558 65.0786 27.1892C65.0124 27.2227 64.9462 27.2561 64.8813 27.2966C64.8233 27.3358 64.7679 27.3889 64.7124 27.4421C64.6557 27.4883 64.6167 27.553 64.5695 27.6119C64.5223 27.6709 64.4656 27.7171 64.4266 27.7817C64.3876 27.8464 64.3638 27.9156 64.3331 27.986C64.3094 28.0552 64.3009 28.1289 64.2853 28.2038C64.2698 28.2787 64.2309 28.3434 64.2236 28.4241C64.2151 28.4977 64.2066 28.5714 64.1981 28.6451C64.1965 28.7175 64.2033 28.7957 64.2018 28.8681C64.2002 28.9406 64.207 29.0188 64.2124 29.0899C64.2122 29.1694 64.2246 29.2393 64.2314 29.3175C64.2368 29.3887 64.2213 29.4636 64.235 29.5405C64.2405 29.6117 64.2612 29.6874 64.2737 29.7573C64.2874 29.8343 64.2929 29.9054 64.3136 29.9811C64.3331 30.0498 64.3678 30.123 64.3942 30.1904C64.4137 30.2591 64.4414 30.3336 64.4679 30.401C64.4943 30.4685 64.529 30.5416 64.5555 30.6091C64.5889 30.6753 64.6224 30.7415 64.6558 30.8077C64.6893 30.8739 64.7215 30.9331 64.7607 30.991C64.8011 31.056 64.8346 31.1222 64.8795 31.1719C64.9257 31.2286 64.9961 31.2593 65.0481 31.3078C65.107 31.355 65.1519 31.4047 65.2096 31.445C65.2743 31.4839 65.3422 31.5007 65.4057 31.5327C65.4691 31.5647 65.5325 31.5967 65.6005 31.6134C65.6696 31.6372 65.7433 31.6457 65.817 31.6542C65.8824 31.6569 65.9536 31.6515 66.0248 31.646C66.096 31.6405 66.1659 31.628 66.2346 31.6086C66.3116 31.5949 66.384 31.5964 66.4514 31.5699C66.5189 31.5435 66.5838 31.503 66.643 31.4708C66.7092 31.4374 66.7849 31.4167 66.8429 31.3775C66.8996 31.3313 66.9563 31.2851 67.013 31.2389C67.0684 31.1857 67.1004 31.1223 67.1476 31.0633C67.1879 31.0056 67.2433 30.9525 67.2823 30.8878C67.3143 30.8243 67.3311 30.7564 67.3548 30.6872C67.3785 30.6181 67.4175 30.5534 67.433 30.4785C67.4428 30.4118 67.4501 30.3311 67.4516 30.2587C67.4543 30.1932 67.4419 30.1233 67.4421 30.0439C67.4449 29.9784 67.4534 29.9048 67.4549 29.8323C67.4494 29.7611 67.43 29.6925 67.4245 29.6213C67.426 29.5488 67.4428 29.4809 67.4373 29.4097C67.4318 29.3385 67.3971 29.2653 67.3929 29.2012C67.3792 29.1242 67.3737 29.053 67.3625 28.9901C67.35 28.9202 67.3445 28.849 67.3308 28.772ZM66.6093 29.4202C66.6148 29.4914 66.6355 29.5671 66.6422 29.6453C66.649 29.7235 66.6544 29.7947 66.6612 29.8728C66.6609 29.9523 66.6746 30.0292 66.6731 30.1016C66.6728 30.181 66.6433 30.2585 66.6418 30.3309C66.6321 30.3976 66.6293 30.463 66.5986 30.5334C66.5736 30.5956 66.5321 30.6463 66.4836 30.6983C66.4434 30.7559 66.4032 30.8136 66.344 30.8458C66.286 30.885 66.2186 30.9115 66.1486 30.924C66.0647 30.9389 65.977 30.9329 65.8996 30.9034C65.8152 30.8752 65.7353 30.8317 65.6751 30.7775C65.5997 30.7188 65.544 30.6493 65.4978 30.5926C65.4504 30.5289 65.4239 30.4615 65.3847 30.4035C65.3443 30.3385 65.2911 30.2831 65.2646 30.2156C65.2312 30.1494 65.2175 30.0725 65.191 30.0051C65.1716 29.9364 65.1369 29.8632 65.1174 29.7945C65.0979 29.7258 65.0912 29.6476 65.0787 29.5777C65.058 29.502 65.0443 29.4251 65.0306 29.3482C65.0181 29.2782 64.9974 29.2025 64.9837 29.1256C64.9782 29.0544 64.9645 28.9775 64.9648 28.8981C64.958 28.8199 64.9805 28.7437 64.9891 28.67C64.9906 28.5976 64.9908 28.5182 64.9981 28.4375C65.0149 28.3696 65.0551 28.3119 65.0801 28.2497C65.1121 28.1863 65.1453 28.1298 65.1868 28.0791C65.2365 28.0342 65.2767 27.9765 65.3429 27.9431C65.3951 27.9121 65.4663 27.9066 65.5432 27.8929C65.6189 27.8722 65.6959 27.8585 65.7613 27.8613C65.842 27.8685 65.9066 27.9075 65.9701 27.9395C66.0335 27.9715 66.0924 28.0187 66.1456 28.0742C66.1906 28.1239 66.2507 28.1781 66.2842 28.2443C66.3176 28.3105 66.3359 28.3722 66.3611 28.4326C66.3933 28.4918 66.4312 28.5428 66.4577 28.6102C66.4747 28.6649 66.4801 28.7361 66.4926 28.806C66.5096 28.8607 66.55 28.9257 66.5625 28.9956C66.5725 29.0516 66.5849 29.1215 66.5974 29.1915C66.6099 29.2614 66.5944 29.3363 66.6093 29.4202Z" fill="#B8D9ED"/>
</g>
<defs>
<clipPath id="clip0">
<rect width="99.2524" height="49.6262" fill="white" transform="translate(0 17.4224) rotate(-10.1098)"/>
</clipPath>
</defs>
</svg>
