<svg width="110" height="61" viewBox="0 0 110 61" fill="none" xmlns="http://www.w3.org/2000/svg">
<path d="M105.498 22.0838C105.986 25.0599 105.059 28.1406 102.93 31.1724C100.8 34.2053 97.4752 37.1769 93.1982 39.9207C84.645 45.4077 72.3175 49.9612 58.2436 52.2701C44.1697 54.5789 31.0336 54.2028 21.1755 51.7362C16.246 50.5028 12.1462 48.7492 9.15908 46.5557C6.17295 44.3631 4.3098 41.7401 3.82158 38.7641C3.33335 35.788 4.26079 32.7073 6.38982 29.6755C8.51961 26.6426 11.8442 23.671 16.1212 20.9273C24.6745 15.4402 37.0019 10.8867 51.0758 8.57786C65.1497 6.269 78.2858 6.64509 88.1439 9.11173C93.0734 10.3451 97.1732 12.0988 100.16 14.2922C103.146 16.4848 105.01 19.1078 105.498 22.0838Z" stroke="#E9E7CF" stroke-width="0.413797"/>
<path d="M42.7915 22.7074C42.7712 22.5841 42.751 22.4609 42.6803 22.3804C42.6077 22.2888 42.5089 22.2475 42.3614 22.2602C42.283 22.273 42.1821 22.2896 42.0813 22.3061C41.9917 22.3208 41.889 22.3262 41.7881 22.3427C41.6873 22.3592 41.5865 22.3758 41.4856 22.3923C41.396 22.407 41.2896 22.39 41.1888 22.4065C41.0991 22.4212 40.9965 22.4265 40.8956 22.4431C40.806 22.4578 40.7088 22.4967 40.608 22.5133C40.5071 22.5298 40.4212 22.5669 40.3203 22.5835C40.2195 22.6 40.1262 22.5923 40.0366 22.607C39.9245 22.6254 39.8273 22.6644 39.7489 22.6772C39.6611 22.7031 39.6345 22.8916 39.6398 22.9943C39.647 23.1082 39.684 23.2632 39.7958 23.3139C39.8853 23.3682 40.0478 23.3071 40.1729 23.298C40.2402 23.287 40.3428 23.2817 40.4773 23.2596C40.5781 23.2431 40.6771 23.2153 40.7892 23.1969C40.89 23.1804 40.9964 23.1975 41.1084 23.1791C41.2093 23.1625 41.3119 23.1572 41.4128 23.1407C41.5248 23.1223 41.6238 23.0945 41.7247 23.078C41.8479 23.0578 41.9581 23.0282 42.0253 23.0172C42.027 23.0974 42.0211 23.2019 42.0171 23.3177C42.0076 23.3998 42.0017 23.5043 41.9846 23.6106C41.9769 23.704 41.958 23.7991 41.9297 23.9073C41.9108 24.0024 41.905 24.107 41.8861 24.2021C41.8541 24.2879 41.8128 24.3867 41.7715 24.4855C41.7395 24.5713 41.7094 24.6683 41.6663 24.7559C41.6119 24.8454 41.5427 24.9143 41.4883 25.0038C41.4321 25.082 41.3777 25.1715 41.3085 25.2404C41.2393 25.3092 41.157 25.3688 41.0747 25.4283C41.0036 25.486 40.9213 25.5455 40.826 25.5957C40.7419 25.644 40.6596 25.7035 40.5624 25.7425C40.4746 25.7684 40.3756 25.7961 40.2748 25.8127C40.174 25.8292 40.0694 25.8233 39.9761 25.8156C39.8734 25.821 39.7708 25.8263 39.6756 25.8074C39.5693 25.7903 39.4835 25.7584 39.3865 25.7283C39.2877 25.6869 39.2019 25.655 39.1124 25.6006C39.0248 25.5575 38.9465 25.5013 38.8571 25.4469C38.7788 25.3907 38.7193 25.3084 38.6392 25.241C38.5703 25.1718 38.4827 25.1286 38.412 25.0482C38.3543 24.9771 38.2836 24.8967 38.2259 24.8256C38.1664 24.7433 38.1386 24.6443 38.0903 24.5602C38.0308 24.4779 37.9712 24.3956 37.9229 24.3115C37.8728 24.2162 37.8245 24.132 37.7873 24.0461C37.7372 23.9508 37.7206 23.8499 37.6947 23.7621C37.6558 23.665 37.6075 23.5808 37.5797 23.4818C37.5632 23.381 37.5373 23.2932 37.5207 23.1924C37.5042 23.0915 37.51 22.987 37.4935 22.8862C37.4882 22.7835 37.4716 22.6826 37.4663 22.58C37.4609 22.4773 37.4556 22.3746 37.4503 22.2719C37.4561 22.1674 37.4862 22.0704 37.4921 21.9659C37.498 21.8614 37.4814 21.7605 37.5003 21.6654C37.5174 21.559 37.5475 21.4621 37.5776 21.3651C37.6059 21.2569 37.6491 21.1693 37.6922 21.0816C37.7335 20.9828 37.7524 20.8877 37.8068 20.7982C37.85 20.7106 37.9174 20.6305 37.9848 20.5504C38.041 20.4721 38.1084 20.392 38.1888 20.3213C38.258 20.2524 38.3385 20.1817 38.4208 20.1222C38.5049 20.0739 38.5984 20.0125 38.6955 19.9735C38.7815 19.9364 38.8954 19.9292 38.9944 19.9015C39.0822 19.8756 39.1757 19.8142 39.2877 19.7958C39.3998 19.7775 39.5043 19.7833 39.607 19.778C39.7208 19.7708 39.8329 19.7524 39.9374 19.7583C40.055 19.7735 40.1444 19.8279 40.2414 19.858C40.3608 19.8844 40.4653 19.8903 40.5642 19.9316C40.6648 19.9841 40.7561 20.0497 40.8344 20.1059C40.9369 20.1696 41.0282 20.2352 41.0952 20.2932C41.2181 20.4111 41.2907 20.5028 41.328 20.5197C41.4305 20.5834 41.5144 20.6042 41.5929 20.5913C41.6601 20.5803 41.7442 20.532 41.821 20.4388C41.8865 20.3475 41.8961 20.2654 41.9075 20.1945C41.9152 20.1012 41.9153 20.0321 41.8334 19.9535C41.7757 19.8824 41.6975 19.8262 41.6174 19.7588C41.5485 19.6896 41.489 19.6073 41.4107 19.5511C41.3437 19.4931 41.2542 19.4387 41.1647 19.3844C41.0883 19.3394 41.0007 19.2962 40.9019 19.2549C40.8161 19.2229 40.7285 19.1798 40.6333 19.1609C40.5363 19.1308 40.4412 19.1119 40.3479 19.1042C40.2527 19.0852 40.1539 19.0439 40.0494 19.0381C39.9561 19.0304 39.8589 19.0693 39.7562 19.0747C39.6647 19.0782 39.5602 19.0723 39.4594 19.0888C39.3679 19.0923 39.2728 19.0734 39.1719 19.09C39.0599 19.1083 38.9646 19.1585 38.8768 19.1844C38.7778 19.2122 38.6769 19.2287 38.5779 19.2565C38.4807 19.2954 38.3817 19.3232 38.2958 19.3603C38.2005 19.4104 38.1051 19.4606 38.0228 19.5201C37.9387 19.5684 37.8713 19.6485 37.789 19.708C37.7068 19.7676 37.6114 19.8177 37.5422 19.8866C37.4748 19.9667 37.4074 20.0468 37.3512 20.125C37.2838 20.2051 37.2537 20.3021 37.1993 20.3916C37.145 20.481 37.1018 20.5687 37.0605 20.6675C37.0173 20.7551 36.963 20.8446 36.9329 20.9416C36.9027 21.0386 36.8726 21.1355 36.8556 21.2419C36.8254 21.3389 36.8065 21.434 36.7895 21.5404C36.7818 21.6337 36.7759 21.7382 36.77 21.8427C36.7642 21.9473 36.7453 22.0424 36.7394 22.1469C36.7335 22.2514 36.7165 22.3578 36.7218 22.4605C36.7253 22.5519 36.7437 22.664 36.7602 22.7648C36.7656 22.8675 36.7933 22.9665 36.7986 23.0692C36.8152 23.17 36.8317 23.2709 36.8483 23.3717C36.8648 23.4725 36.8926 23.5716 36.9091 23.6724C36.9369 23.7714 36.9198 23.8777 36.9494 23.988C36.9771 24.087 37.0366 24.1692 37.0756 24.2664C37.1145 24.3636 37.1217 24.4775 37.1588 24.5634C37.209 24.6587 37.2591 24.7541 37.3093 24.8494C37.3464 24.9353 37.3966 25.0307 37.4467 25.126C37.5063 25.2083 37.577 25.2887 37.6365 25.371C37.696 25.4533 37.7668 25.5337 37.8263 25.616C37.897 25.6965 37.9677 25.7769 38.0366 25.8462C38.1167 25.9136 38.2062 25.9679 38.2975 26.0335C38.3757 26.0897 38.4558 26.1571 38.5546 26.1984C38.6441 26.2528 38.7317 26.2959 38.8306 26.3372C38.9294 26.3786 39.0339 26.3844 39.1421 26.4127C39.2391 26.4428 39.3361 26.4729 39.4424 26.49C39.5357 26.4977 39.6478 26.4793 39.7523 26.4852C39.855 26.4798 39.9632 26.5081 40.0658 26.5028C40.1685 26.4974 40.2694 26.4809 40.3814 26.4625C40.4822 26.446 40.5776 26.3958 40.6766 26.3681C40.7756 26.3403 40.8895 26.3331 40.9773 26.3072C41.0856 26.2664 41.1828 26.2275 41.2669 26.1792C41.3622 26.129 41.4296 26.0489 41.525 25.9988C41.6073 25.9392 41.7026 25.8891 41.783 25.8184C41.8541 25.7607 41.9458 25.6881 42.015 25.6192C42.0824 25.5391 42.1237 25.4403 42.1781 25.3508C42.2455 25.2707 42.3259 25.2 42.3803 25.1106C42.4346 25.0211 42.4517 24.9147 42.493 24.8159C42.5362 24.7283 42.5775 24.6295 42.6188 24.5306C42.6489 24.4336 42.679 24.3367 42.698 24.2415C42.7262 24.1333 42.7675 24.0345 42.7865 23.9393C42.8035 23.833 42.7982 23.7303 42.8153 23.624C42.8211 23.5194 42.8512 23.4224 42.8459 23.3198C42.8518 23.2153 42.8576 23.1107 42.8523 23.0081C42.8469 22.9054 42.808 22.8082 42.7915 22.7074ZM49.7406 24.5129C49.7238 24.4811 49.6625 24.3876 49.5826 24.2512C49.5473 24.1764 49.5083 24.0792 49.4451 23.9746C49.3987 23.9016 49.3167 23.823 49.2666 23.7277C49.2183 23.6436 49.1681 23.5483 49.1067 23.4548C49.0584 23.3707 49.0307 23.2716 48.9805 23.1763C48.921 23.094 48.8615 23.0118 48.8001 22.9183C48.7518 22.8341 48.6923 22.7519 48.6309 22.6584C48.5826 22.5743 48.5418 22.4659 48.4935 22.3818C48.4433 22.2864 48.3726 22.206 48.3131 22.1237C48.2629 22.0284 48.2034 21.9461 48.1532 21.8508C48.1049 21.7667 48.066 21.6695 48.0158 21.5742C47.9675 21.49 47.9061 21.3966 47.8578 21.3124C47.8076 21.2171 47.7481 21.1348 47.6868 21.0413C47.6384 20.9572 47.6107 20.8582 47.5493 20.7647C47.501 20.6806 47.4191 20.602 47.3708 20.5179C47.3206 20.4225 47.2817 20.3254 47.2221 20.2431C47.172 20.1478 47.1442 20.0488 47.0847 19.9665C47.0346 19.8712 46.9657 19.8019 46.9173 19.7178C46.856 19.6243 46.817 19.5271 46.7687 19.443C46.7074 19.3495 46.659 19.2654 46.6107 19.1813C46.5494 19.0878 46.4898 19.0055 46.4303 18.9232C46.3783 18.8167 46.3188 18.7344 46.2723 18.6615C46.1961 18.5475 46.1795 18.4466 46.1349 18.3849C46.0419 18.2391 45.9543 18.1959 45.8909 18.1603C45.8051 18.1283 45.7286 18.1524 45.5717 18.1781C45.4839 18.204 45.4279 18.2132 45.3546 18.3978C45.3208 18.4724 45.2552 18.5637 45.2231 18.7186C45.2005 18.7913 45.2059 18.894 45.1794 19.0134C45.1605 19.1085 45.1286 19.1943 45.1021 19.3137C45.0814 19.3977 45.0755 19.5022 45.0585 19.6085C45.0396 19.7037 45.0094 19.8007 44.9924 19.907C44.9735 20.0022 44.9564 20.1085 44.9375 20.2037C44.9186 20.2988 44.8885 20.3958 44.8714 20.5022C44.8525 20.5973 44.8709 20.7094 44.852 20.8045C44.8218 20.9015 44.7805 21.0003 44.7616 21.0955C44.7445 21.2018 44.7499 21.3045 44.7198 21.4015C44.7027 21.5079 44.6707 21.5937 44.6425 21.7018C44.6236 21.797 44.6177 21.9015 44.5988 21.9967C44.5817 22.103 44.5628 22.1982 44.5457 22.3045C44.5268 22.3997 44.5079 22.4948 44.4909 22.6012C44.4719 22.6963 44.4549 22.8027 44.436 22.8978C44.4171 22.993 44.3645 23.0936 44.3456 23.1888C44.3267 23.2839 44.3451 23.396 44.3262 23.4911C44.3091 23.5975 44.2902 23.6926 44.2713 23.7878C44.2542 23.8942 44.1999 23.9836 44.181 24.0788C44.1639 24.1851 44.1804 24.286 44.1615 24.3811C44.1445 24.4875 44.1143 24.5844 44.0954 24.6796C44.0784 24.786 44.0483 24.8829 44.0293 24.9781C44.0123 25.0844 43.9952 25.1908 43.9857 25.2729C43.946 25.452 43.9513 25.5547 43.9532 25.5659C43.951 25.6928 43.9995 25.7079 44.1022 25.7025C44.1694 25.6915 44.246 25.6674 44.3356 25.6527C44.4831 25.64 44.5803 25.6011 44.646 25.4407C44.6611 25.3922 44.6875 25.2728 44.7121 25.1422C44.731 25.0471 44.7723 24.9482 44.7876 24.8307C44.8177 24.7337 44.8236 24.6292 44.8406 24.5228C44.8689 24.4146 44.8748 24.3101 44.8937 24.215C44.9276 24.0713 44.9429 23.9538 44.9561 23.8941C45.0121 23.8849 45.1278 23.8889 45.2641 23.8781C45.3538 23.8633 45.4509 23.8244 45.5536 23.8191C45.6544 23.8025 45.7516 23.7636 45.8524 23.747C45.9421 23.7323 46.0484 23.7494 46.1493 23.7328C46.2501 23.7163 46.3491 23.6886 46.45 23.672C46.5414 23.6685 46.6404 23.6408 46.7413 23.6242C46.844 23.6189 46.9448 23.6023 47.0344 23.5876C47.1465 23.5692 47.2343 23.5433 47.3351 23.5268C47.436 23.5103 47.5386 23.5049 47.6283 23.4902C47.7403 23.4718 47.8393 23.4441 47.9177 23.4312C48.097 23.4018 48.0766 23.3476 48.2146 23.417C48.3525 23.4865 48.2871 23.5087 48.3819 23.6657C48.4303 23.7498 48.4692 23.847 48.5194 23.9423C48.5789 24.0246 48.629 24.1199 48.6886 24.2022C48.7387 24.2976 48.8095 24.378 48.8559 24.4509C48.934 24.5762 48.9842 24.6715 49.0046 24.7257C49.0584 24.8434 49.0975 24.8715 49.189 24.868C49.2581 24.8682 49.344 24.8311 49.4561 24.8127C49.5793 24.7925 49.6708 24.789 49.7213 24.7462C49.8054 24.6979 49.8056 24.6288 49.7406 24.5129ZM47.5421 22.8945C47.4524 22.9092 47.3479 22.9034 47.234 22.9105C47.1332 22.9271 47.0342 22.9548 46.9203 22.962C46.8195 22.9786 46.7223 23.0175 46.6214 23.0341C46.5206 23.0506 46.4198 23.0671 46.3171 23.0725C46.205 23.0909 46.1005 23.085 45.9997 23.1015C45.8988 23.1181 45.798 23.1346 45.6972 23.1512C45.5851 23.1695 45.4843 23.1861 45.3946 23.2008C45.2584 23.2117 45.1481 23.2412 45.0809 23.2523C45.0941 23.1926 45.1075 23.0638 45.1321 22.9332C45.1529 22.8493 45.1812 22.7411 45.2094 22.6329C45.2283 22.5377 45.2212 22.4238 45.2382 22.3175C45.2571 22.2223 45.3209 22.1198 45.3379 22.0135C45.3568 21.9183 45.3497 21.8044 45.3667 21.6981C45.3856 21.6029 45.4158 21.5059 45.4328 21.3996C45.4499 21.2932 45.467 21.1869 45.4859 21.0917C45.5029 20.9854 45.52 20.879 45.5389 20.7839C45.556 20.6775 45.5731 20.5712 45.592 20.476C45.609 20.3697 45.6392 20.2727 45.6562 20.1663C45.6733 20.06 45.6568 19.9591 45.6757 19.864C45.6909 19.7464 45.7434 19.6457 45.753 19.5636C45.7869 19.42 45.791 19.3043 45.8154 19.2427C45.8582 19.2932 45.9214 19.3979 45.9976 19.512C46.0459 19.5961 46.1055 19.6784 46.1687 19.7831C46.217 19.8672 46.2765 19.9495 46.3267 20.0448C46.3768 20.1402 46.427 20.2355 46.4883 20.329C46.5385 20.4243 46.5868 20.5084 46.637 20.6037C46.6871 20.6991 46.7167 20.8093 46.7669 20.9046C46.817 20.9999 46.8971 21.0673 46.9473 21.1627C46.9974 21.258 47.0476 21.3533 47.0977 21.4486C47.1461 21.5328 47.1644 21.6448 47.2146 21.7401C47.2648 21.8354 47.3355 21.9159 47.3838 22C47.4358 22.1065 47.4747 22.2037 47.5231 22.2878C47.5863 22.3925 47.6252 22.4897 47.6717 22.5626C47.7386 22.6897 47.7999 22.7832 47.8427 22.8337C47.7755 22.8447 47.6765 22.8725 47.5421 22.8945ZM55.2165 23.1543C55.0841 23.1185 54.9402 23.1536 54.8058 23.1757C54.7161 23.1904 54.6247 23.1939 54.5238 23.2104C54.436 23.2363 54.3446 23.2398 54.2549 23.2545C54.1671 23.2804 54.07 23.3194 53.9803 23.3341C53.9243 23.3433 53.8179 23.3262 53.6723 23.3501C53.5827 23.3648 53.4855 23.4038 53.3734 23.4222C53.2726 23.4387 53.1718 23.4552 53.0709 23.4718C52.9701 23.4883 52.8656 23.4825 52.7647 23.499C52.6639 23.5155 52.5518 23.5339 52.4622 23.5486C52.3502 23.567 52.2475 23.5724 52.1578 23.5871C52.0458 23.6054 51.9374 23.6462 51.859 23.6591C51.6685 23.6903 51.6757 23.8042 51.5658 23.6957C51.4448 23.589 51.5232 23.5761 51.4938 23.3968C51.4885 23.2942 51.4943 23.1896 51.4778 23.0888C51.4649 23.0104 51.4484 22.9095 51.4282 22.7863C51.4135 22.6966 51.4081 22.594 51.3897 22.4819C51.3862 22.3905 51.3361 22.2951 51.3195 22.1943C51.303 22.0934 51.3089 21.9889 51.2923 21.8881C51.2758 21.7872 51.248 21.6882 51.2315 21.5874C51.2149 21.4866 51.232 21.3802 51.2155 21.2794C51.1989 21.1785 51.1506 21.0944 51.1322 20.9824C51.1175 20.8927 51.1234 20.7882 51.1068 20.6874C51.0903 20.5865 51.0738 20.4857 51.0684 20.383C51.0519 20.2822 51.0129 20.185 51.0076 20.0823C50.991 19.9815 50.9745 19.8806 50.9598 19.791C50.9432 19.6902 50.9379 19.5875 50.9214 19.4867C50.9048 19.3858 50.8771 19.2868 50.8605 19.186C50.844 19.0851 50.8499 18.9806 50.8352 18.891C50.8168 18.7789 50.8021 18.6893 50.7855 18.5885C50.7671 18.4764 50.7188 18.3923 50.7041 18.3027C50.6839 18.1794 50.6674 18.0786 50.6545 18.0001C50.6416 17.9217 50.6605 17.8266 50.6477 17.7481C50.6348 17.6697 50.5995 17.5949 50.5754 17.5183C50.5607 17.4287 50.4917 17.4285 50.3984 17.4208C50.3051 17.4131 50.2154 17.4278 50.1594 17.437C50.0716 17.4629 49.8383 17.4437 49.862 17.6584C49.8637 17.7387 49.8821 17.8507 49.9005 17.9628C49.9282 18.0618 49.9223 18.1663 49.9389 18.2671C49.9462 18.3119 49.9964 18.4073 50.0203 18.5529C50.0332 18.6313 50.0273 18.7359 50.0457 18.8479C50.0604 18.9375 50.0993 19.0347 50.1177 19.1467C50.1324 19.2364 50.1153 19.3427 50.1207 19.4454C50.1372 19.5463 50.1631 19.6341 50.1797 19.7349C50.1962 19.8357 50.2352 19.9329 50.2517 20.0337C50.2683 20.1346 50.2606 20.2279 50.2771 20.3287C50.2936 20.4296 50.3326 20.5267 50.3491 20.6276C50.3657 20.7284 50.371 20.8311 50.3857 20.9207C50.4023 21.0216 50.3964 21.1261 50.4129 21.2269C50.4295 21.3278 50.4572 21.4268 50.4719 21.5164C50.4885 21.6172 50.505 21.7181 50.5197 21.8077C50.5363 21.9086 50.5416 22.0112 50.5582 22.1121C50.5747 22.2129 50.6137 22.3101 50.6284 22.3997C50.6449 22.5006 50.6727 22.5996 50.6892 22.7004C50.7057 22.8012 50.7111 22.9039 50.7258 22.9936C50.7423 23.0944 50.7589 23.1952 50.7736 23.2849C50.792 23.3969 50.7973 23.4996 50.812 23.5892C50.8341 23.7237 50.8618 23.8227 50.8822 23.8769C50.8951 23.9553 50.8892 24.0598 50.9076 24.1719C50.9241 24.2727 50.9407 24.3735 50.9535 24.452C50.9534 24.521 51.0186 24.5679 51.0858 24.5568C51.1642 24.544 51.2632 24.5162 51.3753 24.4979C51.4761 24.4813 51.577 24.4648 51.6666 24.4501C51.7226 24.4409 51.8347 24.4225 51.9691 24.4004C52.0587 24.3857 52.1614 24.3804 52.2735 24.362C52.3743 24.3455 52.4733 24.3177 52.5742 24.3012C52.675 24.2846 52.7907 24.2887 52.8916 24.2721C52.9924 24.2556 53.0896 24.2166 53.1904 24.2001C53.3024 24.1817 53.4033 24.1652 53.5041 24.1486C53.605 24.1321 53.7095 24.1379 53.8103 24.1214C53.9205 24.0918 54.0177 24.0529 54.1073 24.0381C54.2306 24.0179 54.3351 24.0238 54.4247 24.0091C54.5592 23.987 54.66 23.9705 54.7254 23.9483C54.8375 23.9299 54.9234 23.8928 55.0131 23.8781C55.1121 23.8503 55.2166 23.8562 55.3101 23.7948C55.383 23.7483 55.3554 23.5803 55.3407 23.4906C55.3242 23.3898 55.3135 23.1844 55.2165 23.1543ZM56.6141 19.6688C56.5994 19.5792 56.5941 19.4765 56.5757 19.3645C56.5591 19.2636 56.5314 19.1646 56.5148 19.0638C56.4983 18.9629 56.4594 18.8658 56.441 18.7537C56.4244 18.6529 56.4303 18.5484 56.4137 18.4475C56.3972 18.3467 56.3695 18.2477 56.3529 18.1469C56.3364 18.046 56.3516 17.9285 56.3369 17.8388C56.3185 17.7268 56.2908 17.6278 56.2742 17.5269C56.2577 17.4261 56.2169 17.3177 56.2022 17.2281C56.182 17.1048 56.1766 17.0022 56.1638 16.9237C56.1344 16.7445 56.0842 16.6491 56.0396 16.5874C55.9652 16.4846 55.883 16.475 55.7131 16.4914C55.5451 16.519 55.433 16.5373 55.3954 16.6586C55.3728 16.7313 55.393 16.8546 55.4112 17.0357C55.4241 17.1141 55.463 17.2113 55.4833 17.3345C55.498 17.4242 55.5145 17.525 55.5329 17.637C55.5476 17.7267 55.5641 17.8275 55.5713 17.9414C55.586 18.031 55.5914 18.1337 55.6097 18.2458C55.6263 18.3466 55.654 18.4456 55.6706 18.5464C55.6871 18.6473 55.7149 18.7463 55.7314 18.8471C55.748 18.948 55.7309 19.0543 55.7474 19.1552C55.764 19.256 55.8141 19.3513 55.8307 19.4522C55.8472 19.553 55.8526 19.6557 55.8709 19.7677C55.8875 19.8686 55.8928 19.9713 55.9094 20.0721C55.9147 20.1748 55.9649 20.2701 55.9814 20.3709C55.9979 20.4718 55.9809 20.5781 55.9862 20.6808C56.0028 20.7817 56.0305 20.8807 56.047 20.9815C56.0636 21.0823 56.1025 21.1795 56.1191 21.2803C56.1356 21.3812 56.1298 21.4857 56.1463 21.5865C56.1628 21.6874 56.2018 21.7845 56.2183 21.8854C56.2349 21.9862 56.2402 22.0889 56.2568 22.1897C56.2733 22.2906 56.2674 22.3951 56.284 22.4959C56.3024 22.608 56.3301 22.707 56.3448 22.7966C56.3632 22.9087 56.3797 23.0095 56.3944 23.0991C56.411 23.2 56.3939 23.3063 56.4215 23.4744C56.4415 23.6667 56.6899 23.6375 56.7571 23.6265C56.8579 23.6099 56.9569 23.5822 57.0447 23.5563C57.1531 23.5155 57.2279 23.4802 57.2132 23.3906C57.1872 23.3028 57.1744 23.2243 57.1634 23.1571C57.1486 23.0675 57.1582 22.9854 57.1472 22.9181C57.1343 22.8397 57.1065 22.7407 57.0882 22.6286C57.0735 22.539 57.0793 22.4345 57.0609 22.3225C57.0462 22.2328 57.0185 22.1338 57.0019 22.033C56.9854 21.9321 56.9819 21.8407 56.9654 21.7398C56.9488 21.639 56.9211 21.54 56.9045 21.4391C56.888 21.3383 56.8733 21.2487 56.8567 21.1478C56.8402 21.047 56.8124 20.948 56.7977 20.8583C56.7812 20.7575 56.7759 20.6548 56.7593 20.554C56.7428 20.4531 56.715 20.3541 56.7003 20.2645C56.6801 20.1413 56.699 20.0461 56.6861 19.9677C56.6751 19.9004 56.6343 19.7921 56.6141 19.6688ZM63.0339 16.1188C63.0155 16.0068 62.9877 15.9078 62.973 15.8182C62.9473 15.6613 62.9177 15.5511 62.8731 15.4894C62.8099 15.3847 62.7241 15.3527 62.5578 15.3915C62.4701 15.4174 62.3486 15.4488 62.2085 15.5064C62.2195 15.5736 62.2603 15.682 62.2824 15.8164C62.284 15.8967 62.2782 16.0012 62.2853 16.1151C62.3001 16.2047 62.339 16.3019 62.3555 16.4027C62.3721 16.5036 62.3774 16.6062 62.394 16.7071C62.4105 16.8079 62.4028 16.9012 62.4194 17.0021C62.4359 17.1029 62.4524 17.2037 62.469 17.3046C62.4743 17.4073 62.4909 17.5081 62.5056 17.5977C62.5221 17.6986 62.5611 17.7957 62.5776 17.8966C62.5829 17.9993 62.5883 18.1019 62.6048 18.2028C62.6195 18.2924 62.6585 18.3896 62.675 18.4904C62.6916 18.5913 62.6857 18.6958 62.7004 18.7854C62.7058 18.8881 62.7335 18.9871 62.75 19.0879C62.7666 19.1888 62.7607 19.2933 62.7754 19.3829C62.792 19.4838 62.8309 19.5809 62.8475 19.6818C62.8528 19.7845 62.8581 19.8871 62.8728 19.9768C62.8912 20.0888 62.9059 20.1784 62.9206 20.2681C62.939 20.3801 62.9219 20.4865 62.9254 20.578C62.9549 20.7572 62.9863 20.8786 62.9751 20.8805C62.8612 20.8877 62.7218 20.6689 62.6622 20.5866C62.5915 20.5062 62.532 20.4239 62.4743 20.3528C62.4036 20.2724 62.3235 20.205 62.2527 20.1245C62.182 20.0441 62.1225 19.9618 62.0536 19.8925C61.9829 19.8121 61.9234 19.7298 61.8526 19.6494C61.7837 19.5801 61.6924 19.5146 61.6217 19.4341C61.5528 19.3649 61.4915 19.2714 61.4226 19.2022C61.3518 19.1217 61.283 19.0525 61.2122 18.972C61.1321 18.9046 61.0427 18.8503 60.9719 18.7698C60.9031 18.7006 60.823 18.6332 60.7522 18.5527C60.6721 18.4853 60.622 18.39 60.5513 18.3096C60.4824 18.2403 60.3929 18.186 60.311 18.1073C60.2421 18.0381 60.1732 17.9689 60.1025 17.8884C60.0336 17.8192 59.9629 17.7387 59.8921 17.6583C59.8232 17.589 59.7637 17.5068 59.693 17.4263C59.6223 17.3459 59.5534 17.2766 59.4826 17.1962C59.4138 17.1269 59.3524 17.0335 59.2947 16.9624C59.224 16.8819 59.1327 16.8164 59.0638 16.7471C58.9931 16.6667 58.9429 16.5714 58.874 16.5021C58.8033 16.4217 58.7232 16.3543 58.6637 16.272C58.5781 16.171 58.5241 16.1223 58.4401 16.1016C58.3692 16.0902 58.2908 16.103 58.1582 16.1363C57.8762 16.1711 57.8931 16.1338 57.9132 16.3261C57.9242 16.3933 57.9407 16.4941 57.9628 16.6286C57.9775 16.7182 57.994 16.8191 58.0124 16.9311C58.0271 17.0208 58.01 17.1271 58.0284 17.2392C58.0431 17.3288 58.0821 17.426 58.1005 17.538C58.117 17.6388 58.1448 17.7378 58.1613 17.8387C58.1778 17.9395 58.1608 18.0459 58.1773 18.1467C58.1939 18.2476 58.2216 18.3466 58.2382 18.4474C58.2547 18.5482 58.26 18.6509 58.2896 18.7611C58.3062 18.862 58.3339 18.961 58.3505 19.0618C58.367 19.1626 58.3947 19.2617 58.4113 19.3625C58.4278 19.4633 58.4332 19.566 58.4497 19.6669C58.4663 19.7677 58.4604 19.8722 58.4769 19.973C58.4935 20.0739 58.5436 20.1692 58.5602 20.2701C58.5767 20.3709 58.5933 20.4717 58.6098 20.5726C58.6263 20.6734 58.6317 20.7761 58.6482 20.8769C58.6666 20.989 58.6944 21.088 58.7091 21.1776C58.7293 21.3009 58.757 21.3999 58.7587 21.4801C58.7734 21.5698 58.7787 21.6725 58.7953 21.7733C58.8118 21.8741 58.8396 21.9731 58.8561 22.074C58.8727 22.1748 58.8556 22.2812 58.8703 22.3708C58.8868 22.4716 58.937 22.567 58.9535 22.6678C58.9701 22.7687 58.9642 22.8732 58.9808 22.974C59.001 23.0973 59.1259 23.1573 59.2659 23.1689C59.3946 23.1823 59.5309 23.1714 59.643 23.153C59.8689 23.1275 59.7589 23.088 59.7296 22.8396C59.7186 22.7724 59.7039 22.6828 59.6892 22.5932C59.6726 22.4923 59.6579 22.4027 59.6469 22.3354C59.6228 22.2589 59.5951 22.1599 59.573 22.0254C59.5583 21.9358 59.553 21.8331 59.5328 21.7098C59.5069 21.622 59.4773 21.5118 59.4607 21.411C59.4442 21.3102 59.4258 21.1981 59.4093 21.0973C59.3927 20.9964 59.3762 20.8956 59.3578 20.7835C59.3412 20.6827 59.3247 20.5819 59.3063 20.4698C59.2898 20.369 59.2732 20.2681 59.2549 20.1561C59.2383 20.0552 59.2218 19.9544 59.2052 19.8536C59.1868 19.7415 59.1591 19.6425 59.1426 19.5417C59.126 19.4408 59.1188 19.327 59.1023 19.2261C59.0857 19.1253 59.1028 19.0189 59.0863 18.9181C59.0679 18.806 59.0289 18.7089 59.0124 18.608C58.994 18.496 58.9775 18.3951 58.9609 18.2943C58.9407 18.1711 58.9223 18.059 58.9113 17.9918C58.8984 17.9134 58.8483 17.818 58.9285 17.8164C58.964 17.8221 59.0441 17.8895 59.1297 17.9905C59.1743 18.0522 59.2339 18.1345 59.2915 18.2056C59.3492 18.2766 59.3976 18.3608 59.4422 18.4225C59.485 18.473 59.5651 18.5404 59.6507 18.6414C59.7178 18.6994 59.7866 18.7687 59.8704 18.8585C59.9281 18.9296 59.9783 19.0249 60.0471 19.0941C60.1179 19.1746 60.2167 19.2159 60.2874 19.2963C60.3563 19.3656 60.4158 19.4479 60.4959 19.5153C60.5667 19.5957 60.615 19.6798 60.6857 19.7603C60.7546 19.8295 60.8441 19.8839 60.9129 19.9531C60.9837 20.0336 61.0338 20.1289 61.1046 20.2093C61.1734 20.2786 61.2423 20.3478 61.3112 20.4171C61.3819 20.4975 61.4714 20.5519 61.5403 20.6211C61.611 20.7015 61.6705 20.7838 61.7394 20.8531C61.8102 20.9335 61.8996 20.9879 61.9685 21.0571C62.0392 21.1376 62.0988 21.2198 62.1677 21.2891C62.2384 21.3695 62.2867 21.4536 62.3556 21.5229C62.4375 21.6015 62.5176 21.6689 62.5735 21.7288C62.6572 21.8186 62.7261 21.8878 62.7838 21.9589C62.8788 22.0469 62.9289 22.1422 62.9717 22.1927C63.0685 22.2919 63.1729 22.3668 63.2736 22.4193C63.3742 22.4719 63.4824 22.5001 63.6393 22.4744C63.7849 22.4505 63.841 22.4413 63.8672 22.391C63.9047 22.3388 63.8824 22.2734 63.8604 22.139C63.8587 22.0587 63.8534 21.956 63.8462 21.8421C63.8315 21.7525 63.8038 21.6535 63.7854 21.5415C63.7688 21.4406 63.7765 21.3473 63.7694 21.2334C63.7547 21.1438 63.7269 21.0448 63.7197 20.9309C63.705 20.8413 63.6997 20.7386 63.6813 20.6265C63.6666 20.5369 63.6389 20.4379 63.6223 20.3371C63.617 20.2344 63.6004 20.1335 63.5839 20.0327C63.5786 19.93 63.5508 19.831 63.5343 19.7302C63.5177 19.6293 63.5124 19.5267 63.507 19.424C63.4905 19.3231 63.4627 19.2241 63.4462 19.1233C63.4409 19.0206 63.4467 18.9161 63.4302 18.8153C63.4136 18.7144 63.3765 18.6285 63.3712 18.5258C63.3547 18.425 63.3381 18.3241 63.3216 18.2233C63.305 18.1224 63.3109 18.0179 63.2943 17.9171C63.2778 17.8162 63.2501 17.7172 63.2353 17.6276C63.217 17.5156 63.2247 17.4222 63.2081 17.3214C63.1916 17.2206 63.1862 17.1179 63.1697 17.017C63.1532 16.9162 63.1142 16.819 63.0977 16.7182C63.0811 16.6174 63.0982 16.511 63.0835 16.4214C63.0651 16.3093 63.0486 16.2085 63.0339 16.1188ZM70.9121 18.0941C70.8918 17.9709 70.8716 17.8476 70.8009 17.7672C70.7283 17.6755 70.6295 17.6342 70.482 17.6469C70.4036 17.6598 70.3027 17.6763 70.2019 17.6928C70.1123 17.7076 70.0096 17.7129 69.9087 17.7294C69.8079 17.746 69.7071 17.7625 69.6062 17.7791C69.5166 17.7938 69.4102 17.7767 69.3094 17.7932C69.2198 17.8079 69.1171 17.8133 69.0162 17.8298C68.9266 17.8445 68.8294 17.8835 68.7286 17.9C68.6278 17.9166 68.5418 17.9537 68.441 17.9702C68.3401 17.9868 68.2468 17.9791 68.1572 17.9938C68.0451 18.0122 67.948 18.0511 67.8695 18.064C67.7817 18.0899 67.7551 18.2783 67.7605 18.381C67.7676 18.4949 67.8046 18.6499 67.9164 18.7006C68.0059 18.755 68.1684 18.6938 68.2935 18.6848C68.3608 18.6737 68.4634 18.6684 68.5979 18.6464C68.6987 18.6298 68.7977 18.6021 68.9098 18.5837C69.0106 18.5671 69.117 18.5842 69.229 18.5658C69.3299 18.5493 69.4325 18.5439 69.5334 18.5274C69.6454 18.509 69.7444 18.4813 69.8453 18.4647C69.9685 18.4445 70.0787 18.4149 70.146 18.4039C70.1476 18.4842 70.1417 18.5887 70.1377 18.7044C70.1282 18.7865 70.1223 18.891 70.1052 18.9974C70.0975 19.0907 70.0786 19.1858 70.0504 19.294C70.0314 19.3892 70.0256 19.4937 70.0067 19.5889C69.9747 19.6746 69.9334 19.7735 69.8921 19.8723C69.8601 19.9581 69.83 20.0551 69.7869 20.1427C69.7325 20.2321 69.6633 20.301 69.6089 20.3905C69.5527 20.4687 69.4983 20.5582 69.4291 20.6271C69.3599 20.696 69.2776 20.7555 69.1953 20.815C69.1242 20.8727 69.0419 20.9322 68.9466 20.9824C68.8625 21.0307 68.7802 21.0902 68.683 21.1292C68.5952 21.1551 68.4962 21.1828 68.3954 21.1994C68.2946 21.2159 68.19 21.2101 68.0967 21.2024C67.9941 21.2077 67.8914 21.213 67.7962 21.1941C67.6899 21.1771 67.6041 21.1451 67.5071 21.115C67.4083 21.0737 67.3225 21.0417 67.233 20.9874C67.1454 20.9442 67.0672 20.888 66.9777 20.8337C66.8994 20.7775 66.8399 20.6952 66.7598 20.6278C66.6909 20.5585 66.6033 20.5154 66.5326 20.4349C66.4749 20.3639 66.4042 20.2834 66.3465 20.2123C66.287 20.13 66.2592 20.031 66.2109 19.9469C66.1514 19.8646 66.0919 19.7824 66.0435 19.6982C65.9934 19.6029 65.9451 19.5188 65.9079 19.4328C65.8578 19.3375 65.8412 19.2367 65.8153 19.1489C65.7764 19.0517 65.7281 18.9676 65.7003 18.8686C65.6838 18.7677 65.6579 18.6799 65.6413 18.5791C65.6248 18.4783 65.6306 18.3737 65.6141 18.2729C65.6088 18.1702 65.5922 18.0694 65.5869 17.9667C65.5815 17.864 65.5762 17.7613 65.5709 17.6587C65.5767 17.5541 65.6068 17.4572 65.6127 17.3526C65.6186 17.2481 65.602 17.1473 65.6209 17.0521C65.638 16.9458 65.6681 16.8488 65.6982 16.7518C65.7265 16.6436 65.7697 16.556 65.8128 16.4684C65.8541 16.3695 65.873 16.2744 65.9274 16.1849C65.9706 16.0973 66.038 16.0172 66.1054 15.9371C66.1616 15.8589 66.229 15.7788 66.3094 15.708C66.3787 15.6392 66.4591 15.5684 66.5414 15.5089C66.6255 15.4606 66.719 15.3992 66.8162 15.3603C66.9021 15.3232 67.016 15.316 67.115 15.2882C67.2028 15.2623 67.2963 15.201 67.4083 15.1826C67.5204 15.1642 67.6249 15.1701 67.7276 15.1647C67.8415 15.1576 67.9535 15.1392 68.058 15.145C68.1756 15.1603 68.265 15.2146 68.362 15.2447C68.4814 15.2712 68.5859 15.277 68.6848 15.3184C68.7854 15.3709 68.8767 15.4365 68.955 15.4926C69.0575 15.5564 69.1488 15.6219 69.2158 15.68C69.3387 15.7979 69.4113 15.8895 69.4486 15.9064C69.5511 15.9702 69.635 15.9909 69.7135 15.978C69.7807 15.967 69.8648 15.9187 69.9416 15.8256C70.0071 15.7343 70.0167 15.6521 70.0281 15.5812C70.0358 15.4879 70.0359 15.4189 69.954 15.3403C69.8963 15.2692 69.8181 15.213 69.738 15.1456C69.6691 15.0763 69.6096 14.9941 69.5313 14.9379C69.4643 14.8798 69.3748 14.8255 69.2853 14.7711C69.2089 14.7261 69.1213 14.683 69.0225 14.6416C68.9367 14.6097 68.8491 14.5665 68.7539 14.5476C68.6569 14.5175 68.5618 14.4986 68.4685 14.4909C68.3733 14.472 68.2745 14.4307 68.17 14.4248C68.0767 14.4171 67.9795 14.4561 67.8768 14.4614C67.7854 14.4649 67.6808 14.459 67.58 14.4756C67.4885 14.4791 67.3934 14.4602 67.2925 14.4767C67.1805 14.4951 67.0852 14.5452 66.9974 14.5712C66.8984 14.5989 66.7975 14.6154 66.6985 14.6432C66.6014 14.6821 66.5023 14.7099 66.4164 14.747C66.3211 14.7972 66.2257 14.8473 66.1435 14.9068C66.0593 14.9552 65.9919 15.0353 65.9096 15.0948C65.8274 15.1543 65.732 15.2045 65.6628 15.2733C65.5954 15.3534 65.528 15.4335 65.4718 15.5118C65.4044 15.5919 65.3743 15.6889 65.3199 15.7783C65.2656 15.8678 65.2224 15.9554 65.1811 16.0542C65.1379 16.1419 65.0836 16.2313 65.0535 16.3283C65.0233 16.4253 64.9932 16.5223 64.9762 16.6286C64.946 16.7256 64.9271 16.8208 64.9101 16.9271C64.9024 17.0204 64.8965 17.125 64.8906 17.2295C64.8848 17.334 64.8659 17.4291 64.86 17.5337C64.8541 17.6382 64.8371 17.7445 64.8424 17.8472C64.8459 17.9387 64.8643 18.0507 64.8808 18.1516C64.8862 18.2542 64.9139 18.3532 64.9192 18.4559C64.9358 18.5568 64.9523 18.6576 64.9689 18.7584C64.9854 18.8593 65.0132 18.9583 65.0297 19.0591C65.0575 19.1581 65.0404 19.2645 65.07 19.3747C65.0977 19.4737 65.1572 19.556 65.1962 19.6531C65.2351 19.7503 65.2423 19.8642 65.2794 19.9502C65.3296 20.0455 65.3798 20.1408 65.4299 20.2361C65.467 20.3221 65.5172 20.4174 65.5673 20.5127C65.6269 20.595 65.6976 20.6755 65.7571 20.7578C65.8166 20.84 65.8874 20.9205 65.9469 21.0028C66.0176 21.0832 66.0883 21.1637 66.1572 21.2329C66.2373 21.3003 66.3268 21.3547 66.4181 21.4202C66.4963 21.4764 66.5764 21.5438 66.6753 21.5851C66.7647 21.6395 66.8523 21.6827 66.9512 21.724C67.05 21.7653 67.1545 21.7712 67.2627 21.7994C67.3597 21.8295 67.4567 21.8597 67.563 21.8767C67.6563 21.8844 67.7684 21.866 67.8729 21.8719C67.9756 21.8666 68.0838 21.8949 68.1865 21.8895C68.2891 21.8842 68.39 21.8676 68.502 21.8492C68.6029 21.8327 68.6982 21.7825 68.7972 21.7548C68.8962 21.7271 69.0101 21.7199 69.0979 21.694C69.2062 21.6532 69.3034 21.6142 69.3875 21.5659C69.4828 21.5158 69.5502 21.4357 69.6456 21.3855C69.7279 21.326 69.8232 21.2758 69.9036 21.2051C69.9747 21.1474 70.0664 21.0748 70.1356 21.006C70.203 20.9259 70.2443 20.827 70.2987 20.7376C70.3661 20.6575 70.4465 20.5868 70.5009 20.4973C70.5552 20.4078 70.5723 20.3015 70.6136 20.2027C70.6568 20.115 70.6981 20.0162 70.7394 19.9174C70.7695 19.8204 70.7996 19.7234 70.8186 19.6283C70.8468 19.5201 70.8882 19.4212 70.9071 19.3261C70.9241 19.2197 70.9188 19.117 70.9359 19.0107C70.9417 18.9062 70.9718 18.8092 70.9665 18.7065C70.9724 18.602 70.9782 18.4975 70.9729 18.3948C70.9676 18.2921 70.9286 18.195 70.9121 18.0941Z" fill="#E9E7CF"/>
<path d="M45.483 47.7126C47.7835 46.6799 49.4908 44.1819 49.9468 41.738C50.0216 41.272 50.0638 40.761 49.9627 40.2987C49.5652 40.6412 49.1963 41.0042 48.856 41.3876C48.5526 41.6894 48.2779 42.0118 48.0031 42.3341C47.917 42.4238 47.8554 42.5095 47.8184 42.5912C47.8813 43.589 47.7684 44.5905 47.4144 45.5055C46.9642 45.6802 46.4693 45.7362 45.9704 45.7676C45.3162 45.7741 44.6663 45.6539 44.0455 45.4029C43.4777 45.1684 42.9635 44.7991 42.5353 44.34C42.1317 43.877 41.8307 43.2711 41.5868 42.7062C41.3389 42.1168 41.136 41.4948 40.9822 40.8647C40.6586 39.5064 40.4536 38.1034 40.449 36.6927C40.4195 35.4374 40.5332 34.1334 40.9942 32.9488C41.162 32.896 41.3543 32.8393 41.5261 32.8111C41.8697 32.7547 42.2214 32.7475 42.5811 32.7893C43.2514 32.8809 43.8272 33.1645 44.329 33.6115C44.5982 33.8697 44.8469 34.1566 45.071 34.4475C45.1077 34.5171 45.1402 34.5621 45.1769 34.6317C45.2054 34.6523 45.2666 34.7178 45.2747 34.7669C45.3688 34.7263 45.4344 34.6651 45.5205 34.5754C45.582 34.4897 45.6681 34.3999 45.7582 34.3347C45.9755 34.1227 46.1887 33.8861 46.4019 33.6495C46.7053 33.3477 47.0046 33.0213 47.2794 32.699C47.3409 32.6133 47.4025 32.5276 47.464 32.4419C47.4519 32.3682 47.3662 32.3067 47.3582 32.2576C47.2604 32.1224 47.138 31.9913 47.0403 31.8561C46.6612 31.389 46.1839 30.938 45.6162 30.7035C45.2935 30.58 44.9788 30.5056 44.6437 30.4598C44.4884 30.4349 44.3125 30.4385 44.1367 30.4421C43.9894 30.4663 43.8136 30.4699 43.6664 30.4941C43.3268 30.575 42.9953 30.705 42.6678 30.8596C42.508 30.9614 42.3483 31.0632 42.2131 31.161C41.9878 31.324 41.7951 31.532 41.6229 31.7115C41.4713 31.8624 41.2951 32.0173 41.1434 32.1682C40.4997 32.8535 39.8069 33.5468 39.2856 34.3632C39.0844 34.6735 38.9119 35.0042 38.7884 35.3269C38.2985 36.6423 38.2089 38.0936 38.2626 39.4962C38.3122 40.8743 38.5172 42.2772 38.9145 43.6235C39.0928 44.2495 39.2956 44.8715 39.5967 45.4774C39.8651 46.0383 40.1991 46.538 40.6478 46.9684C41.5125 47.7843 42.9792 48.2746 44.2063 48.0733C44.6521 48.0254 45.0573 47.8833 45.483 47.7126Z" fill="#E9E7CF"/>
<path d="M60.6312 32.2728C60.1108 31.098 59.3446 30.1148 58.2055 29.4699C57.0949 28.8456 55.6971 28.6212 54.4454 28.8266C54.1263 28.8789 53.8113 28.9558 53.5003 29.0572C53.3611 29.1305 53.1973 29.2078 53.0581 29.281C52.964 29.3217 52.8984 29.3828 52.8328 29.444C52.2386 29.9699 51.685 30.59 51.2091 31.2226C50.9629 31.5654 50.7332 31.8551 50.5116 32.1939C50.4295 32.3082 50.0151 32.8551 50.0353 32.9778L52.2699 46.5992L52.315 46.5666C52.2944 46.5952 52.2739 46.6238 52.278 46.6483C52.3025 46.6443 52.327 46.6403 52.3516 46.6362C52.4988 46.6121 52.6461 46.5879 52.7688 46.5678C53.1861 46.4993 53.5747 46.4104 53.9919 46.3419C54.7447 46.168 55.4975 45.9941 56.1569 45.5583C56.8204 45.147 57.3655 44.6291 57.9026 44.0621C59.5017 42.2876 60.472 40.2129 60.9686 37.8631C61.2171 36.6126 61.3308 35.3085 61.1255 34.0568C61.0248 33.4432 60.8751 32.8377 60.6312 32.2728ZM59.0134 39.7717C58.7894 41.0182 58.3816 42.2193 57.8554 43.3138C57.8019 43.4486 57.7198 43.5628 57.6663 43.6976C57.126 43.9375 56.5165 44.0627 55.9109 44.2124C55.371 44.301 54.6633 44.4423 54.1193 44.5064L51.9289 31.1549C52.1172 31.0736 52.3301 30.9883 52.551 30.952C53.9049 30.7551 55.7396 31.185 56.8293 31.9892C57.5721 32.5227 58.0772 33.2967 58.439 34.1195C59.2358 35.9043 59.3576 37.8754 59.0134 39.7717Z" fill="#E9E7CF"/>
<path d="M73.1971 32.3033C73.0107 31.6282 72.7998 30.9571 72.5193 30.3226C72.2388 29.6881 71.8886 29.0902 71.4935 28.525C70.7071 27.419 69.4581 26.5653 68.0434 26.5454C67.7409 26.5446 67.4178 26.5724 67.1028 26.6493C66.7917 26.7507 66.4888 26.9012 66.2184 27.0968C65.9481 27.2924 65.7103 27.533 65.4725 27.7737C65.407 27.8348 65.3619 27.8674 65.3209 27.9246C65.2963 27.9286 65.3004 27.9531 65.3004 27.9531C65.1447 28.0795 65.0135 28.2018 64.8618 28.3527C64.538 28.6831 64.1936 29.042 63.8738 29.3969C63.636 29.6376 63.3982 29.8782 63.2176 30.1599C63.1971 30.1885 63.1766 30.217 63.1561 30.2456C63.0575 30.413 62.9429 30.4822 62.8974 30.6661C62.6464 31.2869 62.5342 31.9858 62.4957 32.6727C62.4326 33.3635 62.4757 34.0873 62.5394 34.7826C62.6236 35.4493 62.7568 36.1079 62.9392 36.7585C63.1255 37.4337 63.3364 38.1048 63.621 38.7638C63.7715 39.0667 63.922 39.3697 64.0725 39.6726C64.2476 39.9716 64.4431 40.2419 64.6387 40.5123C64.8383 40.8072 65.0584 41.0735 65.3031 41.3358C65.5192 41.5776 65.7844 41.8114 66.021 42.0246C66.5228 42.4715 67.0656 42.8614 67.6454 43.1695C67.9231 43.3256 68.2212 43.4531 68.5359 43.5275C68.8791 43.6224 69.2183 43.6928 69.582 43.7591C69.6762 43.7185 69.7417 43.6573 69.8278 43.5676C69.8894 43.4819 69.9755 43.3921 70.0656 43.3269C70.2829 43.1149 70.5206 42.8742 70.7338 42.6376C70.9716 42.397 71.2053 42.1318 71.4391 41.8666C71.4841 41.834 71.5046 41.8055 71.5252 41.7769C71.6113 41.6872 71.7014 41.622 71.7629 41.5363C72.0047 41.3202 72.2179 41.0836 72.4312 40.847C72.7345 40.5452 73.0093 40.2228 73.284 39.9005C73.3742 39.8353 73.4357 39.7496 73.4687 39.6434C73.7699 38.5606 73.8627 37.4364 73.8288 36.3078C73.7832 34.9543 73.5863 33.6004 73.1971 32.3033ZM71.6406 38.179C71.691 39.2545 71.6393 40.3216 71.4322 41.3637C71.4076 41.3677 71.3831 41.3718 71.3831 41.3718C71.0439 41.3014 70.7047 41.231 70.378 41.083C70.0838 40.98 69.8102 40.8485 69.5286 40.6678C68.9692 40.3311 68.4224 39.9168 67.9452 39.4658C67.7045 39.228 67.4393 38.9943 67.2192 38.728C66.9991 38.4616 66.8035 38.1913 66.6039 37.8964C66.2087 37.3311 65.9037 36.7006 65.6763 36.0827C65.1603 34.7811 64.7916 33.4554 64.6889 32.0608C64.6497 31.3616 64.6106 30.6623 64.6983 29.9674C64.7441 29.6322 64.8145 29.293 64.9174 28.9989C65.0607 28.9502 65.2284 28.8975 65.4043 28.8938C65.7519 28.862 66.1036 28.8547 66.4142 28.9046C66.7534 28.9749 67.0475 29.0779 67.3457 29.2054C67.6724 29.3535 67.9786 29.5301 68.2643 29.7352C68.554 29.9649 68.7987 30.2272 69.0474 30.5141C69.2635 30.7559 69.4385 31.0548 69.6341 31.3252C69.8051 31.5996 69.9802 31.8985 70.1307 32.2014C70.4358 32.8319 70.6712 33.499 70.8821 34.1701C71.2959 35.4632 71.5419 36.809 71.6406 38.179Z" fill="#E9E7CF"/>
</svg>
